<svg width="18" height="20" viewBox="0 0 18 20" fill="none" xmlns="http://www.w3.org/2000/svg">
<path d="M8.33811 19.5983L0.485366 11.8133C0.148833 11.4749 0.150336 10.9499 0.488801 10.6133C0.827266 10.2768 1.35226 10.2783 1.6888 10.6168L8.08324 16.9351L8.12886 0.997658C8.13014 0.54766 8.50622 0.173735 8.95621 0.175023C9.40621 0.176311 9.81764 0.55249 9.81635 1.00249L9.77052 17.0149L16.2762 10.6585C16.6147 10.322 17.1397 10.3235 17.4762 10.662C17.6258 10.8124 17.7002 11.0376 17.6995 11.2626C17.6989 11.4876 17.6232 11.7124 17.4353 11.8618L9.53811 19.6018C9.19964 19.9383 8.67465 19.9368 8.33811 19.5983Z" fill="#111928"/>
</svg>
