<svg width="396" height="364" viewBox="0 0 396 364" fill="none" xmlns="http://www.w3.org/2000/svg">
<path d="M396 302.595H0V302.793H396V302.595Z" fill="#EBEBEB"/>
<path d="M356.321 315.327H330.09V315.525H356.321V315.327Z" fill="#EBEBEB"/>
<path d="M262.326 317.479H255.444V317.677H262.326V317.479Z" fill="#EBEBEB"/>
<path d="M329.298 307.984H314.099V308.182H329.298V307.984Z" fill="#EBEBEB"/>
<path d="M75.7548 309.313H41.5483V309.511H75.7548V309.313Z" fill="#EBEBEB"/>
<path d="M87.8249 309.313H82.8115V309.511H87.8249V309.313Z" fill="#EBEBEB"/>
<path d="M178.319 312.652H104.125V312.85H178.319V312.652Z" fill="#EBEBEB"/>
<path d="M187.704 267.303H34.7766C33.5786 267.301 32.4304 266.824 31.584 265.977C30.7376 265.13 30.2622 263.981 30.2622 262.784V48.0008C30.2726 46.8107 30.7526 45.6727 31.5979 44.8341C32.4431 43.9955 33.5854 43.524 34.7766 43.522H187.704C188.903 43.522 190.054 43.998 190.902 44.8454C191.75 45.6927 192.226 46.842 192.226 48.0403V262.784C192.226 263.983 191.75 265.132 190.902 265.979C190.054 266.827 188.903 267.303 187.704 267.303ZM34.7766 43.6802C33.6311 43.6823 32.5332 44.1385 31.724 44.9485C30.9147 45.7585 30.4602 46.8563 30.4602 48.0008V262.784C30.4602 263.929 30.9147 265.027 31.724 265.837C32.5332 266.647 33.6311 267.103 34.7766 267.105H187.704C188.85 267.103 189.949 266.647 190.759 265.837C191.57 265.027 192.026 263.93 192.028 262.784V48.0008C192.026 46.8555 191.57 45.7578 190.759 44.948C189.949 44.1382 188.85 43.6823 187.704 43.6802H34.7766Z" fill="#EBEBEB"/>
<path d="M359.021 267.303H206.086C204.888 267.301 203.738 266.824 202.891 265.977C202.043 265.13 201.566 263.982 201.564 262.784V48.0008C201.576 46.8099 202.058 45.672 202.905 44.8336C203.751 43.9953 204.894 43.524 206.086 43.522H359.021C360.211 43.5261 361.352 43.9985 362.195 44.8369C363.039 45.6753 363.518 46.812 363.528 48.0008V262.784C363.528 263.98 363.054 265.127 362.209 265.974C361.364 266.821 360.218 267.299 359.021 267.303ZM206.086 43.6802C204.94 43.6823 203.841 44.1382 203.031 44.948C202.22 45.7578 201.764 46.8555 201.762 48.0008V262.784C201.764 263.93 202.22 265.027 203.031 265.837C203.841 266.647 204.94 267.103 206.086 267.105H359.021C360.168 267.103 361.266 266.647 362.077 265.837C362.887 265.027 363.344 263.93 363.346 262.784V48.0008C363.344 46.8555 362.887 45.7578 362.077 44.948C361.266 44.1382 360.168 43.6823 359.021 43.6802H206.086Z" fill="#EBEBEB"/>
<path d="M327.745 273.792C327.745 273.483 328.807 242.401 333.868 237.487C338.794 232.739 344.441 237.305 344.678 237.487L345.185 236.877C345.122 236.822 338.746 231.623 333.305 236.877C328.023 242.013 326.969 272.439 326.969 273.728L327.745 273.792Z" fill="#E0E0E0"/>
<path d="M327.31 279.924C327.35 279.552 330.771 242.614 317.267 227.128L316.666 227.651C329.947 242.875 326.558 279.481 326.518 279.877L327.31 279.924Z" fill="#E0E0E0"/>
<path d="M327.809 276.023L328.601 275.968C328.601 275.548 325.955 233.965 335.863 224.865L335.325 224.28C325.14 233.641 327.698 274.29 327.809 276.023Z" fill="#E0E0E0"/>
<path d="M326.518 275.999H327.31C327.31 274.852 326.985 247.916 319.327 243.556C318.599 243.085 317.769 242.796 316.906 242.712C316.044 242.628 315.174 242.752 314.369 243.073C309.735 244.988 307.447 253.225 307.352 253.574L308.144 253.779C308.144 253.7 310.432 245.573 314.709 243.809C315.401 243.535 316.149 243.432 316.889 243.508C317.629 243.584 318.34 243.836 318.962 244.244C326.201 248.367 326.518 275.722 326.518 275.999Z" fill="#E0E0E0"/>
<path d="M329.472 276.015L330.264 275.967C330.264 275.762 329.108 254.681 334.802 247.251C336.18 245.455 337.677 244.6 339.261 244.711C342.991 244.972 346.12 250.424 346.143 250.479L346.84 250.092C346.698 249.846 343.467 244.212 339.316 243.92C337.455 243.785 335.721 244.75 334.168 246.776C328.331 254.436 329.472 275.137 329.472 276.015Z" fill="#E0E0E0"/>
<path d="M328.252 278.879C328.411 276.838 331.975 228.711 325.702 220.228L325.061 220.703C331.167 228.948 327.5 278.326 327.437 278.824L328.252 278.879Z" fill="#E0E0E0"/>
<path d="M312.666 247.916C312.666 247.916 316.428 249.301 315.311 252.577C314.194 255.853 302.283 261.234 302.283 261.234C302.283 261.234 297.301 256.668 301.879 249.245C306.456 241.823 312.563 245.574 312.666 247.916Z" fill="#EBEBEB"/>
<path d="M329.029 241.68C329.029 241.68 325.021 241.514 324.791 244.964C324.562 248.414 333.503 257.966 333.503 257.966C333.503 257.966 339.839 255.671 338.493 247.053C337.147 238.436 330.027 239.56 329.029 241.68Z" fill="#EBEBEB"/>
<path d="M332.426 225.158C332.426 225.158 329.749 224.873 329.963 223.243C330.177 221.613 340.354 217.427 346.357 224.2C346.357 224.2 342.516 230.8 336.956 230.887C331.396 230.974 332.426 225.158 332.426 225.158Z" fill="#EBEBEB"/>
<path d="M327.445 221.209C327.445 221.209 329.86 222.373 330.541 220.885C331.222 219.397 324.799 210.455 316.119 213.027C316.119 213.027 315.889 220.663 320.562 223.67C325.235 226.677 327.445 221.209 327.445 221.209Z" fill="#EBEBEB"/>
<path d="M340.101 246.594C340.101 246.594 338.255 245.107 340.243 244.379C342.231 243.651 352.004 243.864 352.123 253.534C352.123 253.534 340.742 255.417 339.332 251.738C337.923 248.058 340.101 246.594 340.101 246.594Z" fill="#EBEBEB"/>
<path d="M316.895 224.913C316.895 224.913 318.74 223.425 316.753 222.697C314.765 221.969 304.991 222.183 304.873 231.845C304.873 231.845 316.254 233.736 317.663 230.056C319.073 226.377 316.895 224.913 316.895 224.913Z" fill="#EBEBEB"/>
<path d="M322.914 232.699C322.914 232.699 323.072 230.895 321.615 231.599C320.158 232.303 315.057 237.803 320.34 243.01C320.34 243.01 327.468 237.748 326.161 235.01C324.854 232.272 322.914 232.699 322.914 232.699Z" fill="#EBEBEB"/>
<path d="M341.748 235.279C341.748 235.279 340.647 233.839 342.263 233.657C343.878 233.475 351.109 235.405 349.43 242.63C349.43 242.63 340.607 241.965 340.235 238.966C339.863 235.967 341.748 235.279 341.748 235.279Z" fill="#EBEBEB"/>
<path d="M311.961 302.793H342.215L345.478 269.701H308.698L311.961 302.793Z" fill="#F0F0F0"/>
<path d="M307.074 273.349H347.086V266.045H307.074V273.349Z" fill="#E6E6E6"/>
<path d="M119.489 92.2266H41.3027V302.793H119.489V92.2266Z" fill="#EBEBEB"/>
<path d="M66.2032 115.388H48.209V193.957H66.2032V115.388Z" fill="#FAFAFA"/>
<path d="M54.2995 209.822C54.2995 210.53 54.0897 211.223 53.6965 211.811C53.3033 212.4 52.7444 212.86 52.0902 213.132C51.436 213.404 50.7158 213.476 50.0205 213.34C49.3252 213.203 48.6859 212.864 48.1832 212.365C47.6806 211.867 47.337 211.23 47.1959 210.536C47.0548 209.842 47.1224 209.122 47.3904 208.467C47.6583 207.812 48.1144 207.25 48.7013 206.853C49.2882 206.457 49.9795 206.243 50.688 206.238C51.1612 206.235 51.6303 206.325 52.0683 206.504C52.5063 206.683 52.9047 206.946 53.2403 207.279C53.576 207.613 53.8424 208.009 54.0242 208.445C54.206 208.882 54.2996 209.35 54.2995 209.822Z" fill="#E0E0E0"/>
<path d="M95.3966 77.7856H65.3877V84.8599H95.3966V77.7856Z" fill="#F5F5F5"/>
<path d="M335.555 182.831V94.5454H266.001V182.831H335.555Z" fill="#E6E6E6"/>
<path d="M333.979 96.1279H267.593V181.249H333.979V96.1279Z" fill="#F0F0F0"/>
<path d="M316.871 136.033C314.297 138.874 313.656 133.232 313.656 133.232L306.298 120.745L304.714 133.565L310.258 173.288C310.258 173.288 315.327 174.791 315.652 175.662C315.976 176.532 306.94 176.738 306.005 175.662C305.07 174.586 306.971 173.288 306.971 173.288L300.01 140.449L299.899 140.971L293.04 173.296C293.04 173.296 294.964 174.578 293.998 175.67C293.032 176.762 284.011 176.461 284.328 175.67C284.645 174.879 289.714 173.296 289.714 173.296L295.258 133.572L293.674 120.753L286.316 133.24C286.316 133.24 285.674 138.882 283.1 136.041C280.526 133.201 285.033 130.637 285.033 130.637L293.04 116.765L297.451 115.238L298.426 114.011C298.426 114.011 292.763 103.859 299.891 103.661H300.105C307.233 103.859 301.578 114.011 301.578 114.011L302.552 115.238L306.963 116.765L314.962 130.629C314.962 130.629 319.437 133.201 316.871 136.033Z" fill="#FAFAFA"/>
<path d="M299.867 103.661V140.971L293.04 173.296C293.04 173.296 294.964 174.578 293.998 175.67C293.032 176.762 284.011 176.461 284.328 175.67C284.645 174.879 289.714 173.296 289.714 173.296L295.258 133.572L293.674 120.753L286.316 133.24C286.316 133.24 285.674 138.882 283.1 136.041C280.526 133.201 285.033 130.637 285.033 130.637L293.04 116.765L297.451 115.238L298.426 114.011C298.426 114.011 292.739 103.859 299.867 103.661Z" fill="#E6E6E6"/>
<path d="M323.73 106.035H314.543V109.612H323.73V106.035Z" fill="#E6E6E6"/>
<path d="M326.85 122.13H317.663V125.707H326.85V122.13Z" fill="#E6E6E6"/>
<path d="M283.211 139.017H274.024V142.593H283.211V139.017Z" fill="#E6E6E6"/>
<path d="M286.886 105.9H277.699V109.477H286.886V105.9Z" fill="#E6E6E6"/>
<path d="M323.73 144.959H314.543V148.536H323.73V144.959Z" fill="#E6E6E6"/>
<path d="M285.73 158.649H276.542V162.226H285.73V158.649Z" fill="#E6E6E6"/>
<path d="M328.332 162.226H319.145V165.802H328.332V162.226Z" fill="#E6E6E6"/>
<path d="M191.846 125.588V214.713H259.016V125.588H191.846Z" fill="#E6E6E6"/>
<path d="M257.432 127.171H193.43V213.13H257.432V127.171Z" fill="#F5F5F5"/>
<path d="M257.432 127.171H193.43V148.536H257.432V127.171Z" fill="#FAFAFA"/>
<path d="M257.432 168.303H193.43V191.797H257.432V168.303Z" fill="#FAFAFA"/>
<path d="M244.95 143.377C248.528 143.377 251.428 140.479 251.428 136.904C251.428 133.329 248.528 130.431 244.95 130.431C241.372 130.431 238.471 133.329 238.471 136.904C238.471 140.479 241.372 143.377 244.95 143.377Z" fill="#F5F5F5"/>
<path d="M209.695 159.326C210.269 155.797 207.87 152.472 204.339 151.899C200.807 151.326 197.479 153.723 196.906 157.251C196.332 160.78 198.731 164.105 202.263 164.678C205.794 165.251 209.122 162.854 209.695 159.326Z" fill="#FAFAFA"/>
<path d="M248.196 187.087C251.501 185.719 253.071 181.932 251.702 178.63C250.333 175.327 246.543 173.758 243.237 175.126C239.932 176.495 238.362 180.281 239.731 183.584C241.1 186.886 244.89 188.455 248.196 187.087Z" fill="#F5F5F5"/>
<path d="M204.059 208.952C207.637 208.952 210.537 206.054 210.537 202.479C210.537 198.904 207.637 196.006 204.059 196.006C200.481 196.006 197.58 198.904 197.58 202.479C197.58 206.054 200.481 208.952 204.059 208.952Z" fill="#FAFAFA"/>
<path d="M198 338.33C283.374 338.33 352.583 334.291 352.583 329.309C352.583 324.327 283.374 320.288 198 320.288C112.626 320.288 43.4175 324.327 43.4175 329.309C43.4175 334.291 112.626 338.33 198 338.33Z" fill="#F5F5F5"/>
<path d="M96.9725 331.319H73.6006C73.0672 331.33 72.5381 331.222 72.0517 331.003C71.5653 330.784 71.1339 330.46 70.789 330.053C70.438 329.63 70.1851 329.135 70.0481 328.603C69.9112 328.07 69.8937 327.515 69.997 326.975L80.4672 269.043H112.147L101.629 327.418C101.416 328.502 100.838 329.48 99.9904 330.19C99.1431 330.9 98.078 331.298 96.9725 331.319ZM82.5106 271.489L72.4364 327.41C72.3946 327.594 72.3935 327.785 72.4332 327.97C72.4729 328.154 72.5523 328.328 72.666 328.478C72.7814 328.611 72.9256 328.716 73.0875 328.784C73.2495 328.853 73.425 328.883 73.6006 328.874H96.9725C97.4982 328.846 97.9997 328.644 98.3983 328.3C98.7968 327.957 99.0697 327.49 99.1743 326.975L109.177 271.489H82.5106Z" fill="#407BFF"/>
<g opacity="0.4">
<path d="M80.4676 269.044L71.0824 321.111L70.029 326.983C69.9265 327.521 69.9443 328.076 70.0812 328.607C70.2181 329.137 70.4707 329.631 70.821 330.053C71.166 330.46 71.5971 330.786 72.0834 331.006C72.5696 331.227 73.0988 331.336 73.6326 331.327H97.0046C98.105 331.295 99.1618 330.89 100.001 330.178C100.84 329.466 101.412 328.49 101.622 327.41L103.032 319.6L112.14 269.036L80.4676 269.044ZM100.489 319.735L99.1826 326.991C99.0761 327.506 98.8013 327.972 98.4013 328.314C98.0014 328.656 97.4989 328.856 96.9729 328.882H73.601C73.4255 328.89 73.2504 328.859 73.0886 328.79C72.9268 328.722 72.7825 328.618 72.6664 328.486C72.5526 328.336 72.4736 328.162 72.4353 327.977C72.3969 327.792 72.4001 327.601 72.4446 327.418L73.593 321.001L82.511 271.497H109.17L100.489 319.735Z" fill="white"/>
</g>
<path opacity="0.2" d="M112.108 269.043L103 319.608L100.489 319.734L109.201 271.465H82.5106L73.5927 320.993L71.082 321.111L80.4672 269.043H112.108Z" fill="black"/>
<path d="M110.69 271.022H79.0497L68.6111 213.082C68.508 212.544 68.5255 211.989 68.6625 211.458C68.7994 210.928 69.0524 210.434 69.4031 210.012C69.747 209.604 70.1779 209.277 70.6644 209.057C71.1509 208.836 71.6807 208.727 72.2147 208.738H95.5867C96.6874 208.768 97.7452 209.171 98.5858 209.882C99.4265 210.592 100 211.567 100.212 212.647L110.69 271.022ZM81.101 268.576H107.76L97.7647 213.082C97.6582 212.567 97.3834 212.102 96.9834 211.759C96.5835 211.417 96.081 211.217 95.555 211.191H72.1831C72.0094 211.182 71.8361 211.213 71.6757 211.28C71.5154 211.347 71.3721 211.449 71.2564 211.579C71.1397 211.728 71.0584 211.901 71.0186 212.087C70.9788 212.272 70.9816 212.463 71.0267 212.647L81.101 268.576Z" fill="#407BFF"/>
<g opacity="0.4">
<path d="M110.69 271.022H79.0497L68.6111 213.082C68.508 212.544 68.5255 211.989 68.6625 211.458C68.7994 210.928 69.0524 210.434 69.4031 210.012C69.747 209.604 70.1779 209.277 70.6644 209.057C71.1509 208.836 71.6807 208.727 72.2147 208.738H95.5867C96.6874 208.768 97.7452 209.171 98.5858 209.882C99.4265 210.592 100 211.567 100.212 212.647L110.69 271.022ZM81.101 268.576H107.76L97.7647 213.082C97.6582 212.567 97.3834 212.102 96.9834 211.759C96.5835 211.417 96.081 211.217 95.555 211.191H72.1831C72.0094 211.182 71.8361 211.213 71.6757 211.28C71.5154 211.347 71.3721 211.449 71.2564 211.579C71.1397 211.728 71.0584 211.901 71.0186 212.087C70.9788 212.272 70.9816 212.463 71.0267 212.647L81.101 268.576Z" fill="white"/>
</g>
<path d="M107.649 331.319C107.361 331.321 107.082 331.221 106.862 331.037C106.641 330.853 106.494 330.597 106.445 330.314L96.1487 273.38C96.0456 272.841 96.0631 272.286 96.2001 271.756C96.337 271.225 96.59 270.731 96.9407 270.309C97.2888 269.896 97.7263 269.567 98.2203 269.348C98.7143 269.129 99.2517 269.024 99.7919 269.043H123.164C124.264 269.073 125.32 269.477 126.16 270.188C126.999 270.898 127.571 271.873 127.781 272.952L138.038 329.887C138.087 330.203 138.011 330.527 137.825 330.788C137.639 331.049 137.358 331.227 137.043 331.284C136.727 331.341 136.402 331.272 136.136 331.092C135.871 330.912 135.686 330.636 135.622 330.322L125.366 273.387C125.26 272.873 124.986 272.409 124.588 272.067C124.189 271.725 123.688 271.524 123.164 271.496H99.7919C99.6171 271.488 99.4426 271.518 99.281 271.585C99.1193 271.652 98.9746 271.754 98.8574 271.884C98.7441 272.035 98.665 272.209 98.6253 272.393C98.5857 272.577 98.5865 272.768 98.6277 272.952L108.924 329.887C108.953 330.045 108.951 330.208 108.917 330.366C108.884 330.523 108.819 330.673 108.727 330.805C108.634 330.938 108.517 331.051 108.381 331.138C108.245 331.224 108.093 331.283 107.934 331.311C107.84 331.328 107.743 331.33 107.649 331.319Z" fill="#407BFF"/>
<g opacity="0.4">
<path d="M107.649 331.319C107.361 331.321 107.082 331.221 106.862 331.037C106.641 330.853 106.494 330.597 106.445 330.314L96.1487 273.38C96.0456 272.841 96.0631 272.286 96.2001 271.756C96.337 271.225 96.59 270.731 96.9407 270.309C97.2888 269.896 97.7263 269.567 98.2203 269.348C98.7143 269.129 99.2517 269.024 99.7919 269.043H123.164C124.264 269.073 125.32 269.477 126.16 270.188C126.999 270.898 127.571 271.873 127.781 272.952L138.038 329.887C138.087 330.203 138.011 330.527 137.825 330.788C137.639 331.049 137.358 331.227 137.043 331.284C136.727 331.341 136.402 331.272 136.136 331.092C135.871 330.912 135.686 330.636 135.622 330.322L125.366 273.387C125.26 272.873 124.986 272.409 124.588 272.067C124.189 271.725 123.688 271.524 123.164 271.496H99.7919C99.6171 271.488 99.4426 271.518 99.281 271.585C99.1193 271.652 98.9746 271.754 98.8574 271.884C98.7441 272.035 98.665 272.209 98.6253 272.393C98.5857 272.577 98.5865 272.768 98.6277 272.952L108.924 329.887C108.953 330.045 108.951 330.208 108.917 330.366C108.884 330.523 108.819 330.673 108.727 330.805C108.634 330.938 108.517 331.051 108.381 331.138C108.245 331.224 108.093 331.283 107.934 331.311C107.84 331.328 107.743 331.33 107.649 331.319Z" fill="white"/>
</g>
<path d="M130.68 267.928H79.0337C79.0358 266.733 79.5123 265.588 80.3587 264.744C81.2051 263.899 82.3522 263.425 83.5481 263.425H126.15C127.346 263.425 128.493 263.899 129.339 264.744C130.186 265.588 130.662 266.733 130.664 267.928H130.68Z" fill="#407BFF"/>
<path d="M131.147 267.698H78.5506C78.1001 267.698 77.7349 268.063 77.7349 268.513V272.011C77.7349 272.461 78.1001 272.826 78.5506 272.826H131.147C131.598 272.826 131.963 272.461 131.963 272.011V268.513C131.963 268.063 131.598 267.698 131.147 267.698Z" fill="#407BFF"/>
<g opacity="0.6">
<path d="M131.147 267.698H78.5506C78.1001 267.698 77.7349 268.063 77.7349 268.513V272.011C77.7349 272.461 78.1001 272.826 78.5506 272.826H131.147C131.598 272.826 131.963 272.461 131.963 272.011V268.513C131.963 268.063 131.598 267.698 131.147 267.698Z" fill="white"/>
</g>
<path d="M138.061 222.752L141.364 223.496C142.423 223.221 143.376 222.633 144.096 221.81C145.506 220.339 151.082 221.13 151.082 221.13C151.082 221.13 153.212 226.281 152.587 226.97C151.961 227.658 144.968 227.421 144.096 227.357C143.447 227.256 142.829 227.007 142.291 226.629L137.42 226.052L138.061 222.752Z" fill="#EBB376"/>
<path d="M141.768 222.641C140.872 222.026 140.071 221.282 139.392 220.433C137.539 217.98 133.737 205.327 130.68 202.162C130.68 202.162 125.461 208.279 127.076 215.931C127.246 216.756 127.49 217.563 127.805 218.344C129.777 223.298 132.953 225.79 135.876 226.7C137.353 227.098 138.888 227.243 140.414 227.128L141.768 222.641Z" fill="#407BFF"/>
<path opacity="0.2" d="M135.844 226.701C132.922 225.791 129.746 223.298 127.774 218.345C127.458 217.564 127.214 216.756 127.045 215.931L129.722 209.276C129.714 209.395 137.887 219.904 135.844 226.701Z" fill="black"/>
<path d="M89.8842 232.089L128.558 236.22L128.851 249C129.841 249.269 130.823 249.514 131.805 249.751V265.878C121.509 265.34 91.1593 269.091 85.4015 260.964C82.0751 256.287 89.8842 232.089 89.8842 232.089Z" fill="#263238"/>
<path d="M139.907 321.396L145.482 321.808L148.975 309.107L143.407 308.704L139.907 321.396Z" fill="#EBB376"/>
<path d="M146.259 322.061C146.255 322.068 146.253 322.076 146.253 322.084C146.253 322.093 146.255 322.101 146.259 322.108H146.298C146.735 322.347 147.194 322.543 147.668 322.694C148.019 322.821 148.403 322.821 148.753 322.694C148.866 322.627 148.959 322.53 149.02 322.414C149.082 322.299 149.11 322.168 149.102 322.037C149.11 321.954 149.097 321.871 149.064 321.794C149.031 321.718 148.978 321.652 148.912 321.602C148.407 321.396 147.844 321.379 147.328 321.554C147.715 321.28 147.995 320.88 148.12 320.423C148.13 320.314 148.103 320.205 148.042 320.114C147.982 320.024 147.892 319.956 147.787 319.924C147.7 319.882 147.603 319.859 147.506 319.859C147.409 319.859 147.312 319.882 147.225 319.924C146.552 320.296 146.29 321.847 146.267 321.934H146.172C146.155 321.946 146.143 321.963 146.139 321.983C146.136 322.003 146.14 322.024 146.152 322.041C146.163 322.058 146.181 322.069 146.201 322.073C146.221 322.077 146.242 322.072 146.259 322.061ZM146.67 321.752H146.544C146.678 321.238 146.956 320.399 147.336 320.17C147.38 320.142 147.43 320.124 147.482 320.117C147.534 320.11 147.587 320.115 147.637 320.13H147.7C147.874 320.201 147.89 320.304 147.882 320.383C147.858 320.818 147.217 321.444 146.67 321.744V321.752ZM146.67 322.045C147.407 321.815 148.421 321.618 148.738 321.855C148.771 321.879 148.797 321.912 148.813 321.949C148.83 321.987 148.837 322.028 148.833 322.069C148.835 322.151 148.817 322.232 148.779 322.306C148.742 322.379 148.687 322.442 148.619 322.488C148.318 322.654 147.605 322.488 146.694 322.061L146.67 322.045Z" fill="#407BFF"/>
<path opacity="0.2" d="M143.408 308.704L148.975 309.115L146.972 316.371L141.475 315.699L143.408 308.704Z" fill="black"/>
<path d="M150.86 315.477L141.047 312.565C141.047 312.565 154.979 271.497 152.856 268.094C152.611 267.698 102.81 254.721 102.81 254.721L116.02 242.408C116.02 242.408 168.617 250.424 169.702 264.296C170.225 270.935 150.86 315.477 150.86 315.477Z" fill="#263238"/>
<path d="M139.78 312.81L151.597 316.15L153.719 311.236L140.683 307.825L139.78 312.81Z" fill="#407BFF"/>
<path opacity="0.2" d="M139.78 312.81L151.597 316.15L153.719 311.236L140.683 307.825L139.78 312.81Z" fill="white"/>
<path d="M146.029 321.27L139.994 319.584C139.893 319.551 139.783 319.56 139.689 319.607C139.594 319.654 139.521 319.737 139.487 319.837L137.863 324.53C137.827 324.653 137.816 324.783 137.83 324.911C137.845 325.039 137.884 325.163 137.947 325.276C138.009 325.388 138.094 325.487 138.195 325.567C138.296 325.647 138.412 325.706 138.537 325.741C140.651 326.294 141.705 326.453 144.35 327.173C146.681 327.928 149.063 328.515 151.478 328.929C153.806 329.199 154.004 326.888 153.062 326.556C150.621 325.535 148.487 323.899 146.868 321.808C146.654 321.543 146.359 321.354 146.029 321.27Z" fill="#263238"/>
<path d="M118.143 326.31L123.679 325.55L124.447 312.399L118.919 313.166L118.143 326.31Z" fill="#EBB376"/>
<path opacity="0.2" d="M118.919 313.166L124.447 312.407L124.004 319.924L118.483 320.407L118.919 313.166Z" fill="black"/>
<path d="M100.624 248.367C100.624 248.367 82.6692 256.28 85.2036 260.972C89.7338 269.344 107.57 265.166 117.05 267.303C119.426 267.817 117.422 317.479 117.422 317.479L127.615 318.271C127.615 318.271 132.644 277.376 132.827 259.856C132.906 252.814 128.835 248.367 100.624 248.367Z" fill="#263238"/>
<path d="M116.226 317.938L128.479 318.745L129.532 313.499L116.068 312.874L116.226 317.938Z" fill="#407BFF"/>
<path opacity="0.2" d="M116.226 317.938L128.479 318.745L129.532 313.499L116.068 312.874L116.226 317.938Z" fill="white"/>
<path d="M124.225 325.566H124.344C124.344 325.566 124.471 325.606 124.487 325.614C124.503 325.622 124.487 325.614 124.487 325.653H124.534C125.009 325.8 125.497 325.895 125.992 325.938C126.359 326.003 126.737 325.929 127.053 325.733C127.151 325.644 127.222 325.529 127.257 325.401C127.292 325.274 127.29 325.139 127.251 325.012C127.24 324.93 127.209 324.852 127.161 324.784C127.112 324.716 127.048 324.662 126.974 324.625C126.441 324.542 125.897 324.642 125.429 324.91C125.757 324.563 125.951 324.112 125.976 323.636C125.952 323.524 125.893 323.423 125.808 323.347C125.722 323.272 125.614 323.226 125.501 323.216C125.393 323.196 125.283 323.198 125.177 323.223C125.07 323.247 124.97 323.294 124.883 323.359C124.297 323.865 124.202 325.44 124.202 325.535L124.225 325.566ZM124.827 325.242L124.716 325.305C124.684 324.7 124.848 324.1 125.184 323.596C125.222 323.562 125.267 323.535 125.316 323.519C125.366 323.503 125.417 323.497 125.469 323.501H125.532C125.714 323.501 125.762 323.628 125.77 323.699C125.644 324.302 125.31 324.842 124.827 325.226V325.242ZM124.907 325.519C125.58 325.147 126.538 324.728 126.894 324.902C126.931 324.919 126.963 324.946 126.987 324.979C127.01 325.012 127.025 325.051 127.029 325.092C127.05 325.172 127.051 325.256 127.03 325.337C127.009 325.417 126.968 325.491 126.91 325.55C126.625 325.788 125.928 325.78 124.907 325.519Z" fill="#407BFF"/>
<path d="M124.099 324.886L117.842 324.49C117.79 324.484 117.737 324.489 117.687 324.504C117.637 324.519 117.59 324.544 117.55 324.577C117.509 324.61 117.476 324.651 117.451 324.697C117.427 324.743 117.411 324.794 117.406 324.846L116.797 329.776C116.781 330.034 116.868 330.289 117.038 330.484C117.209 330.679 117.449 330.8 117.707 330.82C119.893 330.923 120.939 330.86 123.695 331.01C126.136 331.263 128.592 331.34 131.045 331.24C133.421 331.018 133.096 328.723 132.09 328.613C129.492 328.116 127.065 326.961 125.041 325.258C124.779 325.03 124.446 324.899 124.099 324.886Z" fill="#263238"/>
<path d="M128.684 222.926C128.557 225.893 128.478 229.059 128.502 232.342C128.502 233.616 128.502 234.914 128.557 236.22C128.557 236.22 114.888 249.197 89.5039 233.324C91.6496 224.736 94.4021 216.311 97.7407 208.113C98.3822 206.586 99.0475 205.074 99.7603 203.594C101 200.932 102.415 198.354 103.998 195.879C103.998 195.879 109.985 192.967 118.071 195.879C122.541 197.389 126.784 199.503 130.68 202.162C129.645 209.043 128.979 215.974 128.684 222.926Z" fill="#407BFF"/>
<path d="M110.088 198.198C110.088 198.198 109.383 192.105 114.84 193.767C120.297 195.428 123.948 196.362 124.732 201.426L122.071 200.16L118.111 203.365L112.837 197.201L110.088 198.198Z" fill="#407BFF"/>
<path opacity="0.7" d="M110.088 198.198C110.088 198.198 109.383 192.105 114.84 193.767C120.297 195.428 123.948 196.362 124.732 201.426L122.071 200.16L118.111 203.365L112.837 197.201L110.088 198.198Z" fill="white"/>
<path d="M113.462 195.452L118.151 202.613L121.754 198.823C121.567 198.132 121.519 197.412 121.612 196.702C121.735 195.503 122.172 194.356 122.879 193.379L119.069 186.336L117.731 183.852C116.963 188.18 116.012 192.374 113.462 195.452Z" fill="#EBB376"/>
<path opacity="0.3" d="M121.612 196.703C121.735 195.503 122.172 194.356 122.879 193.379L119.07 186.336C119.07 186.336 117.375 193.15 121.612 196.703Z" fill="black"/>
<path d="M128.803 176.382C126.166 177.577 126.768 180.473 131.377 185.648C134.03 183.211 135.337 177.814 133.848 176.152C132.359 174.491 131.1 175.353 128.803 176.382Z" fill="#263238"/>
<path d="M117.882 179.017C117.882 179.017 114.278 187.721 119.561 192.509C123.402 195.975 128.7 196.703 132.621 192.414C135.686 189.059 133.864 184.793 133.864 184.793C134.49 180.402 133.777 175.567 130.205 173.256C129.064 172.511 127.752 172.069 126.393 171.973C125.033 171.876 123.671 172.129 122.437 172.706C121.202 173.283 120.136 174.166 119.339 175.27C118.541 176.375 118.04 177.664 117.882 179.017Z" fill="#EBB376"/>
<path opacity="0.2" d="M133.848 190.459C133.555 191.182 133.131 191.844 132.597 192.413C128.684 196.702 123.386 195.974 119.544 192.508C119.068 192.084 118.645 191.603 118.285 191.076C117.089 186.961 118.618 181.272 119.56 180.789C119.362 181.828 119.466 182.901 119.859 183.882C120.252 184.864 120.918 185.713 121.778 186.328C121.778 186.328 125.381 185.537 126.126 186.328C126.87 187.119 128.502 188.9 129.539 189.201C130.577 189.501 130.846 191.503 130.846 191.503C131.897 191.32 132.911 190.967 133.848 190.459Z" fill="black"/>
<path d="M126.166 182.23C126.079 182.696 126.253 183.124 126.562 183.179C126.871 183.235 127.18 182.91 127.267 182.443C127.354 181.976 127.188 181.549 126.887 181.494C126.586 181.438 126.285 181.779 126.166 182.23Z" fill="#263238"/>
<path d="M131.472 183.25C131.385 183.717 131.567 184.144 131.868 184.208C132.169 184.271 132.494 183.939 132.589 183.464C132.684 182.989 132.502 182.57 132.193 182.514C131.884 182.459 131.575 182.791 131.472 183.25Z" fill="#263238"/>
<path d="M129.706 183.139C129.993 184.676 130.488 186.167 131.179 187.57C130.815 187.739 130.419 187.826 130.019 187.826C129.618 187.826 129.222 187.739 128.858 187.57L129.706 183.139Z" fill="#D58745"/>
<path d="M125.033 180.275C125.002 180.275 124.972 180.269 124.943 180.256C124.914 180.244 124.889 180.226 124.867 180.204C124.816 180.151 124.787 180.08 124.787 180.006C124.787 179.932 124.816 179.861 124.867 179.808C125.189 179.502 125.581 179.278 126.008 179.156C126.436 179.033 126.887 179.015 127.322 179.104C127.357 179.111 127.39 179.126 127.419 179.146C127.448 179.167 127.473 179.193 127.491 179.223C127.51 179.254 127.522 179.288 127.527 179.323C127.532 179.358 127.53 179.394 127.52 179.428C127.511 179.464 127.495 179.497 127.473 179.526C127.451 179.555 127.423 179.58 127.391 179.598C127.36 179.617 127.325 179.628 127.288 179.633C127.252 179.638 127.215 179.636 127.18 179.626C126.835 179.563 126.48 179.582 126.144 179.683C125.808 179.783 125.501 179.962 125.247 180.204C125.219 180.23 125.185 180.25 125.148 180.263C125.111 180.275 125.072 180.279 125.033 180.275Z" fill="#263238"/>
<path d="M134.244 181.921C134.193 181.912 134.145 181.888 134.106 181.853C134.066 181.818 134.038 181.773 134.023 181.723C133.949 181.374 133.791 181.047 133.564 180.772C133.336 180.496 133.045 180.28 132.716 180.141C132.647 180.117 132.59 180.067 132.557 180.002C132.524 179.937 132.519 179.862 132.542 179.792C132.551 179.758 132.568 179.726 132.591 179.698C132.614 179.67 132.642 179.646 132.673 179.629C132.705 179.612 132.74 179.602 132.776 179.599C132.812 179.595 132.848 179.599 132.882 179.61C133.295 179.774 133.663 180.034 133.955 180.368C134.247 180.703 134.455 181.102 134.561 181.533C134.572 181.568 134.576 181.605 134.572 181.641C134.568 181.677 134.557 181.712 134.539 181.744C134.521 181.776 134.497 181.804 134.468 181.826C134.439 181.848 134.406 181.864 134.371 181.873C134.335 181.902 134.29 181.918 134.244 181.921Z" fill="#263238"/>
<path d="M120.796 174.237C123.362 175.567 122.594 178.431 117.699 183.329C115.181 180.742 114.183 175.274 115.775 173.699C117.367 172.124 118.555 173.074 120.796 174.237Z" fill="#263238"/>
<path d="M114.27 183.092C114.334 183.819 114.541 184.525 114.88 185.172C115.218 185.818 115.681 186.391 116.242 186.859C117.755 188.093 119.291 186.93 119.529 185.102C119.743 183.448 119.204 180.813 117.374 180.291C115.545 179.768 114.111 181.288 114.27 183.092Z" fill="#EBB376"/>
<path d="M127.774 190.578C127.534 189.866 127.102 189.234 126.527 188.751C125.951 188.268 125.254 187.953 124.511 187.84" stroke="#263238" stroke-width="0.526291" stroke-linecap="round" stroke-linejoin="round"/>
<path d="M127.005 174.039C126.52 175.523 125.547 176.799 124.245 177.661C122.942 178.523 121.386 178.92 119.83 178.787C114.199 178.384 113.415 175.108 113.415 175.108C113.86 175.23 114.312 175.325 114.769 175.393C114.412 174.579 114.285 173.683 114.402 172.803C114.519 171.922 114.876 171.091 115.434 170.399C117.39 168.152 123.291 166.332 127.243 168.192C127.243 168.192 131.543 167.171 134.973 169.909C140.168 174.063 137.301 176.777 137.301 176.777C137.301 176.777 138.093 175.131 136.121 173.129C136.121 173.129 137.626 178.953 134.078 179.982C134.078 179.95 134.466 174.467 127.005 174.039Z" fill="#263238"/>
<path opacity="0.2" d="M128.685 222.926C128.558 225.893 128.479 229.059 128.502 232.342C126.088 234.522 123.101 235.968 119.892 236.509C116.683 237.05 113.386 236.664 110.389 235.397C98.5094 230.61 95.1196 219.175 97.7173 208.129C98.0201 206.47 98.7334 204.914 99.7924 203.602C102.857 200.263 107.166 205.802 107.166 205.802C107.166 206.119 109.621 216.88 112.029 219.618C114.27 222.19 127.029 222.855 128.685 222.926Z" fill="black"/>
<path d="M118.008 223.512L121.311 224.256C122.37 223.98 123.322 223.393 124.043 222.57C125.453 221.106 131.029 221.898 131.029 221.898C131.029 221.898 133.159 227.041 132.533 227.737C131.908 228.434 124.914 228.188 124.043 228.117C123.397 228.018 122.782 227.771 122.245 227.397L117.367 226.812L118.008 223.512Z" fill="#EBB376"/>
<path d="M103.998 195.887C96.0776 199.274 96.7824 215.978 99.3406 221.842C101.899 227.706 118.459 228.062 118.459 228.062L119.592 223.148C119.592 223.148 109.296 220.6 107.775 218.321C106.255 216.042 106.706 210.36 107.086 206.641C107.317 204.733 107.162 202.799 106.632 200.952C106.101 199.105 105.206 197.383 103.998 195.887Z" fill="#407BFF"/>
<path d="M262.58 225.696V331.477H257.614V235.191H201.271V331.477H196.297V235.191H177.091V331.477H172.11V235.191H115.775V331.477H110.801V225.696H262.58Z" fill="#407BFF"/>
<path opacity="0.4" d="M262.58 225.696V331.477H257.614V235.191H201.271V331.477H196.297V235.191H177.091V331.477H172.11V235.191H115.775V331.477H110.801V225.696H262.58Z" fill="white"/>
<path opacity="0.3" d="M196.226 225.696V235.191H177.091H172.11H115.775V331.477H110.801V225.696H196.226Z" fill="white"/>
<path d="M174.026 214.863H163.279V221.32H174.026V214.863Z" fill="#263238"/>
<path d="M174.105 223.013H165.37L167.825 205.486H176.561L174.105 223.013Z" fill="#407BFF"/>
<path opacity="0.3" d="M174.105 223.013H165.37L167.825 205.486H176.561L174.105 223.013Z" fill="white"/>
<path d="M172.015 224.2H163.279L165.734 206.673H174.462L172.015 224.2Z" fill="#407BFF"/>
<path opacity="0.6" d="M172.015 224.2H163.279L165.734 206.673H174.462L172.015 224.2Z" fill="white"/>
<path d="M176.933 225.696H161.734L164.055 214.863H164.633L163.572 217.45H172.284L173.345 214.863H175.555C175.555 214.863 177.178 225.688 176.933 225.696Z" fill="#263238"/>
<path d="M174.731 214.863L170.304 225.696H158.812L163.239 214.863H164.633L163.572 217.45H172.284L173.345 214.863H174.731Z" fill="#263238"/>
<path opacity="0.3" d="M174.731 214.863L170.304 225.696H158.812L163.239 214.863H164.633L163.572 217.45H172.284L173.345 214.863H174.731Z" fill="white"/>
<path d="M183.886 222.206H202.689C203.075 222.206 203.446 222.359 203.719 222.633C203.992 222.906 204.146 223.276 204.146 223.662V225.696H182.429V223.662C182.429 223.276 182.583 222.906 182.856 222.633C183.129 222.359 183.5 222.206 183.886 222.206Z" fill="#263238"/>
<path opacity="0.3" d="M183.886 222.206H194.769C195.155 222.206 195.526 222.359 195.799 222.633C196.072 222.906 196.226 223.276 196.226 223.662V225.696H182.429V223.662C182.429 223.276 182.583 222.906 182.856 222.633C183.129 222.359 183.5 222.206 183.886 222.206Z" fill="white"/>
<path d="M242.249 176.366H240.103C239.792 176.366 239.541 176.618 239.541 176.928V179.072C239.541 179.383 239.792 179.634 240.103 179.634H242.249C242.56 179.634 242.811 179.383 242.811 179.072V176.928C242.811 176.618 242.56 176.366 242.249 176.366Z" stroke="#263238" stroke-width="0.5" stroke-miterlimit="10"/>
<path d="M241.56 211.943L238.154 206.926C238.154 206.926 237.869 204.275 237.584 204.093C237.299 203.911 229.347 201.719 229.347 201.719C229.347 201.719 228.31 206.728 228.872 207.488C229.434 208.247 234.274 209.569 234.274 209.569L235.232 209.094L238.344 214.206L241.56 211.943Z" fill="#E4897B"/>
<path d="M258.382 198C261.268 201.776 262.731 206.446 262.516 211.192C262.516 211.192 251.492 225.696 245.987 225.696C240.483 225.696 236.135 212.513 236.135 212.513L240.926 209.609C240.926 209.609 244.538 215.425 247.611 214.776C250.684 214.127 258.382 198 258.382 198Z" fill="#407BFF"/>
<path opacity="0.6" d="M258.382 198C261.268 201.776 262.731 206.446 262.516 211.192C262.516 211.192 251.492 225.696 245.987 225.696C240.483 225.696 236.135 212.513 236.135 212.513L240.926 209.609C240.926 209.609 244.538 215.425 247.611 214.776C250.684 214.127 258.382 198 258.382 198Z" fill="white"/>
<path d="M225.197 211.943L221.76 206.926C221.76 206.926 221.475 204.275 221.198 204.093C220.92 203.911 212.961 201.719 212.961 201.719C212.961 201.719 211.915 206.728 212.486 207.488C213.056 208.247 217.879 209.569 217.879 209.569L218.837 209.094L221.95 214.206L225.197 211.943Z" fill="#E4897B"/>
<path d="M242.051 185.213C242.165 185.484 242.295 185.748 242.439 186.004C243.236 187.44 244.452 188.599 245.924 189.328C246.293 189.517 246.677 189.676 247.072 189.802C248.587 190.313 250.227 190.315 251.743 189.808C253.258 189.301 254.567 188.312 255.468 186.993C257.844 183.599 257.234 180.243 256.608 174.499C256.486 173.152 256.021 171.859 255.257 170.743C254.493 169.627 253.456 168.725 252.244 168.124C251.031 167.522 249.685 167.241 248.334 167.307C246.982 167.373 245.67 167.784 244.522 168.5C239.319 171.713 239.976 180.291 242.051 185.213Z" fill="#E4897B"/>
<path opacity="0.2" d="M245.924 189.304C246.293 189.493 246.677 189.652 247.072 189.779C248.113 190.123 249.218 190.23 250.306 190.093C251.394 189.956 252.438 189.579 253.361 188.987C252.989 188.346 252.54 187.753 252.022 187.223C249.832 187.318 247.715 188.041 245.924 189.304Z" fill="black"/>
<path d="M261.835 194.566C259.459 197.581 249.163 198 249.163 198C249.163 198 244.672 197.541 245.354 196.054C247.817 195.215 248.838 193.83 249.092 192.24C249.217 191.259 249.142 190.263 248.87 189.312C248.739 188.776 248.578 188.247 248.387 187.729L255.848 180.022C253.361 189.011 258.588 192.01 261.835 194.566Z" fill="#E4897B"/>
<path d="M241.908 167.939C244.078 165.082 245.742 165.755 245.742 165.755C247.167 163.333 254.367 163.824 257.812 166.601C261.257 169.379 262.144 174.142 261.597 177.822C260.806 183.171 256.972 188.362 256.972 188.362C252.624 189.153 249.147 187.919 249.052 185.648C248.957 183.377 246.827 181.533 246.827 181.533C244.68 182.063 242.978 179.579 242.978 179.579C242.978 179.579 240.784 177.292 241.655 174.451C242.526 171.61 240.079 170.336 241.908 167.939Z" fill="#263238"/>
<path d="M247.714 180.109C247.697 180.663 247.556 181.207 247.301 181.7C247.046 182.193 246.684 182.623 246.241 182.958C245.164 183.638 244.126 182.166 244.007 180.394C243.92 178.851 244.348 176.58 245.639 176.659C246.93 176.738 247.896 178.51 247.714 180.109Z" fill="#E4897B"/>
<path d="M245.599 196.679C245.599 196.679 247.318 188.94 257.725 189.011L260.362 192.849L245.599 196.679Z" fill="#407BFF"/>
<path opacity="0.8" d="M245.599 196.679C245.599 196.679 247.318 188.94 257.725 189.011L260.362 192.849L245.599 196.679Z" fill="white"/>
<path d="M263.895 325.353L257.915 325.463L254.937 311.695L260.909 311.592L263.895 325.353Z" fill="#EBB376"/>
<path opacity="0.2" d="M260.909 311.592L254.945 311.703L256.648 319.576L262.556 319.18L260.909 311.592Z" fill="black"/>
<path d="M244.728 291.651C247.008 300.412 249.92 308.996 253.44 317.337L264.298 316.522C264.298 316.522 259.824 299.066 258.208 283.082C257.202 273.214 257.289 265.04 260.18 264.415C262.002 264.011 266.263 264.027 271.719 264.154V243.809C256.402 246.974 241.172 252.877 240.039 257.633C238.392 264.296 241.22 278.484 244.728 291.651Z" fill="#263238"/>
<path d="M265.455 317.013L252.474 317.875L250.565 312.265L264.868 311.6L265.455 317.013Z" fill="#407BFF"/>
<path opacity="0.2" d="M265.455 317.013L252.474 317.875L250.565 312.265L264.868 311.6L265.455 317.013Z" fill="white"/>
<path d="M257.02 325.163C257.02 325.06 256.917 323.374 256.299 322.836C256.205 322.766 256.097 322.716 255.983 322.689C255.868 322.662 255.75 322.658 255.634 322.678C255.512 322.689 255.397 322.739 255.306 322.82C255.215 322.901 255.152 323.01 255.127 323.129C255.151 323.639 255.359 324.122 255.713 324.49C255.213 324.2 254.628 324.094 254.058 324.189C253.978 324.229 253.91 324.287 253.857 324.358C253.805 324.43 253.77 324.513 253.757 324.601C253.718 324.74 253.718 324.888 253.757 325.028C253.796 325.167 253.873 325.293 253.979 325.392C254.315 325.606 254.719 325.685 255.111 325.614C255.649 325.568 256.18 325.465 256.695 325.305H256.743C256.743 325.305 256.743 325.305 256.743 325.266C256.743 325.226 256.885 325.266 256.893 325.202H257.02V325.163ZM255.373 323.184C255.373 323.105 255.428 323.002 255.626 322.963H255.689C255.746 322.958 255.803 322.966 255.856 322.985C255.909 323.004 255.958 323.034 255.998 323.074C256.357 323.611 256.535 324.249 256.505 324.894L256.378 324.83C255.861 324.416 255.505 323.834 255.373 323.184ZM254.153 325.155C254.092 325.09 254.049 325.011 254.027 324.926C254.005 324.84 254.005 324.75 254.026 324.664C254.031 324.621 254.046 324.579 254.071 324.543C254.096 324.507 254.13 324.478 254.169 324.458C254.549 324.284 255.571 324.72 256.291 325.115C255.238 325.392 254.454 325.408 254.153 325.155Z" fill="#407BFF"/>
<path d="M257.162 324.435L263.855 324.024C263.966 324.012 264.077 324.045 264.164 324.115C264.252 324.184 264.308 324.285 264.322 324.396L264.979 329.666C264.995 329.944 264.901 330.217 264.717 330.427C264.534 330.637 264.275 330.767 263.997 330.789C261.661 330.892 260.544 330.789 257.598 330.987C254.988 331.257 252.363 331.342 249.741 331.24C247.247 330.995 247.548 328.542 248.625 328.423C251.183 328.131 254.565 326.263 256.157 324.839C256.439 324.598 256.792 324.456 257.162 324.435Z" fill="#263238"/>
<path opacity="0.2" d="M244.728 291.651C248.799 289.08 253.559 286.049 258.24 283.058C257.234 273.19 257.321 265.016 260.212 264.391C262.033 263.987 266.294 264.003 271.751 264.13V243.809C256.434 246.974 241.204 252.877 240.071 257.633C238.392 264.296 241.22 278.484 244.728 291.651Z" fill="black"/>
<path d="M228.959 325.353L222.988 325.463L220.01 311.695L225.974 311.592L228.959 325.353Z" fill="#EBB376"/>
<path opacity="0.2" d="M225.974 311.592L220.01 311.703L221.713 319.576L227.629 319.18L225.974 311.592Z" fill="black"/>
<path d="M250.66 241.815L250.755 233.3L282.894 227.199C282.894 227.199 291.107 249.174 286.11 259.073C281.532 268.157 232.761 262.745 225.253 264.383C217.745 266.021 229.363 316.522 229.363 316.522L218.465 317.313C218.465 317.313 201.619 271.9 205.08 257.617C206.593 251.397 232.301 243.144 250.66 241.815Z" fill="#263238"/>
<path d="M230.527 317.013L217.539 317.875L215.63 312.265L229.933 311.6L230.527 317.013Z" fill="#407BFF"/>
<path opacity="0.2" d="M230.527 317.013L217.539 317.875L215.63 312.265L229.933 311.6L230.527 317.013Z" fill="white"/>
<path d="M222.084 325.163C222.084 325.06 221.989 323.374 221.364 322.836C221.27 322.766 221.162 322.715 221.048 322.688C220.933 322.661 220.814 322.657 220.698 322.678C220.577 322.69 220.463 322.74 220.372 322.821C220.281 322.902 220.218 323.01 220.192 323.129C220.219 323.639 220.43 324.123 220.786 324.49C220.285 324.201 219.7 324.095 219.13 324.189C219.049 324.227 218.979 324.284 218.926 324.356C218.873 324.428 218.84 324.512 218.829 324.601C218.789 324.74 218.788 324.887 218.826 325.026C218.863 325.166 218.939 325.292 219.043 325.392C219.382 325.608 219.789 325.687 220.184 325.614C220.721 325.568 221.252 325.465 221.768 325.305H221.76C221.76 325.305 221.76 325.305 221.76 325.266C221.76 325.226 221.902 325.266 221.91 325.202H222.029L222.084 325.163ZM220.445 323.184C220.445 323.105 220.493 323.002 220.691 322.963H220.762C220.817 322.959 220.872 322.967 220.924 322.986C220.976 323.005 221.023 323.035 221.063 323.074C221.425 323.609 221.603 324.248 221.57 324.894L221.443 324.83C220.924 324.419 220.57 323.835 220.445 323.184ZM219.225 325.155C219.164 325.09 219.12 325.012 219.096 324.926C219.073 324.841 219.071 324.751 219.091 324.664C219.097 324.62 219.114 324.578 219.14 324.542C219.166 324.506 219.201 324.478 219.241 324.458C219.621 324.284 220.643 324.72 221.364 325.115C220.31 325.392 219.526 325.408 219.225 325.155Z" fill="#407BFF"/>
<path d="M222.235 324.435L228.92 324.024C229.031 324.012 229.142 324.045 229.229 324.115C229.316 324.184 229.373 324.285 229.387 324.396L230.044 329.666C230.062 329.943 229.969 330.216 229.787 330.427C229.605 330.637 229.347 330.767 229.07 330.789C226.694 330.892 225.609 330.789 222.671 330.987C220.058 331.257 217.43 331.342 214.806 331.24C212.311 330.995 212.62 328.542 213.697 328.423C216.248 328.131 219.629 326.263 221.229 324.839C221.511 324.597 221.864 324.455 222.235 324.435Z" fill="#263238"/>
<path d="M284.09 235.643L268.924 237.542L268.433 235.405L283.623 233.3L284.09 235.643Z" fill="black"/>
<path d="M267.173 235.421L267.355 237.542L253.345 239.369V237.28L267.173 235.421Z" fill="black"/>
<path d="M252.474 237.399V239.37L250.438 239.631V237.724L252.474 237.399Z" fill="black"/>
<path d="M285.12 235.192L284.605 233.3H285.12L285.73 234.772L285.12 235.192Z" fill="black"/>
<path d="M242.035 198C242.035 198 250.953 191.235 260.346 191.346C269.739 191.456 290.094 224.034 289.508 251.485L248.553 252.339V228.442C247.873 218.032 245.678 207.777 242.035 198Z" fill="#407BFF"/>
<path opacity="0.9" d="M242.035 198C242.035 198 250.953 191.235 260.346 191.346C269.739 191.456 290.094 224.034 289.508 251.485L248.553 252.339V228.442C247.873 218.032 245.678 207.777 242.035 198Z" fill="white"/>
<path d="M242.035 198C244.917 201.778 246.381 206.446 246.17 211.192C246.17 211.192 235.137 225.696 229.68 225.696C224.223 225.696 219.828 212.513 219.828 212.513L224.619 209.609C224.619 209.609 228.223 215.425 231.296 214.776C234.369 214.127 242.035 198 242.035 198Z" fill="#407BFF"/>
<path opacity="0.8" d="M242.035 198C244.917 201.778 246.381 206.446 246.17 211.192C246.17 211.192 235.137 225.696 229.68 225.696C224.223 225.696 219.828 212.513 219.828 212.513L224.619 209.609C224.619 209.609 228.223 215.425 231.296 214.776C234.369 214.127 242.035 198 242.035 198Z" fill="white"/>
<path d="M230.351 198.626L230.029 198.737L230.43 199.896L230.752 199.785L230.351 198.626Z" fill="#263238"/>
<path d="M233.545 199.527L235.683 205.7C235.762 205.933 235.747 206.187 235.64 206.409C235.534 206.631 235.344 206.802 235.113 206.886L231.066 208.279C230.833 208.36 230.577 208.346 230.354 208.239C230.132 208.132 229.96 207.942 229.878 207.709L227.739 201.529C227.7 201.413 227.683 201.291 227.691 201.169C227.699 201.047 227.732 200.927 227.786 200.818C227.841 200.708 227.916 200.61 228.009 200.53C228.102 200.45 228.209 200.389 228.326 200.35L232.365 198.95C232.48 198.91 232.602 198.893 232.724 198.901C232.846 198.908 232.965 198.94 233.075 198.993C233.185 199.047 233.283 199.122 233.363 199.213C233.444 199.305 233.506 199.412 233.545 199.527Z" fill="#407BFF"/>
<path opacity="0.2" d="M233.545 199.527L235.683 205.7C235.762 205.933 235.747 206.187 235.64 206.409C235.533 206.631 235.344 206.802 235.113 206.886L232.452 207.804C232.217 207.885 231.961 207.87 231.738 207.761C231.515 207.653 231.345 207.461 231.264 207.227L229.133 201.055C229.092 200.939 229.074 200.817 229.08 200.695C229.087 200.572 229.117 200.453 229.17 200.342C229.223 200.232 229.298 200.133 229.389 200.052C229.481 199.97 229.588 199.908 229.703 199.868L232.365 198.95C232.48 198.91 232.602 198.893 232.724 198.901C232.846 198.908 232.965 198.94 233.075 198.993C233.184 199.047 233.282 199.122 233.363 199.213C233.444 199.305 233.505 199.412 233.545 199.527Z" fill="white"/>
<path d="M233.197 200.457L230.001 201.561C229.893 201.598 229.836 201.715 229.873 201.823L230.557 203.797C230.594 203.905 230.711 203.962 230.818 203.924L234.015 202.821C234.122 202.783 234.179 202.666 234.142 202.559L233.459 200.584C233.422 200.477 233.305 200.42 233.197 200.457Z" fill="#263238"/>
<path d="M232.305 204.942L231.721 205.144C231.613 205.181 231.556 205.298 231.594 205.405L231.795 205.989C231.833 206.096 231.95 206.153 232.057 206.116L232.641 205.914C232.749 205.877 232.806 205.76 232.769 205.653L232.567 205.069C232.53 204.962 232.412 204.905 232.305 204.942Z" fill="#407BFF"/>
<path d="M234.231 204.263L233.647 204.465C233.54 204.502 233.483 204.619 233.52 204.727L233.722 205.31C233.759 205.417 233.876 205.474 233.984 205.437L234.568 205.236C234.675 205.198 234.732 205.081 234.695 204.974L234.493 204.391C234.456 204.283 234.339 204.226 234.231 204.263Z" fill="#407BFF"/>
<path d="M320.189 263.766H233.093V331.478H320.189V263.766Z" fill="#407BFF"/>
<path opacity="0.2" d="M280.083 263.766H233.093V331.478H280.083V263.766Z" fill="white"/>
<path d="M328.878 190.578H288.003C286.401 190.579 284.848 191.13 283.604 192.138C282.36 193.147 281.5 194.551 281.168 196.117L265.177 271.291H320.34L335.713 199.029C335.931 198.01 335.919 196.956 335.677 195.943C335.435 194.93 334.969 193.983 334.314 193.173C333.659 192.363 332.831 191.71 331.89 191.261C330.949 190.811 329.92 190.578 328.878 190.578Z" fill="#407BFF"/>
<path opacity="0.2" d="M279.465 271.275H265.209L281.199 196.101C281.531 194.535 282.391 193.131 283.636 192.123C284.88 191.114 286.433 190.564 288.034 190.562C289.075 190.563 290.103 190.796 291.042 191.244C291.981 191.692 292.808 192.344 293.463 193.153C294.118 193.961 294.584 194.905 294.828 195.916C295.071 196.927 295.085 197.98 294.869 198.997L279.465 271.275Z" fill="white"/>
<path d="M261.146 241.427H225.997C224.351 241.427 222.771 242.081 221.607 243.244C220.442 244.408 219.788 245.986 219.788 247.631V331.509H232.207V331.351H254.945V331.509H267.356V247.631C267.356 245.986 266.701 244.408 265.537 243.244C264.372 242.081 262.793 241.427 261.146 241.427Z" fill="#407BFF"/>
<path opacity="0.2" d="M261.146 241.427H225.997C224.351 241.427 222.771 242.081 221.607 243.244C220.442 244.408 219.788 245.986 219.788 247.631V331.509H232.207V331.351H254.945V331.509H267.356V247.631C267.356 245.986 266.701 244.408 265.537 243.244C264.372 242.081 262.793 241.427 261.146 241.427Z" fill="white"/>
<path d="M261.146 241.427C260.331 241.427 259.524 241.588 258.771 241.9C258.018 242.212 257.334 242.669 256.758 243.245C256.182 243.821 255.726 244.505 255.415 245.258C255.103 246.01 254.944 246.817 254.945 247.631V331.509H267.355V247.631C267.355 245.986 266.701 244.408 265.537 243.244C264.372 242.081 262.793 241.427 261.146 241.427Z" fill="#407BFF"/>
<path d="M188.639 113.79L189.146 114.858" stroke="#407BFF" stroke-miterlimit="10"/>
<path d="M190.183 117.018L224.881 189.367" stroke="#407BFF" stroke-miterlimit="10" stroke-dasharray="3.03 3.03"/>
<path d="M225.396 190.443L225.91 191.52" stroke="#407BFF" stroke-miterlimit="10"/>
<path d="M227.375 191.496C227.375 191.785 227.289 192.068 227.128 192.309C226.967 192.55 226.738 192.737 226.471 192.848C226.203 192.959 225.908 192.988 225.624 192.931C225.34 192.875 225.079 192.736 224.874 192.531C224.669 192.326 224.53 192.065 224.473 191.781C224.416 191.497 224.445 191.203 224.556 190.935C224.667 190.668 224.855 190.439 225.096 190.278C225.337 190.118 225.62 190.032 225.91 190.032C226.299 190.032 226.671 190.186 226.946 190.461C227.221 190.735 227.375 191.107 227.375 191.496Z" fill="#407BFF"/>
<path d="M223.467 148.582C242.703 129.364 242.702 98.2048 223.467 78.9866C204.232 59.7684 173.046 59.7684 153.811 78.9866C134.576 98.2048 134.576 129.364 153.811 148.582C173.046 167.8 204.232 167.8 223.467 148.582Z" fill="#407BFF"/>
<path opacity="0.7" d="M234.683 118.33C237.199 92.9143 218.618 70.2725 193.18 67.7581C167.742 65.2437 145.08 83.8088 142.564 109.224C140.047 134.64 158.628 157.282 184.066 159.796C209.504 162.311 232.166 143.746 234.683 118.33Z" fill="white"/>
<path d="M171.436 92.8516C171.436 92.8516 196.17 130.351 171.436 130.351C146.702 130.351 171.436 92.8516 171.436 92.8516Z" fill="#407BFF"/>
<path opacity="0.7" d="M165.425 110.996C165.795 109.92 166.256 108.877 166.803 107.878" stroke="white" stroke-width="2" stroke-linecap="round" stroke-linejoin="round"/>
<path opacity="0.7" d="M171.437 127.803C168.546 127.511 165.101 126.672 163.873 123.712C162.733 120.903 163.651 117.382 164.38 114.565" stroke="white" stroke-width="2" stroke-linecap="round" stroke-linejoin="round"/>
<path d="M188.631 67.5454V112.84H188.575L175.967 115.87L188.575 118.901H188.631V160.049C200.906 160.049 212.679 155.177 221.359 146.504C230.039 137.832 234.915 126.07 234.915 113.805C234.915 101.54 230.039 89.7781 221.359 81.1057C212.679 72.4333 200.906 67.5612 188.631 67.5612V67.5454Z" fill="#263238"/>
<path d="M220.113 101.128H213.911L210.807 106.501L213.911 111.874H220.113L223.217 106.501L220.113 101.128Z" fill="#407BFF"/>
<path opacity="0.7" d="M220.113 101.128H213.911L210.807 106.501L213.911 111.874H220.113L223.217 106.501L220.113 101.128Z" fill="white"/>
<path opacity="0.4" d="M210.807 106.501H217.008L220.113 101.128H213.911L210.807 106.501Z" fill="white"/>
<path d="M216.85 128.231L212.937 126.98L209.896 129.75L210.775 133.762L214.688 135.004L217.729 132.243L216.85 128.231Z" fill="#407BFF"/>
<path opacity="0.7" d="M216.85 128.231L212.937 126.98L209.896 129.75L210.775 133.762L214.688 135.004L217.729 132.243L216.85 128.231Z" fill="white"/>
<path opacity="0.4" d="M209.896 129.75L213.808 130.992L216.85 128.231L212.937 126.98L209.896 129.75Z" fill="white"/>
<path d="M217.523 88.4599L215.852 87.9297L214.561 89.1087L214.933 90.8179L216.604 91.3481L217.895 90.1691L217.523 88.4599Z" fill="#407BFF"/>
<path opacity="0.7" d="M217.523 88.4599L215.852 87.9297L214.561 89.1087L214.933 90.8179L216.604 91.3481L217.895 90.1691L217.523 88.4599Z" fill="white"/>
<path opacity="0.4" d="M214.561 89.1087L216.224 89.6389L217.523 88.4599L215.852 87.9297L214.561 89.1087Z" fill="white"/>
<path d="M202.206 126.917L200.503 124.116L197.232 124.18L195.648 127.052L197.343 129.853L200.622 129.782L202.206 126.917Z" fill="#407BFF"/>
<path opacity="0.7" d="M202.206 126.917L200.503 124.116L197.232 124.18L195.648 127.052L197.343 129.853L200.622 129.782L202.206 126.917Z" fill="white"/>
<path opacity="0.4" d="M197.232 124.18L198.927 126.981L202.206 126.917L200.503 124.116L197.232 124.18Z" fill="white"/>
<path d="M228.397 116.606L226.702 113.805L223.423 113.868L221.847 116.741L223.542 119.542L226.813 119.471L228.397 116.606Z" fill="#407BFF"/>
<path opacity="0.7" d="M228.397 116.606L226.702 113.805L223.423 113.868L221.847 116.741L223.542 119.542L226.813 119.471L228.397 116.606Z" fill="white"/>
<path opacity="0.4" d="M223.423 113.868L225.118 116.67L228.397 116.606L226.702 113.805L223.423 113.868Z" fill="white"/>
<path d="M200.843 80.6099L197.62 81.1717L196.487 84.2419L198.586 86.7583L201.81 86.1965L202.942 83.1262L200.843 80.6099Z" fill="#407BFF"/>
<path opacity="0.7" d="M200.843 80.6099L197.62 81.1717L196.487 84.2419L198.586 86.7583L201.81 86.1965L202.942 83.1262L200.843 80.6099Z" fill="white"/>
<path opacity="0.4" d="M196.487 84.2419L199.719 83.6801L200.843 80.6099L197.62 81.1717L196.487 84.2419Z" fill="white"/>
<path d="M199.038 147.594L200.843 148.591L202.602 147.523L202.562 145.473L200.756 144.476L198.998 145.544L199.038 147.594Z" fill="#407BFF"/>
<path opacity="0.7" d="M199.038 147.594L200.843 148.591L202.602 147.523L202.562 145.473L200.756 144.476L198.998 145.544L199.038 147.594Z" fill="white"/>
<path opacity="0.2" d="M202.602 147.523L200.796 146.534L199.038 147.594L200.843 148.591L202.602 147.523Z" fill="black"/>
<path d="M200.796 118.126L205.888 119.811L209.896 116.25L208.811 111.004L203.718 109.318L199.719 112.879L200.796 118.126Z" fill="#407BFF"/>
<path opacity="0.7" d="M200.796 118.126L205.888 119.811L209.896 116.25L208.811 111.004L203.718 109.318L199.719 112.879L200.796 118.126Z" fill="white"/>
<path opacity="0.2" d="M209.896 116.25L204.803 114.565L200.796 118.126L205.888 119.811L209.896 116.25Z" fill="black"/>
<path d="M194.088 98.454L195.894 102.149L200.004 102.426L202.301 99.0158L200.487 95.3204L196.385 95.0435L194.088 98.454Z" fill="#407BFF"/>
<path opacity="0.7" d="M194.088 98.454L195.894 102.149L200.004 102.426L202.301 99.0158L200.487 95.3204L196.385 95.0435L194.088 98.454Z" fill="white"/>
<path opacity="0.2" d="M200.004 102.426L198.19 98.7311L194.088 98.4541L195.894 102.149L200.004 102.426Z" fill="black"/>
</svg>
