<svg width="279" height="271" viewBox="0 0 279 271" fill="none" xmlns="http://www.w3.org/2000/svg">
<path d="M3.54883 106.66C4.41584 107.31 25.5462 129.339 25.5462 129.339L27.1502 120.049L47.5189 134.999L22.747 106.976L21.2235 117.232L3.54883 106.66Z" fill="#F5F5F5"/>
<path d="M258.13 162.936C257.609 162.936 243.353 159.579 243.353 159.579L245.149 163.747L233.061 163.053L250.339 167.828L248.264 163.307L258.13 162.936Z" fill="#EBEBEB"/>
<path d="M38.0685 151.392C37.5483 151.355 23.2921 148.023 23.2921 148.023L25.0818 152.191L12.9932 151.491L30.2715 156.278L28.2031 151.788L38.0685 151.392Z" fill="#EBEBEB"/>
<path d="M233.865 250.3C233.246 249.978 217.764 238.304 217.764 238.304L217.702 244.299L203.458 236.966L221.795 252.034L221.721 245.451L233.865 250.3Z" fill="#EBEBEB"/>
<path d="M265.975 114.011C264.985 114.5 235.314 123.462 235.314 123.462L243.006 129.209L220.092 140.703L256.841 131.209L248.264 125.103L265.975 114.011Z" fill="#F5F5F5"/>
<path d="M53.8671 225.683C52.8762 226.172 23.2057 235.127 23.2057 235.127L30.8974 240.874L7.9834 252.368L44.7386 242.893L36.1614 236.787L53.8671 225.683Z" fill="#F5F5F5"/>
<path d="M186.241 65.1611C185.956 65.8176 174.957 82.6934 174.957 82.6934L181.188 82.328L174.604 97.637L188.91 77.5347L182.098 78.092L186.241 65.1611Z" fill="#EBEBEB"/>
<path d="M224.681 93.0665C225.227 92.8817 225.725 92.577 226.138 92.1747C226.551 91.7723 226.869 91.2826 227.069 90.7414C227.268 90.2002 227.344 89.6212 227.29 89.047C227.237 88.4727 227.055 87.9177 226.759 87.4227C226.463 86.9277 226.06 86.5052 225.58 86.1863C225.099 85.8673 224.553 85.6599 223.982 85.5793C223.411 85.4987 222.829 85.547 222.279 85.7206C221.729 85.8942 221.225 86.1887 220.804 86.5825C219.726 83.9691 218.653 81.3556 217.583 78.7422L214.487 81.4299L215.304 84.5574C214.636 84.6632 214.005 84.937 213.471 85.3531C212.937 85.7691 212.517 86.3139 212.251 86.9364C211.985 87.559 211.881 88.2388 211.95 88.9123C212.018 89.5859 212.256 90.2311 212.642 90.7875C210.4 90.8432 207.953 91.3634 206.566 93.1346C205.934 94.033 205.595 95.1047 205.595 96.2032C205.595 97.3018 205.934 98.3735 206.566 99.2719C207.221 100.155 208.074 100.872 209.055 101.367C210.037 101.862 211.121 102.12 212.22 102.121C214.428 102.099 216.573 101.384 218.351 100.077C218.802 100.546 219.344 100.917 219.944 101.167C220.544 101.417 221.19 101.541 221.84 101.532C222.49 101.523 223.131 101.38 223.723 101.112C224.316 100.844 224.847 100.458 225.284 99.9761C225.721 99.4946 226.054 98.9284 226.263 98.3127C226.472 97.697 226.552 97.045 226.498 96.397C226.445 95.7491 226.258 95.1191 225.951 94.5462C225.644 93.9732 225.222 93.4696 224.712 93.0665H224.681Z" fill="#F5F5F5"/>
<path d="M252.673 7.9815C251.682 6.01834 250.45 4.04278 248.511 3.02713C246.573 2.01149 243.78 2.25921 242.647 4.14806C241.476 1.23737 238.033 -0.298488 234.918 0.0483184C231.803 0.395124 229.047 2.28398 226.867 4.56299C225.82 5.67153 224.842 6.95967 224.65 8.47694C224.553 9.31514 224.752 10.1609 225.214 10.8674C224.502 10.6516 223.743 10.6411 223.026 10.8372C222.308 11.0333 221.66 11.4281 221.157 11.976C219.745 13.6419 219.919 16.311 221.157 18.0575C221.834 18.9184 222.675 19.6357 223.632 20.1674C224.589 20.699 225.643 21.0345 226.731 21.1539C227.759 21.3088 228.843 21.3397 229.734 21.8723C230.307 22.2688 230.769 22.8054 231.076 23.4309C231.383 24.0564 231.524 24.75 231.487 25.4457C231.487 26.8329 231.264 31.5705 231.388 33.0382H236.893C237.197 30.9574 238.578 26.1021 238.751 24.3681C239.461 24.9504 240.318 25.3259 241.227 25.4534C242.137 25.5808 243.063 25.4553 243.906 25.0906C244.749 24.7259 245.475 24.1361 246.004 23.3859C246.534 22.6358 246.846 21.7542 246.907 20.8381C246.963 19.9153 246.907 18.7449 247.744 18.3609C248.282 18.1132 248.908 18.3609 249.496 18.4662C251.732 18.8502 253.8 16.7445 254.159 14.5089C254.519 12.2732 253.701 10.0066 252.673 7.9815Z" fill="#F5F5F5"/>
<path d="M231.283 28.7651C231.283 28.7651 229.004 40.6556 229.815 44.4023C230.627 48.149 232.423 48.149 232.423 48.149C232.423 48.149 232.584 50.1865 233.153 53.1963C233.723 56.2061 235.352 57.2713 234.392 61.2472C234.392 61.2472 227.221 59.5379 224.62 65.0744C222.018 70.6109 222.254 76.5562 225.592 79.8137C228.93 83.0712 234.219 89.4004 246.115 85.7589C256.581 82.5571 261.821 74.7416 263.456 65.093C265.091 55.6239 260.254 36.3267 239.817 40.4821C239.817 40.4821 237.129 40.7237 237.619 37.3857C238.108 34.0477 238.263 28.1953 238.263 28.1953L231.283 28.7651Z" fill="#EBEBEB"/>
<path d="M225.573 65.1858C223.704 64.2304 221.705 63.5563 219.64 63.1855C217.658 62.8511 212.016 64.1825 211.477 70.0411C210.939 75.8996 213.558 84.1363 213.558 84.1363L219.794 82.427C219.047 79.4605 218.507 76.4455 218.178 73.4039C217.949 70.0225 220.166 70.1154 221.95 70.8895C224.953 72.1962 224.575 74.2585 224.575 74.2585L225.573 65.1858Z" fill="#EBEBEB"/>
<path d="M235.977 42.73C235.707 43.0145 235.422 43.2833 235.122 43.5351C233.778 44.85 232.918 46.5807 232.682 48.4461C232.668 48.8386 232.626 49.2297 232.558 49.6166C232.447 49.2305 232.414 48.8265 232.459 48.4275C232.512 47.4581 232.763 46.5098 233.196 45.6407C233.627 44.7716 234.23 43.9985 234.967 43.3679C235.258 43.0909 235.601 42.8741 235.977 42.73Z" fill="#E0E0E0"/>
<path d="M241.705 66.9882C239.7 64.445 237.023 62.5142 233.977 61.4146C234.455 61.4584 234.924 61.5797 235.364 61.7737C236.454 62.1762 237.483 62.7263 238.423 63.4087C239.363 64.089 240.207 64.8931 240.931 65.7992C241.25 66.1523 241.512 66.5536 241.705 66.9882Z" fill="#E0E0E0"/>
<path d="M222.736 71.2798C222.603 70.8812 222.548 70.4606 222.575 70.0412C222.588 67.9575 223.351 65.9481 224.724 64.3808C224.983 64.0399 225.307 63.7536 225.678 63.5386C224.75 64.6122 223.996 65.8241 223.442 67.1305C222.992 68.4684 222.754 69.8683 222.736 71.2798Z" fill="#E0E0E0"/>
<path d="M217.485 27.198C216.997 26.6113 216.322 26.2104 215.574 26.0628C214.826 25.9151 214.049 26.0298 213.375 26.3874C212.702 26.745 212.171 27.3238 211.874 28.0263C211.577 28.7289 211.531 29.5124 211.744 30.245C211.245 30.2856 210.766 30.4529 210.35 30.731C209.934 31.0091 209.597 31.3888 209.369 31.834C209.141 32.2792 209.031 32.7753 209.049 33.275C209.066 33.7748 209.212 34.2617 209.47 34.6896C209.729 35.1176 210.093 35.4723 210.527 35.7202C210.962 35.9681 211.452 36.1009 211.952 36.106C212.452 36.1112 212.945 35.9885 213.385 35.7496C213.824 35.5107 214.195 35.1636 214.462 34.7411C214.545 35.239 214.744 35.7102 215.045 36.1155C215.346 36.5207 215.739 36.8483 216.192 37.0709C216.645 37.2936 217.145 37.4049 217.649 37.3956C218.154 37.3863 218.649 37.2567 219.094 37.0175C219.538 36.7784 219.919 36.4366 220.205 36.0206C220.49 35.6045 220.673 35.1263 220.736 34.6257C220.8 34.125 220.743 33.6163 220.571 33.142C220.399 32.6677 220.115 32.2414 219.745 31.8985C220.15 31.843 220.535 31.6932 220.872 31.4613C221.208 31.2293 221.484 30.9217 221.68 30.5632C221.875 30.2046 221.984 29.8052 221.997 29.3971C222.009 28.9889 221.926 28.5835 221.753 28.2134C221.581 27.8434 221.324 27.519 221.003 27.2665C220.682 27.014 220.306 26.8404 219.906 26.7597C219.506 26.679 219.092 26.6934 218.698 26.8018C218.305 26.9102 217.942 27.1096 217.639 27.3838" fill="#F5F5F5"/>
<path d="M236.088 92.7445C235.63 92.9098 235.253 93.2431 235.032 93.6769C234.812 94.1106 234.764 94.6121 234.9 95.0793C235.036 95.5465 235.345 95.9444 235.764 96.1919C236.183 96.4395 236.681 96.5182 237.156 96.412C237.63 96.3057 238.047 96.0226 238.321 95.6201C238.594 95.2177 238.704 94.7261 238.628 94.2455C238.552 93.7649 238.296 93.3312 237.911 93.0329C237.527 92.7345 237.043 92.5937 236.559 92.6393" fill="#F5F5F5"/>
<path d="M211.174 16.435C210.716 16.6002 210.339 16.9336 210.118 17.3673C209.898 17.801 209.85 18.3025 209.986 18.7697C210.122 19.2369 210.431 19.6348 210.85 19.8824C211.269 20.1299 211.767 20.2086 212.242 20.1024C212.716 19.9962 213.133 19.713 213.406 19.3106C213.68 18.9081 213.79 18.4166 213.714 17.9359C213.638 17.4553 213.382 17.0217 212.997 16.7233C212.613 16.4249 212.129 16.2842 211.645 16.3297" fill="#F5F5F5"/>
<path d="M225.759 75.6769C225.759 75.6769 225.616 75.5283 225.43 75.2062C225.174 74.7547 224.966 74.2772 224.811 73.7818C224.262 72.13 224.227 70.3503 224.712 68.6782C225.196 67.0062 226.176 65.5206 227.524 64.4181C227.922 64.0814 228.356 63.7886 228.818 63.5449C228.979 63.4413 229.157 63.3679 229.344 63.3281C229.375 63.3777 228.632 63.7245 227.672 64.5667C226.41 65.6797 225.49 67.1295 225.022 68.7462C224.553 70.3629 224.556 72.0796 225.028 73.6951C225.368 74.9585 225.814 75.6459 225.759 75.6769Z" fill="white"/>
<path d="M235.933 53.5864C235.612 53.2995 235.356 52.9467 235.184 52.5522C234.713 51.6232 234.462 50.5986 234.449 49.5572C234.436 48.5158 234.662 47.4854 235.11 46.545C235.272 46.1475 235.517 45.7888 235.828 45.4922C235.676 45.8827 235.505 46.2651 235.314 46.6379C234.942 47.564 234.756 48.5548 234.769 49.5529C234.782 50.551 234.992 51.5367 235.388 52.4531C235.698 53.1591 235.977 53.5554 235.933 53.5864Z" fill="white"/>
<path d="M231.295 39.7825C231.085 38.7027 231.104 37.5909 231.351 36.5188C231.495 35.4223 231.867 34.3679 232.441 33.4224C232.533 33.4595 231.982 34.8096 231.673 36.556C231.363 38.3024 231.394 39.7763 231.295 39.7825Z" fill="white"/>
<path d="M212.822 73.014C212.569 71.9987 212.579 70.9356 212.853 69.9254C213.126 68.9153 213.652 67.9917 214.382 67.2422C213.885 68.1246 213.47 69.0513 213.144 70.0104C212.942 70.9992 212.834 72.0049 212.822 73.014Z" fill="white"/>
<path d="M278.349 270.458C278.349 270.637 216.035 270.78 139.181 270.78C62.326 270.78 0 270.637 0 270.458C0 270.278 62.3012 270.136 139.181 270.136C216.06 270.136 278.349 270.278 278.349 270.458Z" fill="#263238"/>
<path d="M50.4666 21.0857L37.2446 7.39307L33.9561 29.0499L16.238 28.4491L27.3234 43.0088L16.1699 57.649L34.6435 54.0075L37.3127 72.5926L52.2501 61.278L71.0829 71.1434L66.9584 52.1186L88.3241 48.7497L71.7084 38.9462L81.3942 22.2376L64.7847 28.7278L62.7658 8.11764L50.4666 21.0857Z" fill="white"/>
<path d="M50.4664 21.1166C50.4664 21.1166 50.7389 20.8131 51.2715 20.2433L53.6434 17.7228L62.7099 8.09895L62.8275 7.98128V8.1423C63.3849 13.716 64.0661 20.7016 64.8774 28.7525L64.735 28.6596L81.3383 22.1508L81.6665 22.0207L81.4869 22.3304C78.5019 27.4953 75.2444 33.1185 71.8135 39.0514L71.764 38.8656C77.0528 41.9621 82.6202 45.2567 88.3859 48.6629L88.7451 48.8734L88.3363 48.9353L66.9706 52.3105L67.1007 52.1185C68.4136 58.1814 69.807 64.5974 71.2252 71.1433L71.2995 71.4777L70.996 71.3229L54.6776 62.7766L52.1632 61.4637H52.3305L37.4116 72.7225L37.1949 72.8835L37.1577 72.6172C36.2494 66.2839 35.3597 60.0909 34.4885 54.0383L34.6743 54.1684L16.2007 57.8037L15.8105 57.878L16.0521 57.5683L27.1994 42.9344V43.1016L16.1388 28.5481L15.9778 28.3376H16.2441L33.9559 28.9569L33.8445 29.0497C35.1326 20.4973 36.2659 13.2577 37.1639 7.38056V7.23193L37.2692 7.3434L47.085 17.537L49.6056 20.1752C50.1753 20.7945 50.4664 21.0856 50.4664 21.0856C50.4664 21.0856 50.1753 20.8007 49.6056 20.2186L47.0664 17.6175L37.1577 7.44869L37.2877 7.40534C36.4022 13.2825 35.3122 20.5406 34.0302 29.0807V29.1736H33.9312L16.2193 28.5915L16.3184 28.3871L27.4162 42.9406L27.4843 43.0211L27.4162 43.1078L16.2688 57.7541L16.1202 57.5188L34.5938 53.8649H34.7548V54.0322C35.6218 60.0765 36.5136 66.2694 37.4302 72.611L37.1763 72.5058L52.1075 61.1912L52.188 61.1293L52.2809 61.1726L54.7953 62.4917L71.1137 71.038L70.8784 71.2114C69.4664 64.6655 68.073 58.2496 66.7601 52.1866V52.0256H66.9211L88.2868 48.669L88.2373 48.9415L71.6339 39.0761L71.5163 39.008L71.5844 38.8904L81.2887 22.1694L81.4374 22.3428L64.8588 28.8268L64.7226 28.8763V28.7401C63.9485 20.6892 63.2734 13.7222 62.7346 8.12372L62.8647 8.17326L53.6991 17.7662L51.321 20.2433C50.7389 20.8131 50.4664 21.1166 50.4664 21.1166Z" fill="#263238"/>
<path d="M89.0111 61.2285C92.2253 65.4521 87.4505 70.2269 83.2269 67.0127C79.9756 62.7829 84.7504 58.0082 89.0111 61.2285Z" fill="white"/>
<path d="M89.0114 61.2282C88.7148 61.0937 88.429 60.9364 88.1568 60.7576C87.3678 60.378 86.4874 60.2299 85.6177 60.3303L85.2027 60.3984L84.794 60.547C84.5052 60.6576 84.2291 60.7988 83.9703 60.9681C83.4196 61.3715 82.9754 61.9029 82.676 62.5164C82.3763 63.2057 82.2734 63.9645 82.3787 64.7087C82.5327 65.5055 82.8651 66.2571 83.351 66.9072C83.9963 67.3805 84.7388 67.7042 85.5248 67.8547C86.2684 67.9591 87.0264 67.8584 87.7171 67.5636C88.3304 67.264 88.8618 66.8199 89.2653 66.2693C89.4384 66.0127 89.5798 65.7362 89.6864 65.4456C89.736 65.3032 89.7917 65.167 89.8351 65.0307C89.8784 64.8945 89.8784 64.752 89.9032 64.6158C90.0044 63.748 89.8562 62.8694 89.4759 62.0829C89.3017 61.8089 89.1466 61.5234 89.0114 61.2282C89.0114 61.2282 89.0733 61.284 89.1724 61.4202C89.2715 61.5565 89.4201 61.7546 89.5873 62.0395C90.0286 62.8402 90.2185 63.7552 90.1323 64.6653C90.1323 64.8078 90.089 64.9564 90.0642 65.105C90.0394 65.2537 89.9713 65.3961 89.9218 65.5509C89.8114 65.8616 89.666 66.1588 89.4883 66.4365C89.0665 67.0357 88.5026 67.5209 87.8471 67.8485C87.1036 68.1805 86.2816 68.2964 85.4752 68.1829L84.8559 68.0467C84.6443 67.9825 84.4374 67.9039 84.2366 67.8113L83.9394 67.6875L83.6607 67.5141L83.3882 67.3345L83.2458 67.2478L83.1776 67.1983H83.1405C82.6193 66.5045 82.2673 65.6987 82.1124 64.8449C81.9884 64.0783 82.0878 63.2923 82.3986 62.5806C82.7093 61.869 83.2185 61.2619 83.8651 60.8319C84.1428 60.6542 84.4399 60.5087 84.7506 60.3984C84.8993 60.3488 85.0479 60.2931 85.1903 60.2559L85.63 60.194C86.5396 60.1048 87.4549 60.2926 88.2559 60.7328C88.5284 60.9062 88.7265 61.0548 88.8752 61.1539C89.0238 61.253 89.0114 61.2158 89.0114 61.2282Z" fill="#263238"/>
<path d="M53.712 29.4521L52.8759 43.4482C52.8423 44.0011 52.6079 44.5228 52.2167 44.9151C51.8256 45.3074 51.3046 45.5433 50.7517 45.5785C50.1704 45.614 49.5977 45.4249 49.1518 45.0504C48.7058 44.6759 48.4206 44.1445 48.355 43.5658L46.7511 29.5078C46.722 29.2568 46.7468 29.0024 46.8238 28.7617C46.9008 28.521 47.0282 28.2995 47.1976 28.112C47.367 27.9244 47.5744 27.7752 47.806 27.6741C48.0376 27.5731 48.2881 27.5226 48.5408 27.526L51.9532 27.5632C52.1949 27.5644 52.4339 27.615 52.6554 27.712C52.8769 27.8091 53.0762 27.9504 53.2409 28.1274C53.4057 28.3043 53.5325 28.5132 53.6135 28.741C53.6945 28.9688 53.728 29.2108 53.712 29.4521Z" fill="#FF725E"/>
<path d="M47.0538 53.4622C47.2709 54.1004 47.6721 54.6601 48.2069 55.0705C48.7417 55.4809 49.386 55.7238 50.0587 55.7683C50.7313 55.8129 51.4021 55.6573 51.9864 55.321C52.5707 54.9848 53.0423 54.483 53.3417 53.879C53.6411 53.2751 53.7549 52.5959 53.6687 51.9273C53.5826 51.2587 53.3003 50.6306 52.8575 50.1223C52.4148 49.614 51.8313 49.2482 51.1809 49.071C50.5304 48.8939 49.8421 48.9135 49.2028 49.1271C48.7763 49.2697 48.3822 49.4951 48.0432 49.7904C47.7041 50.0857 47.4268 50.4451 47.2271 50.8479C47.0274 51.2508 46.9093 51.6891 46.8795 52.1378C46.8498 52.5864 46.909 53.0365 47.0538 53.4622Z" fill="#FF725E"/>
<path d="M145.924 6.60656C145.298 5.30869 144.284 4.23737 143.023 3.54066C141.762 2.84396 140.315 2.55628 138.883 2.71738C137.252 1.35963 135.214 0.586659 133.093 0.521565C130.971 0.456472 128.889 1.103 127.178 2.35819C125.959 1.55081 124.552 1.07342 123.093 0.97265C121.634 0.871882 120.174 1.15118 118.856 1.78327C117.538 2.41536 116.406 3.37862 115.571 4.57896C114.736 5.77929 114.226 7.17566 114.093 8.63166C112.64 8.32582 111.127 8.48535 109.77 9.08762C108.413 9.68989 107.281 10.7043 106.533 11.9868C105.785 13.2694 105.46 14.7549 105.604 16.2326C105.748 17.7102 106.354 19.1049 107.336 20.2187C105.749 20.6942 104.389 21.732 103.512 23.1378C102.634 24.5435 102.299 26.2209 102.57 27.8558C102.84 29.4907 103.697 30.971 104.98 32.0195C106.263 33.0681 107.885 33.6129 109.541 33.5521L144.265 14.4778C145.322 13.4989 146.049 12.2161 146.347 10.8062C146.644 9.39637 146.496 7.929 145.924 6.60656Z" fill="#263238"/>
<path d="M108.507 34.4562C109.445 27.2744 113.053 20.7092 118.614 16.0681C124.174 11.427 131.278 9.05047 138.512 9.4119L140.005 9.48621C156.026 11.2202 163.538 25.8047 161.327 41.7701L157.066 102.3L166.232 106.635L138.494 126.88L106.656 104.387L119.122 100.287L119.345 89.7222C119.345 89.7222 104.011 86.5514 104.587 71.0938C104.866 63.6313 106.693 48.3037 108.507 34.4562Z" fill="#FFBF9D"/>
<path d="M119.357 89.7224C119.357 89.7224 129.067 90.7752 139.793 84.7681C139.793 84.7681 134.641 96.1383 119.301 93.9832L119.357 89.7224Z" fill="#FF9A6C"/>
<path d="M114.86 49.7775C114.826 50.3521 115.017 50.9175 115.393 51.3535C115.769 51.7895 116.3 52.0617 116.873 52.1123C117.151 52.1486 117.434 52.1291 117.704 52.055C117.975 51.9809 118.228 51.8537 118.449 51.6807C118.67 51.5078 118.854 51.2926 118.99 51.0477C119.127 50.8028 119.214 50.5331 119.245 50.2544C119.281 49.6794 119.091 49.1131 118.715 48.6768C118.338 48.2404 117.806 47.9687 117.232 47.9196C116.954 47.8833 116.672 47.9028 116.401 47.9769C116.131 48.051 115.878 48.1782 115.657 48.3512C115.436 48.5241 115.252 48.7393 115.115 48.9842C114.978 49.2291 114.892 49.4988 114.86 49.7775Z" fill="#263238"/>
<path d="M111.449 42.1728C111.709 42.47 113.443 41.3181 115.815 41.442C118.187 41.5658 119.871 42.8416 120.15 42.5629C120.28 42.439 120.026 41.9065 119.295 41.3243C118.303 40.5656 117.1 40.1329 115.852 40.0857C114.618 40.0228 113.395 40.3523 112.359 41.0271C111.598 41.5535 111.307 42.0427 111.449 42.1728Z" fill="#263238"/>
<path d="M135.718 50.8427C135.686 51.4163 135.877 51.9801 136.253 52.4147C136.629 52.8494 137.159 53.1207 137.731 53.1713C138.01 53.2076 138.293 53.1882 138.563 53.1142C138.834 53.0401 139.088 52.913 139.309 52.7401C139.53 52.5672 139.715 52.352 139.852 52.1071C139.99 51.8622 140.077 51.5923 140.109 51.3134C140.142 50.7382 139.95 50.1728 139.573 49.737C139.196 49.3012 138.664 49.0292 138.09 48.9786C137.812 48.9423 137.529 48.962 137.258 49.0365C136.987 49.111 136.734 49.2387 136.513 49.4123C136.292 49.5859 136.108 49.8019 135.971 50.0475C135.835 50.2931 135.749 50.5634 135.718 50.8427Z" fill="#263238"/>
<path d="M134.766 43.7769C135.019 44.0804 136.76 42.9285 139.132 43.0523C141.503 43.1762 143.182 44.4458 143.467 44.1733C143.603 44.0494 143.349 43.5168 142.618 42.9347C141.622 42.1794 140.418 41.7472 139.169 41.6961C137.934 41.6331 136.712 41.9626 135.676 42.6374C134.908 43.1328 134.635 43.6407 134.766 43.7769Z" fill="#263238"/>
<path d="M125.271 60.9562C125.271 60.8199 123.828 60.4917 121.45 60.0706C120.83 59.9777 120.279 59.829 120.211 59.4079C120.143 58.9868 120.378 58.3242 120.707 57.6305C121.342 56.1938 122.015 54.6848 122.725 53.1035C125.543 46.6566 127.612 41.3369 127.352 41.2316C127.092 41.1263 124.596 46.2541 121.778 52.7071C121.097 54.2925 120.446 55.8119 119.827 57.2652C119.567 57.9402 119.134 58.7019 119.394 59.6247C119.471 59.843 119.597 60.0407 119.762 60.2028C119.927 60.3649 120.128 60.487 120.347 60.5598C120.678 60.6685 121.022 60.7351 121.369 60.758C123.766 61.0057 125.258 61.0924 125.271 60.9562Z" fill="#263238"/>
<path d="M144.835 39.4727C144.717 38.8038 142.575 38.8162 140.159 38.1412C137.744 37.4661 135.824 36.4319 135.446 36.9645C135.267 37.2184 135.527 37.8687 136.245 38.5995C137.182 39.4993 138.337 40.1396 139.596 40.4573C140.839 40.7935 142.149 40.7935 143.392 40.4573C144.358 40.2282 144.878 39.7885 144.835 39.4727Z" fill="#263238"/>
<path d="M120.595 37.2743C120.131 36.7045 118.118 37.138 115.783 37.0142C113.449 36.8903 111.448 36.3949 110.959 36.9089C110.742 37.169 111.021 37.7326 111.863 38.2961C113.03 38.9878 114.35 39.3773 115.705 39.4292C117.061 39.4811 118.407 39.1938 119.623 38.5934C120.515 38.0918 120.824 37.553 120.595 37.2743Z" fill="#263238"/>
<path d="M110.34 27.446C110.34 27.446 114.898 17.9707 119.673 15.9456C125.457 13.4685 127.581 19.8101 133.037 18.5777C138.493 17.3453 144.017 14.9857 149.306 19.4199C155.103 24.269 152.124 27.3221 152.155 34.1963C152.279 62.0646 156.967 70.1712 159.06 57.1536C159.289 55.7292 163.327 54.7879 164.213 48.756C165.371 40.9404 166.145 31.4157 164.671 25.7491C163.432 20.9805 160.905 17.5992 156.279 13.7781C148.978 7.75235 138.555 7.11448 131.452 7.49225C124.348 7.87002 110.303 15.2954 110.34 27.446Z" fill="#263238"/>
<path d="M158.093 56.6829C158.141 56.1169 158.304 55.5666 158.57 55.065C158.837 54.5634 159.202 54.121 159.644 53.7645C160.086 53.408 160.596 53.1448 161.143 52.9907C161.689 52.8366 162.262 52.7949 162.825 52.868C165.692 53.2829 168.813 55.0789 168.33 61.0241C167.47 71.5522 157.059 68.53 157.065 68.2266C157.072 68.016 157.697 61.0923 158.093 56.6829Z" fill="#FFBF9D"/>
<path d="M159.685 64.4675C159.735 64.4675 159.858 64.6161 160.156 64.7833C160.578 65.0022 161.068 65.0509 161.524 64.9196C162.676 64.6037 163.754 62.9131 163.964 61.018C164.064 60.1148 163.96 59.2007 163.661 58.3427C163.592 58.0078 163.444 57.6945 163.228 57.4292C163.013 57.164 162.736 56.9547 162.422 56.8192C162.216 56.7475 161.99 56.7496 161.785 56.8253C161.579 56.9009 161.406 57.0454 161.295 57.2341C161.134 57.519 161.184 57.7357 161.122 57.7481C161.06 57.7605 160.911 57.5562 161.035 57.1288C161.116 56.8759 161.279 56.6577 161.5 56.5095C161.809 56.3134 162.182 56.2467 162.54 56.3238C162.966 56.4465 163.353 56.6759 163.665 56.9902C163.977 57.3045 164.204 57.6933 164.324 58.1197C164.699 59.0692 164.835 60.0964 164.72 61.1109C164.478 63.2289 163.227 65.124 161.667 65.446C161.378 65.507 161.079 65.5013 160.792 65.4294C160.506 65.3575 160.239 65.2213 160.013 65.0311C159.679 64.7028 159.648 64.4675 159.685 64.4675Z" fill="#FF9A6C"/>
<path d="M158.905 36.2151C157.487 37.0821 155.988 37.9739 154.328 38.073C152.669 38.1721 150.823 37.1131 150.613 35.4596C150.52 34.7226 150.743 33.8742 150.291 33.2858C149.746 32.5798 148.668 32.7347 147.782 32.7904C144.686 32.9576 141.274 29.3905 140.642 26.3621C140.211 26.9117 139.588 27.2775 138.899 27.3856C138.209 27.4936 137.504 27.3359 136.926 26.9443C135.984 26.2923 135.161 25.4838 134.492 24.5538C133.619 23.4452 132.368 22.4358 130.962 22.5658C130.176 22.6339 129.42 23.0613 128.64 22.956C127.259 22.764 126.658 21.0981 126.516 19.7171C126.373 18.336 126.293 16.7197 125.153 15.9084C124.014 15.0971 122.676 15.4935 121.388 15.6173C120.1 15.7412 118.465 15.3634 118.199 14.0939C118.162 13.7569 118.193 13.4159 118.291 13.0914C118.389 12.7668 118.551 12.4653 118.768 12.205C119.69 10.9698 121.002 10.082 122.491 9.6852C123.98 9.28844 125.56 9.40602 126.974 10.0189C127.577 8.27925 128.683 6.75801 130.152 5.64833C131.622 4.53864 133.387 3.89056 135.226 3.78637C137.064 3.68219 138.892 4.12659 140.477 5.06316C142.062 5.99973 143.333 7.38622 144.129 9.04659C145.301 8.08608 146.687 7.42255 148.171 7.11234C149.654 6.80213 151.19 6.8544 152.649 7.26469C154.108 7.67499 155.446 8.43121 156.55 9.46916C157.655 10.5071 158.492 11.7961 158.992 13.2268C160.304 12.9435 161.67 13.054 162.919 13.5445C164.169 14.035 165.245 14.8836 166.014 15.9837C166.783 17.0839 167.209 18.3867 167.24 19.7285C167.271 21.0702 166.905 22.3913 166.188 23.5257C168.046 24.7024 169.569 26.6718 169.495 28.8579C169.421 31.044 167.191 33.1186 165.11 32.4436C165.566 33.3371 165.648 34.3751 165.339 35.3292C165.029 36.2833 164.353 37.0753 163.46 37.5311C162.566 37.9869 161.528 38.0691 160.574 37.7596C159.62 37.4501 158.828 36.7742 158.372 35.8807" fill="#263238"/>
<path d="M126.045 13.0659C126.034 13.1295 126.034 13.1943 126.045 13.2579C126.045 13.388 126.045 13.5799 126.082 13.8277C126.191 14.551 126.417 15.2518 126.751 15.9023C127.28 16.9316 128.039 17.8257 128.968 18.5157C130.193 19.449 131.689 19.9578 133.229 19.9649L133.062 19.7172C132.697 20.6643 132.721 21.7173 133.13 22.6464C133.557 23.6187 134.122 24.524 134.808 25.3342C135.138 25.7848 135.513 26.1999 135.929 26.5728C136.407 26.9507 136.97 27.2039 137.57 27.3097C138.189 27.4312 138.829 27.3987 139.432 27.2151C140.036 27.0315 140.585 26.7025 141.032 26.2569L140.642 26.1269C140.736 27.2322 141.059 28.3057 141.593 29.2784C142.126 30.2511 142.857 31.1015 143.738 31.7749C144.704 32.5693 145.902 33.0279 147.151 33.0816C148.327 33.0843 149.496 32.8875 150.606 32.4994L150.328 32.3632C150.811 33.6694 151.616 34.8324 152.669 35.7446C153.147 36.2002 153.721 36.5434 154.349 36.7491C154.977 36.9548 155.642 37.0179 156.298 36.9336C157.419 36.7486 158.461 36.2395 159.296 35.4692C160.132 34.6989 160.723 33.701 160.998 32.5985L160.757 32.6976C161.84 33.3436 163.113 33.5952 164.361 33.4098C165.29 33.2867 166.175 32.9426 166.943 32.4065C167.425 32.0692 167.845 31.65 168.182 31.168C168.302 31.003 168.402 30.8242 168.479 30.6354C168.037 31.2763 167.478 31.8287 166.832 32.2641C166.073 32.7557 165.21 33.0632 164.311 33.1621C163.13 33.3122 161.933 33.0544 160.918 32.4313L160.726 32.3075L160.67 32.5304C160.396 33.5571 159.83 34.4823 159.041 35.1935C158.252 35.9048 157.273 36.3716 156.223 36.5372C155.627 36.6091 155.022 36.5462 154.453 36.3533C153.883 36.1604 153.365 35.8423 152.935 35.4225C151.947 34.5522 151.192 33.4497 150.736 32.2146L150.662 32.0102L150.458 32.0721C149.396 32.4409 148.28 32.6272 147.157 32.6233C145.999 32.5653 144.892 32.1303 144.005 31.3847C143.174 30.7497 142.485 29.9477 141.983 29.0304C141.48 28.1132 141.175 27.1009 141.088 26.0588L141.044 25.5571L140.698 25.9287C140.301 26.3194 139.815 26.608 139.282 26.7698C138.749 26.9316 138.185 26.9617 137.638 26.8576C137.111 26.7701 136.612 26.5578 136.183 26.2383C135.791 25.8764 135.436 25.476 135.124 25.0431C134.456 24.2702 133.903 23.4045 133.483 22.473C133.1 21.6375 133.064 20.6842 133.384 19.8224L133.483 19.5747H133.217C131.747 19.5855 130.313 19.1206 129.129 18.2494C128.217 17.5983 127.462 16.7521 126.918 15.7722C126.469 14.9291 126.173 14.0127 126.045 13.0659Z" fill="#455A64"/>
<path d="M130.783 66.6287C130.484 66.096 130.074 65.6336 129.581 65.2724C129.099 64.9763 128.56 64.7832 128 64.7054C127.439 64.6276 126.868 64.6667 126.324 64.8203C125.342 65.1112 124.44 65.6264 123.692 66.3252C122.366 67.5267 122.67 68.8705 122.93 71.8989C125.927 71.5149 128.906 72.32 131.761 71.3353C131.982 69.7007 131.637 68.0398 130.783 66.6287Z" fill="#FF9A6C"/>
<path d="M122.899 71.899C122.899 71.8185 124.194 71.577 126.312 71.5274C127.371 71.4903 128.622 71.4779 130.028 71.3602L130.504 71.2797C130.667 71.2701 130.829 71.2473 130.987 71.2116C131.118 71.1874 131.238 71.1251 131.333 71.0325C131.428 70.9398 131.493 70.8211 131.52 70.6914C131.584 70.3538 131.584 70.0071 131.52 69.6696C131.458 69.2856 131.39 68.8954 131.309 68.5177C131.18 67.7839 130.911 67.0817 130.517 66.4492C130.149 65.8927 129.593 65.4879 128.95 65.3097C128.345 65.1477 127.716 65.0912 127.092 65.1425C126.536 65.1691 125.985 65.2606 125.451 65.415C124.678 65.6167 123.985 66.0487 123.463 66.6536C123.104 67.0933 122.968 67.3967 122.912 67.372C122.946 67.0567 123.066 66.7568 123.259 66.505C123.751 65.7756 124.472 65.2309 125.308 64.9567C125.87 64.759 126.455 64.6342 127.049 64.5851C127.74 64.5044 128.441 64.5485 129.117 64.7152C129.898 64.92 130.58 65.3993 131.037 66.0653C131.488 66.7613 131.795 67.5403 131.941 68.3567C132.028 68.7592 132.096 69.1555 132.152 69.5457C132.239 69.9665 132.239 70.4006 132.152 70.8214C132.094 71.0595 131.967 71.275 131.786 71.4407C131.609 71.5967 131.397 71.7073 131.167 71.7628C130.974 71.8072 130.777 71.8342 130.579 71.8433L130.046 71.8804C128.64 71.9671 127.371 71.93 126.33 71.9114C124.212 71.899 122.912 71.9733 122.899 71.899Z" fill="#263238"/>
<path d="M141.398 55.3639C141.293 55.5249 139.961 54.7137 138.122 54.5031C136.283 54.2925 134.796 54.7322 134.734 54.5526C134.703 54.4721 135.044 54.2492 135.669 54.0572C136.495 53.8275 137.358 53.764 138.209 53.8703C139.059 53.9766 139.88 54.2507 140.624 54.6765C141.169 54.9923 141.441 55.2958 141.398 55.3639Z" fill="#FF9A6C"/>
<path d="M117.704 53.7348C117.611 53.9021 116.329 53.2518 114.607 53.1155C112.886 52.9793 111.511 53.4128 111.474 53.2394C111.436 53.066 111.752 52.9421 112.322 52.744C113.075 52.5008 113.868 52.4082 114.657 52.4715C115.445 52.5295 116.215 52.7398 116.923 53.0908C117.499 53.4004 117.747 53.6667 117.704 53.7348Z" fill="#FF9A6C"/>
<path d="M125.097 39.9434C125.054 39.8505 125.32 39.6709 125.642 39.3241C126.054 38.8724 126.336 38.3184 126.46 37.7201C126.559 37.1166 126.491 36.4974 126.262 35.9303C126.094 35.4844 125.909 35.2181 125.977 35.15C126.045 35.0819 126.348 35.2553 126.664 35.7198C127.074 36.3444 127.227 37.1027 127.092 37.8374C126.957 38.572 126.545 39.2264 125.94 39.6647C125.481 39.9743 125.122 40.0177 125.097 39.9434Z" fill="#FF9A6C"/>
<path d="M129.971 40.4202C129.903 40.4697 129.643 40.2654 129.352 39.8009C129.014 39.2056 128.819 38.5399 128.783 37.8564C128.746 37.1728 128.869 36.4901 129.142 35.8622C129.365 35.3853 129.6 35.1562 129.668 35.1933C129.835 35.28 129.334 36.3886 129.426 37.8192C129.519 39.2497 130.126 40.3149 129.971 40.4202Z" fill="#FF9A6C"/>
<path d="M155.363 15.0104C155.485 15.7408 155.514 16.4836 155.45 17.2213C155.46 17.8257 155.278 18.4179 154.93 18.9119C154.715 19.1096 154.463 19.2629 154.189 19.3628C153.915 19.4627 153.623 19.5073 153.332 19.4941C152.615 19.4796 151.905 19.365 151.22 19.1535C151.124 19.137 151.026 19.1568 150.944 19.2089C150.862 19.261 150.803 19.3418 150.777 19.4353C150.752 19.5289 150.762 19.6286 150.806 19.7151C150.85 19.8015 150.925 19.8684 151.016 19.9028C152.409 20.2558 154.347 20.6769 155.474 19.4631C155.937 18.8739 156.193 18.1496 156.205 17.4009C156.293 16.5293 156.26 15.6498 156.106 14.7874C156.026 14.2982 155.276 14.5087 155.363 14.998V15.0104Z" fill="#455A64"/>
<path d="M157.865 14.7998C157.708 15.6576 157.671 16.5328 157.754 17.4009C157.766 18.1458 158.022 18.8662 158.484 19.4507C159.611 20.6893 161.581 20.2434 162.943 19.8904C163.034 19.8561 163.109 19.7891 163.153 19.7027C163.197 19.6163 163.207 19.5165 163.181 19.4229C163.156 19.3294 163.096 19.2486 163.015 19.1965C162.933 19.1444 162.835 19.1247 162.739 19.1411C162.052 19.3531 161.339 19.4677 160.621 19.4817C160.33 19.4941 160.04 19.4491 159.767 19.3492C159.494 19.2493 159.243 19.0965 159.029 18.8996C158.68 18.4059 158.498 17.8135 158.509 17.2089C158.442 16.4713 158.471 15.7281 158.596 14.998C158.676 14.5087 157.933 14.2982 157.846 14.7874L157.865 14.7998Z" fill="#455A64"/>
<path d="M158.769 26.8453C158.644 26.1132 158.615 25.3679 158.682 24.6283C158.672 24.0238 158.854 23.4317 159.202 22.9376C159.638 22.5412 160.212 22.3321 160.8 22.3554C161.516 22.376 162.226 22.4905 162.912 22.6961C163.008 22.7125 163.106 22.6927 163.188 22.6406C163.27 22.5885 163.329 22.5078 163.355 22.4142C163.38 22.3206 163.37 22.2209 163.326 22.1344C163.282 22.048 163.207 21.9811 163.116 21.9467C161.723 21.5937 159.785 21.1788 158.657 22.3926C158.198 22.9761 157.941 23.6937 157.927 24.4363C157.839 25.3078 157.872 26.1873 158.026 27.0497C158.106 27.5389 158.856 27.3346 158.769 26.8453Z" fill="#455A64"/>
<path d="M156.26 27.0497C156.417 26.1876 156.451 25.3077 156.36 24.4362C156.348 23.6931 156.091 22.9747 155.629 22.3926C154.502 21.154 152.563 21.5937 151.17 21.9467C151.079 21.981 151.005 22.048 150.96 22.1344C150.916 22.2208 150.906 22.3206 150.932 22.4141C150.957 22.5077 151.017 22.5884 151.099 22.6406C151.18 22.6927 151.279 22.7124 151.374 22.696C152.062 22.49 152.774 22.3755 153.492 22.3554C154.078 22.3357 154.649 22.5444 155.084 22.9375C155.432 23.4316 155.614 24.0237 155.604 24.6282C155.671 25.3679 155.642 26.1131 155.517 26.8453C155.431 27.3283 156.18 27.5389 156.26 27.0497Z" fill="#455A64"/>
<path d="M129.024 77.7392C128.962 77.8135 128.591 77.5844 127.959 77.3119C126.33 76.591 124.503 76.449 122.782 76.9093C122.119 77.0827 121.71 77.2499 121.661 77.1694C121.611 77.0889 121.958 76.7793 122.627 76.482C123.523 76.1023 124.496 75.943 125.466 76.0173C126.436 76.0917 127.374 76.3976 128.201 76.9093C128.795 77.3119 129.08 77.6834 129.024 77.7392Z" fill="#FF9A6C"/>
<path d="M190.298 110.425C190.298 110.425 199.798 113.559 206.765 127.883C212.146 138.962 223.405 162.694 223.405 162.694L190.062 174.906L186.675 160.972L190.298 110.425Z" fill="#455A64"/>
<path d="M190.297 110.425L157.066 102.3C140.072 111.361 131.055 111.559 119.289 99.6187L83.0846 108.035L83.803 163.456L84.4223 209.847L76.6006 270.458H192.657L189.263 173.618L190.297 110.425Z" fill="#455A64"/>
<path d="M192.644 270.458C192.611 270.341 192.594 270.22 192.595 270.098C192.595 269.844 192.539 269.479 192.502 269.033C192.434 268.086 192.335 266.705 192.211 264.94C191.988 261.366 191.666 256.22 191.269 249.866C190.873 243.512 190.452 235.926 189.956 227.516C189.833 225.41 189.709 223.255 189.585 221.05C189.486 218.833 189.486 216.591 189.43 214.294C189.35 209.711 189.269 204.967 189.189 200.105C188.867 180.647 188.656 163.034 188.569 150.289C188.569 143.917 188.532 138.758 188.569 135.191C188.569 133.407 188.613 132.026 188.644 131.085C188.644 130.627 188.675 130.267 188.681 130.02C188.677 129.897 188.69 129.774 188.718 129.654C188.749 131.432 189.213 161.313 189.826 200.093C189.907 204.955 189.981 209.698 190.056 214.287C190.105 216.573 190.105 218.839 190.192 221.025C190.279 223.211 190.427 225.36 190.545 227.491C190.985 235.901 191.381 243.481 191.721 249.847C192.062 256.214 192.279 261.354 192.458 264.921C192.527 266.698 192.582 268.073 192.626 269.027C192.626 269.485 192.626 269.838 192.626 270.092C192.65 270.212 192.656 270.335 192.644 270.458Z" fill="#263238"/>
<path d="M83.264 107.979C83.264 107.979 76.0863 109.725 70.4755 118.42C64.8647 127.115 51.042 151.689 51.042 151.689L84.3292 169.89L83.264 107.979Z" fill="#455A64"/>
<path d="M76.5879 270.458C76.5879 270.458 76.5879 270.371 76.5879 270.197C76.5879 270.024 76.6374 269.758 76.6746 269.429C76.7613 268.742 76.8913 267.745 77.0586 266.463C77.4239 263.868 77.9503 260.109 78.6068 255.409C79.9816 245.983 81.9076 232.767 84.1185 217.557V217.613C84.0133 212.157 83.9018 206.342 83.7841 200.353C83.4559 180.833 83.1648 163.164 82.9357 150.364C82.8614 143.972 82.7994 138.801 82.7561 135.209C82.7561 133.432 82.7561 132.045 82.7561 131.091C82.7561 130.627 82.7561 130.274 82.7561 130.02C82.7413 129.898 82.7413 129.776 82.7561 129.654C82.7851 129.774 82.7996 129.897 82.7994 130.02C82.7994 130.274 82.7994 130.639 82.849 131.091C82.849 132.045 82.9295 133.426 82.9852 135.209C83.0781 138.795 83.2144 143.966 83.3754 150.351C83.6417 163.152 83.9947 180.821 84.4096 200.341C84.5211 206.329 84.6264 212.145 84.7254 217.601V217.65C82.4217 232.841 80.3904 246.045 78.9908 255.464C78.2538 260.159 77.6655 263.905 77.2567 266.494C77.0462 267.77 76.8851 268.761 76.7675 269.442C76.7056 269.77 76.6622 270.018 76.625 270.204C76.6224 270.289 76.6099 270.375 76.5879 270.458Z" fill="#263238"/>
<path d="M142.835 150.481C142.335 150.929 141.799 151.333 141.231 151.689C140.178 152.438 138.636 153.491 136.716 154.786C132.883 157.343 127.52 160.799 121.5 164.459C115.48 168.119 109.95 171.271 105.912 173.519C103.893 174.64 102.246 175.526 101.1 176.114C100.522 176.451 99.917 176.741 99.292 176.981C99.8217 176.573 100.385 176.21 100.976 175.897L105.683 173.123C109.665 170.794 115.152 167.549 121.166 163.908C127.179 160.266 132.573 156.86 136.468 154.402L141.094 151.491C141.646 151.107 142.228 150.769 142.835 150.481Z" fill="#263238"/>
<path d="M137.223 253.433C129.215 253.435 121.386 251.061 114.727 246.613C108.068 242.164 102.877 235.841 99.8114 228.443C96.7459 221.044 95.9432 212.903 97.5048 205.048C99.0664 197.194 102.922 189.979 108.584 184.315C114.247 178.652 121.461 174.795 129.316 173.233C137.17 171.67 145.312 172.471 152.71 175.536C160.109 178.6 166.433 183.79 170.883 190.448C175.332 197.107 177.707 204.935 177.707 212.944C177.695 223.678 173.427 233.969 165.837 241.559C158.248 249.15 147.957 253.42 137.223 253.433ZM137.223 173.08C129.337 173.078 121.628 175.416 115.07 179.796C108.513 184.177 103.401 190.404 100.383 197.689C97.3645 204.975 96.5744 212.992 98.1127 220.727C99.6509 228.461 103.448 235.566 109.025 241.142C114.601 246.719 121.706 250.516 129.44 252.054C137.175 253.593 145.192 252.803 152.478 249.784C159.763 246.766 165.99 241.654 170.371 235.097C174.751 228.539 177.089 220.83 177.087 212.944C177.074 202.375 172.87 192.243 165.397 184.77C157.924 177.297 147.792 173.093 137.223 173.08Z" fill="#FF725E"/>
<path d="M137.223 249.141C157.215 249.141 173.421 232.935 173.421 212.943C173.421 192.952 157.215 176.746 137.223 176.746C117.232 176.746 101.025 192.952 101.025 212.943C101.025 232.935 117.232 249.141 137.223 249.141Z" fill="#FF725E"/>
<g opacity="0.4">
<path d="M137.223 249.141C157.215 249.141 173.421 232.935 173.421 212.943C173.421 192.952 157.215 176.746 137.223 176.746C117.232 176.746 101.025 192.952 101.025 212.943C101.025 232.935 117.232 249.141 137.223 249.141Z" fill="white"/>
</g>
<path d="M159.146 234.867C171.253 222.76 171.253 203.131 159.146 191.024C147.039 178.917 127.41 178.917 115.303 191.024C103.196 203.131 103.196 222.76 115.303 234.867C127.41 246.974 147.039 246.974 159.146 234.867Z" fill="#FF725E"/>
<g opacity="0.3">
<path d="M159.146 234.867C171.253 222.76 171.253 203.131 159.146 191.024C147.039 178.917 127.41 178.917 115.303 191.024C103.196 203.131 103.196 222.76 115.303 234.867C127.41 246.974 147.039 246.974 159.146 234.867Z" fill="white"/>
</g>
<path d="M154.977 230.698C164.782 220.894 164.782 204.997 154.977 195.192C145.173 185.388 129.276 185.388 119.472 195.192C109.667 204.997 109.667 220.894 119.472 230.698C129.276 240.503 145.173 240.503 154.977 230.698Z" fill="#FF725E"/>
<path d="M154.977 230.698C164.782 220.894 164.782 204.997 154.977 195.192C145.173 185.388 129.276 185.388 119.472 195.192C109.667 204.997 109.667 220.894 119.472 230.698C129.276 240.503 145.173 240.503 154.977 230.698Z" fill="#FF725E"/>
<path d="M145.132 165.01C145.132 165.01 147.411 149.262 147.132 148.574C146.853 147.887 154.254 163.778 154.26 164.441C154.266 165.103 168.56 142.846 168.56 142.846L166.77 167.983L179.552 164.794L171.824 173.216L184.383 174.993C184.383 174.993 172.195 181.589 171.446 182.029L177.855 176.907L167.718 175.049L173.006 168.608L164.522 171.587L164.764 154.389L154.236 167.463L148.464 158.087L145.132 165.01Z" fill="#FF725E"/>
<path d="M82.5957 238.49L69.3242 245.921L86.5345 247.699L81.2147 261.986L95.5576 251.458C95.5576 251.458 98.716 261.528 98.8461 261.317C98.9761 261.106 106.24 253.31 106.24 253.31L99.9422 257.688L95.9168 249.507L86.8317 253.892L89.4947 246.2L76.9601 244.627L82.5957 238.49Z" fill="#FF725E"/>
<path d="M163.494 253.248L173.508 258.146L173.205 249.65L197.01 252.585L182.779 232.718L190.855 230.854L178.351 231.411L188.408 247.885L170.3 246.299L170.449 253.675L163.494 253.248Z" fill="#FF725E"/>
<path d="M157.797 201.177C157.797 201.177 151.604 201.982 148.284 198.886C144.965 195.789 140.611 191.107 137.403 190.358C134.195 189.609 125.259 189.491 124.689 189.609C124.243 189.695 120.212 192.191 118.416 193.324C118.297 193.398 118.196 193.495 118.118 193.61C118.04 193.725 117.988 193.855 117.964 193.992C117.94 194.129 117.945 194.269 117.979 194.404C118.013 194.539 118.075 194.665 118.162 194.774C118.936 195.771 120.441 197.176 122.627 196.954C125.946 196.607 127.327 195.312 127.327 195.312L131.179 196.124C130.371 197.415 129.184 198.425 127.779 199.016C125.606 199.815 117.697 201.493 115.393 201.282C113.09 201.072 101.534 201.078 100.047 203.252C98.561 205.425 99.2422 206.689 101.905 207.147C104.568 207.605 117.827 207.605 118.515 207.835C119.202 208.064 100.184 208.869 96.1767 210.244C92.1699 211.618 94.5727 213.792 95.6008 214.82C96.6288 215.848 118.855 214.25 118.855 214.25C118.855 214.25 97.18 218.833 96.5173 220.208C95.8547 221.583 96.2882 223.874 99.0379 223.874C101.788 223.874 121.494 220.778 121.494 220.778C121.494 220.778 103.162 226.395 102.593 227.541C102.023 228.686 102.704 230.29 103.621 230.637C104.537 230.984 127.773 227.318 127.773 227.318C127.773 227.318 145.417 225.46 148.625 223.075C151.833 220.691 158.707 221.36 158.707 221.36L157.797 201.177Z" fill="#FFBF9D"/>
<path d="M157.797 201.177C157.797 201.177 198.584 198.96 202.306 196.223L193.245 173.755L220.6 163.734C220.6 163.734 229.041 188.766 229.691 198.65C230.341 208.534 229.635 215.625 225.474 219.087C220.779 222.976 215.844 222.698 208.864 224.041C200.892 225.574 192.725 225.823 184.674 224.778L157.797 221.317V201.877" fill="#FFBF9D"/>
<path d="M219.355 200.39C219.281 200.471 218.432 199.771 216.878 198.855C216.459 198.606 216.027 198.38 215.583 198.18C215.119 197.938 214.599 197.74 214.054 197.517C211.661 196.617 209.115 196.196 206.56 196.278C205.972 196.315 205.414 196.328 204.894 196.408C204.412 196.456 203.932 196.528 203.457 196.625C201.705 196.972 200.658 197.381 200.621 197.275C200.584 197.17 201.581 196.656 203.352 196.179C203.836 196.052 204.326 195.95 204.82 195.876C205.388 195.78 205.96 195.716 206.535 195.684C207.852 195.619 209.172 195.69 210.474 195.894C211.773 196.125 213.045 196.486 214.27 196.972C214.803 197.187 215.322 197.433 215.825 197.709C216.27 197.935 216.7 198.189 217.113 198.471C218.649 199.474 219.404 200.341 219.355 200.39Z" fill="#FF9A6C"/>
<path d="M134.555 213.402C134.812 213.012 134.947 212.554 134.941 212.087C134.936 211.62 134.79 211.165 134.523 210.782C134.257 210.398 133.881 210.104 133.445 209.936C133.009 209.768 132.533 209.735 132.078 209.841C129.963 210.365 127.805 210.697 125.631 210.832C121.413 211.067 116.341 210.262 115.214 210.572C112.867 211.222 104.401 215.65 100.5 216.69C98.0563 217.31 95.5069 217.386 93.031 216.913L83.2646 234.155C83.2646 234.155 124.429 256.257 126.51 256.908C128.591 257.558 135.762 259.775 136.419 258.078C136.8 257.026 136.8 255.873 136.419 254.821L122.355 247.271C122.355 247.271 141.627 252.61 143.708 252.48C145.789 252.35 147.876 250.393 145.665 248.442C143.454 246.491 126.646 240.886 126.646 240.886C126.646 240.886 147.975 244.218 150.353 243.884C153.004 243.512 153.214 239.976 150.353 238.929C147.492 237.883 127.043 233.721 127.439 232.681C127.835 231.64 147.362 231.56 148.755 230.203C150.149 228.847 150.489 226.413 145.931 225.373C141.373 224.333 124.572 225.633 121.964 223.942C119.357 222.252 119.884 218.208 119.884 218.208C119.884 218.208 127.173 218.908 129.91 217.688C132.245 216.69 133.36 215.13 134.555 213.402Z" fill="#FFBF9D"/>
<path d="M63.7441 192.773L78.855 166.899L52.6216 152.556C52.6216 152.556 45.3944 168.658 40.7435 178.393C36.0925 188.129 31.8937 194.99 36.9905 203.623C42.0873 212.256 88.3364 236.595 88.3364 236.595L98.0717 219.335L63.7441 192.773Z" fill="#FFBF9D"/>
<path d="M134.43 259.044C131.804 259.044 127.779 257.806 126.379 257.217C124.36 256.4 84.7812 235.35 83.0967 234.452L83.3877 233.907C83.8027 234.124 124.627 255.836 126.608 256.648C129.544 257.837 135.44 259.187 136.121 257.954C136.378 257.584 136.525 257.147 136.542 256.696C136.56 256.245 136.448 255.799 136.22 255.409C135.999 255.083 135.698 254.819 135.347 254.641L119.74 246.256L122.41 246.999C128.962 248.814 141.688 252.195 143.59 252.195H143.664C144.828 252.121 145.924 251.446 146.203 250.622C146.42 250.003 146.153 249.334 145.435 248.702C143.292 246.807 126.695 241.271 126.528 241.209L126.664 240.589C126.664 240.589 149.324 243.457 150.365 243.581C150.761 243.644 151.167 243.55 151.496 243.319C151.824 243.087 152.049 242.737 152.123 242.342C152.377 241.295 151.894 239.865 150.216 239.245C149.163 238.843 145.485 237.976 141.595 237.066C131.742 234.774 127.544 233.659 127.16 232.916C127.135 232.863 127.122 232.805 127.122 232.746C127.122 232.687 127.135 232.629 127.16 232.576C127.407 231.913 129.878 231.678 138.257 231.195C142.475 230.947 146.835 230.699 148.129 230.321C148.484 230.212 148.792 229.987 149.003 229.681C149.214 229.375 149.317 229.008 149.293 228.637C149.262 227.584 148.346 226.259 145.875 225.695C143.905 225.243 139.626 225.237 135.093 225.231C129.055 225.231 123.326 225.231 121.809 224.215C119.072 222.438 119.567 218.363 119.586 218.189L119.629 217.892H119.926C119.994 217.892 127.166 218.573 129.798 217.397C132.114 216.369 133.185 214.814 134.325 213.173C134.558 212.844 134.683 212.45 134.683 212.046C134.683 211.642 134.558 211.248 134.325 210.919C134.094 210.573 133.762 210.307 133.373 210.159C132.985 210.01 132.56 209.986 132.157 210.089C130.024 210.616 127.848 210.952 125.655 211.092C123.362 211.165 121.066 211.101 118.781 210.9C117.626 210.759 116.46 210.732 115.3 210.82C113.425 211.502 111.587 212.284 109.795 213.161C106.537 214.647 102.84 216.338 100.586 216.938C98.0952 217.581 95.4928 217.659 92.9683 217.168L93.1107 216.548C95.5364 217 98.0309 216.924 100.425 216.325C102.629 215.737 106.302 214.059 109.534 212.579C111.348 211.687 113.209 210.893 115.108 210.2C115.665 210.046 116.966 210.139 118.824 210.262C121.089 210.467 123.364 210.531 125.636 210.454C127.792 210.319 129.931 209.989 132.027 209.47C132.552 209.338 133.104 209.371 133.609 209.564C134.114 209.757 134.548 210.1 134.851 210.547C135.159 210.979 135.324 211.497 135.324 212.027C135.324 212.558 135.159 213.075 134.851 213.508C133.718 215.149 132.548 216.846 130.07 217.948C127.593 219.05 121.642 218.641 120.199 218.518C120.143 219.453 120.149 222.345 122.168 223.658C123.549 224.556 129.693 224.562 135.111 224.568C139.682 224.568 143.992 224.568 146.03 225.045C148.847 225.664 149.894 227.287 149.931 228.575C149.96 229.083 149.816 229.586 149.524 230.003C149.232 230.42 148.808 230.726 148.321 230.873C146.959 231.269 142.747 231.492 138.313 231.771C134.387 231.993 129.123 232.297 127.928 232.699C129.302 233.461 136.759 235.214 141.8 236.415C145.881 237.375 149.405 238.205 150.501 238.62C151.288 238.862 151.957 239.387 152.378 240.095C152.799 240.802 152.942 241.64 152.78 242.447C152.671 242.99 152.36 243.47 151.908 243.791C151.457 244.111 150.9 244.246 150.352 244.169L129.631 241.586C134.585 243.289 144.178 246.733 145.862 248.219C147.101 249.297 146.983 250.3 146.81 250.808C146.444 251.867 145.144 252.703 143.713 252.796C142.078 252.913 130.275 249.761 124.893 248.3L135.656 254.078C136.02 254.26 136.34 254.519 136.594 254.837C136.848 255.155 137.029 255.525 137.126 255.92C137.223 256.316 137.232 256.727 137.154 257.127C137.075 257.526 136.911 257.904 136.672 258.233C136.362 258.828 135.52 259.044 134.43 259.044Z" fill="#FF9A6C"/>
<path d="M64.066 192.662C64.066 192.86 60.7156 192.544 56.7087 193.281C52.7019 194.018 49.6735 195.449 49.5868 195.263C49.5001 195.077 52.4727 193.405 56.5911 192.662C60.7094 191.919 64.1093 192.538 64.066 192.662Z" fill="#FF9A6C"/>
</svg>
