<svg width="373" height="275" viewBox="0 0 373 275" fill="none" xmlns="http://www.w3.org/2000/svg">
<path d="M335.412 256.081H310.72V256.267H335.412V256.081Z" fill="#EBEBEB"/>
<path d="M246.933 258.108H240.454V258.295H246.933V258.108Z" fill="#EBEBEB"/>
<path d="M309.975 249.162H295.668V249.348H309.975V249.162Z" fill="#EBEBEB"/>
<path d="M71.3086 250.415H39.1094V250.601H71.3086V250.415Z" fill="#EBEBEB"/>
<path d="M82.6713 250.415H77.9521V250.601H82.6713V250.415Z" fill="#EBEBEB"/>
<path d="M167.854 253.561H98.0137V253.747H167.854V253.561Z" fill="#EBEBEB"/>
<path d="M176.689 210.834H32.7433C31.6143 210.834 30.5315 210.386 29.7332 209.588C28.9348 208.789 28.4863 207.706 28.4863 206.577V4.21967C28.4962 3.09713 28.949 2.02391 29.7463 1.23362C30.5435 0.443336 31.6207 -4.30361e-05 32.7433 3.1331e-09H176.689C177.818 3.13311e-09 178.901 0.448499 179.699 1.24683C180.498 2.04516 180.946 3.12793 180.946 4.25695V206.577C180.946 207.706 180.498 208.789 179.699 209.588C178.901 210.386 177.818 210.834 176.689 210.834ZM32.7433 0.149106C31.6643 0.151076 30.6301 0.58057 29.8671 1.34352C29.1042 2.10647 28.6747 3.14069 28.6727 4.21967V206.577C28.6747 207.656 29.1042 208.691 29.8671 209.454C30.6301 210.217 31.6643 210.646 32.7433 210.648H176.689C177.768 210.646 178.802 210.217 179.565 209.454C180.328 208.691 180.758 207.656 180.76 206.577V4.21967C180.758 3.14069 180.328 2.10647 179.565 1.34352C178.802 0.58057 177.768 0.151076 176.689 0.149106H32.7433Z" fill="#EBEBEB"/>
<path d="M337.953 210.834H193.992C192.864 210.832 191.782 210.383 190.984 209.585C190.186 208.787 189.737 207.706 189.735 206.577V4.21967C189.747 3.09774 190.201 2.02565 190.997 1.23578C191.794 0.445905 192.87 0.00189981 193.992 0H337.953C339.073 0.00388008 340.146 0.448992 340.941 1.23886C341.735 2.02873 342.185 3.09971 342.195 4.21967V206.577C342.195 207.704 341.749 208.784 340.954 209.582C340.158 210.38 339.08 210.83 337.953 210.834ZM193.992 0.149106C192.913 0.151076 191.879 0.58057 191.116 1.34352C190.353 2.10647 189.924 3.14069 189.922 4.21967V206.577C189.924 207.656 190.353 208.691 191.116 209.454C191.879 210.217 192.913 210.646 193.992 210.648H337.953C339.032 210.646 340.066 210.217 340.829 209.454C341.592 208.691 342.022 207.656 342.024 206.577V4.21967C342.022 3.14069 341.592 2.10647 340.829 1.34352C340.066 0.58057 339.032 0.151076 337.953 0.149106H193.992Z" fill="#EBEBEB"/>
<path d="M372.762 244.085H0V244.271H372.762V244.085Z" fill="#EBEBEB"/>
<path d="M161.473 37.5215H160.131V142.171H161.473V37.5215Z" fill="#E0E0E0"/>
<path d="M245.01 37.5215H243.668V142.171H245.01V37.5215Z" fill="#E0E0E0"/>
<path d="M250.265 44.105H154.875L152.862 39.4082H252.278L250.265 44.105Z" fill="#EBEBEB"/>
<path d="M250.265 50.5542H154.875L152.862 45.8574H252.278L250.265 50.5542Z" fill="#EBEBEB"/>
<path d="M250.265 57.0034H154.875L152.862 52.3066H252.278L250.265 57.0034Z" fill="#EBEBEB"/>
<path d="M250.265 63.4517H154.875L152.862 58.7549H252.278L250.265 63.4517Z" fill="#EBEBEB"/>
<path d="M250.265 69.9009H154.875L152.862 65.2041H252.278L250.265 69.9009Z" fill="#EBEBEB"/>
<path d="M250.265 76.3492H154.875L152.862 71.6523H252.278L250.265 76.3492Z" fill="#EBEBEB"/>
<path d="M250.265 82.7974H154.875L152.862 78.1006H252.278L250.265 82.7974Z" fill="#EBEBEB"/>
<path d="M250.265 89.2466H154.875L152.862 84.5498H252.278L250.265 89.2466Z" fill="#EBEBEB"/>
<path d="M250.265 95.6874H154.875L152.862 90.998H252.278L250.265 95.6874Z" fill="#EBEBEB"/>
<path d="M250.265 102.137H154.875L152.862 97.4404H252.278L250.265 102.137Z" fill="#EBEBEB"/>
<path d="M250.265 108.586H154.875L152.862 103.89H252.278L250.265 108.586Z" fill="#EBEBEB"/>
<path d="M250.265 115.035H154.875L152.862 110.338H252.278L250.265 115.035Z" fill="#EBEBEB"/>
<path d="M250.265 121.483H154.875L152.862 116.786H252.278L250.265 121.483Z" fill="#EBEBEB"/>
<path d="M250.265 127.932H154.875L152.862 123.235H252.278L250.265 127.932Z" fill="#EBEBEB"/>
<path d="M250.265 134.38H154.875L152.862 129.684H252.278L250.265 134.38Z" fill="#EBEBEB"/>
<path d="M250.265 140.83H154.875L152.862 136.133H252.278L250.265 140.83Z" fill="#EBEBEB"/>
<path d="M252.278 140.829H152.862V143.513H252.278V140.829Z" fill="#E0E0E0"/>
<path d="M255.745 33.5264H149.396V39.7888H255.745V33.5264Z" fill="#E0E0E0"/>
<path d="M150.484 96.5677C150.198 96.5677 149.923 96.4538 149.72 96.2511C149.517 96.0484 149.403 95.7734 149.403 95.4867V58.956C149.403 58.6693 149.517 58.3944 149.72 58.1916C149.923 57.9889 150.198 57.875 150.484 57.875C150.771 57.875 151.046 57.9889 151.249 58.1916C151.451 58.3944 151.565 58.6693 151.565 58.956V95.4867C151.565 95.7734 151.451 96.0484 151.249 96.2511C151.046 96.4538 150.771 96.5677 150.484 96.5677Z" fill="#E0E0E0"/>
<path d="M150.879 38.5361H150.097V60.2309H150.879V38.5361Z" fill="#E0E0E0"/>
<path d="M295.899 153.094H293.662V126.329C293.699 123.468 292.637 120.701 290.696 118.598C288.754 116.496 286.08 115.218 283.225 115.027C280.31 114.881 277.457 115.899 275.293 117.856C273.129 119.813 271.831 122.55 271.684 125.464C271.68 125.605 271.622 125.738 271.522 125.837C271.422 125.936 271.288 125.992 271.147 125.994H269.992C269.919 125.994 269.847 125.979 269.78 125.951C269.713 125.923 269.652 125.881 269.601 125.829C269.551 125.777 269.511 125.715 269.485 125.647C269.458 125.58 269.445 125.507 269.447 125.435C269.593 122.065 271.018 118.877 273.433 116.522C275.848 114.167 279.07 112.822 282.442 112.761C289.845 112.634 295.861 118.941 295.861 126.344L295.899 153.094Z" fill="#F0F0F0"/>
<path d="M323.096 156.017H307.201V244.056H323.096V156.017Z" fill="#E6E6E6"/>
<path d="M311.54 156.017H139.324V244.056H311.54V156.017Z" fill="#F5F5F5"/>
<path d="M311.54 174.348H139.324V175.839H181.633V244.054H183.124V175.839H224.284V244.054H225.775V175.839H266.928V244.054H268.419V175.839H311.54V174.348Z" fill="#E0E0E0"/>
<path d="M177.346 213.489C176.95 213.489 176.571 213.332 176.291 213.052C176.012 212.772 175.854 212.393 175.854 211.998V205.288C175.854 204.892 176.012 204.513 176.291 204.234C176.571 203.954 176.95 203.797 177.346 203.797C177.741 203.797 178.12 203.954 178.4 204.234C178.679 204.513 178.837 204.892 178.837 205.288V211.998C178.837 212.393 178.679 212.772 178.4 213.052C178.12 213.332 177.741 213.489 177.346 213.489Z" fill="#E6E6E6"/>
<path d="M187.41 213.489C187.015 213.489 186.635 213.332 186.356 213.052C186.076 212.772 185.919 212.393 185.919 211.998V205.288C185.919 204.892 186.076 204.513 186.356 204.234C186.635 203.954 187.015 203.797 187.41 203.797C187.805 203.797 188.185 203.954 188.464 204.234C188.744 204.513 188.901 204.892 188.901 205.288V211.998C188.901 212.393 188.744 212.772 188.464 213.052C188.185 213.332 187.805 213.489 187.41 213.489Z" fill="#E6E6E6"/>
<path d="M262.641 213.489C262.246 213.489 261.867 213.332 261.587 213.052C261.307 212.772 261.15 212.393 261.15 211.998V205.288C261.15 204.892 261.307 204.513 261.587 204.234C261.867 203.954 262.246 203.797 262.641 203.797C263.037 203.797 263.416 203.954 263.696 204.234C263.975 204.513 264.132 204.892 264.132 205.288V211.998C264.132 212.393 263.975 212.772 263.696 213.052C263.416 213.332 263.037 213.489 262.641 213.489Z" fill="#E6E6E6"/>
<path d="M272.705 213.489C272.309 213.489 271.93 213.332 271.651 213.052C271.371 212.772 271.214 212.393 271.214 211.998V205.288C271.214 204.892 271.371 204.513 271.651 204.234C271.93 203.954 272.309 203.797 272.705 203.797C273.1 203.797 273.48 203.954 273.759 204.234C274.039 204.513 274.196 204.892 274.196 205.288V211.998C274.196 212.393 274.039 212.772 273.759 213.052C273.48 213.332 273.1 213.489 272.705 213.489Z" fill="#E6E6E6"/>
<path d="M326.823 154.085H307.066V157.939H326.823V154.085Z" fill="#E0E0E0"/>
<path d="M313.031 154.085H135.596V157.939H313.031V154.085Z" fill="#EBEBEB"/>
<path d="M316.461 154.525H257.646C257.267 154.525 256.903 154.374 256.634 154.106C256.366 153.837 256.215 153.473 256.215 153.094C256.215 152.714 256.366 152.35 256.634 152.081C256.903 151.813 257.267 151.662 257.646 151.662H316.461C316.84 151.662 317.204 151.813 317.473 152.081C317.741 152.35 317.892 152.714 317.892 153.094C317.892 153.473 317.741 153.837 317.473 154.106C317.204 154.374 316.84 154.525 316.461 154.525Z" fill="#E6E6E6"/>
<path d="M301.52 149.254H299.291V152.087H301.52V149.254Z" fill="#E0E0E0"/>
<path d="M302.482 149.962H298.329L299.142 145.004H301.669L302.482 149.962Z" fill="#F0F0F0"/>
<path d="M290.248 149.254H288.019V152.087H290.248V149.254Z" fill="#E0E0E0"/>
<path d="M291.203 149.962H287.058L287.863 145.004H290.398L291.203 149.962Z" fill="#F0F0F0"/>
<path d="M127.596 53.4912H71.4883V103.74H127.596V53.4912Z" fill="#F5F5F5"/>
<path d="M127.604 55.1015H71.4886C71.2775 55.1015 71.0685 55.0598 70.8735 54.9788C70.6786 54.8978 70.5015 54.7791 70.3526 54.6294C70.2036 54.4798 70.0857 54.3022 70.0056 54.1069C69.9255 53.9116 69.8848 53.7023 69.8858 53.4912C69.8858 53.0654 70.0544 52.6569 70.3548 52.3551C70.6552 52.0534 71.0628 51.8828 71.4886 51.8809H127.604C128.03 51.8828 128.438 52.0534 128.738 52.3551C129.039 52.6569 129.207 53.0654 129.207 53.4912C129.208 53.7023 129.167 53.9116 129.087 54.1069C129.007 54.3022 128.889 54.4798 128.74 54.6294C128.591 54.7791 128.414 54.8978 128.219 54.9788C128.024 55.0598 127.815 55.1015 127.604 55.1015Z" fill="#EBEBEB"/>
<path d="M127.604 105.351H71.4886C71.0628 105.349 70.6551 105.178 70.3548 104.877C70.0544 104.575 69.8857 104.166 69.8857 103.741C69.8877 103.316 70.0572 102.91 70.3574 102.609C70.6576 102.309 71.0641 102.14 71.4886 102.138H127.604C128.03 102.14 128.438 102.31 128.738 102.612C129.039 102.914 129.207 103.322 129.207 103.748C129.205 104.173 129.036 104.579 128.736 104.879C128.435 105.179 128.029 105.349 127.604 105.351Z" fill="#EBEBEB"/>
<path d="M110.926 191.31H79.4277V196.155H110.926V191.31Z" fill="#E0E0E0"/>
<path d="M80.0019 194.105H109.413C110.059 194.105 110.679 194.362 111.137 194.819C111.594 195.276 111.851 195.896 111.851 196.543V244.055H77.5342V196.543C77.5342 196.22 77.5982 195.9 77.7226 195.603C77.8469 195.305 78.0292 195.035 78.2587 194.808C78.4883 194.581 78.7606 194.402 79.0598 194.282C79.359 194.161 79.6792 194.101 80.0019 194.105Z" fill="#F0F0F0"/>
<path d="M109.167 185.345H80.2558C78.7694 185.345 77.5645 186.55 77.5645 188.036V190.109C77.5645 191.595 78.7694 192.8 80.2558 192.8H109.167C110.654 192.8 111.859 191.595 111.859 190.109V188.036C111.859 186.55 110.654 185.345 109.167 185.345Z" fill="#F0F0F0"/>
<path d="M87.6284 244.056H71.5996V241.819L87.6284 240.328V244.056Z" fill="#E0E0E0"/>
<path d="M182.788 274.883C262.621 274.883 327.338 271.104 327.338 266.443C327.338 261.782 262.621 258.004 182.788 258.004C102.955 258.004 38.2383 261.782 38.2383 266.443C38.2383 271.104 102.955 274.883 182.788 274.883Z" fill="#F5F5F5"/>
<path d="M189.989 199.628C189.989 199.628 189.989 216.261 204.318 224.231C218.647 232.2 265.377 198.257 264.549 199.628C263.722 201 189.989 199.628 189.989 199.628Z" fill="#263238"/>
<path opacity="0.2" d="M189.989 199.628C189.989 199.628 189.989 216.261 204.318 224.231C218.647 232.2 265.377 198.257 264.549 199.628C263.722 201 189.989 199.628 189.989 199.628Z" fill="white"/>
<path d="M204.766 127.887C193.128 128.267 180.588 128.632 168.981 129.02C166.498 125.896 165.235 121.977 165.427 117.991C165.619 114.006 167.253 110.226 170.024 107.355C171.23 106.117 172.669 105.132 174.259 104.455C180.111 101.89 187.88 103.068 193.307 106.624C199.085 110.419 202.671 117.062 204.147 123.928C204.429 125.235 204.636 126.556 204.766 127.887Z" fill="#FFC727"/>
<path opacity="0.5" d="M204.766 127.887C193.128 128.267 180.588 128.632 168.981 129.02C166.498 125.896 165.235 121.977 165.427 117.991C165.619 114.006 167.253 110.226 170.024 107.355C171.23 106.117 172.669 105.132 174.259 104.455C180.111 101.89 187.88 103.068 193.307 106.624C199.085 110.419 202.671 117.062 204.147 123.928C204.429 125.235 204.636 126.556 204.766 127.887Z" fill="white"/>
<path opacity="0.5" d="M204.148 123.92L174.268 124.867C171.959 121.965 170.702 118.366 170.702 114.657C170.702 110.949 171.959 107.35 174.268 104.447C180.12 101.883 187.888 103.061 193.316 106.617C199.056 110.411 202.672 117.047 204.148 123.92Z" fill="white"/>
<path d="M277.433 195.499C277.431 197.651 276.575 199.714 275.052 201.235C273.53 202.756 271.466 203.61 269.314 203.61H198.094L161.146 134.94C160.488 133.729 160.142 132.374 160.14 130.996C160.146 130.284 160.239 129.576 160.415 128.886C160.811 127.37 161.626 125.997 162.766 124.924C163.907 123.85 165.327 123.12 166.864 122.817C167.399 122.706 167.944 122.651 168.49 122.653H205.02C207.784 122.656 210.489 123.454 212.81 124.954C215.132 126.453 216.973 128.59 218.112 131.108L229.295 155.881L244.481 186.254C244.481 186.254 261.725 186.836 269.732 186.254C277.739 185.673 277.433 195.499 277.433 195.499Z" fill="#FFC727"/>
<path opacity="0.5" d="M277.433 195.499C277.431 197.651 276.575 199.714 275.052 201.235C273.53 202.756 271.466 203.61 269.314 203.61H198.094L161.146 134.94C160.488 133.729 160.142 132.374 160.14 130.996C160.146 130.284 160.239 129.576 160.415 128.886C160.811 127.37 161.626 125.997 162.766 124.924C163.907 123.85 165.327 123.12 166.864 122.817C167.399 122.706 167.944 122.651 168.49 122.653H205.02C207.784 122.656 210.489 123.454 212.81 124.954C215.132 126.453 216.973 128.59 218.112 131.108L229.295 155.881L244.481 186.254C244.481 186.254 261.725 186.836 269.732 186.254C277.739 185.673 277.433 195.499 277.433 195.499Z" fill="white"/>
<path opacity="0.5" d="M237.137 195.498C237.137 197.649 236.283 199.712 234.762 201.233C233.241 202.754 231.177 203.609 229.026 203.609H198.094L161.146 134.939C160.488 133.728 160.142 132.373 160.14 130.995C160.146 130.283 160.239 129.575 160.415 128.885C160.811 127.369 161.626 125.996 162.766 124.922C163.907 123.849 165.327 123.119 166.864 122.816C169.234 123.175 171.477 124.122 173.387 125.57C175.298 127.018 176.815 128.922 177.801 131.107L188.984 155.88L204.17 186.253C204.17 186.253 221.407 186.835 229.414 186.253C237.421 185.672 237.137 195.498 237.137 195.498Z" fill="white"/>
<path d="M287.124 204.272H197.795C196.612 204.272 195.44 204.039 194.347 203.586C193.254 203.133 192.261 202.469 191.424 201.632C190.588 200.795 189.925 199.801 189.472 198.708C189.02 197.614 188.788 196.442 188.789 195.259C188.789 192.87 189.738 190.58 191.427 188.891C193.116 187.202 195.406 186.253 197.795 186.253H287.124C288.307 186.252 289.479 186.484 290.572 186.936C291.666 187.388 292.66 188.052 293.497 188.888C294.334 189.724 294.998 190.718 295.451 191.811C295.904 192.904 296.137 194.076 296.137 195.259C296.137 197.649 295.188 199.942 293.497 201.632C291.807 203.323 289.514 204.272 287.124 204.272Z" fill="#FFC727"/>
<path opacity="0.5" d="M296.13 195.259C296.13 197.648 295.181 199.94 293.492 201.63C291.804 203.32 289.513 204.271 287.124 204.273H197.795C195.406 204.273 193.116 203.324 191.427 201.635C189.738 199.946 188.789 197.655 188.789 195.267C188.789 192.878 189.738 190.587 191.427 188.899C193.116 187.21 195.406 186.261 197.795 186.261H287.124C289.511 186.261 291.801 187.209 293.489 188.896C295.178 190.583 296.128 192.872 296.13 195.259Z" fill="white"/>
<path d="M333.444 226.087L303.966 189.787C303.053 188.663 301.878 187.782 300.544 187.22C299.21 186.658 297.758 186.434 296.317 186.566H258.862C256.596 186.372 254.343 187.064 252.577 188.497C250.764 189.969 249.61 192.1 249.368 194.422C249.126 196.744 249.816 199.067 251.287 200.88L280.773 237.188C281.595 238.202 282.634 239.02 283.812 239.582C284.991 240.145 286.281 240.437 287.587 240.438H326.54C328.211 240.455 329.853 239.996 331.272 239.114C332.692 238.233 333.832 236.966 334.558 235.461C335.285 233.956 335.568 232.275 335.374 230.615C335.181 228.955 334.519 227.384 333.466 226.087H333.444Z" fill="#FFC727"/>
<path opacity="0.2" d="M293.148 238.47C292.251 239.198 291.22 239.743 290.113 240.073C289.005 240.403 287.844 240.511 286.695 240.392C285.546 240.273 284.431 239.929 283.415 239.379C282.399 238.829 281.501 238.085 280.773 237.188L251.287 200.881C249.816 199.067 249.126 196.744 249.368 194.422C249.61 192.1 250.764 189.969 252.577 188.497C253.474 187.768 254.505 187.223 255.613 186.894C256.721 186.564 257.883 186.456 259.032 186.576C260.182 186.695 261.296 187.041 262.312 187.592C263.328 188.143 264.225 188.889 264.953 189.787L294.438 226.087C295.167 226.984 295.712 228.017 296.042 229.125C296.372 230.233 296.48 231.396 296.36 232.546C296.241 233.696 295.895 234.811 295.344 235.828C294.793 236.844 294.047 237.742 293.148 238.47Z" fill="white"/>
<path opacity="0.5" d="M333.444 226.087L303.966 189.787C303.053 188.663 301.878 187.782 300.544 187.22C299.21 186.658 297.758 186.434 296.317 186.566H258.862C256.596 186.372 254.343 187.064 252.577 188.497C250.764 189.969 249.61 192.1 249.368 194.422C249.126 196.744 249.816 199.067 251.287 200.88L280.773 237.188C281.595 238.202 282.634 239.02 283.812 239.582C284.991 240.145 286.281 240.437 287.587 240.438H326.54C328.211 240.455 329.853 239.996 331.272 239.114C332.692 238.233 333.832 236.966 334.558 235.461C335.285 233.956 335.568 232.275 335.374 230.615C335.181 228.955 334.519 227.384 333.466 226.087H333.444Z" fill="white"/>
<path d="M168.288 261.037H162.033V267.292H168.288V261.037Z" fill="#263238"/>
<path d="M231.493 261.037H225.238V267.292H231.493V261.037Z" fill="#263238"/>
<path d="M224.635 261.037H218.38V267.292H224.635V261.037Z" fill="#263238"/>
<path d="M287.84 261.037H281.585V267.292H287.84V261.037Z" fill="#263238"/>
<path d="M264.848 261.037H169.98L188.976 222.739H264.848V261.037Z" fill="#263238"/>
<path opacity="0.2" d="M264.848 261.037H169.98L188.976 222.739H264.848V261.037Z" fill="white"/>
<path opacity="0.2" d="M225.283 261.037H169.98L188.976 222.739H225.283V261.037Z" fill="white"/>
<path d="M292.589 256.78H159.55L156.068 264.675H296.07L292.589 256.78Z" fill="#263238"/>
<path opacity="0.2" d="M234.609 256.78H159.55L156.068 264.675H233.446L234.609 256.78Z" fill="white"/>
<path d="M254.083 158.915H202.418C200.034 158.915 198.102 160.848 198.102 163.232V164.857C198.102 167.241 200.034 169.173 202.418 169.173H254.083C256.467 169.173 258.4 167.241 258.4 164.857V163.232C258.4 160.848 256.467 158.915 254.083 158.915Z" fill="#FFC727"/>
<path opacity="0.5" d="M254.083 158.915H202.418C200.034 158.915 198.102 160.848 198.102 163.232V164.857C198.102 167.241 200.034 169.173 202.418 169.173H254.083C256.467 169.173 258.4 167.241 258.4 164.857V163.232C258.4 160.848 256.467 158.915 254.083 158.915Z" fill="white"/>
<path opacity="0.5" d="M258.392 164.015C258.392 162.655 257.852 161.35 256.89 160.388C255.928 159.426 254.623 158.886 253.263 158.886H203.231C201.87 158.886 200.566 159.426 199.604 160.388C198.642 161.35 198.102 162.655 198.102 164.015H258.392Z" fill="white"/>
<path d="M229.034 159.878C224.197 162.882 218.912 165.097 213.378 166.438L201.449 169.323C200.435 167.012 197.021 162.286 190.386 149.455C189.581 148.137 188.864 146.767 188.239 145.355C186.845 142.329 185.77 139.165 185.033 135.916C184.599 134.031 184.297 132.118 184.131 130.191C184.133 130.173 184.133 130.156 184.131 130.139C183.929 129.73 183.812 129.285 183.784 128.83C183.757 128.375 183.821 127.919 183.973 127.489C184.124 127.059 184.36 126.664 184.666 126.327C184.972 125.989 185.343 125.716 185.756 125.524H185.816C187.456 124.704 189.543 123.727 191.616 122.907C195.586 121.321 199.637 119.947 203.753 118.792C205.141 118.458 206.547 118.209 207.965 118.046C208.939 117.892 209.937 117.984 210.866 118.314C211.796 118.643 212.628 119.199 213.288 119.932C216.203 123.011 222.607 135.149 229.034 159.878Z" fill="#263238"/>
<g opacity="0.7">
<path d="M224.157 143.415C221.242 144.019 218.074 144.534 215.666 144.906C215.271 143.542 214.667 142.193 214.175 140.873L222.167 137.921C222.818 139.611 223.481 141.442 224.157 143.415Z" fill="white"/>
</g>
<path d="M200.547 123.51C194.65 125.881 191.235 123.018 191.235 123.018C192.98 119.485 189.55 112.715 187.321 109.114L191.481 110.702L197.147 112.864C197.219 113.501 197.329 114.134 197.475 114.758C197.575 115.207 197.715 115.646 197.893 116.07V116.137C198.638 117.904 200.129 119.119 203.186 118.821C203.201 118.836 205.549 121.468 200.547 123.51Z" fill="#B25B52"/>
<path d="M195.507 103.553C195.507 103.553 198.02 104.827 198.601 101.756C196.096 100.116 196.797 99.3851 195.813 97.6182C195.316 96.5579 194.542 95.6516 193.572 94.9954C192.602 94.3392 191.472 93.9574 190.303 93.8906L188.544 95.0089C182.87 100.078 195.507 103.553 195.507 103.553Z" fill="#263238"/>
<path d="M181.849 104.246C181.263 102.379 181.443 100.355 182.349 98.6197C183.255 96.8847 184.813 95.5806 186.68 94.9942C192.317 93.0782 198.542 98.6547 201.039 103.128C201.707 104.276 202.048 105.584 202.027 106.912C202.005 108.239 201.622 109.536 200.917 110.661C200.213 111.787 199.215 112.699 198.03 113.299C196.845 113.898 195.519 114.163 194.195 114.065C190.102 113.804 187.933 111.344 183.885 107.467C182.939 106.588 182.237 105.478 181.849 104.246Z" fill="#B25B52"/>
<path d="M199.056 104.835C197.271 105.492 195.559 106.334 193.949 107.347C194.486 107.925 195.213 108.289 195.997 108.371C196.782 108.454 197.569 108.249 198.214 107.795C198.701 107.544 199.07 107.113 199.245 106.594C199.419 106.074 199.383 105.507 199.146 105.014L199.056 104.835Z" fill="#263238"/>
<path d="M196.857 107.303C197.55 106.846 198.381 106.646 199.206 106.736C199.007 107.18 198.666 107.544 198.236 107.772C197.548 108.233 196.718 108.434 195.896 108.339C196.089 107.894 196.428 107.529 196.857 107.303Z" fill="#FF5652"/>
<path d="M198.899 104.901C198.945 105.065 198.946 105.237 198.903 105.401C198.859 105.564 198.773 105.714 198.653 105.833C197.574 106.45 196.442 106.966 195.269 107.377C195.083 107.456 194.88 107.486 194.68 107.462C194.48 107.439 194.29 107.363 194.128 107.242C195.648 106.326 197.244 105.543 198.899 104.901Z" fill="white"/>
<path d="M189.252 112.574L183.772 109.592C184.413 107.208 185.432 104.942 186.792 102.882L187.075 103.023L189.252 112.574Z" fill="#B25B52"/>
<path opacity="0.2" d="M189.252 112.574L183.772 109.592C184.413 107.208 185.432 104.942 186.792 102.882L187.075 103.023L189.252 112.574Z" fill="black"/>
<path d="M186.792 102.926C185.432 104.987 184.413 107.252 183.773 109.636L180.351 107.772L183.027 101.003L186.792 102.926Z" fill="#263238"/>
<path d="M197.073 104.119C197.409 103.952 197.703 103.713 197.936 103.419C198.17 103.125 198.336 102.784 198.423 102.419C196.936 102.134 195.494 101.65 194.136 100.98L197.073 104.119Z" fill="#9D2724"/>
<path d="M184.607 108.57C185.681 107.66 187.851 108.353 189.014 109.121C190.318 109.979 190.616 111.358 189.185 111.835C188.016 112.172 186.766 112.09 185.651 111.604C184.25 111 183.541 109.479 184.607 108.57Z" fill="#B25B52"/>
<path d="M191.362 102.59C191.585 102.404 192.055 102.546 192.331 102.851C192.607 103.157 192.674 103.597 192.45 103.783C192.227 103.97 191.824 103.836 191.489 103.53C191.153 103.224 191.131 102.784 191.362 102.59Z" fill="#263238"/>
<path d="M195.052 99.0569C195.283 98.8631 195.708 98.9749 196.021 99.3104C196.335 99.6459 196.402 100.056 196.171 100.265C195.939 100.473 195.515 100.339 195.201 100.004C194.888 99.6682 194.829 99.2433 195.052 99.0569Z" fill="#263238"/>
<path d="M193.211 98.147C193.253 98.1542 193.297 98.1512 193.339 98.1383C193.38 98.1253 193.418 98.1027 193.449 98.0724C193.672 97.8123 193.951 97.6056 194.264 97.4676C194.578 97.3295 194.918 97.2636 195.261 97.2747C195.294 97.28 195.328 97.2785 195.361 97.2705C195.394 97.2624 195.424 97.2479 195.452 97.2277C195.479 97.2076 195.501 97.1823 195.519 97.1532C195.536 97.1241 195.547 97.0919 195.551 97.0585C195.558 96.9887 195.538 96.9191 195.495 96.8637C195.452 96.8083 195.39 96.7713 195.32 96.7603C194.898 96.7391 194.477 96.8156 194.089 96.9836C193.701 97.1517 193.357 97.4069 193.084 97.7295C193.035 97.7807 193.008 97.8488 193.008 97.9196C193.008 97.9903 193.035 98.0584 193.084 98.1097C193.123 98.1304 193.166 98.1431 193.211 98.147Z" fill="#263238"/>
<path d="M189.692 102.83C189.731 102.81 189.765 102.782 189.791 102.747C189.817 102.712 189.834 102.671 189.841 102.628C189.852 102.286 189.942 101.95 190.104 101.647C190.266 101.345 190.495 101.084 190.773 100.884C190.804 100.868 190.831 100.847 190.852 100.82C190.874 100.794 190.89 100.763 190.899 100.73C190.908 100.697 190.91 100.662 190.905 100.629C190.9 100.595 190.888 100.562 190.87 100.533C190.833 100.474 190.774 100.431 190.706 100.414C190.637 100.397 190.565 100.408 190.505 100.444C190.154 100.687 189.864 101.008 189.657 101.382C189.45 101.756 189.332 102.172 189.312 102.598C189.31 102.634 189.315 102.669 189.327 102.702C189.338 102.736 189.356 102.766 189.38 102.793C189.403 102.819 189.432 102.84 189.464 102.856C189.496 102.871 189.53 102.88 189.565 102.882C189.611 102.875 189.655 102.857 189.692 102.83Z" fill="#263238"/>
<path d="M319.033 203.922L317.743 208.358L312.115 205.234L310.527 204.354L309.431 203.743L312.786 199.218L313.464 199.732L314.962 200.858L319.033 203.922Z" fill="#B25B52"/>
<path d="M329.038 201.194C327.48 203.154 325.974 204.869 324.84 206.278C322.992 208.574 322.395 209.529 320.979 211.37C320.808 211.582 320.563 211.72 320.293 211.755C320.023 211.79 319.751 211.719 319.532 211.557L315.805 208.157C315.73 208.08 315.688 207.977 315.688 207.87C315.688 207.763 315.73 207.66 315.805 207.583L318.787 203.311C319.338 202.852 319.963 202.489 320.636 202.237C322.664 201.716 324.214 201.663 327.934 198.547C328.135 198.407 328.381 198.348 328.624 198.379C328.866 198.411 329.088 198.532 329.247 198.719C329.716 199.196 329.917 200.105 329.038 201.194Z" fill="#263238"/>
<path opacity="0.2" d="M314.694 200.649L311.771 205.063L310.526 204.355L313.464 199.732L314.694 200.649Z" fill="black"/>
<path d="M313.934 198.988L309.975 205.235C309.975 205.235 287.773 196.721 268.345 178.605L268.404 178.285C257.371 181.058 225.06 181.543 219.871 176.048C217.142 173.021 215.226 169.808 214.749 165.849L219.871 164.149C222.57 163.054 227.237 161.398 228.765 159.564C228.765 159.564 258.153 161.361 270.246 167.064C282.92 171.731 313.934 198.988 313.934 198.988Z" fill="#FFC727"/>
<g opacity="0.1">
<path d="M313.934 198.988L309.975 205.235C309.975 205.235 287.773 196.721 268.345 178.605L268.404 178.285C257.371 181.058 225.06 181.543 219.871 176.048C217.142 173.021 215.226 169.808 214.749 165.849L219.871 164.149C222.57 163.054 227.237 161.398 228.765 159.564C228.765 159.564 258.153 161.361 270.246 167.064C282.92 171.731 313.934 198.988 313.934 198.988Z" fill="black"/>
</g>
<path d="M313.039 210.818L310.519 214.74L304.808 211.892L302.825 210.893L305.822 205.935V205.928L313.039 210.818Z" fill="#B25B52"/>
<path opacity="0.2" d="M307.775 207.248L304.86 211.773L304.808 211.892L302.825 210.893L305.822 205.936L307.775 207.248Z" fill="black"/>
<path d="M306.852 205.302L306.613 205.727L302.759 211.93L264.334 187.872C252.95 191.45 214.116 191.808 208.353 186.381C207.924 185.966 207.519 185.528 207.138 185.069C206.72 184.599 206.34 184.107 205.982 183.615C205.981 183.6 205.981 183.585 205.982 183.57C204.47 181.07 203.351 178.352 202.664 175.511C202.102 173.393 201.677 171.242 201.39 169.07C212.312 166.908 225.455 163.426 228.788 159.542L235.348 169.532C246.397 170.606 263.164 173.26 267.525 175.012C281.064 179.149 306.852 205.302 306.852 205.302Z" fill="#FFC727"/>
<path d="M207.137 185.075C206.727 184.603 206.349 184.105 206.004 183.584C206.339 184.143 206.72 184.605 207.137 185.075Z" fill="#FFC727"/>
<path d="M322.812 206.674C322.529 207.077 322.238 207.464 321.97 207.852L321.933 207.904L321.083 209.045L320.703 209.552C320.509 209.82 320.3 210.111 320.076 210.402L319.629 210.998L318.734 212.236C316.945 214.763 316.379 215.799 315.007 217.812C314.843 218.043 314.596 218.201 314.318 218.254C314.04 218.306 313.753 218.25 313.516 218.095L310.064 215.285L309.423 214.763C309.379 214.727 309.343 214.683 309.317 214.633C309.291 214.583 309.275 214.528 309.27 214.472C309.265 214.416 309.272 214.359 309.289 214.305C309.306 214.252 309.334 214.202 309.371 214.159L312.219 209.499C312.771 208.989 313.403 208.571 314.09 208.262C316.185 207.591 317.817 207.442 321.508 203.953C322.283 203.177 324.303 204.534 322.812 206.674Z" fill="#263238"/>
<path d="M205.96 183.562C204.252 181.168 203.094 178.427 202.567 175.533H202.642C203.328 178.364 204.447 181.073 205.96 183.562Z" fill="#FFC727"/>
<path d="M208.449 158.915H156.784C154.4 158.915 152.468 160.848 152.468 163.232V164.857C152.468 167.241 154.4 169.173 156.784 169.173H208.449C210.833 169.173 212.766 167.241 212.766 164.857V163.232C212.766 160.848 210.833 158.915 208.449 158.915Z" fill="#FFC727"/>
<path opacity="0.5" d="M208.449 158.915H156.784C154.4 158.915 152.468 160.848 152.468 163.232V164.857C152.468 167.241 154.4 169.173 156.784 169.173H208.449C210.833 169.173 212.766 167.241 212.766 164.857V163.232C212.766 160.848 210.833 158.915 208.449 158.915Z" fill="white"/>
<path opacity="0.5" d="M212.766 164.015C212.766 162.655 212.225 161.35 211.264 160.388C210.302 159.426 208.997 158.886 207.637 158.886H157.604C156.93 158.885 156.262 159.017 155.639 159.274C155.016 159.531 154.45 159.909 153.973 160.385C153.496 160.862 153.117 161.428 152.859 162.05C152.601 162.673 152.468 163.341 152.468 164.015H212.766Z" fill="white"/>
<path d="M202.038 159.706C194.978 160.324 190.661 160.019 183.623 159.989C177.525 159.989 176.66 159.989 176.66 158.021C176.66 155.784 177.182 151.945 177.182 149.73C179.926 149.902 182.363 150.2 185.07 149.73L184.742 153.272C192.413 153.078 194.993 155.352 202.038 156.179V159.706Z" fill="#B25B52"/>
<path opacity="0.2" d="M189.364 147.613C187.426 143.932 185.982 140.011 185.069 135.953L186.56 135.073L189.364 147.613Z" fill="black"/>
<path d="M184.95 126.06C182.162 126.567 179.963 128.863 178.845 131.465C177.726 134.067 176.817 148.791 176.78 148.21H175.825L175.154 153.257C178.74 153.153 183.295 152.824 186.874 152.72C186.874 152.72 187.031 149.529 186.874 147.971L185.927 148.053L187.91 134.746C188.244 132.608 188.07 130.422 187.403 128.364C187.306 128.04 187.174 127.727 187.008 127.432C186.553 126.739 185.808 125.904 184.95 126.06Z" fill="#263238"/>
<path d="M216.799 155.918C216.799 156.647 216.583 157.359 216.178 157.965C215.773 158.571 215.198 159.043 214.524 159.322C213.851 159.6 213.11 159.673 212.395 159.53C211.681 159.387 211.024 159.036 210.51 158.52C209.995 158.004 209.645 157.347 209.503 156.632C209.362 155.917 209.436 155.177 209.716 154.504C209.996 153.831 210.469 153.256 211.076 152.852C211.682 152.449 212.395 152.234 213.124 152.235C214.099 152.237 215.034 152.626 215.723 153.317C216.412 154.007 216.799 154.943 216.799 155.918Z" fill="#FFC727"/>
<path d="M212.781 161.837C213.84 161.735 214.879 161.484 215.867 161.091C216.078 160.999 216.268 160.865 216.426 160.698C216.584 160.531 216.706 160.333 216.786 160.118C216.866 159.902 216.902 159.672 216.891 159.443C216.881 159.213 216.824 158.988 216.725 158.78C216.583 158.467 216.434 158.154 216.255 157.841C215.286 158.318 214.108 158.862 213.094 158.475C211.126 157.729 209.978 155.992 207.875 155.947L201.598 156.245C201.311 157.352 201.28 158.51 201.509 159.63C205.103 161.038 208.921 161.786 212.781 161.837Z" fill="#B25B52"/>
<path d="M213.66 144.541L209.299 147.322C209.299 147.322 204.654 149.559 203.148 148.433C202.503 147.631 201.974 146.742 201.575 145.794C201.436 145.521 201.385 145.213 201.428 144.91C201.47 144.607 201.605 144.325 201.814 144.101L204.796 141.5C205.446 140.944 206.273 140.637 207.129 140.635H212.713L213.66 144.541Z" fill="#B25B52"/>
<path d="M232.157 140.531C232.109 140.605 232.051 140.673 231.985 140.732C231.915 140.804 231.838 140.869 231.754 140.926C231.665 141.001 231.571 141.068 231.471 141.127C230.974 141.426 230.45 141.675 229.905 141.873C229.756 141.932 229.592 141.999 229.421 142.052C229.249 142.104 229.085 142.178 228.899 142.231C228.541 142.342 228.153 142.462 227.766 142.566L227.371 142.67L226.252 142.961H226.133C225.499 143.11 224.836 143.259 224.165 143.401C224.087 143.423 224.007 143.438 223.926 143.446C221.69 143.915 219.259 144.325 217.217 144.639C216.941 144.683 216.665 144.728 216.411 144.758L215.666 144.87C215.271 143.498 213.69 140.963 213.198 139.651L221.198 136.736L222.994 136.08C222.994 136.08 221.026 132.956 220.4 132.099C219.774 131.241 219.274 130.556 218.708 129.773C216.277 124.703 214.533 121.155 212.564 119.522C211.624 118.64 210.407 118.112 209.12 118.031C209.12 118.031 213.34 117.077 214.756 117.509C216.166 118.012 217.463 118.787 218.573 119.79C222.78 123.146 226.45 127.123 229.458 131.584C229.51 131.666 229.585 131.771 229.652 131.89C229.928 132.308 230.196 132.733 230.45 133.157C231.747 135.275 233.409 138.741 232.157 140.531Z" fill="#263238"/>
<path opacity="0.2" d="M221.697 134.03L219.513 130.989C218.767 129.326 218.104 127.85 217.455 126.553L218.312 127.373C220.148 129.155 221.339 131.497 221.697 134.03Z" fill="black"/>
<path d="M217.805 146.331C216.325 145.863 214.76 145.725 213.22 145.928C212.4 143.617 211.508 141.333 210.544 139.077C211.959 138.444 213.472 138.056 215.017 137.929C215.919 140.672 217.41 143.483 217.805 146.331Z" fill="#263238"/>
<path opacity="0.1" d="M217.805 146.331C216.325 145.863 214.76 145.725 213.22 145.928C212.4 143.617 211.508 141.333 210.544 139.077C211.959 138.444 213.472 138.056 215.017 137.929C215.919 140.672 217.41 143.483 217.805 146.331Z" fill="white"/>
<path d="M180.656 107.981C179.225 106.989 178.576 105.185 178.375 103.456C178.173 101.726 180.022 101.391 179.814 99.661C179.605 97.9313 178.919 96.1272 177.473 95.1878C178.718 95.5233 180.298 95.2549 181.424 95.8811C180.642 94.5652 179.398 93.5873 177.935 93.1376C179.964 92.9862 182.004 93.2112 183.951 93.8011C183.817 92.3101 182.46 90.3344 181.573 89.1118L186.486 92.0939C186.971 90.9653 187.03 89.6987 186.65 88.5303C188.186 90.1853 191.526 93.6893 191.526 93.6893L192.271 95.0611C189.289 95.3593 189.923 96.9547 189.923 96.9547C189.923 96.9547 183.109 97.4467 180.656 107.981Z" fill="#263238"/>
<path opacity="0.1" d="M175.825 148.225L186.889 147.986L186.874 152.735L175.154 153.272L175.825 148.225Z" fill="white"/>
<path d="M83.8779 257.309L89.2159 260.15L89.7228 251.681L84.2358 251.375L83.8779 257.309Z" fill="#F7978D"/>
<path d="M89.4623 258.801L83.8038 256.258C83.7042 256.214 83.5926 256.205 83.4871 256.232C83.3816 256.259 83.2883 256.321 83.2222 256.407L80.2401 260.456C80.1139 260.633 80.0627 260.853 80.0976 261.068C80.1325 261.283 80.2507 261.475 80.4265 261.604L80.5831 261.693C82.5736 262.543 83.5652 262.856 86.0851 263.974C87.5761 264.66 91.5199 266.606 93.6447 267.553C95.7694 268.5 96.9697 266.532 96.1869 265.95C92.6681 263.348 90.9235 261.156 90.178 259.479C90.0354 259.169 89.7791 258.926 89.4623 258.801Z" fill="#263238"/>
<path opacity="0.2" d="M89.7226 251.688L89.6257 254.447L84.1387 254.119L84.2356 251.375L89.7226 251.688Z" fill="black"/>
<path d="M98.5729 132.308C99.6837 138.92 97.723 171.075 95.5908 185.292C92.7876 204.139 90.6554 253.522 90.6554 253.522L83.3269 252.956C83.3269 252.956 81.0903 201.172 82.8497 186.03C82.3353 166.497 80.8145 132.352 80.8145 132.352L98.5729 132.308Z" fill="#FFC727"/>
<path opacity="0.1" d="M98.5729 132.308C99.6837 138.92 97.723 171.075 95.5908 185.292C92.7876 204.139 90.6554 253.522 90.6554 253.522L83.3269 252.956C83.3269 252.956 81.0903 201.172 82.8497 186.03C82.3353 166.497 80.8145 132.352 80.8145 132.352L98.5729 132.308Z" fill="black"/>
<path opacity="0.2" d="M81.7008 153.637C81.5219 148.687 85.1004 144.355 86.3529 153.711C87.1431 159.676 85.1228 170.038 82.5805 177.345C82.3345 169.688 82.0065 161.167 81.7008 153.637Z" fill="black"/>
<path d="M43.7168 244.271L47.8768 246.918L51.6194 240.894L47.4593 238.247L43.7168 244.271Z" fill="#F7978D"/>
<path d="M48.5181 246.82L43.9405 242.608C43.8643 242.535 43.7628 242.494 43.6572 242.494C43.5517 242.494 43.4502 242.535 43.3739 242.608L39.6463 245.91C39.5582 245.998 39.4882 246.102 39.4405 246.216C39.3927 246.331 39.3682 246.454 39.3682 246.578C39.3682 246.702 39.3927 246.825 39.4405 246.939C39.4882 247.054 39.5582 247.158 39.6463 247.245C41.2567 248.691 42.1066 249.295 44.1195 251.159C45.357 252.292 46.8406 253.91 48.5479 255.49C50.2551 257.071 51.8133 255.386 51.2392 254.573C48.6523 250.913 49.189 249.645 48.9057 247.715C48.874 247.383 48.7383 247.07 48.5181 246.82Z" fill="#263238"/>
<path opacity="0.2" d="M51.6198 240.901L49.9349 243.6L45.7227 240.819L47.4523 238.247L51.6198 240.901Z" fill="black"/>
<path d="M87.6352 139.904C87.6352 139.904 80.7167 181.654 76.7058 197.436C73.8057 208.798 51.5891 242.615 51.5891 242.615L45.9082 239.231C45.9082 239.231 53.5498 211.132 65.687 196.273C66.4325 178.627 64.9414 149.536 71.9345 139.964L87.6352 139.904Z" fill="#FFC727"/>
<path opacity="0.1" d="M87.6352 139.904C87.6352 139.904 80.7167 181.654 76.7058 197.436C73.8057 208.798 51.5891 242.615 51.5891 242.615L45.9082 239.231C45.9082 239.231 53.5498 211.132 65.687 196.273C66.4325 178.627 64.9414 149.536 71.9345 139.964L87.6352 139.904Z" fill="black"/>
<path d="M98.1256 104.835C100.631 102.301 102.979 99.6912 105.275 96.985C107.571 94.2787 109.8 91.5277 111.888 88.6053L112.283 88.061L112.708 87.4273C112.984 87.0024 113.237 86.5774 113.454 86.1525C113.916 85.2951 114.303 84.4154 114.699 83.5879C115.417 81.9047 116.046 80.1852 116.585 78.4363C117.622 75.0193 118.407 71.5309 118.933 67.999C119.032 67.6114 118.973 67.2005 118.769 66.8565C118.565 66.5126 118.232 66.2638 117.845 66.165C117.457 66.0661 117.046 66.1252 116.702 66.3294C116.358 66.5335 116.11 66.8659 116.011 67.2534C114.848 70.4666 113.603 73.7171 112.283 76.8111C111.612 78.3692 110.881 79.8826 110.106 81.3215C109.718 82.067 109.308 82.7231 108.883 83.3717C108.675 83.6997 108.451 84.0054 108.235 84.3036L107.899 84.7285L107.512 85.2131C105.35 87.8374 103.039 90.4318 100.802 92.9815C98.5654 95.5312 96.1276 98.0809 93.7941 100.571C93.5043 100.858 93.275 101.201 93.1197 101.578C92.9644 101.955 92.8862 102.36 92.8898 102.768C92.8933 103.176 92.9785 103.579 93.1403 103.954C93.3022 104.328 93.5374 104.667 93.832 104.949C94.1267 105.231 94.4749 105.452 94.8561 105.597C95.2373 105.743 95.6438 105.81 96.0516 105.796C96.4594 105.782 96.8603 105.687 97.2305 105.515C97.6008 105.344 97.933 105.1 98.2076 104.798L98.1256 104.835Z" fill="#F7978D"/>
<path d="M116.055 68.3486L115.623 63.4355L120.886 65.605C120.886 65.605 120.297 68.52 118.106 69.6681L116.055 68.3486Z" fill="#F7978D"/>
<path d="M95.7627 96.1716C95.1141 95.2844 104.91 87.6875 104.91 87.6875L106.61 98.6169C106.61 98.6169 104.657 102.65 101.816 104.849C98.9759 107.049 94.5848 99.6755 95.7627 96.1716Z" fill="#FFC727"/>
<path d="M119.53 60.4314L121.446 61.9224C121.66 62.086 121.814 62.3158 121.884 62.576C121.954 62.8362 121.936 63.1123 121.833 63.3613L120.886 65.5979L115.623 63.4284L117.822 60.6401C118.022 60.3875 118.313 60.2239 118.633 60.1848C118.953 60.1457 119.275 60.2343 119.53 60.4314Z" fill="#F7978D"/>
<path d="M101.965 99.7506C102.054 110.777 99.9148 119.373 98.9829 126.955C98.8636 127.917 98.6772 131.1 99.6166 137.735C100.256 143.18 100.619 148.655 100.705 154.137L66.0605 151.952C67.2012 137.094 74.4999 128.095 74.4924 126.053C74.4924 119.895 73.8215 113.595 71.1376 101.532C70.8423 100.197 71.0895 98.7986 71.8249 97.6452C72.5602 96.4918 73.7236 95.6777 75.059 95.3818C75.2135 95.3437 75.3704 95.3163 75.5287 95.2998C77.0198 95.106 78.5928 94.9345 80.2255 94.8525C83.8878 94.5767 87.5651 94.5617 91.2295 94.8078C93.809 95.0314 96.5749 95.4638 98.5505 95.7919C99.4926 95.9486 100.35 96.4304 100.974 97.1536C101.598 97.8768 101.948 98.7957 101.965 99.7506Z" fill="#FFC727"/>
<path d="M96.1721 109.442H95.7248L95.1358 107.667C95.1098 107.589 95.1028 107.505 95.1156 107.423C95.1284 107.341 95.1606 107.263 95.2094 107.196C95.2582 107.129 95.3223 107.075 95.3964 107.037C95.4705 107 95.5524 106.981 95.6353 106.981H96.2616C96.3445 106.981 96.4264 107 96.5005 107.037C96.5746 107.075 96.6387 107.129 96.6875 107.196C96.7363 107.263 96.7685 107.341 96.7813 107.423C96.7941 107.505 96.7871 107.589 96.7611 107.667L96.1721 109.442Z" fill="#263238"/>
<path d="M95.9635 107.623C96.6429 107.623 97.1936 107.073 97.1936 106.393C97.1936 105.714 96.6429 105.163 95.9635 105.163C95.2841 105.163 94.7334 105.714 94.7334 106.393C94.7334 107.073 95.2841 107.623 95.9635 107.623Z" fill="#FFC727"/>
<path opacity="0.5" d="M95.9636 107.154C96.3835 107.154 96.724 106.813 96.724 106.393C96.724 105.973 96.3835 105.633 95.9636 105.633C95.5436 105.633 95.2031 105.973 95.2031 106.393C95.2031 106.813 95.5436 107.154 95.9636 107.154Z" fill="white"/>
<path d="M99.3481 108.637H92.5862C92.0715 108.637 91.6543 109.054 91.6543 109.569V113.095C91.6543 113.61 92.0715 114.027 92.5862 114.027H99.3481C99.8628 114.027 100.28 113.61 100.28 113.095V109.569C100.28 109.054 99.8628 108.637 99.3481 108.637Z" fill="#FFC727"/>
<path opacity="0.8" d="M99.3481 108.637H92.5862C92.0715 108.637 91.6543 109.054 91.6543 109.569V113.095C91.6543 113.61 92.0715 114.027 92.5862 114.027H99.3481C99.8628 114.027 100.28 113.61 100.28 113.095V109.569C100.28 109.054 99.8628 108.637 99.3481 108.637Z" fill="white"/>
<path d="M99.2657 108.936H92.6529C92.2659 108.936 91.9521 109.249 91.9521 109.636V113.014C91.9521 113.401 92.2659 113.714 92.6529 113.714H99.2657C99.6528 113.714 99.9665 113.401 99.9665 113.014V109.636C99.9665 109.249 99.6528 108.936 99.2657 108.936Z" fill="#FFC727"/>
<path opacity="0.5" d="M99.2657 108.936H92.6529C92.2659 108.936 91.9521 109.249 91.9521 109.636V113.014C91.9521 113.401 92.2659 113.714 92.6529 113.714H99.2657C99.6528 113.714 99.9665 113.401 99.9665 113.014V109.636C99.9665 109.249 99.6528 108.936 99.2657 108.936Z" fill="white"/>
<path d="M94.7333 109.644H92.7949V111.835H94.7333V109.644Z" fill="#FFC727"/>
<path d="M95.5533 110.403C95.5078 110.403 95.4642 110.385 95.4321 110.353C95.3999 110.321 95.3818 110.277 95.3818 110.232C95.3818 110.187 95.3999 110.143 95.4321 110.111C95.4642 110.079 95.5078 110.061 95.5533 110.061H99.1542C99.1997 110.061 99.2433 110.079 99.2754 110.111C99.3076 110.143 99.3257 110.187 99.3257 110.232C99.3257 110.277 99.3076 110.321 99.2754 110.353C99.2433 110.385 99.1997 110.403 99.1542 110.403H95.5533Z" fill="white"/>
<path d="M95.5533 112.573C95.5078 112.573 95.4642 112.555 95.4321 112.523C95.3999 112.491 95.3818 112.447 95.3818 112.402C95.3818 112.356 95.3999 112.313 95.4321 112.281C95.4642 112.249 95.5078 112.23 95.5533 112.23H99.1542C99.1997 112.23 99.2433 112.249 99.2754 112.281C99.3076 112.313 99.3257 112.356 99.3257 112.402C99.3257 112.447 99.3076 112.491 99.2754 112.523C99.2433 112.555 99.1997 112.573 99.1542 112.573H95.5533Z" fill="white"/>
<path d="M95.5533 111.499C95.5078 111.499 95.4642 111.481 95.4321 111.449C95.3999 111.417 95.3818 111.373 95.3818 111.328C95.3818 111.282 95.3999 111.239 95.4321 111.206C95.4642 111.174 95.5078 111.156 95.5533 111.156H99.1542C99.1997 111.156 99.2433 111.174 99.2754 111.206C99.3076 111.239 99.3257 111.282 99.3257 111.328C99.3257 111.373 99.3076 111.417 99.2754 111.449C99.2433 111.481 99.1997 111.499 99.1542 111.499H95.5533Z" fill="white"/>
<path opacity="0.4" d="M91.1922 94.8369C91.1922 94.8369 95.0913 97.6625 90.8045 104.529C87.4346 101.137 83.8964 97.9176 80.2031 94.8816L91.1922 94.8369Z" fill="white"/>
<path d="M77.2883 133.709H76.6322C76.5055 133.709 76.4011 133.642 76.4086 133.56L76.7068 130.742C76.7068 130.66 76.8335 130.593 76.9603 130.593H77.6238C77.7505 130.593 77.8474 130.652 77.84 130.742L77.5492 133.553C77.5343 133.642 77.4225 133.709 77.2883 133.709Z" fill="#FFC727"/>
<path d="M96.8504 133.642H96.1869C96.0602 133.642 95.9558 133.575 95.9633 133.493L96.2615 130.674C96.2615 130.592 96.3882 130.525 96.515 130.525H97.1785C97.3052 130.525 97.4096 130.592 97.3947 130.674L97.1039 133.493C97.089 133.567 96.9772 133.634 96.8504 133.642Z" fill="#FFC727"/>
<path d="M87.0686 133.672H86.4125C86.2783 133.672 86.1814 133.605 86.1889 133.523L86.4871 130.705C86.4871 130.623 86.6064 130.556 86.7406 130.556H87.3966C87.5234 130.556 87.6203 130.623 87.6128 130.705L87.3221 133.523C87.3015 133.572 87.2657 133.613 87.2201 133.639C87.1744 133.666 87.1213 133.678 87.0686 133.672Z" fill="#FFC727"/>
<path d="M68.6924 102.382C67.5518 105.103 66.5304 107.809 65.5687 110.583C65.099 111.962 64.6293 113.341 64.2267 114.81C63.7727 116.304 63.4116 117.826 63.1457 119.365C63.0666 119.841 63.0168 120.322 62.9966 120.804C62.9818 121.178 63.0043 121.552 63.0637 121.922C63.0637 122.064 63.1308 122.213 63.1755 122.354L63.2426 122.615C63.2807 122.731 63.328 122.843 63.3843 122.951L63.4737 123.13V123.212V123.271L63.5558 123.391C64.0105 124.032 64.4131 124.695 64.9201 125.299C65.8823 126.553 66.9498 127.723 68.1109 128.796C69.2992 129.872 70.6076 130.807 72.01 131.584C72.7256 131.98 73.4739 132.315 74.2466 132.583C74.6342 132.717 75.0368 132.844 75.4394 132.948L76.0731 133.075C76.3117 133.12 76.4832 133.142 76.8186 133.179L77.251 130.197C77.1531 130.138 77.0509 130.086 76.9454 130.041L76.5428 129.84C76.2744 129.698 76.006 129.541 75.7451 129.377C75.2202 129.022 74.7149 128.639 74.2317 128.229C73.2487 127.395 72.343 126.475 71.5254 125.478C71.1303 124.949 70.7128 124.464 70.3475 123.89C69.9822 123.316 69.602 122.817 69.2665 122.272C68.931 121.728 68.6104 121.117 68.2675 120.543V120.431V120.371V120.424V120.543C68.2675 120.617 68.342 120.714 68.3569 120.759C68.361 120.804 68.361 120.849 68.3569 120.893L68.4017 121.065C68.4017 121.199 68.4017 121.162 68.4017 121.065C68.426 120.825 68.4709 120.588 68.5359 120.356C68.8599 119.07 69.248 117.801 69.6989 116.554C70.1536 115.25 70.6308 113.915 71.1303 112.596C72.1293 109.949 73.1656 107.265 74.1869 104.633L68.6924 102.382Z" fill="#F7978D"/>
<path d="M84.0719 127.558L82.0366 126.895C81.8898 126.845 81.7345 126.824 81.5798 126.835C81.425 126.845 81.2739 126.886 81.1352 126.956C80.9964 127.025 80.8729 127.121 80.7716 127.239C80.6704 127.356 80.5936 127.493 80.5456 127.64C80.4783 127.844 80.4692 128.062 80.5192 128.27C80.5693 128.478 80.6765 128.668 80.8289 128.818L75.0287 146.711C74.9205 147.05 74.9507 147.418 75.1126 147.735C75.2746 148.052 75.5553 148.292 75.8935 148.403L76.393 148.567C76.7321 148.675 77.1003 148.645 77.4173 148.483C77.7342 148.321 77.9744 148.041 78.0854 147.702L83.8855 129.81C84.0956 129.773 84.2918 129.681 84.4533 129.541C84.6148 129.402 84.7355 129.222 84.8025 129.02C84.8973 128.729 84.8737 128.412 84.737 128.139C84.6003 127.866 84.3613 127.657 84.0719 127.558Z" fill="#FFC727"/>
<path opacity="0.6" d="M84.0719 127.558L82.0366 126.895C81.8898 126.845 81.7345 126.824 81.5798 126.835C81.425 126.845 81.2739 126.886 81.1352 126.956C80.9964 127.025 80.8729 127.121 80.7716 127.239C80.6704 127.356 80.5936 127.493 80.5456 127.64C80.4783 127.844 80.4692 128.062 80.5192 128.27C80.5693 128.478 80.6765 128.668 80.8289 128.818L75.0287 146.711C74.9205 147.05 74.9507 147.418 75.1126 147.735C75.2746 148.052 75.5553 148.292 75.8935 148.403L76.393 148.567C76.7321 148.675 77.1003 148.645 77.4173 148.483C77.7342 148.321 77.9744 148.041 78.0854 147.702L83.8855 129.81C84.0956 129.773 84.2918 129.681 84.4533 129.541C84.6148 129.402 84.7355 129.222 84.8025 129.02C84.8973 128.729 84.8737 128.412 84.737 128.139C84.6003 127.866 84.3613 127.657 84.0719 127.558Z" fill="white"/>
<path d="M81.2617 126.918C81.7231 127.322 82.2757 127.609 82.8721 127.753C83.4397 127.989 84.0569 128.081 84.6688 128.021C84.5258 127.803 84.3128 127.64 84.0649 127.559L82.0296 126.895C81.7783 126.817 81.508 126.825 81.2617 126.918Z" fill="#FFC727"/>
<path d="M79.6518 137.742C79.1225 137.571 78.7423 137.302 78.787 137.131L75.6111 146.935C75.581 147.028 75.5696 147.127 75.5777 147.224C75.5858 147.322 75.6131 147.418 75.6582 147.505C75.7032 147.592 75.765 147.67 75.8401 147.733C75.9152 147.796 76.0021 147.844 76.0957 147.874L76.5952 148.03C76.783 148.092 76.9875 148.076 77.1636 147.986C77.3397 147.897 77.4731 147.741 77.5346 147.553L80.7105 137.75C80.6434 137.921 80.1737 137.921 79.6518 137.742Z" fill="#FFC727"/>
<path d="M80.7097 137.75C80.6575 137.922 80.1804 137.914 79.651 137.75C79.1217 137.586 78.7266 137.303 78.7862 137.132C78.8459 136.96 79.3156 136.96 79.8449 137.132C80.3742 137.303 80.7693 137.579 80.7097 137.75Z" fill="#FFC727"/>
<path opacity="0.3" d="M80.7097 137.75C80.6575 137.922 80.1804 137.914 79.651 137.75C79.1217 137.586 78.7266 137.303 78.7862 137.132C78.8459 136.96 79.3156 136.96 79.8449 137.132C80.3742 137.303 80.7693 137.579 80.7097 137.75Z" fill="black"/>
<g opacity="0.8">
<path d="M81.3509 129.147C79.4324 135.076 77.5139 141.003 75.5954 146.927C75.5843 146.999 75.599 147.073 75.6371 147.135C75.6751 147.196 75.734 147.243 75.8031 147.265C75.8722 147.288 75.947 147.285 76.0141 147.257C76.0813 147.229 76.1363 147.179 76.1695 147.114C78.083 141.184 80.0015 135.258 81.9249 129.333C81.9361 129.261 81.9213 129.188 81.8833 129.126C81.8452 129.064 81.7864 129.018 81.7173 128.995C81.6482 128.973 81.5734 128.976 81.5062 129.004C81.4391 129.031 81.384 129.082 81.3509 129.147Z" fill="white"/>
</g>
<path d="M75.1035 132.896L80.516 134.939L81.3808 129.721C81.3808 129.721 78.2273 128.975 76.2964 130.466L75.1035 132.896Z" fill="#F7978D"/>
<path d="M83.7736 134.53L84.5191 132.643C84.6575 132.281 84.6492 131.879 84.4961 131.523C84.343 131.166 84.0571 130.884 83.699 130.735L81.3655 129.766L80.5156 134.94L82.0067 135.402C82.3569 135.496 82.7295 135.46 83.0547 135.299C83.38 135.139 83.6355 134.865 83.7736 134.53Z" fill="#F7978D"/>
<path d="M80.6348 98.2741C82.1259 104.663 72.0688 115.421 72.0688 115.421L63.9053 106.609C63.9053 106.609 67.8416 98.5648 72.8516 96.112C76.3332 94.4122 79.9788 95.4262 80.6348 98.2741Z" fill="#FFC727"/>
<path d="M81.2609 82.4912C82.0064 86.025 82.6923 92.5036 80.2246 94.8744C84.0148 96.4417 87.4959 98.6708 90.5054 101.457C93.2713 96.5742 91.2509 94.8296 91.2509 94.8296C87.3071 93.9052 87.3891 90.9753 88.0675 88.2243L81.2609 82.4912Z" fill="#F7978D"/>
<path opacity="0.2" d="M82.0068 83.1172C82.0654 85.2208 82.5739 87.2875 83.4979 89.1783C84.1465 90.483 85.9134 91.057 87.7026 91.1912C87.6597 90.1858 87.7729 89.1798 88.0381 88.2091L82.0068 83.1172Z" fill="black"/>
<path d="M86.0627 66.179C85.8987 65.754 86.3833 65.3589 86.8082 65.2471C87.4194 65.0925 88.0645 65.1451 88.6426 65.3966C89.2206 65.6481 89.6989 66.0843 90.0024 66.6368C90.3059 67.1893 90.4176 67.8269 90.3198 68.4496C90.2221 69.0724 89.9205 69.6451 89.4623 70.0781C89.6114 69.7351 90.3047 69.3325 90.6328 69.4965C90.9441 69.708 91.1669 70.0263 91.259 70.3912C91.3881 70.6969 91.4269 71.0332 91.3708 71.3604C91.3439 71.5254 91.2663 71.6779 91.1487 71.7968C91.0312 71.9157 90.8795 71.9951 90.7148 72.0239C91.4772 72.6746 92.0449 73.5234 92.3549 74.4766C92.48 74.9629 92.4519 75.476 92.2745 75.9457C92.097 76.4154 91.7788 76.8188 91.3634 77.1009C92.2357 77.7495 93.0483 78.6367 92.9588 79.7177C92.9067 80.263 92.7191 80.7866 92.4131 81.241C92.1072 81.6954 91.6925 82.0662 91.2068 82.3196C91.6914 83.244 92.5935 84.2654 92.1537 85.2047C91.602 86.3752 89.8425 86.7554 89.5965 88.0228C90.0811 88.1496 90.588 88.1794 91.0876 88.3061C91.2461 88.6311 91.3196 88.991 91.3014 89.3521C91.2831 89.7133 91.1737 90.0639 90.9832 90.3712C90.7297 90.6844 90.2377 90.4831 89.8351 90.4682C89.6352 90.4365 89.4306 90.4547 89.2395 90.521C89.0483 90.5873 88.8765 90.6997 88.7391 90.8484C88.6737 90.9617 88.6393 91.0903 88.6393 91.2211C88.6393 91.352 88.6737 91.4806 88.7391 91.5939C89.3268 91.8928 89.963 92.0846 90.6179 92.1605C90.12 92.2762 89.6042 92.2922 89.1 92.2078C88.5959 92.1234 88.1135 91.9401 87.6805 91.6685C87.2534 91.4129 86.8947 91.0576 86.635 90.633C86.3753 90.2084 86.2225 89.7272 86.1895 89.2306C86.1895 87.8663 87.2257 86.7554 88.2173 85.8086C88.4111 85.6222 88.687 85.2718 88.4484 85.1451C88.3243 85.0936 88.1913 85.0671 88.057 85.0671C87.9227 85.0671 87.7897 85.0936 87.6656 85.1451C87.4172 85.2535 87.144 85.2922 86.8753 85.2569C86.4298 84.7756 86.0512 84.2365 85.7496 83.6541C85.4141 83.0773 85.3203 82.3912 85.4887 81.7455C85.6575 81.2989 85.9106 80.8889 86.2342 80.5378C86.4682 80.2129 86.7586 79.9326 87.0915 79.7102C87.4792 79.4866 88.0011 79.3449 88.1129 78.9125C88.139 78.7284 88.1005 78.5408 88.004 78.3818C87.9075 78.2228 87.759 78.1021 87.5836 78.0402C87.2305 77.9211 86.8603 77.8606 86.4877 77.8613C86.111 77.86 85.7487 77.7162 85.4737 77.4587C85.1606 77.1009 84.8028 76.4076 84.9966 75.9677C85.1295 75.7513 85.3044 75.5637 85.511 75.416C86.2559 74.6479 86.7721 73.6876 87.0021 72.6427C87.0346 72.5408 87.0346 72.4314 87.0021 72.3295C86.9275 72.091 86.5846 72.0686 86.3758 72.2028C86.1927 72.3647 86.0185 72.5365 85.854 72.7172C85.6676 72.8738 85.347 72.9409 85.1979 72.7172C84.8028 72.2028 81.2093 70.5925 84.2213 67.1556C84.4747 66.8648 84.5344 66.4473 84.8326 66.2013C85.0147 66.0821 85.2268 66.0168 85.4444 66.0128C85.6621 66.0089 85.8764 66.0665 86.0627 66.179Z" fill="#263238"/>
<path d="M75.5879 78.0849C77.325 83.7508 77.899 86.1812 81.5521 88.4476C86.972 91.8472 93.5476 88.4998 93.5699 82.4834C93.5699 77.0262 90.7444 68.6838 84.6236 67.7295C83.2641 67.5097 81.8709 67.6412 80.5766 68.1117C79.2822 68.5822 78.1298 69.3759 77.2287 70.4174C76.3276 71.4589 75.708 72.7136 75.4286 74.0622C75.1492 75.4108 75.2195 76.8084 75.6326 78.1221L75.5879 78.0849Z" fill="#F7978D"/>
<path d="M73.4038 68.14C73.4709 67.6852 72.9043 67.3944 72.4495 67.3944C71.8163 67.3787 71.196 67.5744 70.6865 67.9507C70.177 68.3271 69.8076 68.8625 69.6365 69.4723C69.4654 70.0821 69.5026 70.7316 69.742 71.318C69.9814 71.9044 70.4094 72.3942 70.9585 72.71C70.7348 72.4044 69.9669 72.1509 69.6911 72.4044C69.4369 72.6821 69.2914 73.042 69.281 73.4183C69.2272 73.7479 69.2659 74.086 69.3929 74.3949C69.4605 74.5469 69.5717 74.6755 69.7123 74.7643C69.853 74.8532 70.0168 74.8985 70.1831 74.8944C69.5923 75.702 69.2339 76.656 69.1468 77.6529C69.1383 78.1552 69.2848 78.648 69.5662 79.0642C69.8477 79.4804 70.2505 79.7998 70.7199 79.9789C70.0191 80.8139 69.4301 81.8576 69.7656 82.8939C69.9407 83.4123 70.2424 83.8788 70.6434 84.2512C71.0443 84.6235 71.5319 84.8899 72.0618 85.0261C71.8009 86.0326 71.1523 87.2627 71.8009 88.0529C72.6061 89.0668 74.4028 89.0296 74.9321 90.2075C74.4922 90.4386 74.0077 90.5877 73.5678 90.8188C73.4834 91.1708 73.4919 91.5386 73.5925 91.8863C73.6931 92.234 73.8825 92.5495 74.1418 92.8019C74.455 93.0554 74.8874 92.7423 75.2751 92.6379C75.4627 92.5617 75.6662 92.5327 75.8677 92.5535C76.0692 92.5743 76.2625 92.6443 76.4306 92.7572C76.529 92.8512 76.5998 92.9704 76.6353 93.1019C76.6708 93.2333 76.6696 93.3719 76.6319 93.5027C76.5499 93.7637 75.2527 94.3675 74.9321 94.4868C75.966 94.4816 76.9556 94.066 77.6831 93.3312C78.0395 92.986 78.3066 92.5593 78.4611 92.0878C78.6157 91.6163 78.6532 91.1142 78.5703 90.625C78.2795 89.2905 76.9898 88.4481 75.8118 87.7547C75.5807 87.6205 75.2303 87.3447 75.4316 87.1658C75.6503 87.0183 75.916 86.9572 76.1771 86.9943C76.4416 87.0476 76.7157 87.0244 76.9674 86.9272C77.2993 86.3585 77.5503 85.7462 77.7129 85.1081C77.8109 84.7927 77.8455 84.4611 77.8148 84.1322C77.7841 83.8034 77.6886 83.4839 77.534 83.1921C77.2635 82.7923 76.9163 82.4502 76.5126 82.1857C76.2069 81.9268 75.8589 81.7225 75.4838 81.5818C75.0588 81.455 74.5146 81.4401 74.3133 81.045C74.2439 80.8712 74.2371 80.6786 74.2943 80.5004C74.3514 80.3221 74.4689 80.1694 74.6264 80.0684C74.9451 79.8738 75.2922 79.7304 75.6553 79.6434C76.0208 79.5572 76.3402 79.3362 76.5499 79.0246C76.693 78.7935 76.7791 78.5317 76.8012 78.2608C76.8232 77.9899 76.7805 77.7177 76.6766 77.4665C76.4967 77.2848 76.2809 77.1427 76.0429 77.049C75.1577 76.4587 74.4491 75.6394 73.9927 74.6782C73.9307 74.5905 73.8946 74.4872 73.8884 74.38C73.8884 74.134 74.2388 74.0296 74.4699 74.1116C74.6871 74.2266 74.8964 74.3561 75.0961 74.4993C75.3198 74.6111 75.6404 74.5962 75.7447 74.3726C76.0057 73.791 79.1369 71.3905 75.4167 68.7364C75.111 68.5127 74.947 68.1176 74.6115 67.9536C74.4131 67.8678 74.1945 67.8398 73.9808 67.8727C73.7671 67.9057 73.5671 67.9983 73.4038 68.14Z" fill="#263238"/>
<path d="M79.3084 66.5227C83.1031 63.0411 87.2855 64.4427 89.4773 65.5834C90.5794 66.1639 91.5472 66.9696 92.3178 67.9483C93.0884 68.927 93.6447 70.0567 93.9505 71.2642C94.1816 72.2111 93.9505 74.4029 92.109 74.9919C91.5965 73.8892 90.8779 72.8947 89.9917 72.062C88.62 70.9735 86.0554 70.8617 85.034 71.1673C84.0448 73.5119 82.6994 75.6897 81.0454 77.6236C79.4202 79.4203 77.0271 80.6951 74.6339 80.3596C73.5145 78.9825 72.789 77.328 72.5343 75.5717C72.2797 73.8154 72.5054 72.0229 73.1876 70.3845C74.6563 67.1639 79.3084 66.5227 79.3084 66.5227Z" fill="#263238"/>
<path d="M74.3056 81.2619C74.4683 81.8085 74.7388 82.3171 75.1011 82.7576C75.4635 83.198 75.9104 83.5615 76.4155 83.8265C77.7574 84.5123 78.7415 83.3941 78.6521 81.9627C78.5477 80.6729 77.7201 78.7569 76.244 78.6525C75.9241 78.6375 75.6056 78.702 75.3167 78.8402C75.0278 78.9784 74.7777 79.186 74.5887 79.4444C74.3996 79.7029 74.2776 80.0041 74.2334 80.3213C74.1892 80.6384 74.2243 80.9616 74.3355 81.2619H74.3056Z" fill="#F7978D"/>
<path d="M84.3929 77.7649C84.5047 78.2346 84.8402 78.5552 85.1384 78.5104C85.4366 78.4657 85.5932 77.996 85.4888 77.5338C85.3844 77.0716 85.034 76.7435 84.7433 76.7883C84.4525 76.833 84.2811 77.2952 84.3929 77.7649Z" fill="#263238"/>
<path d="M89.6857 76.5126C89.7901 76.9822 90.1256 77.3028 90.4312 77.2581C90.7369 77.2133 90.8935 76.7511 90.7816 76.274C90.6698 75.7968 90.3343 75.4912 90.0361 75.5285C89.7379 75.5657 89.5664 76.0429 89.6857 76.5126Z" fill="#263238"/>
<path d="M89.9092 75.588L90.9529 74.999C90.9529 74.999 90.5876 76.0428 89.9092 75.588Z" fill="#263238"/>
<path d="M88.4932 77.6455C89.163 78.6131 89.9605 79.4858 90.8639 80.2399C90.6712 80.4744 90.4287 80.6629 90.1541 80.7918C89.8794 80.9208 89.5794 80.9869 89.276 80.9855L88.4932 77.6455Z" fill="#FF5652"/>
<path d="M88.1136 82.7526C88.1371 82.7322 88.1531 82.7046 88.1594 82.6742C88.1656 82.6437 88.1616 82.612 88.148 82.584C88.1345 82.556 88.1121 82.5333 88.0843 82.5193C88.0565 82.5053 88.0249 82.5008 87.9943 82.5066C87.42 82.6769 86.8137 82.7096 86.2244 82.6021C85.6351 82.4946 85.0794 82.2499 84.6022 81.8878C84.5738 81.8695 84.5399 81.862 84.5064 81.8665C84.473 81.871 84.4423 81.8874 84.4198 81.9125C84.3973 81.9377 84.3846 81.9701 84.3838 82.0038C84.3831 82.0376 84.3944 82.0705 84.4158 82.0966C84.9257 82.4971 85.5251 82.7681 86.1626 82.8862C86.8001 83.0044 87.4568 82.9662 88.0763 82.775L88.1136 82.7526Z" fill="#263238"/>
<path d="M82.7526 76.251C82.7925 76.221 82.8256 76.1829 82.8496 76.1392C82.9818 75.8111 83.19 75.5191 83.4569 75.2872C83.7239 75.0552 84.0421 74.8898 84.3853 74.8047C84.4231 74.8 84.4595 74.7877 84.4924 74.7686C84.5253 74.7496 84.554 74.7241 84.5769 74.6937C84.5997 74.6632 84.6162 74.6285 84.6253 74.5916C84.6345 74.5547 84.6361 74.5163 84.6301 74.4788C84.6241 74.4412 84.6106 74.4053 84.5904 74.373C84.5702 74.3408 84.5437 74.313 84.5125 74.2912C84.4813 74.2695 84.446 74.2542 84.4088 74.2463C84.3716 74.2385 84.3332 74.2382 84.2959 74.2455C83.8588 74.3451 83.4519 74.548 83.1095 74.8373C82.767 75.1265 82.4989 75.4937 82.3277 75.908C82.3131 75.9428 82.3057 75.98 82.3057 76.0177C82.3057 76.0553 82.3132 76.0926 82.3278 76.1273C82.3423 76.162 82.3637 76.1934 82.3906 76.2198C82.4174 76.2462 82.4493 76.2669 82.4843 76.2808C82.5276 76.3 82.5753 76.3073 82.6225 76.3021C82.6696 76.2969 82.7145 76.2792 82.7526 76.251Z" fill="#263238"/>
<path d="M91.1914 74.2313H91.2287C91.2553 74.205 91.2764 74.1736 91.2908 74.1391C91.3052 74.1045 91.3126 74.0675 91.3126 74.03C91.3126 73.9926 91.3052 73.9555 91.2908 73.921C91.2764 73.8864 91.2553 73.8551 91.2287 73.8287C90.91 73.5232 90.5241 73.2967 90.1021 73.1672C89.68 73.0377 89.2335 73.009 88.7983 73.0832C88.7266 73.1009 88.6648 73.1459 88.6258 73.2086C88.5868 73.2712 88.5738 73.3466 88.5895 73.4187C88.5983 73.455 88.6141 73.4891 88.6361 73.5193C88.6581 73.5494 88.6858 73.5749 88.7176 73.5943C88.7495 73.6137 88.7849 73.6266 88.8218 73.6323C88.8586 73.638 88.8963 73.6363 88.9325 73.6274C89.2821 73.5678 89.6408 73.5921 89.9791 73.6984C90.3175 73.8047 90.6257 73.9899 90.8783 74.2388C90.9247 74.2705 90.9799 74.2868 91.0361 74.2855C91.0922 74.2841 91.1466 74.2652 91.1914 74.2313Z" fill="#263238"/>
<path d="M84.6162 76.8474L85.6674 76.251C85.6674 76.251 85.3021 77.2723 84.6162 76.8474Z" fill="#263238"/>
<path d="M141.649 246.417C141.352 246.417 141.068 246.3 140.858 246.09C140.648 245.88 140.53 245.596 140.53 245.299V33.6447C140.53 33.3481 140.648 33.0636 140.858 32.8539C141.068 32.6442 141.352 32.5264 141.649 32.5264C141.945 32.5264 142.23 32.6442 142.439 32.8539C142.649 33.0636 142.767 33.3481 142.767 33.6447V245.277C142.77 245.425 142.743 245.573 142.688 245.712C142.633 245.85 142.551 245.976 142.447 246.082C142.343 246.188 142.219 246.273 142.082 246.33C141.945 246.388 141.797 246.417 141.649 246.417Z" fill="#263238"/>
<path d="M168.294 46.1252H115.22C114.923 46.1252 114.639 46.0074 114.429 45.7977C114.219 45.588 114.102 45.3035 114.102 45.007C114.102 44.7104 114.219 44.4259 114.429 44.2162C114.639 44.0065 114.923 43.8887 115.22 43.8887H168.294C168.59 43.8887 168.875 44.0065 169.084 44.2162C169.294 44.4259 169.412 44.7104 169.412 45.007C169.412 45.3035 169.294 45.588 169.084 45.7977C168.875 46.0074 168.59 46.1252 168.294 46.1252Z" fill="#263238"/>
<path d="M126.739 257.496L139.204 256.266V236.137H144.147V256.266L156.664 257.496C157.263 257.555 157.819 257.836 158.222 258.282C158.626 258.729 158.849 259.309 158.848 259.912V261.783H124.502V259.912C124.502 259.301 124.732 258.713 125.147 258.266C125.562 257.818 126.13 257.543 126.739 257.496Z" fill="#263238"/>
<path opacity="0.2" d="M126.739 257.496L139.204 256.266V236.137H144.147V256.266L156.664 257.496C157.263 257.555 157.819 257.836 158.222 258.282C158.626 258.729 158.849 259.309 158.848 259.912V261.783H124.502V259.912C124.502 259.301 124.732 258.713 125.147 258.266C125.562 257.818 126.13 257.543 126.739 257.496Z" fill="white"/>
<path d="M154.278 264.101C154.277 264.741 154.465 265.368 154.82 265.901C155.175 266.434 155.679 266.85 156.271 267.096C156.862 267.342 157.512 267.407 158.141 267.283C158.769 267.159 159.346 266.851 159.799 266.399C160.252 265.947 160.561 265.37 160.687 264.743C160.812 264.115 160.749 263.464 160.504 262.872C160.259 262.28 159.845 261.775 159.312 261.419C158.78 261.063 158.154 260.873 157.514 260.873C157.089 260.872 156.669 260.955 156.276 261.117C155.884 261.278 155.527 261.516 155.226 261.816C154.926 262.116 154.687 262.472 154.525 262.864C154.362 263.256 154.278 263.677 154.278 264.101Z" fill="#263238"/>
<path d="M129.08 264.101C129.081 264.742 128.892 265.368 128.537 265.902C128.182 266.435 127.677 266.851 127.086 267.096C126.494 267.342 125.843 267.407 125.215 267.282C124.586 267.158 124.009 266.849 123.556 266.397C123.103 265.944 122.795 265.366 122.67 264.738C122.546 264.11 122.61 263.459 122.856 262.867C123.102 262.275 123.518 261.77 124.051 261.415C124.584 261.06 125.211 260.872 125.851 260.873C126.275 260.873 126.695 260.957 127.087 261.119C127.478 261.281 127.834 261.519 128.134 261.819C128.434 262.118 128.672 262.474 128.834 262.866C128.996 263.257 129.08 263.677 129.08 264.101Z" fill="#263238"/>
<path d="M134.678 75.3416C133.791 77.0488 132.442 78.5473 132.121 78.5473C132.009 78.5473 131.868 78.8604 131.726 79.2928C131.531 79.865 131.16 80.3607 130.665 80.7089C130.171 81.0571 129.579 81.24 128.975 81.2312H122.705C122.101 81.24 121.509 81.0571 121.015 80.7089C120.521 80.3607 120.149 79.865 119.954 79.2928C119.82 78.8828 119.678 78.5473 119.559 78.5473C119.224 78.5473 117.889 77.0563 117.002 75.3416C116.115 73.6268 117.114 67.2228 117.561 64.7626C118.008 62.3023 116.115 56.9644 117.561 54.8247C118.799 52.9907 132.882 52.9907 134.119 54.8247C135.565 56.9644 133.679 62.28 134.119 64.7626C134.559 67.2452 135.565 73.6343 134.678 75.3416Z" fill="#FFC727"/>
<path opacity="0.5" d="M134.678 75.3416C133.791 77.0488 132.442 78.5473 132.121 78.5473C132.009 78.5473 131.868 78.8604 131.726 79.2928C131.531 79.865 131.16 80.3607 130.665 80.7089C130.171 81.0571 129.579 81.24 128.975 81.2312H122.705C122.101 81.24 121.509 81.0571 121.015 80.7089C120.521 80.3607 120.149 79.865 119.954 79.2928C119.82 78.8828 119.678 78.5473 119.559 78.5473C119.224 78.5473 117.889 77.0563 117.002 75.3416C116.115 73.6268 117.114 67.2228 117.561 64.7626C118.008 62.3023 116.115 56.9644 117.561 54.8247C118.799 52.9907 132.882 52.9907 134.119 54.8247C135.565 56.9644 133.679 62.28 134.119 64.7626C134.559 67.2452 135.565 73.6343 134.678 75.3416Z" fill="white"/>
<path d="M128.229 50.8887H123.39L121.899 53.6918H129.72L128.229 50.8887ZM125.918 52.9314C124.688 52.9314 123.681 52.6183 123.681 52.2455C123.681 51.8728 124.68 51.5596 125.918 51.5596C127.155 51.5596 128.154 51.8653 128.154 52.2455C128.154 52.6257 127.148 52.9314 125.918 52.9314Z" fill="#FFC727"/>
<path d="M118.806 64.7708C119.194 62.5342 117.546 57.7106 118.806 55.7723C119.887 54.1098 132.136 54.1098 133.224 55.7723C134.477 57.7106 132.837 62.5417 133.224 64.7708C133.612 66.9999 134.477 72.8001 133.702 74.3508C132.926 75.9014 131.771 77.2508 131.465 77.2508C131.368 77.2508 131.241 77.5416 131.122 77.9144C130.999 78.313 130.777 78.6741 130.477 78.9646C130.177 79.2551 129.81 79.4657 129.407 79.5769L129.482 83.4462C129.482 83.6122 129.416 83.7715 129.299 83.889C129.181 84.0064 129.022 84.0724 128.856 84.0724C128.689 84.0724 128.529 84.0067 128.41 83.8894C128.292 83.7722 128.224 83.6129 128.222 83.4462L128.17 80.4193C128.17 80.2216 128.091 80.032 127.951 79.8922C127.812 79.7523 127.622 79.6738 127.424 79.6738H127.357C127.159 79.6738 126.97 79.7523 126.83 79.8922C126.69 80.032 126.612 80.2216 126.612 80.4193L126.664 83.4014C126.664 83.5675 126.598 83.7268 126.48 83.8443C126.363 83.9617 126.204 84.0277 126.038 84.0277C125.872 84.0277 125.712 83.9617 125.595 83.8443C125.477 83.7268 125.411 83.5675 125.411 83.4014L125.352 80.3746C125.352 80.1769 125.273 79.9872 125.133 79.8474C124.994 79.7076 124.804 79.6291 124.606 79.6291H124.204C124.006 79.6291 123.816 79.7076 123.676 79.8474C123.537 79.9872 123.458 80.1769 123.458 80.3746L123.518 83.3567C123.501 83.512 123.427 83.6555 123.311 83.7598C123.195 83.8641 123.044 83.9218 122.888 83.9218C122.732 83.9218 122.581 83.8641 122.465 83.7598C122.348 83.6555 122.275 83.512 122.258 83.3567L122.183 79.2936C121.891 79.1385 121.632 78.9268 121.422 78.6708C121.212 78.4148 121.055 78.1197 120.961 77.8025C120.841 77.4298 120.715 77.139 120.618 77.139C120.327 77.139 119.164 75.7822 118.381 74.2389C117.598 72.6957 118.471 66.8806 118.858 64.6589" fill="white"/>
<path d="M131.428 61.1317C131.428 61.6237 131.04 61.8772 130.287 61.8772H128.796V59.0293H130.183C130.928 59.0293 131.264 59.3275 131.264 59.7748C131.267 59.9046 131.233 60.0327 131.165 60.1437C131.098 60.2547 131 60.344 130.883 60.4011C131.042 60.4456 131.182 60.5414 131.28 60.6736C131.379 60.8058 131.43 60.9669 131.428 61.1317ZM129.474 59.5586V60.2296H130.13C130.451 60.2296 130.622 60.1103 130.622 59.8867C130.622 59.663 130.451 59.5586 130.13 59.5586H129.474ZM130.764 61.0497C130.764 60.8111 130.585 60.6993 130.242 60.6993H129.497V61.4001H130.242C130.585 61.4001 130.764 61.2957 130.764 61.0497Z" fill="black"/>
<path d="M133.224 64.77C133.605 67.0066 134.477 72.7993 133.702 74.35C132.926 75.9007 131.771 77.2501 131.465 77.2501C131.368 77.2501 131.241 77.5409 131.122 77.9136C130.999 78.3122 130.777 78.6734 130.477 78.9639C130.177 79.2544 129.81 79.4649 129.407 79.5762L129.482 83.4454C129.482 83.6115 129.416 83.7708 129.299 83.8882C129.181 84.0057 129.022 84.0717 128.856 84.0717C128.689 84.0717 128.529 84.0059 128.41 83.8887C128.292 83.7715 128.224 83.6122 128.222 83.4454L128.17 80.4186C128.17 80.2209 128.091 80.0312 127.951 79.8914C127.812 79.7516 127.622 79.6731 127.424 79.6731H127.357C127.159 79.6731 126.97 79.7516 126.83 79.8914C126.69 80.0312 126.612 80.2209 126.612 80.4186L126.664 83.4007C126.664 83.5668 126.598 83.7261 126.48 83.8435C126.363 83.961 126.204 84.0269 126.038 84.0269C125.872 84.0269 125.712 83.961 125.595 83.8435C125.477 83.7261 125.411 83.5668 125.411 83.4007L125.352 80.3739C125.352 80.1761 125.273 79.9865 125.133 79.8467C124.994 79.7069 124.804 79.6283 124.606 79.6283H124.204C124.006 79.6283 123.816 79.7069 123.676 79.8467C123.537 79.9865 123.458 80.1761 123.458 80.3739L123.518 83.356C123.501 83.5112 123.427 83.6548 123.311 83.7591C123.195 83.8634 123.044 83.921 122.888 83.921C122.732 83.921 122.581 83.8634 122.465 83.7591C122.348 83.6548 122.275 83.5112 122.258 83.356L122.183 79.2929C121.891 79.1378 121.632 78.9261 121.422 78.6701C121.212 78.4141 121.055 78.119 120.961 77.8018C120.841 77.429 120.715 77.1383 120.618 77.1383C120.327 77.1383 119.164 75.7814 118.381 74.2382C117.598 72.695 118.471 66.8799 118.858 64.6582C121.071 65.8614 123.549 66.4918 126.067 66.4918C128.586 66.4918 131.064 65.8614 133.277 64.6582L133.224 64.77Z" fill="#FFC727"/>
<path opacity="0.2" d="M121.758 82.4766H123.89V83.7812C123.888 83.9994 123.8 84.208 123.645 84.3616C123.49 84.5152 123.281 84.6013 123.062 84.6013H122.578C122.36 84.6013 122.152 84.5149 121.998 84.3611C121.844 84.2073 121.758 83.9987 121.758 83.7812V82.4766Z" fill="white"/>
<path opacity="0.2" d="M127.812 82.4766H129.936V83.7812C129.936 83.9987 129.85 84.2073 129.696 84.3611C129.542 84.5149 129.334 84.6013 129.116 84.6013H128.632C128.414 84.6013 128.206 84.5149 128.052 84.3611C127.898 84.2073 127.812 83.9987 127.812 83.7812V82.4766Z" fill="white"/>
<path d="M128.319 53.267C127.563 53.265 126.837 52.9635 126.302 52.4285C125.767 51.8934 125.466 51.1683 125.464 50.4116V45.0066C125.464 44.9077 125.503 44.8129 125.573 44.743C125.643 44.6731 125.738 44.6338 125.837 44.6338C125.935 44.6338 126.03 44.6731 126.1 44.743C126.17 44.8129 126.209 44.9077 126.209 45.0066V50.4116C126.209 50.9712 126.432 51.5078 126.827 51.9035C127.223 52.2992 127.76 52.5214 128.319 52.5214C128.879 52.5214 129.415 52.2992 129.811 51.9035C130.207 51.5078 130.429 50.9712 130.429 50.4116V49.7406C130.429 49.6418 130.468 49.547 130.538 49.477C130.608 49.4071 130.703 49.3679 130.802 49.3679C130.901 49.3679 130.996 49.4071 131.065 49.477C131.135 49.547 131.175 49.6418 131.175 49.7406V50.4116C131.173 51.1683 130.871 51.8934 130.336 52.4285C129.801 52.9635 129.076 53.265 128.319 53.267Z" fill="#FFC727"/>
<path d="M185.061 154.412H174.623C168.195 154.414 161.83 153.149 155.891 150.69C149.952 148.231 144.556 144.626 140.011 140.081C135.465 135.536 131.86 130.139 129.401 124.2C126.942 118.261 125.678 111.896 125.68 105.468V83.6689H126.425V105.468C126.423 111.798 127.669 118.066 130.09 123.915C132.512 129.764 136.062 135.078 140.538 139.554C145.014 144.03 150.328 147.58 156.176 150.001C162.025 152.423 168.293 153.668 174.623 153.666H185.061V154.412Z" fill="#FFC727"/>
<path d="M187.857 154.718H182.235L182.653 153.361H188.192L187.857 154.718Z" fill="white"/>
<path d="M187.275 152.668C186.134 153.056 184.882 154.987 184.763 155.971H183.495C183.495 154.86 184.815 152.989 186.015 152.668H187.275Z" fill="#FFC727"/>
</svg>
