<svg width="367" height="323" viewBox="0 0 367 323" fill="none" xmlns="http://www.w3.org/2000/svg">
<path d="M120.559 99.6035C110.451 91.2598 100.062 82.6284 87.76 77.6673C80.9387 74.9537 73.6478 73.6171 66.3075 73.7346C58.9673 73.852 51.7228 75.4212 44.9918 78.3516C44.9083 78.3876 44.8139 78.3891 44.7293 78.3555C44.6447 78.322 44.5769 78.2562 44.5408 78.1727C44.5047 78.0892 44.5033 77.9947 44.5369 77.9102C44.5704 77.8256 44.6362 77.7578 44.7197 77.7217C68.0478 67.0841 90.7383 73.4138 110.559 88.1805C132.877 104.806 153.203 127.978 183.864 122.395C184.447 122.286 184.719 123.173 184.144 123.406C160.505 131.345 137.643 113.655 120.559 99.6035Z" fill="#DBDBDB"/>
<path d="M131.812 115.817C114.612 108.694 96.8201 105.941 78.5386 110.762C78.2276 110.848 78.0798 110.304 78.3909 110.21C93.6397 105.716 109.137 105.716 124.269 110.778C141.276 116.478 157.286 126.913 175.941 124.612C176.005 124.602 176.07 124.619 176.122 124.657C176.174 124.696 176.208 124.754 176.217 124.818C176.227 124.882 176.21 124.947 176.171 124.998C176.133 125.05 176.075 125.084 176.011 125.094C160.311 128.468 145.949 121.672 131.812 115.817Z" fill="#DBDBDB"/>
<path d="M144.339 114.836C130.381 110.038 121.104 97.729 113.904 85.5284C104.736 69.9763 95.0002 56.5549 76.7654 51.3916C76.4077 51.2905 76.4854 50.7151 76.8587 50.8006C92.1075 54.432 103.056 63.67 111.283 76.7726C115.7 83.771 119.471 91.2749 124.642 97.7679C130.28 104.875 137.17 109.432 144.775 114.098C145.233 114.393 144.782 114.984 144.339 114.836Z" fill="#DBDBDB"/>
<path d="M147.691 117.938C147.691 117.938 144.534 94.1361 134.231 88.304C123.927 82.472 147.691 117.938 147.691 117.938Z" fill="#DBDBDB"/>
<path d="M99.9219 83.7324C99.9219 83.7324 79.6576 96.6095 68.5923 92.4805C57.527 88.3514 99.9219 83.7324 99.9219 83.7324Z" fill="#DBDBDB"/>
<path d="M318.056 167.044C318.494 168.284 318.812 169.562 319.004 170.863C319.009 170.919 319.009 170.977 319.004 171.034C319.171 172.145 319.228 173.27 319.176 174.393C319.734 173.41 320.36 172.467 321.05 171.57C324.735 166.64 334.183 157.006 351.088 157.807C353.157 157.915 350.544 141.415 337.729 137.293C334.976 136.415 326.703 145.38 326.703 145.38C326.703 145.38 326.314 133.405 323.001 132.604C319.689 131.804 307.449 133.297 298.211 144.027C297.232 145.194 313.522 154.105 318.056 167.044Z" fill="#EBEBEB"/>
<path d="M322.784 158.009C321.255 162.266 320.001 166.616 319.028 171.034C319.195 172.145 319.252 173.27 319.199 174.393C319.758 173.41 320.384 172.467 321.073 171.57C323.119 165.8 326.206 160.684 331.727 156.796C331.828 156.718 331.727 156.547 331.618 156.609C326.353 159.836 322.823 164.712 320.498 170.217C321.206 166.15 322.007 162.107 322.994 158.079C323.041 157.931 322.823 157.877 322.784 158.009Z" fill="white"/>
<path d="M315.412 153.771C317.086 158.001 317.992 162.496 318.087 167.045C318.525 168.284 318.843 169.562 319.036 170.863C319.136 164.97 318.003 159.121 315.707 153.693C315.606 153.506 315.303 153.623 315.412 153.771Z" fill="white"/>
<path d="M273.787 52.5347C272.723 53.3099 271.585 53.9767 270.389 54.5254C270.338 54.5589 270.283 54.5851 270.225 54.6031C269.208 55.0719 268.148 55.4441 267.061 55.7151C268.161 55.97 269.242 56.3026 270.295 56.7104C276.065 58.8566 287.97 65.2096 291.967 81.6482C292.449 83.6699 307.519 76.5004 307.877 63.0479C307.947 60.1552 296.99 54.7509 296.99 54.7509C296.99 54.7509 308.367 51.0028 308.204 47.5969C308.04 44.191 303.141 32.8225 290.256 27.0371C288.88 26.415 284.922 44.5565 273.787 52.5347Z" fill="#EBEBEB"/>
<path d="M283.787 54.541C279.269 54.2791 274.74 54.3051 270.225 54.6187C269.208 55.0875 268.148 55.4598 267.061 55.7307C268.161 55.9856 269.242 56.3182 270.295 56.7261C276.407 57.0604 282.216 58.569 287.473 62.7758C287.493 62.7964 287.521 62.808 287.55 62.808C287.58 62.808 287.608 62.7964 287.628 62.7758C287.649 62.7552 287.66 62.7272 287.66 62.698C287.66 62.6689 287.649 62.6409 287.628 62.6203C283.048 58.4834 277.379 56.4694 271.438 55.7929C275.536 55.3264 279.65 54.9531 283.787 54.7665C283.812 54.7599 283.834 54.7453 283.849 54.7249C283.865 54.7045 283.874 54.6795 283.874 54.6537C283.874 54.628 283.865 54.603 283.849 54.5826C283.834 54.5622 283.812 54.5476 283.787 54.541Z" fill="white"/>
<path d="M285.762 46.2438C282.18 49.0464 278.124 51.1824 273.787 52.5501C272.723 53.3253 271.585 53.9922 270.389 54.5408C276.077 52.9798 281.375 50.2434 285.941 46.5082C286.088 46.3915 285.917 46.1194 285.762 46.2438Z" fill="white"/>
<path d="M134.495 268.475C134.594 269.183 134.622 269.9 134.58 270.614C134.584 270.645 134.584 270.676 134.58 270.707C134.551 271.313 134.46 271.915 134.308 272.503C134.71 272.043 135.144 271.611 135.607 271.212C137.943 269.132 140.764 267.671 143.811 266.961C146.858 266.252 150.034 266.318 153.049 267.153C154.137 267.433 154.549 258.39 148.189 254.805C146.828 254.027 141.454 257.915 141.454 257.915C141.454 257.915 142.559 251.523 140.887 250.73C139.215 249.937 132.543 249.401 126.486 254.097C125.825 254.61 133.5 261.119 134.495 268.475Z" fill="#EBEBEB"/>
<path d="M137.987 264.199C136.711 266.293 135.571 268.467 134.573 270.707C134.543 271.314 134.452 271.915 134.301 272.503C134.702 272.043 135.136 271.611 135.599 271.213C137.241 268.26 139.79 265.914 142.87 264.525C142.932 264.525 142.87 264.393 142.831 264.416C139.794 265.587 137.208 267.692 135.444 270.427C136.26 268.343 137.131 266.283 138.095 264.261C138.104 264.246 138.106 264.229 138.102 264.213C138.097 264.197 138.087 264.184 138.072 264.175C138.058 264.167 138.041 264.165 138.025 264.169C138.009 264.174 137.995 264.184 137.987 264.199Z" fill="white"/>
<path d="M134.518 261.142C134.957 263.567 134.957 266.051 134.518 268.475C134.616 269.183 134.645 269.9 134.603 270.614C135.297 267.496 135.334 264.268 134.712 261.135C134.673 261.026 134.494 261.033 134.518 261.142Z" fill="white"/>
<path d="M288.243 200.404C287.536 200.31 286.841 200.145 286.167 199.914H286.073C285.497 199.71 284.942 199.449 284.417 199.136C284.754 199.648 285.052 200.183 285.311 200.738C286.68 203.55 287.321 206.661 287.177 209.785C287.033 212.91 286.108 215.948 284.487 218.623C283.927 219.595 292.527 222.425 297.706 217.278C298.81 216.166 296.54 209.96 296.54 209.96C296.54 209.96 302.411 212.744 303.616 211.344C304.821 209.945 307.146 203.662 304.261 196.57C303.935 195.792 295.599 201.43 288.243 200.404Z" fill="#EBEBEB"/>
<path d="M291.423 204.945C289.749 203.151 287.962 201.465 286.073 199.899C285.497 199.695 284.942 199.434 284.417 199.121C284.754 199.633 285.052 200.168 285.311 200.723C287.72 203.09 289.292 206.178 289.79 209.518C289.79 209.588 289.907 209.588 289.907 209.518C289.599 206.278 288.27 203.22 286.112 200.785C287.893 202.13 289.642 203.522 291.338 205C291.4 205.07 291.478 204.945 291.423 204.945Z" fill="white"/>
<path d="M295.303 202.41C292.849 202.167 290.458 201.488 288.242 200.404C287.536 200.31 286.84 200.146 286.166 199.914C288.98 201.426 292.079 202.332 295.264 202.573C295.373 202.612 295.412 202.418 295.303 202.41Z" fill="white"/>
<path d="M215.965 52.5818C216.642 52.8024 217.296 53.0889 217.917 53.4371L218.002 53.4838C218.531 53.7809 219.031 54.1271 219.495 54.518C219.257 53.955 219.059 53.3755 218.904 52.784C218.066 49.7698 217.996 46.5936 218.701 43.5454C219.406 40.4973 220.863 37.6743 222.94 35.3345C223.671 34.4869 215.716 30.1479 209.721 34.2848C208.43 35.179 209.542 41.6953 209.542 41.6953C209.542 41.6953 204.278 37.9006 202.831 39.0515C201.385 40.2023 197.994 45.9722 199.55 53.476C199.697 54.2847 208.881 50.249 215.965 52.5818Z" fill="#EBEBEB"/>
<path d="M213.647 47.5581C214.97 49.6246 216.424 51.6039 218.002 53.4835C218.531 53.7805 219.03 54.1268 219.495 54.5177C219.256 53.9547 219.058 53.3751 218.904 52.7836C216.962 50.0186 215.974 46.6967 216.089 43.3202C216.089 43.2502 215.98 43.2346 215.972 43.3202C215.687 46.5627 216.441 49.8119 218.126 52.597C216.617 50.9485 215.148 49.2611 213.748 47.5115C213.701 47.4259 213.608 47.5037 213.647 47.5581Z" fill="white"/>
<path d="M209.377 49.3393C211.749 50.0171 213.98 51.1154 215.964 52.5819C216.641 52.8025 217.294 53.089 217.915 53.4373C215.419 51.4459 212.535 49.9972 209.447 49.1838C209.338 49.1527 209.276 49.3082 209.377 49.3393Z" fill="white"/>
<path d="M68.1346 205.28C68.5663 204.712 69.0562 204.19 69.5965 203.724C69.6141 203.698 69.6382 203.677 69.6665 203.662C70.1214 203.259 70.6134 202.9 71.1361 202.589C70.5278 202.633 69.9171 202.633 69.3088 202.589C66.1762 202.387 63.145 201.399 60.4939 199.719C57.8428 198.038 55.657 195.717 54.1377 192.97C53.5701 191.998 46.8438 198.056 48.7489 205.093C49.1611 206.609 55.6774 207.729 55.6774 207.729C55.6774 207.729 50.3508 211.43 50.9573 213.172C51.5638 214.914 55.8718 220.054 63.4612 221.073C64.301 221.189 63.5545 211.166 68.1346 205.28Z" fill="#EBEBEB"/>
<path d="M62.5978 205.793C64.9731 205.231 67.3105 204.519 69.5963 203.663C70.0512 203.259 70.5433 202.9 71.0659 202.59C70.4576 202.633 69.8469 202.633 69.2386 202.59C65.9859 203.497 62.5272 203.327 59.3786 202.107C59.3719 202.104 59.3647 202.102 59.3572 202.101C59.3497 202.1 59.3421 202.101 59.3349 202.103C59.3276 202.105 59.3209 202.109 59.3151 202.114C59.3092 202.118 59.3044 202.124 59.3008 202.131C59.2972 202.137 59.295 202.145 59.2942 202.152C59.2935 202.16 59.2942 202.167 59.2964 202.174C59.2985 202.182 59.3021 202.188 59.3069 202.194C59.3116 202.2 59.3175 202.205 59.3241 202.209C62.2882 203.551 65.6024 203.916 68.7876 203.251C66.7269 204.129 64.6507 204.953 62.5667 205.692C62.5598 205.7 62.555 205.71 62.5528 205.72C62.5506 205.731 62.551 205.741 62.5541 205.751C62.5573 205.762 62.5629 205.771 62.5706 205.778C62.5782 205.785 62.5876 205.791 62.5978 205.793Z" fill="white"/>
<path d="M62.8538 210.389C64.2823 208.38 66.057 206.642 68.0948 205.256C68.5265 204.688 69.0165 204.167 69.5567 203.701C66.8477 205.391 64.5222 207.63 62.7294 210.272C62.6905 210.389 62.7916 210.497 62.8538 210.389Z" fill="white"/>
<path d="M98.8107 287.619C98.8429 287.178 98.9184 286.74 99.0362 286.313C99.0362 286.313 99.0362 286.274 99.0362 286.251C99.1375 285.886 99.2729 285.532 99.4405 285.193C99.1345 285.424 98.8123 285.632 98.4763 285.815C96.7868 286.772 94.8844 287.29 92.9431 287.321C91.0019 287.352 89.0838 286.896 87.3644 285.994C86.7345 285.683 85.3115 291.119 88.7096 294.12C89.4328 294.766 93.1964 293.117 93.1964 293.117C93.1964 293.117 91.6956 296.865 92.6132 297.557C93.5308 298.249 97.5043 299.447 101.797 297.386C102.279 297.161 98.4608 292.215 98.8107 287.619Z" fill="#EBEBEB"/>
<path d="M96.1277 289.758C97.1771 288.655 98.1513 287.484 99.0438 286.251C99.1451 285.886 99.2805 285.532 99.4481 285.193C99.1421 285.424 98.8198 285.632 98.4839 285.815C97.1068 287.396 95.2541 288.488 93.204 288.926C93.1651 288.926 93.1651 289.004 93.204 288.996C95.1987 288.682 97.0422 287.743 98.4683 286.313C97.6907 287.464 96.9131 288.607 96.0578 289.711C96.0422 289.75 96.1277 289.797 96.1277 289.758Z" fill="white"/>
<path d="M97.8462 292.036C97.8964 290.508 98.2231 289.001 98.8104 287.589C98.8426 287.147 98.9181 286.709 99.0359 286.282C98.2062 288.083 97.7638 290.038 97.7373 292.021C97.7373 292.122 97.8384 292.138 97.8462 292.036Z" fill="white"/>
<path d="M24.8136 189.946C25.2011 190.168 25.5658 190.429 25.9023 190.723L25.9489 190.762C26.2316 190.997 26.4919 191.257 26.7265 191.54C26.6477 191.168 26.5957 190.791 26.571 190.412C26.4223 188.475 26.7599 186.532 27.5529 184.758C28.3459 182.985 29.5694 181.437 31.1122 180.257C31.6643 179.829 27.3331 176.236 23.1807 178.04C22.2864 178.429 22.1853 182.535 22.1853 182.535C22.1853 182.535 19.4326 179.588 18.414 180.124C17.3953 180.661 14.627 183.756 14.6815 188.515C14.697 189.044 20.7934 187.675 24.8136 189.946Z" fill="#EBEBEB"/>
<path d="M24.0049 186.609C24.5625 188.027 25.2119 189.406 25.9489 190.739C26.2315 190.973 26.4918 191.234 26.7265 191.516C26.6476 191.145 26.5957 190.768 26.571 190.389C25.7203 188.471 25.5156 186.329 25.9878 184.284C25.9878 184.238 25.9333 184.214 25.9178 184.284C25.3697 186.221 25.4486 188.282 26.1433 190.171C25.4201 188.989 24.7203 187.784 24.0826 186.547L24.0049 186.609Z" fill="white"/>
<path d="M21.1902 187.178C22.5543 187.876 23.7818 188.813 24.8139 189.946C25.2014 190.169 25.566 190.429 25.9025 190.723C24.6157 189.209 23.0265 187.98 21.2369 187.115C21.1902 187.061 21.128 187.154 21.1902 187.178Z" fill="white"/>
<path d="M64.829 100.66C64.8121 100.218 64.8381 99.7754 64.9068 99.3383C64.903 99.3178 64.903 99.2967 64.9068 99.2761C64.9624 98.902 65.0562 98.5346 65.1867 98.1797C64.907 98.4395 64.6109 98.681 64.3003 98.9029C62.7292 100.045 60.8967 100.776 58.9704 101.027C57.0441 101.278 55.0855 101.043 53.2738 100.341C52.6207 100.108 51.8275 105.668 55.5367 108.265C56.3143 108.825 59.8835 106.764 59.8835 106.764C59.8835 106.764 58.8182 110.652 59.8057 111.236C60.7933 111.819 64.8835 112.558 68.9115 110.023C69.3547 109.75 65.0234 105.264 64.829 100.66Z" fill="#EBEBEB"/>
<path d="M62.4114 103.079C63.3282 101.862 64.1646 100.586 64.9153 99.2605C64.9709 98.8864 65.0648 98.519 65.1953 98.1641C64.9156 98.4239 64.6195 98.6654 64.3088 98.8872C63.1211 100.615 61.4048 101.911 59.4177 102.581C59.3788 102.581 59.4177 102.659 59.4177 102.651C61.3658 102.108 63.0917 100.962 64.3477 99.3771C63.7178 100.614 63.0569 101.842 62.3337 103.032C62.3259 103.079 62.3881 103.133 62.4114 103.079Z" fill="white"/>
<path d="M64.3783 105.186C64.2574 103.663 64.4102 102.13 64.8293 100.661C64.8124 100.219 64.8384 99.7759 64.9071 99.3389C64.2901 101.222 64.0729 103.214 64.2695 105.186C64.2695 105.194 64.2709 105.201 64.2736 105.207C64.2763 105.214 64.2803 105.22 64.2854 105.225C64.2904 105.23 64.2965 105.234 64.3031 105.237C64.3097 105.239 64.3167 105.241 64.3239 105.241C64.331 105.241 64.3381 105.239 64.3447 105.237C64.3513 105.234 64.3573 105.23 64.3624 105.225C64.3674 105.22 64.3714 105.214 64.3742 105.207C64.3769 105.201 64.3783 105.194 64.3783 105.186Z" fill="white"/>
<path d="M44.3235 79.6498C44.474 79.2346 44.6668 78.8359 44.8989 78.4601V78.4135C45.0965 78.0904 45.3229 77.7859 45.5754 77.5037C45.2208 77.6384 44.857 77.7476 44.4868 77.8303C42.5969 78.2802 40.6244 78.249 38.7498 77.7396C36.8751 77.2302 35.1581 76.2587 33.7558 74.9142C33.2426 74.4399 30.3655 79.2688 32.7838 83.0946C33.3126 83.9189 37.3795 83.3823 37.3795 83.3823C37.3795 83.3823 34.8989 86.5627 35.5832 87.4803C36.2675 88.3979 39.79 90.6374 44.479 89.8598C44.9922 89.7898 42.7061 83.9733 44.3235 79.6498Z" fill="#EBEBEB"/>
<path d="M42.1546 83.6387C42.6302 82.1814 43.3651 80.8221 44.3242 79.6263C44.4747 79.211 44.6675 78.8123 44.8996 78.4365C43.5964 79.9504 42.629 81.7235 42.0613 83.6387C42.038 83.6776 42.1313 83.7242 42.1546 83.6387Z" fill="white"/>
<path d="M291.904 260.839C292.125 260.448 292.386 260.081 292.682 259.743V259.696C292.917 259.414 293.177 259.153 293.46 258.919C293.088 258.998 292.711 259.053 292.332 259.082C290.397 259.243 288.453 258.918 286.676 258.137C284.898 257.356 283.344 256.144 282.153 254.611C281.718 254.066 278.156 258.413 279.991 262.558C280.38 263.444 284.486 263.522 284.486 263.522C284.486 263.522 281.562 266.298 282.107 267.309C282.651 268.32 285.761 271.065 290.52 270.979C291.072 270.956 289.665 264.867 291.904 260.839Z" fill="#EBEBEB"/>
<path d="M288.577 261.711C289.988 261.139 291.362 260.48 292.69 259.736C292.925 259.453 293.185 259.193 293.468 258.958C293.096 259.038 292.72 259.092 292.341 259.121C290.43 259.984 288.291 260.205 286.244 259.751C286.197 259.751 286.182 259.806 286.244 259.813C288.19 260.363 290.261 260.276 292.154 259.565C290.972 260.295 289.774 261.003 288.546 261.656L288.577 261.711Z" fill="white"/>
<path d="M289.167 264.479C289.851 263.11 290.779 261.877 291.905 260.84C292.125 260.448 292.386 260.081 292.682 259.743C291.181 261.033 289.965 262.622 289.113 264.409C289.051 264.479 289.136 264.541 289.167 264.479Z" fill="white"/>
<path d="M262.822 204.409C273.164 196.33 283.817 188.079 291.36 177.193C295.489 171.125 298.377 164.302 299.858 157.114C301.34 149.926 301.385 142.516 299.992 135.311C299.985 135.227 300.01 135.144 300.062 135.077C300.113 135.01 300.187 134.965 300.27 134.949C300.353 134.934 300.439 134.949 300.511 134.993C300.583 135.037 300.636 135.106 300.66 135.187C305.979 160.249 294.859 181.065 276.135 197.169C255.054 215.342 228.017 230.148 226.788 261.283C226.788 261.874 225.8 261.936 225.738 261.337C223.149 236.501 245.381 218.033 262.822 204.409Z" fill="#DBDBDB"/>
<path d="M244.548 211.866C255.232 196.633 261.803 179.828 261.064 160.972C261.064 160.653 261.609 160.622 261.632 160.972C262.705 176.835 259.299 191.959 251.103 205.614C241.842 220.979 228.18 234.338 226.368 253.048C226.354 253.105 226.32 253.156 226.272 253.191C226.224 253.225 226.165 253.242 226.106 253.237C226.047 253.232 225.992 253.207 225.95 253.165C225.908 253.123 225.883 253.068 225.878 253.009C225.987 236.936 235.761 224.385 244.548 211.866Z" fill="#DBDBDB"/>
<path d="M242.767 224.331C250.489 211.75 264.54 205.381 278.001 201.003C295.108 195.428 310.388 188.857 319.393 172.185C319.571 171.851 320.116 172.053 319.945 172.403C313.086 186.501 301.687 195.171 287.114 200.358C279.292 203.134 271.181 205.195 263.685 208.826C255.52 212.776 249.603 218.515 243.374 224.922C243.016 225.28 242.542 224.712 242.767 224.331Z" fill="#DBDBDB"/>
<path d="M239.02 226.904C239.02 226.904 262.939 229.004 270.855 220.24C278.771 211.477 239.02 226.904 239.02 226.904Z" fill="#DBDBDB"/>
<path d="M282.799 187.721C282.799 187.721 274.634 165.171 281.072 155.241C287.511 145.311 282.799 187.721 282.799 187.721Z" fill="#DBDBDB"/>
<path d="M72.0685 53.8179C73.1817 53.1122 74.3648 52.5233 75.5988 52.0605C75.6487 52.0293 75.7042 52.0082 75.7621 51.9983C76.8086 51.5935 77.892 51.2914 78.997 51.0962C77.9169 50.768 76.8619 50.3626 75.8399 49.8832C70.2256 47.356 58.7326 40.2331 55.871 23.5535C55.5211 21.5084 39.9846 27.6593 38.7638 41.0574C38.4994 43.9345 49.0515 50.062 49.0515 50.062C49.0515 50.062 37.4496 53.0403 37.3874 56.4539C37.3252 59.8676 41.4465 71.5083 53.9193 78.1957C55.2723 78.8878 60.4278 61.0885 72.0685 53.8179Z" fill="#EBEBEB"/>
<path d="M62.2242 51.1665C66.7147 51.7307 71.2365 52.0086 75.7623 51.9985C76.8088 51.5937 77.8922 51.2916 78.9971 51.0965C77.9171 50.7682 76.862 50.3628 75.84 49.8835C69.7592 49.1059 64.0671 47.2474 59.0982 42.6984C58.9972 42.6129 58.8416 42.7451 58.9349 42.8461C63.2273 47.2863 68.7483 49.6657 74.6348 50.7388C70.5135 50.9332 66.3844 51.0343 62.2475 50.941C62.2216 50.9445 62.1976 50.9566 62.1794 50.9754C62.1612 50.9942 62.1499 51.0186 62.1472 51.0446C62.1445 51.0706 62.1506 51.0968 62.1646 51.1189C62.1786 51.141 62.1996 51.1578 62.2242 51.1665Z" fill="white"/>
<path d="M59.7047 59.3078C63.465 56.7541 67.6525 54.8948 72.0686 53.8179C73.1818 53.1123 74.3648 52.5234 75.5989 52.0605C69.8207 53.2449 64.3555 55.6291 59.5569 59.059C59.3936 59.1445 59.5336 59.4322 59.7047 59.3078Z" fill="white"/>
<path d="M111.12 75.653C111.194 76.3639 111.194 77.0806 111.12 77.7915C111.124 77.8225 111.124 77.8538 111.12 77.8848C111.056 78.4888 110.934 79.0851 110.755 79.6655C111.179 79.2245 111.637 78.8164 112.123 78.4447C114.568 76.4924 117.464 75.1846 120.545 74.6412C123.626 74.0978 126.794 74.3361 129.759 75.3342C130.832 75.6764 131.727 66.664 125.568 62.7448C124.246 61.905 118.678 65.4664 118.678 65.4664C118.678 65.4664 120.125 59.1368 118.5 58.2658C116.874 57.3949 110.234 56.4851 103.935 60.8475C103.212 61.3452 110.521 68.2503 111.12 75.653Z" fill="#EBEBEB"/>
<path d="M114.845 71.5703C113.454 73.5908 112.197 75.7 111.081 77.8844C111.017 78.4884 110.895 79.0847 110.716 79.6651C111.141 79.2242 111.598 78.8161 112.084 78.4443C113.872 75.5789 116.545 73.3734 119.697 72.1612C119.759 72.1612 119.736 72.0291 119.697 72.0524C116.602 73.0552 113.906 75.0159 111.999 77.6511C112.924 75.6216 113.904 73.6076 114.977 71.6325C114.985 71.6149 114.986 71.5949 114.98 71.5766C114.973 71.5584 114.96 71.5435 114.942 71.5353C114.925 71.527 114.904 71.5261 114.886 71.5326C114.868 71.5392 114.853 71.5527 114.845 71.5703Z" fill="white"/>
<path d="M111.54 68.3356C111.838 70.7802 111.696 73.2583 111.12 75.6528C111.194 76.3637 111.194 77.0803 111.12 77.7912C111.984 74.7145 112.196 71.4912 111.742 68.3278C111.68 68.2267 111.524 68.2267 111.54 68.3356Z" fill="white"/>
<path d="M0 131.283L366.446 22.0527L238.631 295.94L0 131.283Z" fill="#FFC4C0"/>
<path d="M176.812 184.284C174.611 180.14 155.669 157.535 133.017 154.953C110.365 152.372 86.0187 174.619 85.2411 176.882C84.4635 179.144 106.073 204.3 127.613 204.875C149.152 205.451 170.474 188.468 172.955 187.395C175.435 186.322 180.155 190.567 176.812 184.284Z" fill="white"/>
<path d="M109.012 199.09C95.2333 191.314 84.7279 178.452 85.2722 176.881C85.7154 175.59 94.0591 167.55 105.404 161.562C94.5723 171.695 90.0622 183.11 109.012 199.09Z" fill="#EBEBEB"/>
<path d="M172.986 187.41C171.882 187.884 167.061 191.508 160.148 195.334C167.146 191.104 170.148 185.186 167.426 179.494C164.705 173.802 163.367 171.212 157.714 165.287C168.204 172.737 175.498 181.796 176.812 184.276C180.156 190.567 175.443 186.337 172.986 187.41Z" fill="white"/>
<path d="M172.986 187.41C171.882 187.884 167.061 191.508 160.148 195.334C167.146 191.104 170.148 185.186 167.426 179.494C164.705 173.802 163.367 171.212 157.714 165.287C168.204 172.737 175.498 181.796 176.812 184.276C180.156 190.567 175.443 186.337 172.986 187.41Z" fill="#EBEBEB"/>
<path d="M175.987 183.639C166.368 172.752 147.799 155.707 128.219 156.034C108.639 156.361 92.6515 173.141 85.2487 177.807C78.8257 181.858 68.7247 178.779 62.6982 174.696C62.6982 174.696 74.3623 182.084 85.3343 174.292C96.3063 166.5 107.27 152.978 129.176 153.429C156.78 153.997 176.609 183.654 176.609 183.654" fill="#263238"/>
<path d="M63.4678 169.447C65.6428 170.827 67.9978 171.9 70.4662 172.635C71.0727 172.814 71.6793 173.009 72.3013 173.133C72.9138 173.292 73.5342 173.419 74.1598 173.514C74.7819 173.592 75.3962 173.732 76.0261 173.786L77.9156 173.918C78.5455 173.918 79.1754 173.918 79.813 173.918C80.124 173.918 80.4429 173.918 80.7617 173.918L81.7026 173.833C82.3324 173.779 82.9701 173.755 83.5999 173.67C84.2298 173.584 84.8519 173.452 85.4817 173.351C85.8005 173.304 86.1194 173.265 86.4304 173.203L87.3635 172.97L89.2376 172.527C90.4817 172.184 91.6948 171.749 92.9778 171.422C91.8425 172.068 90.645 172.698 89.4864 173.242L87.6435 173.95L86.7103 174.284C86.3915 174.385 86.0727 174.455 85.7539 174.541C85.1085 174.704 84.4631 174.867 83.8177 175.015C83.1722 175.163 82.5035 175.202 81.8425 175.295L80.8472 175.419C80.5206 175.419 80.1862 175.419 79.8519 175.419C79.1831 175.419 78.5144 175.466 77.8457 175.419C75.1772 175.292 72.5488 174.719 70.0696 173.724C67.5876 172.789 65.336 171.33 63.4678 169.447Z" fill="#263238"/>
<path d="M65.2949 164.152C67.6552 165.793 70.2298 167.101 72.9465 168.04C73.6231 168.274 74.284 168.515 74.9761 168.686C75.6536 168.892 76.3414 169.064 77.0367 169.199C77.7288 169.323 78.4131 169.518 79.1129 169.603L81.2202 169.868C81.9201 169.938 82.6277 169.945 83.3353 169.992C83.693 169.992 84.0429 170.039 84.3929 170.039H85.4582C86.1658 170.039 86.8812 170.039 87.5888 169.977C88.2964 169.914 89.0041 169.813 89.7117 169.751C90.0694 169.751 90.4271 169.689 90.777 169.642L91.8345 169.448L93.9574 169.075C95.3649 168.787 96.749 168.383 98.1875 168.103C96.8734 168.709 95.5281 169.308 94.1596 169.813L92.0445 170.443L90.9869 170.746C90.6292 170.824 90.2638 170.879 89.9061 170.949C89.1751 171.081 88.452 171.213 87.721 171.33C86.9901 171.446 86.2513 171.446 85.5126 171.508L84.4006 171.578C84.0352 171.578 83.623 171.578 83.2964 171.578C82.5188 171.578 81.8112 171.578 81.0725 171.485C78.1208 171.191 75.234 170.432 72.5189 169.238C69.7816 168.067 67.3205 166.334 65.2949 164.152Z" fill="#263238"/>
<path d="M73.6152 159.51C76.2335 161.013 79.0538 162.134 81.99 162.838C82.7132 163.001 83.4364 163.196 84.1751 163.297C84.9019 163.445 85.6366 163.552 86.3757 163.616C87.1533 163.67 87.8532 163.794 88.5997 163.81H90.8236C91.6012 163.81 92.3088 163.724 93.0475 163.685C93.4208 163.685 93.8251 163.647 94.1595 163.608L95.2637 163.429C96.0413 163.312 96.7489 163.242 97.4799 163.095C98.2108 162.947 98.9262 162.737 99.6649 162.574C100.023 162.488 100.396 162.418 100.754 162.317L101.827 161.967L103.988 161.29C105.411 160.785 106.803 160.178 108.257 159.673C106.967 160.451 105.652 161.283 104.284 162.006L102.169 162.939L101.104 163.39C100.738 163.522 100.373 163.631 99.9993 163.748C99.2606 163.981 98.5219 164.214 97.7754 164.424C97.0289 164.634 96.2202 164.735 95.497 164.899L94.3461 165.101C93.9651 165.155 93.5685 165.171 93.1875 165.21C92.4099 165.264 91.6323 165.357 90.8547 165.373C87.7301 165.419 84.6193 164.949 81.6479 163.981C78.6853 163.073 75.948 161.549 73.6152 159.51Z" fill="#263238"/>
<path d="M67.9082 161.445C70.1839 163.025 72.6778 164.264 75.311 165.123C76.6037 165.561 77.9266 165.904 79.269 166.15C79.9377 166.235 80.6065 166.399 81.283 166.469L83.3125 166.624C83.989 166.671 84.6733 166.624 85.3498 166.624C85.692 166.624 86.0341 166.624 86.3685 166.624L87.3872 166.523C88.0637 166.453 88.748 166.422 89.4245 166.321C90.101 166.22 90.7697 166.064 91.4463 165.948C91.7884 165.885 92.1305 165.839 92.4649 165.769L93.4603 165.489L95.4742 164.968C96.7962 164.564 98.0948 164.058 99.4556 163.661C98.2503 164.369 97.0139 165.069 95.7386 165.683L93.7635 166.461L92.7604 166.842C92.426 166.951 92.0761 167.029 91.734 167.122C91.0497 167.308 90.3576 167.487 89.6578 167.658C88.9579 167.798 88.2425 167.868 87.5349 167.977L86.4696 168.117C86.1119 168.117 85.7542 168.117 85.3965 168.117C84.6733 168.117 83.9579 168.172 83.2348 168.117C80.3591 167.977 77.5312 167.327 74.8833 166.196C72.24 165.14 69.8594 163.518 67.9082 161.445Z" fill="#263238"/>
<path d="M86.9512 148.585C88.7658 150.576 90.8615 152.292 93.172 153.678C94.3029 154.373 95.4858 154.978 96.7101 155.49C97.3322 155.723 97.9309 156.011 98.5608 156.221L100.458 156.789C101.096 156.975 101.749 157.076 102.394 157.224C102.721 157.286 103.04 157.364 103.366 157.419L104.362 157.527C105.023 157.597 105.676 157.714 106.345 157.753C107.013 157.792 107.674 157.753 108.343 157.8C108.677 157.8 109.02 157.8 109.354 157.8L110.357 157.737L112.379 157.636C113.724 157.512 115.062 157.286 116.446 157.177C115.147 157.621 113.833 158.048 112.495 158.391L110.45 158.748L109.424 158.919C109.082 158.958 108.732 158.958 108.382 158.982C107.69 159.028 106.99 159.059 106.298 159.083C105.606 159.106 104.898 158.997 104.198 158.958L103.156 158.873C102.807 158.826 102.464 158.748 102.122 158.686C101.43 158.538 100.73 158.445 100.054 158.258C97.3369 157.526 94.7758 156.306 92.4955 154.658C90.224 153.065 88.331 150.992 86.9512 148.585Z" fill="#263238"/>
<path d="M80.0469 153.056C82.1115 154.795 84.4195 156.223 86.8976 157.294C88.1128 157.828 89.3655 158.272 90.6456 158.623C91.291 158.771 91.9209 158.973 92.5741 159.098L94.5336 159.416C95.1868 159.518 95.8478 159.533 96.5087 159.595C96.8431 159.595 97.1697 159.65 97.5041 159.658H98.4994C99.1604 159.658 99.8291 159.658 100.49 159.658C101.151 159.658 101.82 159.51 102.489 159.448C102.815 159.448 103.157 159.393 103.484 159.339L104.471 159.144L106.462 158.779C107.784 158.483 109.083 158.087 110.436 157.799C109.207 158.406 107.963 159.004 106.68 159.518L104.705 160.14L103.702 160.443C103.367 160.528 103.025 160.575 102.683 160.645C101.999 160.777 101.314 160.902 100.622 161.018C99.9302 161.135 99.2303 161.119 98.5305 161.174L97.4807 161.221C97.1308 161.221 96.7809 161.221 96.431 161.174C95.7311 161.119 95.0313 161.119 94.3315 161.018C91.5415 160.653 88.8425 159.778 86.3688 158.437C83.8842 157.14 81.7234 155.301 80.0469 153.056Z" fill="#263238"/>
<path d="M91.5157 185.303C90.7135 185.077 89.89 184.933 89.0585 184.876C88.2406 184.813 87.4191 184.813 86.6012 184.876C85.7822 184.951 84.9691 185.081 84.1673 185.264C83.3897 185.443 82.5577 185.684 81.7412 185.918C82.1067 185.7 82.5188 185.498 82.8532 185.296C83.2405 185.117 83.6377 184.961 84.0429 184.829C84.8557 184.552 85.6991 184.374 86.5546 184.3C88.272 184.117 90.0041 184.468 91.5157 185.303Z" fill="#263238"/>
<path d="M110.567 200.209C109.765 199.982 108.942 199.836 108.11 199.774C107.292 199.708 106.471 199.708 105.653 199.774C104.832 199.847 104.016 199.974 103.211 200.155C102.434 200.334 101.609 200.575 100.793 200.816C101.151 200.59 101.524 200.388 101.905 200.194C102.292 200.012 102.689 199.853 103.095 199.719C103.908 199.445 104.751 199.268 105.606 199.191C107.325 199.014 109.057 199.37 110.567 200.209Z" fill="#263238"/>
<path d="M90.3109 184.394C89.644 183.762 88.8833 183.237 88.0559 182.838C87.2552 182.431 86.3893 182.168 85.4976 182.061C85.2721 182.061 85.0465 182.061 84.8288 182.061C84.6063 182.041 84.3826 182.041 84.1601 182.061C83.9346 182.061 83.7091 182.061 83.4913 182.115L82.8226 182.232C82.3716 182.302 81.9517 182.465 81.5007 182.574C81.0497 182.683 80.6375 182.893 80.1865 183.033C80.5753 182.776 80.9641 182.535 81.3918 182.31C81.8193 182.106 82.2611 181.935 82.7137 181.796C83.6334 181.51 84.6014 181.412 85.5598 181.509C86.5146 181.613 87.4349 181.925 88.2558 182.423C89.0768 182.922 89.7783 183.594 90.3109 184.394Z" fill="#263238"/>
<path d="M159.502 202.767C158.834 202.138 158.073 201.613 157.247 201.212C156.441 200.821 155.573 200.573 154.681 200.481C154.458 200.469 154.235 200.469 154.012 200.481C153.793 200.458 153.571 200.458 153.351 200.481C153.126 200.481 152.9 200.481 152.675 200.528L152.014 200.652C151.563 200.714 151.135 200.886 150.692 200.987C150.249 201.088 149.829 201.313 149.378 201.445C149.767 201.197 150.156 200.956 150.583 200.722C151.011 200.519 151.453 200.348 151.905 200.209C152.824 199.93 153.788 199.833 154.743 199.921C155.696 200.02 156.616 200.326 157.438 200.818C158.26 201.309 158.964 201.975 159.502 202.767Z" fill="#263238"/>
<path d="M91.8582 185.925C91.3132 186.019 90.7773 186.16 90.2563 186.345C89.7459 186.52 89.2472 186.728 88.7633 186.967C88.2823 187.214 87.8151 187.486 87.3637 187.784C86.9049 188.087 86.4539 188.406 85.9873 188.732C86.2851 188.244 86.6547 187.804 87.0837 187.426C87.5138 187.039 87.9921 186.71 88.5067 186.446C89.5326 185.898 90.7143 185.714 91.8582 185.925Z" fill="#263238"/>
<path d="M153.04 204.494C152.582 203.989 152.059 203.547 151.485 203.18C150.932 202.821 150.329 202.546 149.696 202.364C149.061 202.183 148.405 202.083 147.744 202.068C147.41 202.068 147.076 202.068 146.733 202.068C146.391 202.068 146.057 202.146 145.699 202.154C146.018 202.022 146.352 201.905 146.687 201.788C147.029 201.702 147.378 201.64 147.729 201.602C148.444 201.532 149.167 201.595 149.859 201.788C150.555 201.979 151.201 202.32 151.751 202.787C152.3 203.255 152.74 203.838 153.04 204.494Z" fill="#263238"/>
<path d="M114.113 205.637C113.921 205.119 113.693 204.615 113.429 204.129C112.902 203.183 112.253 202.31 111.5 201.531C111.127 201.127 110.723 200.754 110.334 200.334C110.864 200.548 111.362 200.836 111.811 201.189C112.265 201.548 112.67 201.964 113.017 202.426C113.738 203.34 114.125 204.473 114.113 205.637Z" fill="#263238"/>
<path d="M166.951 196.049C166.527 195.537 166.038 195.082 165.497 194.696C165.004 194.309 164.409 194.071 163.785 194.012C163.16 193.953 162.532 194.074 161.974 194.362C161.671 194.486 161.407 194.681 161.111 194.828C160.816 194.976 160.567 195.217 160.271 195.396C160.474 195.124 160.707 194.875 160.932 194.619C161.19 194.383 161.466 194.167 161.757 193.973C162.37 193.566 163.105 193.382 163.838 193.452C164.571 193.521 165.258 193.84 165.785 194.354C166.3 194.821 166.699 195.401 166.951 196.049Z" fill="#263238"/>
<path d="M138.009 207.395C137.701 206.806 137.325 206.256 136.89 205.754C136.485 205.283 135.961 204.928 135.373 204.728C134.773 204.56 134.138 204.56 133.538 204.728C133.227 204.79 132.924 204.922 132.605 205.015C132.286 205.109 131.998 205.295 131.672 205.412C131.928 205.186 132.201 204.984 132.449 204.759C132.748 204.579 133.06 204.423 133.383 204.292C134.062 204.005 134.821 203.969 135.525 204.19C136.228 204.41 136.83 204.874 137.224 205.497C137.627 206.062 137.895 206.711 138.009 207.395Z" fill="#263238"/>
<path d="M104.681 196.765C104.133 196.679 103.579 196.634 103.024 196.632C102.486 196.631 101.948 196.665 101.415 196.733C100.878 196.806 100.345 196.91 99.8205 197.044C99.284 197.169 98.7552 197.332 98.2031 197.48C98.6498 197.122 99.1445 196.829 99.6728 196.609C100.205 196.386 100.765 196.234 101.337 196.158C102.488 195.976 103.667 196.19 104.681 196.765Z" fill="#263238"/>
<path d="M92.8066 145.847C94.575 147.886 96.6313 149.657 98.9108 151.103C100.028 151.822 101.198 152.456 102.41 153.001C103.024 153.249 103.615 153.553 104.237 153.778L106.119 154.393C106.749 154.595 107.402 154.711 108.048 154.875C108.366 154.945 108.693 155.038 109.012 155.1L109.999 155.232C110.66 155.318 111.314 155.45 111.982 155.505C112.651 155.559 113.312 155.559 113.981 155.606C114.315 155.606 114.65 155.66 114.984 155.66L115.987 155.621L118.017 155.567C119.362 155.481 120.707 155.287 122.091 155.217C120.785 155.621 119.463 155.994 118.11 156.329L116.057 156.632L115.031 156.78C114.681 156.78 114.338 156.78 113.989 156.78C113.289 156.78 112.597 156.819 111.897 156.826C111.197 156.834 110.505 156.71 109.805 156.648L108.763 156.539C108.413 156.484 108.079 156.391 107.729 156.321C107.052 156.158 106.352 156.049 105.684 155.847C102.985 155.048 100.455 153.762 98.2188 152.052C95.9779 150.409 94.1294 148.29 92.8066 145.847Z" fill="#263238"/>
<path d="M104.992 144.579C106.764 146.619 108.822 148.39 111.104 149.836C112.222 150.55 113.388 151.184 114.596 151.733C115.218 151.974 115.809 152.277 116.431 152.511L118.313 153.133C118.942 153.335 119.596 153.452 120.241 153.615C120.56 153.685 120.879 153.778 121.205 153.833L122.193 153.965C122.854 154.058 123.507 154.183 124.168 154.237C124.829 154.291 125.505 154.299 126.174 154.346C126.508 154.346 126.843 154.392 127.177 154.392H128.18L130.21 154.346C131.555 154.26 132.9 154.066 134.285 153.988C132.978 154.4 131.656 154.766 130.303 155.1L128.25 155.411L127.224 155.551C126.874 155.551 126.524 155.551 126.182 155.598C125.482 155.598 124.782 155.637 124.09 155.637C123.398 155.637 122.698 155.52 121.998 155.466L120.956 155.357C120.606 155.294 120.264 155.209 119.922 155.139C119.246 154.976 118.546 154.867 117.877 154.657C115.178 153.861 112.648 152.578 110.412 150.87C108.161 149.201 106.31 147.052 104.992 144.579Z" fill="#263238"/>
<path d="M147.877 149.051C148.602 151.073 149.505 153.028 150.575 154.891C151.625 156.734 152.799 158.503 154.09 160.186C154.759 161.01 155.389 161.866 156.127 162.636C156.477 163.032 156.819 163.413 157.185 163.833C157.55 164.253 157.962 164.611 158.297 164.976L158.849 165.559L159.432 166.111L160.599 167.231C161.376 168.009 162.208 168.662 162.986 169.447C162.014 168.95 161.057 168.421 160.124 167.83C159.205 167.229 158.319 166.578 157.473 165.878C155.769 164.468 154.222 162.878 152.861 161.135C151.515 159.372 150.383 157.456 149.487 155.427C148.568 153.417 148.022 151.256 147.877 149.051Z" fill="#263238"/>
<path d="M138.118 144.728C139.097 146.639 140.241 148.46 141.54 150.171C142.814 151.864 144.204 153.467 145.7 154.969C146.477 155.7 147.201 156.469 148.033 157.138C148.437 157.488 148.81 157.853 149.238 158.196C149.666 158.538 150.078 158.849 150.49 159.191L151.112 159.696L151.765 160.163L153.056 161.127C153.927 161.765 154.837 162.34 155.708 163.017C154.681 162.651 153.662 162.239 152.667 161.788C151.681 161.302 150.72 160.765 149.79 160.179C147.918 159.001 146.179 157.624 144.603 156.073C143.049 154.493 141.684 152.736 140.537 150.84C139.365 148.966 138.545 146.895 138.118 144.728Z" fill="#263238"/>
<path d="M129.121 140.35C129.703 142.363 130.545 144.292 131.625 146.088C132.665 147.86 133.919 149.498 135.358 150.964C135.707 151.337 136.135 151.672 136.462 152.029C136.656 152.2 136.835 152.387 137.029 152.55L137.636 153.032C138.04 153.351 138.413 153.693 138.841 153.997C139.269 154.3 139.697 154.572 140.124 154.875C140.334 155.023 140.544 155.179 140.762 155.318L141.438 155.707L142.784 156.485C143.701 157.006 144.658 157.449 145.591 158.001C144.542 157.795 143.503 157.535 142.48 157.224L140.98 156.625L140.202 156.306C139.961 156.189 139.728 156.049 139.487 155.925C137.545 154.907 135.772 153.596 134.23 152.037C132.699 150.458 131.448 148.63 130.529 146.633C129.597 144.669 129.116 142.523 129.121 140.35Z" fill="#263238"/>
<path d="M111.943 141.05C114.094 144.465 116.949 147.381 120.318 149.603C120.886 149.938 121.422 150.334 121.998 150.653L123.771 151.555C124.362 151.851 124.992 152.068 125.598 152.333C125.901 152.457 126.205 152.597 126.516 152.706L127.472 152.994C128.11 153.18 128.74 153.406 129.385 153.569C130.03 153.733 130.691 153.834 131.345 153.981C131.671 154.044 131.998 154.137 132.324 154.184L133.327 154.308L135.334 154.572C136.679 154.689 138.04 154.712 139.416 154.852C138.063 155.054 136.694 155.241 135.318 155.334H133.242H132.2C131.85 155.334 131.508 155.249 131.166 155.21C130.471 155.122 129.779 155.029 129.09 154.93C128.405 154.798 127.736 154.596 127.052 154.432L126.041 154.16C125.707 154.051 125.38 153.911 125.054 153.787C124.408 153.523 123.732 153.305 123.102 153.009C120.56 151.8 118.259 150.137 116.313 148.103C114.352 146.105 112.859 143.696 111.943 141.05Z" fill="#263238"/>
<path d="M140.55 199.286C151.682 194.379 156.729 181.375 151.821 170.242C146.913 159.11 133.91 154.063 122.777 158.971C111.644 163.879 106.598 176.882 111.506 188.015C116.413 199.148 129.417 204.194 140.55 199.286Z" fill="#FFC727"/>
<g opacity="0.1">
<path d="M151.897 179.533C151.897 179.953 138.421 179.471 138.375 179.883C138.328 180.295 151.594 182.83 151.477 183.235C151.361 183.639 138.258 180.7 138.126 181.096C137.994 181.493 150.568 186.431 150.381 186.812C150.194 187.193 137.846 181.874 137.652 182.239C137.457 182.605 148.872 189.774 148.647 190.124C148.421 190.474 137.232 182.955 136.983 183.281C136.734 183.608 146.633 192.745 146.314 193.048C145.995 193.351 136.423 183.95 136.112 184.191C135.801 184.432 143.888 195.257 143.53 195.505C143.173 195.754 135.459 184.728 135.101 184.922C134.743 185.117 140.7 197.224 140.319 197.403C139.938 197.582 134.37 185.311 133.981 185.451C133.593 185.591 137.208 198.577 136.804 198.67C136.4 198.764 133.196 185.684 132.784 185.754C132.372 185.824 133.561 199.246 133.118 199.277C132.675 199.308 131.952 185.848 131.563 185.84C131.174 185.832 129.837 199.246 129.432 199.199C129.028 199.152 130.723 185.785 130.319 185.7C129.914 185.614 126.166 198.561 125.77 198.437C125.373 198.313 129.526 185.498 129.137 185.334C128.748 185.171 122.675 197.208 122.31 196.998C121.944 196.788 128.39 184.969 128.04 184.743C127.691 184.518 119.487 195.225 119.176 194.969C118.865 194.712 127.364 184.253 127.061 183.974C126.757 183.694 116.75 192.714 116.478 192.395C116.205 192.076 126.485 183.367 126.236 183.064C125.988 182.76 114.502 189.774 114.292 189.417C114.082 189.059 125.785 182.372 125.607 181.998C125.428 181.625 112.838 186.431 112.691 186.042C112.543 185.653 125.288 181.236 125.179 180.832C125.07 180.428 111.812 182.83 111.742 182.387C111.672 181.944 125.008 180 124.961 179.58C124.915 179.16 111.454 179.09 111.47 178.67C111.485 178.25 124.946 178.732 124.992 178.32C125.039 177.908 111.773 175.373 111.882 174.969C111.991 174.565 125.101 177.504 125.241 177.107C125.381 176.711 112.799 171.773 112.978 171.392C113.157 171.011 125.521 176.33 125.715 175.964C125.91 175.599 114.495 168.429 114.72 168.079C114.946 167.729 126.135 175.241 126.384 174.922C126.633 174.603 116.734 165.451 117.053 165.156C117.372 164.86 126.928 174.308 127.232 174.036C127.535 173.764 119.456 162.955 119.821 162.722C120.187 162.488 127.893 173.515 128.25 173.305C128.608 173.095 122.652 161.003 123.033 160.824C123.414 160.645 128.981 172.916 129.37 172.776C129.759 172.636 126.143 159.65 126.547 159.557C126.952 159.463 130.156 172.543 130.568 172.473C130.98 172.403 129.79 158.981 130.233 158.95C130.677 158.919 131.392 172.379 131.789 172.387C132.185 172.395 133.515 158.981 133.927 159.028C134.339 159.075 132.628 172.442 133.033 172.527C133.437 172.613 137.193 159.666 137.589 159.79C137.986 159.914 133.834 172.729 134.215 172.885C134.596 173.04 140.684 161.019 141.05 161.221C141.415 161.423 134.969 173.25 135.311 173.476C135.653 173.701 143.865 162.994 144.176 163.25C144.487 163.507 135.995 173.958 136.299 174.246C136.602 174.533 146.602 165.505 146.882 165.816C147.162 166.128 136.874 174.852 137.115 175.148C137.356 175.443 148.857 168.445 149.067 168.802C149.277 169.16 137.574 175.848 137.753 176.221C137.932 176.594 150.521 171.788 150.661 172.177C150.801 172.566 138.072 176.975 138.173 177.379C138.274 177.784 151.54 175.389 151.61 175.824C151.68 176.26 138.344 178.211 138.39 178.631C138.437 179.051 151.905 179.114 151.897 179.533Z" fill="black"/>
</g>
<g opacity="0.1">
<path d="M148.702 184.355C148.593 184.705 137.038 180.933 136.875 181.244C136.711 181.556 147.621 187.061 147.45 187.388C147.279 187.714 136.564 181.882 136.385 182.178C136.206 182.473 145.895 189.876 145.662 190.171C145.428 190.467 136.004 182.745 135.755 183.002C135.506 183.258 143.663 192.333 143.391 192.559C143.119 192.784 135.265 183.461 135.008 183.671C134.752 183.881 141.074 194.277 140.763 194.464C140.452 194.65 134.441 184.044 134.114 184.199C133.788 184.355 138.134 195.739 137.792 195.863C137.45 195.988 133.484 184.464 133.127 184.557C132.769 184.65 134.962 196.633 134.612 196.695C134.262 196.758 132.435 184.728 132.069 184.728C131.704 184.728 131.657 196.937 131.292 196.929C130.926 196.921 131.4 184.744 131.043 184.705C130.685 184.666 128.375 196.625 128.018 196.555C127.66 196.485 130.351 184.596 130.024 184.487C129.697 184.378 125.218 195.723 124.9 195.615C124.581 195.506 129.379 184.277 129.06 184.114C128.741 183.951 122.279 194.277 121.984 194.083C121.688 193.888 128.477 183.779 128.204 183.554C127.932 183.328 119.651 192.286 119.402 192.038C119.153 191.789 127.691 183.111 127.458 182.839C127.225 182.566 117.45 189.837 117.24 189.565C117.03 189.293 127.03 182.31 126.844 181.999C126.657 181.688 115.716 187.061 115.568 186.711C115.421 186.361 126.517 181.369 126.393 181.027C126.268 180.685 114.534 183.974 114.449 183.624C114.363 183.274 126.19 180.381 126.113 180.024C126.035 179.666 113.92 180.739 113.889 180.381C113.858 180.024 126.035 179.355 126.043 178.997C126.05 178.64 113.92 177.442 113.966 177.084C114.013 176.727 126.082 178.321 126.159 177.971C126.237 177.621 114.534 174.223 114.635 173.873C114.736 173.523 126.299 177.294 126.47 176.983C126.641 176.672 115.724 171.175 115.887 170.856C116.05 170.537 126.774 176.369 126.952 176.066C127.131 175.762 117.458 168.375 117.683 168.095C117.909 167.815 127.341 175.521 127.59 175.257C127.839 174.993 119.682 165.926 119.954 165.708C120.226 165.49 128.08 174.79 128.368 174.58C128.655 174.37 122.31 163.974 122.613 163.787C122.917 163.601 128.943 174.199 129.27 174.052C129.596 173.904 125.25 162.512 125.584 162.388C125.918 162.263 129.9 173.787 130.25 173.694C130.599 173.601 128.407 161.61 128.764 161.556C129.122 161.501 130.91 173.546 131.268 173.523C131.626 173.5 131.688 161.314 132.046 161.322C132.403 161.33 131.929 173.507 132.295 173.546C132.66 173.585 134.962 161.626 135.312 161.696C135.662 161.766 132.979 173.655 133.313 173.764C133.648 173.873 138.111 162.528 138.445 162.66C138.78 162.792 133.966 173.989 134.277 174.161C134.589 174.332 141.058 163.997 141.361 164.192C141.665 164.386 134.861 174.495 135.141 174.72C135.421 174.946 143.694 165.98 143.943 166.229C144.192 166.478 135.669 175.14 135.91 175.397C136.152 175.654 145.91 168.398 146.128 168.671C146.346 168.943 136.338 175.926 136.517 176.237C136.696 176.548 147.637 171.175 147.792 171.501C147.948 171.828 136.844 176.843 136.968 177.185C137.092 177.528 148.819 174.238 148.912 174.588C149.005 174.938 137.17 177.831 137.248 178.188C137.326 178.546 149.449 177.473 149.472 177.831C149.495 178.188 137.341 178.865 137.341 179.23C137.341 179.596 149.456 180.786 149.417 181.143C149.379 181.501 137.295 179.899 137.225 180.257C137.155 180.615 148.811 184.005 148.702 184.355Z" fill="black"/>
</g>
<g opacity="0.1">
<path d="M145.917 179.377L145.552 180.209L147.488 181.337L145.241 181.865L143.297 182.215L145.567 183.739L144.144 184.121L144.961 185.411L144.828 186.36L145.381 187.783L142.846 187.169L140.855 186.609L142.83 189.416L142.923 190.847L140.645 189.68L138.833 188.669L140.381 192.324L137.83 189.813L138.475 192.783L136.399 190.271L135.94 191.166L135.987 194.128L134.315 190.979L134.113 194.354L132.916 191.733L132.2 193.218L131.306 195.334L130.458 193.615L129.339 195.232L128.958 192.161L128.227 191.788L127.667 190.94L126.804 191.072L125.451 192.106L125.591 190.046L125.264 189.144L123.429 190.466L123.763 188.708L120.738 190.878L123.063 187.301L122.503 186.842L119.572 188.133L118.468 187.775L119.976 185.8L120.863 184.455L118.538 184.649L120.427 183.063L119.16 182.69L118.499 182.029L116.158 181.586L119.331 180.318L117.099 179.657L118.53 178.809L116.959 177.884L118.024 177.138L116.446 175.971L119.968 175.94L119.673 175.077L117.519 173.382L121.267 174.152L119.471 172.363L121.804 172.853L119.144 170.061L120.248 169.766L120.692 168.965L121.944 168.973L122.542 168.374L124.315 169.315L123.289 166.43L125.598 168.6L125.855 167.472L126.749 167.573L126.384 164.315L127.402 164.424L128.685 165.932L129.619 166.632L130.124 163.996L131.01 163.172L131.944 164.47L132.768 165.24L133.367 166.982L134.657 164.338L135.381 165.155L135.878 166.414L137.674 164.113L137.9 165.909L138.195 167.2L139.276 167.021L138.693 169.299L139.346 169.649L140.863 169.097L140.637 170.45L142.286 170.03L144.206 169.649L143.413 171.313L142.255 172.962L146.018 171.912L143.491 174.035L146.78 173.693L144.533 175.349L147.185 175.59L144.805 176.943L147.262 177.511L144.712 178.561L145.917 179.377Z" fill="black"/>
</g>
<g opacity="0.1">
<path d="M120.809 179.346L121.096 179.999L119.58 180.886L121.337 181.298L122.862 181.57L121.089 182.76L122.201 183.055L121.555 184.066L121.664 184.805L121.229 185.924L123.211 185.435L124.767 185.007L123.227 187.192L123.149 188.312L124.93 187.402L126.345 186.616L125.14 189.47L127.131 187.503L126.625 189.828L128.25 187.868L128.608 188.561L128.569 190.878L129.876 188.421L130.031 191.057L130.972 189.004L131.532 190.162L132.232 191.819L132.893 190.473L133.764 191.741L134.059 189.338L134.634 189.05L135.07 188.389L135.746 188.491L136.804 189.299L136.695 187.69L136.944 186.982L138.383 188.016L138.118 186.64L140.482 188.335L138.67 185.543L139.106 185.186L141.4 186.197L142.263 185.909L141.081 184.369L140.389 183.312L142.201 183.475L140.723 182.231L141.718 181.935L142.232 181.422L144.067 181.08L141.586 180.085L143.328 179.571L142.208 178.903L143.437 178.187L142.605 177.596L143.841 176.687L141.089 176.663L141.314 175.987L143.001 174.665L140.07 175.263L141.477 173.872L139.65 174.253L141.734 172.068L140.871 171.834L140.521 171.212L139.549 171.22L139.075 170.753L137.69 171.484L138.491 169.229L136.687 170.932L136.493 170.046L135.793 170.124L136.073 167.581L135.28 167.666L134.277 168.848L133.546 169.393L133.149 167.332L132.457 166.687L131.734 167.697L131.089 168.304L130.614 169.665L129.611 167.604L129.044 168.234L128.655 169.222L127.255 167.425L127.076 168.825L126.843 169.828L126.003 169.696L126.454 171.469L125.949 171.749L124.759 171.313L124.938 172.379L123.647 172.052L122.146 171.749L122.768 173.047L123.67 174.338L120.731 173.514L122.706 175.178L120.14 174.906L121.897 176.204L119.821 176.391L121.68 177.449L119.759 177.892L121.757 178.708L120.809 179.346Z" fill="black"/>
</g>
<path d="M140.451 179.284C140.415 181.018 139.866 182.702 138.872 184.124C137.878 185.545 136.485 186.64 134.869 187.269C133.252 187.898 131.486 188.034 129.792 187.658C128.099 187.283 126.555 186.413 125.356 185.16C124.158 183.907 123.358 182.326 123.058 180.617C122.758 178.909 122.972 177.15 123.672 175.564C124.372 173.977 125.528 172.634 126.992 171.704C128.456 170.774 130.164 170.3 131.897 170.341C134.216 170.396 136.419 171.369 138.022 173.045C139.626 174.721 140.499 176.965 140.451 179.284Z" fill="#263238"/>
<path d="M148.499 168.771C148.463 170.505 147.913 172.19 146.92 173.611C145.926 175.033 144.533 176.127 142.916 176.756C141.3 177.386 139.534 177.521 137.84 177.146C136.147 176.77 134.603 175.901 133.404 174.647C132.205 173.394 131.405 171.813 131.106 170.105C130.806 168.396 131.02 166.638 131.72 165.051C132.42 163.464 133.576 162.121 135.04 161.191C136.504 160.262 138.211 159.787 139.945 159.829C142.264 159.884 144.467 160.856 146.07 162.532C147.674 164.208 148.547 166.452 148.499 168.771Z" fill="white"/>
<path d="M172.986 187.41C172.986 187.41 147.488 206.243 127.644 204.89C107.799 203.537 91.5009 186.531 85.2412 177.783C85.2412 177.783 101.345 204.346 127.621 205.621C151.555 206.78 172.986 187.41 172.986 187.41Z" fill="#263238"/>
<path d="M175.847 132.293C179.813 132.581 181.866 111.173 180.396 110.023C178.926 108.872 143.18 101.041 128.436 98.8951C113.693 96.7489 93.9419 104.54 83.9497 111.282C73.9575 118.024 51.3525 137.48 51.3525 137.48C51.3525 137.48 93.9263 120.909 103.607 119.136C123.677 115.458 168.607 131.78 175.847 132.293Z" fill="#263238"/>
<path d="M175.194 132.107C177.006 131.749 178.149 130.419 178.973 128.996C179.786 127.49 180.43 125.9 180.894 124.253C181.423 122.604 181.835 120.901 182.263 119.198C182.69 117.495 183.04 115.761 183.592 114.027C183.712 115.821 183.668 117.622 183.46 119.408C183.266 121.206 182.904 122.981 182.379 124.712C181.869 126.49 181.059 128.167 179.984 129.673C179.421 130.44 178.713 131.09 177.9 131.586C177.084 132.063 176.129 132.247 175.194 132.107Z" fill="#263238"/>
<path d="M178.032 132.022C178.845 131.493 179.58 130.855 180.217 130.124C180.813 129.409 181.347 128.644 181.811 127.838C182.293 127.061 182.744 126.182 183.203 125.319C183.65 124.415 184.143 123.535 184.681 122.683C184.72 123.718 184.604 124.753 184.339 125.754C184.079 126.767 183.678 127.738 183.149 128.639C182.608 129.568 181.886 130.38 181.026 131.026C180.168 131.685 179.114 132.036 178.032 132.022Z" fill="#263238"/>
<path d="M49.2998 141.127C51.5064 139.887 53.8013 138.811 56.166 137.908C57.348 137.457 58.4989 137.029 59.7508 136.664C60.9606 136.274 62.2015 135.988 63.46 135.809C62.278 136.267 61.1272 136.765 59.953 137.232L56.4693 138.631C54.1365 139.533 51.7415 140.404 49.2998 141.127Z" fill="#263238"/>
<path d="M178.46 106.804C178.6 108.452 178.638 110.101 178.654 111.749C178.67 113.398 178.654 115.046 178.561 116.695C178.467 118.343 178.374 119.992 178.187 121.633C178.032 123.282 177.751 124.917 177.348 126.524C177.394 125.692 177.457 124.875 177.48 124.051C177.503 123.227 177.565 122.41 177.589 121.594L177.783 116.664C177.869 115.023 177.939 113.374 178.055 111.734C178.172 110.093 178.281 108.452 178.46 106.804Z" fill="#FFC4C0"/>
<path d="M49.5645 138.771C50.9408 137.846 52.3638 137.006 53.7946 136.189C55.2254 135.373 56.6795 134.634 58.1492 133.857C59.6189 133.079 61.1196 132.418 62.6437 131.78C64.1558 131.113 65.7153 130.56 67.3094 130.124C66.5318 130.489 65.8241 130.832 65.0932 131.213C64.3622 131.594 63.6157 131.944 62.8926 132.325L58.4913 134.556C57.0217 135.287 55.552 136.026 54.059 136.726C52.566 137.426 51.0886 138.126 49.5645 138.771Z" fill="#FFC4C0"/>
<path d="M176.306 118.483C176.384 120.223 176.352 121.966 176.213 123.701C176.143 124.564 176.049 125.435 175.909 126.291C175.791 127.157 175.585 128.009 175.295 128.833C175.45 127.978 175.536 127.115 175.614 126.259L175.824 123.67C175.971 121.944 176.096 120.186 176.306 118.483Z" fill="#FFC4C0"/>
<path d="M251.275 125.28C247.387 125.972 243.094 104.891 244.44 103.6C245.785 102.31 272.954 90.3344 287.472 86.9907C307.348 82.4262 319.727 118.25 319.727 118.25C319.727 118.25 308.779 105.272 298.95 105.412C283.716 105.708 258.421 124.02 251.275 125.28Z" fill="#263238"/>
<path d="M251.897 125.023C250.983 125.256 250.016 125.165 249.16 124.767C248.297 124.363 247.525 123.789 246.89 123.079C245.661 121.703 244.68 120.124 243.989 118.414C242.601 115.076 241.812 111.52 241.656 107.908C242.356 109.572 242.916 111.252 243.515 112.908C244.113 114.564 244.704 116.213 245.397 117.799C246.032 119.388 246.837 120.903 247.799 122.317C248.787 123.655 250.093 124.852 251.897 125.023Z" fill="#263238"/>
<path d="M249.075 125.233C247.99 125.366 246.893 125.125 245.964 124.549C245.051 123.994 244.258 123.261 243.632 122.395C243.012 121.553 242.512 120.629 242.146 119.65C241.776 118.683 241.556 117.666 241.493 116.633C242.154 117.41 242.691 118.281 243.235 119.106C243.779 119.93 244.316 120.707 244.876 121.438C245.426 122.192 246.037 122.9 246.703 123.553C247.412 124.221 248.21 124.787 249.075 125.233Z" fill="#263238"/>
<path d="M319.704 119.448C317.978 118.431 316.319 117.306 314.735 116.081C313.18 114.868 311.625 113.608 310.069 112.263C311.88 113.14 313.591 114.212 315.17 115.459C316.789 116.661 318.306 117.995 319.704 119.448Z" fill="#263238"/>
<path d="M240.668 175.871C243.196 165.226 252.037 146.54 267.068 140.21C285.031 132.636 294.79 151.571 294.79 151.571C294.79 151.571 292.457 157.877 290.031 163.53C287.604 169.184 281.298 182.411 270.59 184.969C259.883 187.527 247.029 179.806 244.875 178.149C242.721 176.493 239.502 180.793 240.668 175.871Z" fill="white"/>
<path d="M257.698 184.199C253.126 182.872 248.793 180.83 244.859 178.149C242.706 176.5 239.502 180.793 240.668 175.87C242.627 168.212 245.955 160.97 250.489 154.494C246.92 161.135 244.727 168.491 245.653 172.892C246.578 177.293 252.558 181.78 257.698 184.199Z" fill="#EBEBEB"/>
<path d="M294.79 151.57C294.79 151.57 292.457 157.885 290.031 163.522C289.774 164.113 289.486 164.782 289.137 165.521C290.886 160.855 291.609 154.494 291.018 151.57C290.427 148.647 285.723 140.536 276.609 138.468C288.46 139.284 294.79 151.57 294.79 151.57Z" fill="#EBEBEB"/>
<path d="M277.152 165.53C277.376 154.731 271.439 145.85 263.891 145.694C256.342 145.537 250.042 154.164 249.817 164.962C249.593 175.761 255.53 184.642 263.078 184.799C270.627 184.955 276.928 176.329 277.152 165.53Z" fill="#FFC727"/>
<g opacity="0.1">
<path d="M276.009 165.489C276.009 165.862 267.642 165.489 267.611 165.878C267.58 166.267 275.753 168.397 275.753 168.778C275.753 169.159 267.549 166.601 267.471 166.951C267.394 167.301 275.154 171.617 275.053 171.959C274.952 172.301 267.277 167.643 267.176 167.97C267.075 168.296 274.096 174.603 273.956 174.914C273.817 175.225 266.911 168.615 266.748 168.903C266.585 169.19 272.689 177.254 272.51 177.519C272.331 177.783 266.406 169.47 266.212 169.743C266.017 170.015 270.963 179.525 270.753 179.743C270.543 179.96 265.799 170.209 265.574 170.411C265.348 170.614 268.98 181.298 268.747 181.469C268.513 181.64 265.123 170.761 264.859 170.893C264.594 171.026 266.787 182.558 266.538 182.62C266.289 182.682 264.369 171.111 264.112 171.173C263.855 171.236 264.501 183.156 264.244 183.18C263.988 183.203 263.599 171.267 263.334 171.259C263.07 171.251 262.191 183.172 261.935 183.133C261.678 183.094 262.813 171.22 262.565 171.142C262.316 171.065 259.913 182.589 259.672 182.48C259.431 182.371 262.067 170.963 261.834 170.816C261.6 170.668 257.751 181.391 257.526 181.22C257.3 181.049 261.367 170.505 261.157 170.334C260.947 170.162 255.799 179.665 255.597 179.455C255.395 179.245 260.737 169.898 260.551 169.649C260.364 169.4 254.104 177.425 253.933 177.192C253.762 176.959 260.193 169.113 260.045 168.817C259.897 168.522 252.72 174.836 252.596 174.517C252.471 174.198 259.765 168.203 259.656 167.869C259.547 167.534 251.709 171.827 251.647 171.508C251.585 171.189 259.485 167.177 259.423 166.842C259.361 166.508 251.118 168.685 251.079 168.32C251.041 167.954 259.322 166.127 259.306 165.753C259.291 165.38 250.924 165.396 250.932 165.023C250.939 164.649 259.299 165.023 259.33 164.634C259.361 164.245 251.157 162.091 251.212 161.733C251.266 161.376 259.415 163.911 259.493 163.561C259.571 163.211 251.81 158.895 251.911 158.553C252.013 158.211 259.687 162.869 259.789 162.542C259.89 162.215 252.868 155.909 253.008 155.606C253.148 155.303 260.053 161.897 260.216 161.609C260.38 161.321 254.283 153.257 254.462 152.993C254.641 152.729 260.558 161.041 260.761 160.769C260.963 160.497 256.002 150.987 256.212 150.769C256.422 150.551 261.165 160.302 261.39 160.1C261.616 159.898 257.985 149.214 258.218 149.043C258.451 148.872 261.841 159.75 262.106 159.618C262.37 159.486 260.17 147.954 260.426 147.892C260.683 147.83 262.588 159.4 262.845 159.338C263.101 159.276 262.456 147.355 262.712 147.332C262.969 147.309 263.366 159.245 263.622 159.253C263.879 159.261 264.773 147.34 265.022 147.379C265.271 147.418 264.143 159.299 264.392 159.369C264.641 159.439 267.044 147.923 267.292 148.032C267.541 148.141 264.89 159.548 265.123 159.696C265.356 159.844 269.205 149.121 269.431 149.292C269.656 149.463 265.589 160.007 265.807 160.178C266.025 160.349 271.165 150.847 271.359 151.057C271.554 151.267 266.227 160.614 266.406 160.862C266.585 161.111 272.86 153.047 273.023 153.32C273.187 153.592 266.764 161.399 266.911 161.694C267.059 161.99 274.236 155.676 274.369 155.995C274.501 156.313 267.191 162.309 267.3 162.643C267.409 162.977 275.255 158.631 275.341 158.981C275.426 159.33 267.495 163.312 267.565 163.646C267.635 163.981 275.877 161.803 275.916 162.169C275.955 162.534 267.666 164.362 267.681 164.735C267.697 165.108 276.017 165.116 276.009 165.489Z" fill="black"/>
</g>
<g opacity="0.1">
<path d="M274.003 169.789C273.933 170.1 266.764 166.819 266.678 167.106C266.593 167.394 273.311 172.207 273.21 172.487C273.109 172.767 266.492 167.658 266.375 167.923C266.258 168.187 272.222 174.703 272.083 174.921C271.943 175.139 266.126 168.382 265.971 168.615C265.815 168.848 270.831 176.842 270.636 177.052C270.442 177.262 265.644 169.035 265.457 169.229C265.271 169.424 269.166 178.607 268.972 178.77C268.778 178.934 265.084 169.563 264.897 169.703C264.711 169.843 267.331 179.921 267.121 180.03C266.911 180.139 264.501 169.921 264.283 170.022C264.065 170.123 265.364 180.738 265.139 180.792C264.913 180.847 263.879 170.154 263.653 170.178C263.428 170.201 263.327 181.025 263.101 181.018C262.876 181.01 263.241 170.201 263.016 170.131C262.79 170.061 261.289 180.738 261.072 180.668C260.854 180.598 262.627 170.038 262.378 169.945C262.129 169.851 259.338 179.952 259.135 179.828C258.933 179.703 261.981 169.719 261.779 169.602C261.577 169.486 257.518 178.661 257.331 178.49C257.145 178.319 261.422 169.307 261.219 169.105C261.017 168.903 255.869 176.881 255.706 176.694C255.543 176.508 260.901 168.716 260.761 168.475C260.621 168.234 254.54 174.758 254.376 174.501C254.213 174.245 260.496 168.008 260.387 167.728C260.278 167.448 253.451 172.293 253.389 172.005C253.327 171.717 260.216 167.2 260.146 166.896C260.076 166.593 252.767 169.579 252.712 169.229C252.658 168.879 260.022 166.282 259.983 165.963C259.944 165.644 252.409 166.671 252.394 166.352C252.378 166.033 259.936 165.38 259.944 165.053C259.952 164.727 252.432 163.747 252.456 163.42C252.479 163.094 259.975 164.455 260.022 164.144C260.069 163.833 252.829 160.878 252.899 160.567C252.969 160.256 260.139 163.545 260.224 163.249C260.31 162.954 253.583 158.148 253.684 157.868C253.785 157.588 260.403 162.697 260.527 162.433C260.652 162.168 254.68 155.652 254.82 155.434C254.96 155.217 260.768 161.974 260.924 161.741C261.079 161.508 256.072 153.514 256.258 153.304C256.445 153.094 261.25 161.321 261.429 161.126C261.608 160.932 257.728 151.749 257.922 151.585C258.117 151.422 261.81 160.792 261.997 160.652C262.184 160.512 259.555 150.434 259.773 150.326C259.991 150.217 262.386 160.434 262.604 160.333C262.821 160.232 261.523 149.618 261.748 149.564C261.974 149.509 263.016 160.201 263.233 160.178C263.451 160.154 263.568 149.291 263.793 149.338C264.019 149.385 263.653 160.155 263.879 160.224C264.104 160.294 265.644 149.665 265.823 149.735C266.002 149.805 264.268 160.364 264.516 160.458C264.765 160.551 267.557 150.45 267.767 150.574C267.977 150.699 264.921 160.683 265.115 160.8C265.31 160.917 269.376 151.741 269.563 151.912C269.75 152.083 265.473 161.095 265.675 161.298C265.877 161.5 271.025 153.522 271.18 153.708C271.336 153.895 265.986 161.686 266.134 161.927C266.282 162.168 272.355 155.644 272.51 155.901C272.666 156.158 266.39 162.394 266.507 162.674C266.624 162.954 273.436 158.109 273.506 158.405C273.575 158.7 266.678 163.21 266.756 163.506C266.834 163.801 274.128 160.823 274.182 161.173C274.236 161.523 266.88 164.12 266.911 164.439C266.943 164.758 274.485 163.731 274.501 164.05C274.516 164.369 266.958 165.03 266.95 165.349C266.943 165.668 274.462 166.655 274.439 166.982C274.415 167.308 266.919 165.948 266.873 166.259C266.826 166.57 274.073 169.478 274.003 169.789Z" fill="black"/>
</g>
<g opacity="0.1">
<path d="M272.177 165.466L271.952 166.197L273.149 167.184L271.757 167.651L270.552 167.954L271.96 169.284L271.081 169.618L271.586 170.753L271.501 171.578L271.843 172.83L270.28 172.285L269.044 171.803L270.264 174.253L270.327 175.505L268.919 174.486L267.799 173.599L268.756 176.795L267.17 174.603L267.574 177.2L266.291 175.007L266.003 175.785L266.034 178.374L265 175.621L264.876 178.576L264.137 176.282L263.694 177.581L263.142 179.432L262.621 177.931L261.929 179.338L261.687 176.655L261.236 176.329L260.894 175.59L260.358 175.707L259.518 176.609L259.604 174.805L259.409 174.019L258.266 175.17L258.476 173.638L256.61 175.528L258.048 172.402L257.698 171.998L255.887 173.133L255.202 172.814L256.135 171.096L256.687 169.906L255.249 170.085L256.415 168.701L255.63 168.366L255.226 167.791L253.771 167.402L255.739 166.29L254.362 165.715L255.241 164.968L254.269 164.167L254.93 163.514L253.958 162.488L256.135 162.464L255.949 161.71L254.611 160.225L256.936 160.893L255.824 159.33L257.263 159.758L255.622 157.316L256.306 157.06L256.579 156.36H257.348L257.722 155.839L258.818 156.663L258.18 154.136L259.611 156.041L259.767 155.054L260.319 155.139L260.101 152.285L260.731 152.386L261.524 153.708L262.1 154.315L262.411 152.013L262.955 151.29L263.538 152.425L264.044 153.094L264.417 154.618L265.21 152.316L265.661 153.024L265.972 154.128L267.084 152.114L267.216 153.685L267.403 154.813L268.072 154.657L267.714 156.648L268.11 156.959L269.051 156.469L268.911 157.659L269.93 157.293L271.12 156.951L270.63 158.413L269.915 159.859L272.24 158.934L270.677 160.8L272.706 160.497L271.322 161.951L272.963 162.153L271.493 163.343L273.009 163.833L271.431 164.75L272.177 165.466Z" fill="black"/>
</g>
<g opacity="0.1">
<path d="M256.649 165.442L256.828 166.018L255.895 166.787L256.975 167.145L257.916 167.386L256.82 168.428L257.512 168.693L257.115 169.571L257.178 170.217L256.913 171.196L258.134 170.769L259.098 170.396L258.142 172.308L258.095 173.288L259.199 172.487L260.07 171.803L259.324 174.299L260.56 172.581L260.249 174.61L261.252 172.899L261.47 173.506L261.447 175.535L262.255 173.382L262.356 175.691L262.932 173.895L263.282 174.906L263.709 176.352L264.122 175.178L264.666 176.282L264.845 174.19L265.202 173.934L265.467 173.35L265.887 173.444L266.54 174.151L266.478 172.744L266.633 172.122L267.52 173.024L267.356 171.826L268.818 173.312L267.691 170.87L267.971 170.551L269.386 171.438L269.915 171.189L269.192 169.843L268.756 168.918L269.884 169.05L268.966 167.969L269.58 167.713L269.899 167.262L271.034 166.959L269.495 166.088L270.576 165.637L269.884 165.053L270.646 164.424L270.132 163.918L270.895 163.117L269.192 163.102L269.332 162.503L270.374 161.344L268.562 161.873L269.433 160.652L268.305 160.987L269.588 159.074L269.059 158.871L268.842 158.327H268.235L267.947 157.923L267.092 158.56L267.59 156.593L266.47 158.078L266.346 157.308L265.918 157.371L266.089 155.147L265.599 155.224L264.977 156.251L264.526 156.733L264.285 154.929L263.857 154.369L263.406 155.256L263.01 155.777L262.714 156.966L262.092 155.162L261.742 155.722L261.501 156.578L260.638 155.007L260.529 156.235L260.381 157.114L259.86 156.997L260.14 158.553L259.829 158.794L259.09 158.413L259.207 159.346L258.406 159.058L257.481 158.794L257.862 159.929L258.422 161.057L256.602 160.341L257.823 161.795L256.237 161.562L257.325 162.697L256.042 162.853L257.185 163.786L256.003 164.167L257.24 164.89L256.649 165.442Z" fill="black"/>
</g>
<path d="M268.919 165.359C269.008 161.061 266.648 157.526 263.646 157.464C260.645 157.401 258.14 160.835 258.05 165.133C257.961 169.431 260.322 172.966 263.323 173.028C266.324 173.09 268.83 169.657 268.919 165.359Z" fill="#263238"/>
<path d="M274.035 155.021C274.121 150.723 271.757 147.189 268.756 147.129C265.754 147.069 263.25 150.505 263.164 154.804C263.078 159.103 265.442 162.637 268.444 162.697C271.446 162.757 273.949 159.32 274.035 155.021Z" fill="white"/>
<path d="M240.637 175.272C245.124 166.936 254.922 141.967 270.653 139.059C281.43 137.068 291.796 149.245 296.314 152.154C300.202 154.689 305.59 151.913 308.631 148.654C308.631 148.654 302.744 154.595 296.003 149.658C289.261 144.72 282.006 135.078 269.961 137.216C250.816 140.661 240.326 175.318 240.326 175.318" fill="#263238"/>
<path d="M307.752 144.953C307.073 146.365 306.035 147.575 304.743 148.46C303.445 149.394 301.95 150.017 300.372 150.28C299.984 150.357 299.595 150.357 299.183 150.404H298.584L297.993 150.365C297.596 150.365 297.215 150.319 296.811 150.256C296.407 150.194 296.033 150.093 295.66 150C294.912 149.801 294.181 149.541 293.475 149.222C292.794 148.865 292.134 148.468 291.5 148.032C292.278 148.149 292.985 148.351 293.716 148.499L294.805 148.67C295.158 148.746 295.517 148.796 295.878 148.818C296.246 148.818 296.604 148.849 296.951 148.911C297.309 148.911 297.666 148.911 298.016 148.911H298.545L299.074 148.849C299.423 148.829 299.771 148.79 300.116 148.732C301.508 148.5 302.856 148.054 304.113 147.41C305.424 146.747 306.647 145.922 307.752 144.953Z" fill="#263238"/>
<path d="M306.757 140.948C306.015 142.514 304.902 143.876 303.515 144.914C302.123 146.002 300.513 146.777 298.795 147.185C297.083 147.585 295.309 147.638 293.577 147.34L292.939 147.239L292.309 147.068L291.081 146.695C290.282 146.38 289.503 146.016 288.748 145.606C289.603 145.676 290.412 145.855 291.236 145.956L292.457 146.065L293.064 146.127H293.67C294.075 146.127 294.448 146.127 294.876 146.127C295.303 146.127 295.653 146.057 296.073 146.026H296.664L297.247 145.917C297.641 145.866 298.031 145.788 298.414 145.684L299.557 145.388C299.922 145.248 300.288 145.101 300.669 144.976C301.406 144.672 302.122 144.321 302.815 143.926C304.246 143.099 305.57 142.099 306.757 140.948Z" fill="#263238"/>
<path d="M302.317 138.336C301.369 139.9 300.029 141.189 298.429 142.076C296.825 143.013 295.031 143.579 293.18 143.733C291.336 143.855 289.485 143.609 287.737 143.009C286.884 142.714 286.055 142.356 285.256 141.936C284.479 141.47 283.74 140.972 283.032 140.443C283.903 140.669 284.72 140.98 285.552 141.221L286.804 141.532C287.213 141.661 287.632 141.759 288.056 141.827C288.475 141.89 288.888 141.96 289.3 142.045C289.712 142.131 290.14 142.115 290.559 142.154C290.972 142.211 291.388 142.229 291.804 142.208C292.216 142.208 292.636 142.208 293.048 142.17C294.711 142.033 296.341 141.631 297.877 140.98C299.476 140.316 300.971 139.426 302.317 138.336Z" fill="#263238"/>
<path d="M304.634 139.494C303.93 141.025 302.843 142.348 301.477 143.336C300.108 144.377 298.507 145.073 296.812 145.365C295.118 145.641 293.384 145.54 291.734 145.07C291.322 144.98 290.921 144.847 290.537 144.673L289.386 144.191C288.662 143.792 287.961 143.354 287.286 142.877C288.103 143.04 288.841 143.281 289.619 143.468L290.793 143.693C291.174 143.788 291.561 143.853 291.952 143.888C292.341 143.888 292.729 143.958 293.11 144.012C293.491 144.066 293.888 144.012 294.261 144.012H294.829L295.397 143.958C295.775 143.932 296.152 143.883 296.524 143.81L297.644 143.592C298.002 143.475 298.359 143.351 298.725 143.242C299.09 143.133 299.425 142.954 299.782 142.815C300.14 142.675 300.467 142.465 300.816 142.301C302.206 141.535 303.489 140.592 304.634 139.494Z" fill="#263238"/>
<path d="M293.025 131.392C292.665 133.015 291.942 134.536 290.91 135.839C289.876 137.193 288.546 138.292 287.022 139.051C285.502 139.832 283.816 140.232 282.107 140.217C281.275 140.226 280.443 140.148 279.627 139.984C278.831 139.782 278.051 139.522 277.294 139.207C278.118 139.16 278.911 139.207 279.704 139.207L280.879 139.129C281.263 139.118 281.646 139.071 282.022 138.989C283.523 138.789 284.979 138.337 286.33 137.651C287.686 136.97 288.929 136.083 290.016 135.023C291.133 133.912 292.141 132.696 293.025 131.392Z" fill="#263238"/>
<path d="M297.223 134.184C296.678 135.742 295.76 137.144 294.548 138.266C293.328 139.442 291.838 140.302 290.209 140.77C289.807 140.903 289.393 140.996 288.973 141.05C288.562 141.143 288.142 141.19 287.721 141.19H286.461C286.041 141.143 285.629 141.081 285.217 141.019L284.611 140.918L284.012 140.747L282.845 140.366C282.103 140.039 281.381 139.667 280.684 139.254C281.5 139.339 282.239 139.518 283.016 139.627L284.175 139.743C284.369 139.743 284.556 139.782 284.743 139.813H285.318C285.699 139.813 286.096 139.813 286.453 139.813L287.573 139.697C287.944 139.673 288.311 139.613 288.67 139.518C289.036 139.463 289.398 139.377 289.75 139.261C291.186 138.842 292.54 138.182 293.755 137.31C295.029 136.406 296.192 135.357 297.223 134.184Z" fill="#263238"/>
<path d="M289.548 129.743C289.226 131.38 288.54 132.924 287.542 134.261C286.541 135.642 285.245 136.782 283.747 137.597C282.251 138.429 280.576 138.888 278.864 138.934C278.029 138.975 277.192 138.926 276.368 138.787C275.562 138.619 274.769 138.393 273.996 138.11C274.828 138.032 275.621 138.11 276.407 138.025C277.189 137.971 277.968 137.872 278.739 137.729C280.236 137.474 281.679 136.97 283.009 136.236C284.35 135.506 285.575 134.578 286.64 133.483C287.727 132.333 288.701 131.08 289.548 129.743Z" fill="#263238"/>
<path d="M284.307 129.19C283.985 130.825 283.299 132.366 282.301 133.701C281.3 135.084 280.004 136.226 278.506 137.044C277.009 137.874 275.334 138.33 273.623 138.374C272.788 138.415 271.951 138.365 271.127 138.226C270.321 138.058 269.528 137.832 268.755 137.55C269.587 137.472 270.38 137.55 271.165 137.464C271.948 137.414 272.728 137.316 273.498 137.169C274.996 136.917 276.44 136.412 277.767 135.676C279.105 134.947 280.325 134.019 281.383 132.923C282.477 131.777 283.457 130.527 284.307 129.19Z" fill="#263238"/>
<path d="M279.152 127.441C279.049 129.14 278.585 130.796 277.791 132.301C277.008 133.845 275.921 135.215 274.595 136.329C274.268 136.617 273.916 136.877 273.546 137.107C273.172 137.333 272.823 137.597 272.434 137.784C271.657 138.171 270.841 138.473 270 138.686C269.174 138.902 268.326 139.027 267.473 139.059C266.632 139.07 265.792 139.01 264.961 138.88C265.777 138.639 266.586 138.546 267.356 138.305C268.126 138.093 268.882 137.834 269.619 137.527C271.069 136.955 272.415 136.145 273.6 135.132C274.803 134.129 275.865 132.967 276.757 131.679C277.677 130.339 278.479 128.921 279.152 127.441Z" fill="#263238"/>
<path d="M291.462 160.622C291.73 160.286 292.074 160.02 292.465 159.844C292.849 159.666 293.263 159.561 293.686 159.533C294.105 159.506 294.526 159.551 294.93 159.665C295.14 159.72 295.327 159.805 295.521 159.875C295.705 159.969 295.884 160.073 296.058 160.186C295.653 160.101 295.28 160.007 294.876 159.961C294.489 159.909 294.098 159.896 293.709 159.922C292.918 159.988 292.151 160.227 291.462 160.622Z" fill="#263238"/>
<path d="M284.782 174.051C284.9 173.712 285.104 173.41 285.373 173.173C285.647 172.915 285.996 172.754 286.37 172.713C286.743 172.673 287.119 172.755 287.442 172.947C287.593 173.039 287.738 173.141 287.877 173.25C287.994 173.383 288.118 173.507 288.227 173.639C287.933 173.48 287.629 173.34 287.317 173.219C287.026 173.116 286.716 173.076 286.407 173.103C285.772 173.219 285.197 173.555 284.782 174.051Z" fill="#263238"/>
<path d="M291.975 159.961C292.105 159.494 292.336 159.061 292.651 158.693C292.963 158.303 293.37 158.001 293.833 157.814C294.302 157.625 294.818 157.584 295.311 157.698C295.548 157.749 295.78 157.825 296.003 157.923C296.214 158.036 296.42 158.16 296.617 158.297C296.179 158.145 295.725 158.043 295.264 157.993C294.825 157.949 294.382 158.013 293.973 158.18C293.144 158.56 292.448 159.181 291.975 159.961Z" fill="#263238"/>
<path d="M275.979 183.296C276.23 182.792 276.588 182.35 277.029 182C277.47 181.651 277.982 181.403 278.53 181.274C279.082 181.148 279.653 181.135 280.21 181.235C280.473 181.29 280.732 181.361 280.987 181.445C281.244 181.554 281.493 181.663 281.765 181.787C281.241 181.664 280.708 181.581 280.171 181.538C279.649 181.495 279.125 181.534 278.616 181.655C277.587 181.914 276.666 182.487 275.979 183.296Z" fill="#263238"/>
<path d="M289.159 165.987C289.282 165.689 289.501 165.44 289.781 165.28C290.071 165.118 290.399 165.038 290.73 165.047C291.053 165.055 291.37 165.129 291.663 165.264C291.805 165.332 291.942 165.407 292.075 165.49C292.192 165.583 292.324 165.676 292.433 165.778L291.562 165.544C291.286 165.481 291.005 165.445 290.722 165.435C290.15 165.414 289.591 165.611 289.159 165.987Z" fill="#263238"/>
<path d="M288.748 166.648C288.965 166.409 289.26 166.254 289.58 166.212C289.905 166.158 290.239 166.196 290.544 166.321C290.836 166.448 291.1 166.63 291.322 166.858L291.625 167.216C291.703 167.348 291.788 167.472 291.858 167.612L291.128 167.083C290.882 166.925 290.622 166.792 290.35 166.687C289.839 166.477 289.269 166.464 288.748 166.648Z" fill="#263238"/>
<path d="M252.061 185.815C252.168 185.411 252.373 185.04 252.659 184.734C252.946 184.419 253.296 184.167 253.686 183.996C254.077 183.83 254.497 183.743 254.922 183.739C255.129 183.728 255.337 183.728 255.544 183.739C255.746 183.786 255.949 183.832 256.143 183.895C255.742 183.907 255.342 183.943 254.945 184.004C254.566 184.063 254.196 184.168 253.841 184.315C253.122 184.644 252.507 185.162 252.061 185.815Z" fill="#263238"/>
<path d="M283.53 175.801C283.687 175.496 283.91 175.23 284.183 175.023C284.45 174.809 284.75 174.638 285.07 174.518C285.384 174.394 285.714 174.316 286.05 174.284C286.385 174.252 286.723 174.27 287.053 174.339C286.428 174.48 285.813 174.66 285.21 174.875C284.611 175.108 284.046 175.419 283.53 175.801Z" fill="#263238"/>
<path d="M250.14 183.95C250.233 183.549 250.42 183.177 250.684 182.861C250.952 182.518 251.332 182.278 251.757 182.183C252.183 182.088 252.628 182.144 253.017 182.34C253.199 182.436 253.376 182.542 253.546 182.659C253.693 182.799 253.849 182.931 253.981 183.079C253.639 182.898 253.282 182.745 252.916 182.62C252.571 182.512 252.205 182.49 251.85 182.558C251.129 182.798 250.521 183.293 250.14 183.95Z" fill="#263238"/>
<path d="M265.645 187.729C265.64 187.194 265.746 186.665 265.956 186.173C266.162 185.64 266.55 185.197 267.052 184.922C267.575 184.672 268.175 184.636 268.724 184.82C268.99 184.908 269.25 185.015 269.502 185.139C269.727 185.295 269.953 185.435 270.17 185.598C269.906 185.512 269.673 185.404 269.393 185.31C269.138 185.227 268.878 185.16 268.615 185.108C268.137 185.001 267.636 185.055 267.192 185.264C266.762 185.506 266.41 185.868 266.181 186.306C265.947 186.757 265.767 187.235 265.645 187.729Z" fill="#263238"/>
<path d="M285.715 172.216C285.924 171.951 286.19 171.736 286.492 171.586C286.796 171.429 287.121 171.316 287.457 171.252C287.792 171.205 288.132 171.205 288.468 171.252C288.801 171.281 289.129 171.36 289.44 171.485C288.799 171.508 288.16 171.567 287.527 171.664C286.902 171.77 286.293 171.955 285.715 172.216Z" fill="#263238"/>
<path d="M244.237 177.838C244.237 177.838 259.261 188.094 270.575 184.968C283.187 181.485 290.792 162.986 294.789 151.57C294.789 151.57 286.718 182.791 270.303 185.832C255.38 188.615 244.237 177.838 244.237 177.838Z" fill="#263238"/>
<g opacity="0.2">
<path d="M242.729 80.6455C242.154 82.4884 241.718 84.3625 241.283 86.2443C240.847 88.1261 240.427 90.0001 240.023 91.8819C239.23 95.6559 238.491 99.435 237.807 103.219C236.392 110.783 235.14 118.372 234.051 125.988C233.001 133.608 232.053 141.236 231.532 148.88C231.011 156.524 230.715 164.215 231.625 171.734C231.843 173.597 232.193 175.442 232.675 177.255C232.916 178.146 233.212 179.021 233.561 179.875C233.917 180.719 234.343 181.531 234.836 182.302C236.815 185.565 239.163 188.589 241.835 191.314C247.2 196.843 253.779 201.197 260.746 204.774C262.488 205.669 264.269 206.508 266.065 207.325L268.771 208.561C269.238 208.779 269.65 208.958 270.171 209.253C270.744 209.582 271.18 210.107 271.399 210.731C271.7 211.794 271.678 212.922 271.337 213.973C271.056 214.941 270.687 215.881 270.233 216.781C269.347 218.544 268.306 220.225 267.122 221.804C264.745 224.946 262.056 227.84 259.098 230.443C256.164 233.091 252.918 235.371 249.432 237.232C252.777 235.182 255.883 232.767 258.693 230.031C261.5 227.355 264.027 224.4 266.236 221.213C267.321 219.644 268.278 217.99 269.098 216.267C269.491 215.428 269.803 214.553 270.031 213.655C270.268 212.855 270.268 212.004 270.031 211.205C269.92 210.898 269.698 210.642 269.409 210.49C269.066 210.319 268.561 210.101 268.126 209.914L265.388 208.756C263.561 207.978 261.741 207.154 259.945 206.283C252.68 202.907 246.032 198.336 240.28 192.76C238.863 191.355 237.534 189.864 236.298 188.297C235.051 186.744 233.908 185.11 232.877 183.406C232.324 182.542 231.843 181.634 231.438 180.692C231.049 179.761 230.722 178.805 230.458 177.83C229.939 175.919 229.557 173.972 229.315 172.006C228.873 168.135 228.688 164.238 228.763 160.342C228.81 156.454 229.004 152.566 229.323 148.74C229.984 141.034 230.972 133.367 232.239 125.747C233.507 118.126 234.984 110.552 236.664 103.017C237.529 99.2536 238.442 95.5029 239.401 91.7652C240.412 88.0172 241.384 84.2691 242.729 80.6455Z" fill="black"/>
<path d="M221.166 214.066C219.463 216.446 217.729 218.732 216.088 221.065C215.311 222.247 214.455 223.398 213.755 224.603C213.024 225.752 212.431 226.984 211.99 228.273C211.787 228.795 211.7 229.355 211.734 229.914C211.825 230.444 212.041 230.945 212.363 231.376C213.181 232.432 214.169 233.344 215.287 234.074C217.711 235.674 220.242 237.105 222.861 238.359C219.872 237.909 216.98 236.957 214.307 235.544C212.89 234.817 211.627 233.821 210.591 232.612C210.011 231.915 209.623 231.079 209.463 230.186C209.376 229.316 209.482 228.437 209.774 227.612C210.863 224.603 212.721 222.286 214.65 220.062C216.606 217.841 218.79 215.831 221.166 214.066Z" fill="black"/>
<path d="M225.792 235.195C225.743 235.187 225.698 235.161 225.667 235.122C225.635 235.084 225.619 235.035 225.621 234.985C225.638 234.887 225.675 234.794 225.73 234.712C225.837 234.553 225.959 234.404 226.096 234.269C226.362 233.996 226.642 233.736 226.936 233.492C227.526 233.009 228.149 232.582 228.771 232.154C230.027 231.312 231.324 230.533 232.659 229.821C235.354 228.374 238.198 227.224 241.142 226.392C241.909 226.19 242.689 226.037 243.475 225.933C244.295 225.817 245.128 225.817 245.948 225.933C246.403 226.003 246.842 226.15 247.246 226.369C247.722 226.616 248.088 227.032 248.273 227.535C248.413 228.002 248.413 228.499 248.273 228.966C248.159 229.369 247.995 229.756 247.783 230.117C246.979 231.441 245.941 232.608 244.719 233.562C243.57 234.561 242.254 235.35 240.831 235.894C242.088 235.111 243.232 234.159 244.229 233.064C245.239 232.058 246.086 230.901 246.741 229.635C247.028 229.142 247.125 228.561 247.013 228.002C246.881 227.667 246.383 227.426 245.722 227.356C244.316 227.269 242.906 227.44 241.562 227.862C240.133 228.236 238.726 228.691 237.348 229.223C235.948 229.728 234.579 230.311 233.203 230.894C231.827 231.478 230.481 232.115 229.152 232.784C228.475 233.111 227.822 233.46 227.177 233.834C226.85 234.02 226.539 234.215 226.236 234.425C226.085 234.529 225.945 234.646 225.816 234.775C225.707 234.891 225.575 235.109 225.792 235.195Z" fill="black"/>
<path d="M227.006 233.717C231.967 231.936 246.601 228.88 245.077 232.776C245.077 232.776 251.539 226.213 244.899 226.602C238.258 226.99 227.006 233.717 227.006 233.717Z" fill="black"/>
<path d="M236.034 240.201C235.769 241.679 235.412 243.102 235.038 244.517C234.875 245.225 234.665 245.924 234.517 246.616C234.344 247.275 234.22 247.946 234.144 248.623C234.163 249.276 234.255 249.925 234.416 250.559C234.564 251.251 234.766 251.943 234.945 252.643C235.326 254.05 235.723 255.466 236.034 256.935C234.713 255.108 233.687 253.085 232.993 250.94C232.733 250.165 232.599 249.354 232.597 248.537C232.67 247.742 232.84 246.959 233.102 246.204C233.343 245.489 233.592 244.781 233.88 244.097C234.472 242.733 235.193 241.428 236.034 240.201Z" fill="black"/>
<path d="M243.203 242.869C243.939 243.744 244.52 244.738 244.922 245.808C245.372 246.908 245.586 248.089 245.551 249.277C245.531 249.599 245.484 249.919 245.411 250.233L245.17 251.011C244.992 251.539 244.836 252.068 244.626 252.566C244.248 253.624 243.771 254.645 243.203 255.614C243.183 254.492 243.267 253.37 243.452 252.263C243.522 251.711 243.646 251.182 243.74 250.637L243.918 249.86C243.963 249.637 243.992 249.411 244.004 249.183C244.025 248.159 243.942 247.135 243.755 246.127C243.576 245.07 243.366 243.997 243.203 242.869Z" fill="black"/>
<path d="M181.353 134.447C185.452 136.397 189.071 139.228 191.951 142.737C194.878 146.192 197.365 149.998 199.354 154.066C199.828 155.093 200.318 156.111 200.769 157.177L202.029 160.287L203.102 163.499C203.429 164.579 203.701 165.676 203.996 166.764C205.113 171.136 205.574 175.648 205.365 180.155C204.975 175.721 204.122 171.34 202.822 167.083C201.568 162.837 199.952 158.706 197.993 154.735C196.041 150.77 193.697 147.011 190.995 143.514C188.343 139.945 185.078 136.875 181.353 134.447Z" fill="black"/>
</g>
<g opacity="0.1">
<path d="M172.542 190.404C172.092 190.865 171.673 191.356 171.29 191.874L170.1 193.39C169.297 194.427 168.477 195.428 167.643 196.392C165.942 198.359 164.102 200.202 162.137 201.905C158.194 205.357 153.689 208.108 148.817 210.039C146.37 210.979 143.85 211.718 141.282 212.247C138.716 212.727 136.116 213.003 133.506 213.071C128.31 213.145 123.131 212.445 118.141 210.995C123.197 211.842 128.331 212.134 133.452 211.866C135.987 211.68 138.507 211.324 140.994 210.801C143.47 210.256 145.898 209.518 148.257 208.592C152.987 206.724 157.409 204.155 161.375 200.972C163.375 199.381 165.286 197.681 167.099 195.879C168.016 194.977 168.91 194.059 169.797 193.126C170.647 192.156 171.564 191.246 172.542 190.404Z" fill="black"/>
<path d="M245.653 181.05C249.109 183.072 252.756 184.75 256.54 186.058C260.273 187.371 264.164 188.181 268.111 188.469C270.055 188.618 272.011 188.508 273.927 188.142C275.846 187.753 277.709 187.123 279.471 186.268C283.052 184.499 286.267 182.072 288.95 179.114C287.813 180.799 286.473 182.337 284.961 183.694C283.455 185.084 281.786 186.288 279.992 187.279C276.356 189.338 272.194 190.281 268.025 189.993C263.924 189.745 259.893 188.817 256.097 187.248C254.219 186.48 252.399 185.575 250.653 184.542C248.885 183.53 247.212 182.362 245.653 181.05Z" fill="black"/>
<path d="M175.193 178.507C172.519 172.566 169.688 166.758 166.469 161.174L165.256 159.067L163.98 157.022C163.576 156.322 163.117 155.661 162.674 154.985C162.231 154.308 161.811 153.624 161.329 152.978C159.509 150.311 157.495 147.8 155.435 145.265C157.966 147.346 160.268 149.692 162.301 152.263C164.342 154.828 166.185 157.544 167.814 160.389C169.437 163.225 170.881 166.16 172.137 169.176C173.413 172.196 174.435 175.317 175.193 178.507Z" fill="black"/>
<path d="M83.6855 168.531C88.1186 162.263 92.9524 156.289 98.1567 150.646C100.755 147.763 103.605 145.117 106.672 142.738C107.068 142.45 107.504 142.193 107.916 141.96C108.33 141.667 108.767 141.407 109.222 141.183C110.126 140.752 111.065 140.401 112.029 140.133C113.915 139.615 115.839 139.248 117.783 139.036C125.484 138.337 133.242 138.645 140.863 139.954C148.437 141.214 156.003 143.189 162.783 146.82C159.27 145.299 155.626 144.1 151.897 143.235C148.199 142.35 144.456 141.665 140.684 141.183C136.913 140.693 133.118 140.35 129.315 140.234C125.527 140.082 121.733 140.206 117.962 140.607C116.098 140.797 114.252 141.135 112.441 141.618C111.559 141.852 110.7 142.167 109.875 142.559C109.463 142.751 109.068 142.978 108.693 143.235C108.304 143.484 107.916 143.702 107.527 144.013C104.496 146.287 101.654 148.801 99.0277 151.532C96.3449 154.238 93.7477 157.046 91.205 159.899C88.6622 162.753 86.1661 165.607 83.6855 168.531Z" fill="black"/>
<path d="M240.419 169.883C240.76 166.583 241.494 163.336 242.604 160.21C244.745 153.91 247.896 148.001 251.935 142.714C252.899 141.361 254.019 140.132 255.092 138.88C256.165 137.628 257.425 136.501 258.592 135.365C257.658 136.734 256.616 138.001 255.691 139.354C254.766 140.707 253.794 142.022 252.923 143.413L251.593 145.466L250.333 147.558C249.898 148.242 249.501 148.958 249.105 149.673C248.708 150.389 248.281 151.081 247.931 151.812L246.788 153.973L245.722 156.166C245.022 157.636 244.361 159.129 243.732 160.63C242.459 163.651 241.353 166.74 240.419 169.883Z" fill="black"/>
<path d="M254.759 135.537C258.284 132.81 262.109 130.494 266.158 128.632C268.2 127.687 270.314 126.907 272.48 126.299C274.689 125.682 276.977 125.399 279.269 125.459C279.869 125.476 280.466 125.557 281.05 125.7C281.632 125.855 282.199 126.06 282.745 126.314C283.798 126.813 284.788 127.437 285.692 128.173C287.426 129.617 288.991 131.252 290.357 133.048C293.085 136.577 295.385 140.417 297.208 144.487C296.011 142.621 294.805 140.77 293.483 138.997C292.162 137.224 290.847 135.475 289.417 133.826C288.016 132.177 286.453 130.674 284.751 129.339C283.056 128.056 281.19 127.006 279.152 127.006C277.014 126.93 274.876 127.168 272.807 127.714C270.689 128.237 268.611 128.908 266.586 129.72C264.549 130.529 262.543 131.423 260.567 132.403C258.647 133.406 256.672 134.44 254.759 135.537Z" fill="black"/>
</g>
<path d="M245.878 101.703C246.656 104.557 247.184 107.434 247.752 110.303L248.584 114.619C248.872 116.05 249.136 117.488 249.494 118.919C248.867 117.576 248.364 116.179 247.993 114.744C247.596 113.321 247.278 111.882 246.99 110.436C246.418 107.554 246.046 104.636 245.878 101.703Z" fill="#FFC4C0"/>
<path d="M249.829 111.92C250.257 113.428 250.607 114.945 250.972 116.461C251.151 117.239 251.353 117.97 251.54 118.724C251.731 119.481 251.964 120.226 252.24 120.956C251.826 120.286 251.497 119.568 251.26 118.817C251.002 118.075 250.781 117.319 250.599 116.554C250.42 115.777 250.249 114.999 250.125 114.222C250 113.444 249.884 112.698 249.829 111.92Z" fill="#FFC4C0"/>
<path d="M316.57 115.319C315.598 114.082 314.696 112.815 313.763 111.563C313.312 110.933 312.837 110.311 312.371 109.689C311.905 109.065 311.404 108.468 310.87 107.9C311.508 108.363 312.089 108.898 312.604 109.494C313.125 110.085 313.615 110.7 314.082 111.33C314.548 111.959 314.984 112.613 315.396 113.274C315.822 113.935 316.214 114.618 316.57 115.319Z" fill="#FFC4C0"/>
<path d="M218.351 69.4242C231.461 68.7244 244.929 68.1023 257.348 63.4444C264.214 60.841 270.497 56.905 275.835 51.863C281.173 46.821 285.461 40.7728 288.452 34.0666C288.623 33.67 289.23 33.95 289.074 34.3543C279.074 57.939 258.048 68.6077 233.452 71.1038C205.769 73.9188 175.132 70.5595 156.283 95.3806C155.925 95.8472 155.093 95.3806 155.388 94.8208C167.449 73.0012 196.259 70.5984 218.351 69.4242Z" fill="#455A64"/>
<path d="M199.106 65.0706C216.594 58.702 231.602 48.6942 241.796 32.8156C241.967 32.5512 242.449 32.8156 242.278 33.1189C234.075 46.7347 222.644 57.2246 208.064 63.6787C191.664 70.9648 172.815 74.083 160.63 88.3753C160.588 88.4199 160.531 88.4469 160.47 88.4511C160.409 88.4552 160.349 88.4361 160.302 88.3977C160.255 88.3592 160.224 88.3042 160.215 88.2438C160.207 88.1834 160.222 88.122 160.257 88.0721C169.541 74.9928 184.72 70.3038 199.106 65.0706Z" fill="#455A64"/>
<path d="M283.654 40.9101C283.794 41.8588 283.895 42.8386 283.981 43.8572C284.874 42.8724 285.819 41.9354 286.811 41.0501C291.026 37.2398 299.564 30.9412 309.572 31.3611C315.108 31.5944 306.959 19.0439 299.175 16.2523C297.068 15.4747 291.578 22.3954 291.578 22.3954C291.578 22.3954 291.43 13.4296 289.198 12.8153C286.967 12.201 278.662 10.3114 272.978 14.0284C269.61 16.2368 281.088 22.2943 283.654 40.9101Z" fill="#FFC727"/>
<path d="M233.157 17.2002C231.345 18.5455 238.227 26.8347 237.139 38.3044C237.092 38.9576 236.991 39.6185 236.882 40.2951C236.882 40.2951 237.325 39.9918 238.095 39.5175C241.47 37.4102 251.104 31.8347 258.546 32.2391C261.656 32.4102 256.33 22.5813 251.96 21.2593C250.537 20.8239 244.961 25.8316 244.961 25.8316C244.961 25.8316 247.061 19.2609 246.089 18.1722C245.117 17.0836 236.571 14.6886 233.157 17.2002Z" fill="#FFC727"/>
<path d="M190.506 74.3083C204.044 68.4218 219.199 71.2445 232.745 75.3658C249.985 80.6069 266.252 83.9661 283.188 75.4591C283.523 75.2881 283.849 75.7624 283.515 75.949C269.813 83.5773 255.521 84.1605 240.591 80.0548C232.59 77.8464 224.759 74.8915 216.54 73.5696C207.582 72.1388 199.433 73.4529 190.661 75.1248C190.164 75.187 190.101 74.4483 190.506 74.3083Z" fill="#455A64"/>
<path d="M281.796 75.8637C281.529 76.2352 281.236 76.5861 280.917 76.9135C281.432 76.8345 281.951 76.7903 282.472 76.7813C287.307 76.7004 292.1 77.6798 296.516 79.6507C298.195 80.3583 299.937 74.2463 298.444 70.4127C297.869 68.9586 291.827 69.6973 291.827 69.6973C291.827 69.6973 295.342 65.8093 294.937 64.6818C294.533 63.5543 288.973 60.1795 284.051 61.4236C282.153 61.8669 285.917 70.125 281.796 75.8637Z" fill="#FFC727"/>
<path d="M281.796 75.8636C281.529 76.2351 281.236 76.586 280.917 76.9134C281.432 76.8344 281.951 76.7902 282.472 76.7812C285.458 75.5292 288.421 74.5339 291.803 74.775C291.897 74.775 291.912 74.6428 291.803 74.6272C289.446 74.317 287.048 74.5674 284.805 75.3582C286.259 74.4743 287.61 73.4311 288.833 72.2478C288.887 72.2011 288.833 72.1311 288.763 72.1622C287.033 73.3768 285.237 74.4931 283.382 75.5059C285.421 73.5744 287.034 71.2384 288.118 68.6475H288.071C286.685 71.5858 284.513 74.0833 281.796 75.8636Z" fill="white"/>
<path d="M283.647 26.4464C284.639 31.2165 284.639 36.1396 283.647 40.9098C283.787 41.8585 283.888 42.8382 283.974 43.8569C284.867 42.8721 285.812 41.935 286.804 41.0498C289.521 37.0186 293.125 33.6641 297.341 31.2442C297.512 31.1586 297.38 30.9409 297.224 30.9953C292.481 32.7061 288.71 36.1897 285.848 40.3266C287.577 36.2113 288.665 31.8555 289.075 27.4106C289.075 27.1695 288.764 27.1695 288.717 27.4106C288.016 31.5894 286.796 35.6644 285.086 39.5412C285.571 35.1236 285.172 30.6537 283.912 26.3919C283.904 26.3569 283.884 26.3261 283.854 26.3064C283.824 26.2867 283.787 26.2797 283.752 26.287C283.717 26.2942 283.686 26.315 283.667 26.3449C283.647 26.3748 283.64 26.4113 283.647 26.4464Z" fill="white"/>
<path d="M239.985 27.6521C239.881 31.3723 238.912 35.0171 237.154 38.2975C237.107 38.9507 237.006 39.6116 236.897 40.2882C236.897 40.2882 237.341 39.9849 238.111 39.5106C238.258 39.3317 238.39 39.1529 238.53 38.974C241.742 35.6614 245.412 32.7532 249.596 31.8045C249.609 31.7997 249.621 31.7908 249.63 31.779C249.638 31.7671 249.643 31.7529 249.643 31.7384C249.643 31.7239 249.638 31.7097 249.63 31.6979C249.621 31.686 249.609 31.6771 249.596 31.6723C246.571 31.7889 243.593 33.3286 240.91 35.467C242.181 33.3859 243.311 31.2219 244.292 28.9896C244.292 28.9896 244.292 28.9274 244.254 28.9896C242.577 31.9297 240.712 34.7584 238.67 37.4577C239.768 34.3102 240.253 30.9819 240.101 27.6521C240.101 27.5821 239.985 27.5821 239.985 27.6521Z" fill="white"/>
<path d="M185.956 74.2305C185.956 74.2305 204.362 89.6504 215.87 87.0065C227.379 84.3626 185.956 74.2305 185.956 74.2305Z" fill="#455A64"/>
<path d="M244.285 67.1933C244.285 67.1933 250.506 44.0052 261.478 39.5806C272.45 35.156 244.285 67.1933 244.285 67.1933Z" fill="#455A64"/>
<path d="M166.648 304.479C178.382 294.487 194.704 284.013 210.731 283.266C196.578 280.63 181.096 281.656 167.519 283.647C151.889 285.941 136.221 289.137 120.342 288.515C104.463 287.893 90.0155 282.434 75.5132 276.26C75.3654 276.198 75.5132 275.972 75.6298 276.034C93.4369 283.196 111.656 287.698 130.941 286.392C144.401 285.498 157.636 282.737 170.98 280.855C162.006 281.167 153.095 281.112 144.44 278.204C137.533 275.869 131.163 272.175 125.706 267.339C120.249 262.503 115.816 256.623 112.667 250.047C112.504 249.697 113.095 249.401 113.281 249.744C120.964 263.577 134.23 274.153 149.704 277.652C162.768 280.638 176.376 277.652 189.525 279.137C213.351 278.6 239.518 285.358 249.479 309.292C249.657 309.712 248.965 310.07 248.763 309.65C242.224 296.641 231.555 289.238 219.214 285.35C200.552 282.535 182.83 295.156 166.983 304.977C166.918 304.998 166.848 304.998 166.784 304.976C166.72 304.954 166.664 304.912 166.626 304.855C166.588 304.799 166.57 304.731 166.574 304.663C166.578 304.595 166.604 304.531 166.648 304.479Z" fill="#455A64"/>
<path d="M114.852 255.529C115.677 255.902 116.524 256.306 117.395 256.812C117.395 256.812 117.271 256.034 117.201 254.634C116.899 246.562 118.703 238.549 122.434 231.384C123.989 228.406 110.148 226.804 105.599 229.984C102.831 231.897 106.097 238.048 105.871 238.281C105.646 238.515 101.003 234.199 98.7404 234.938C96.4776 235.676 91.3921 246.602 93.5693 254.541C93.7948 255.288 101.089 249.113 114.852 255.529Z" fill="#FFC727"/>
<path d="M83.8184 281.804C84.9114 281.585 86.024 281.478 87.1388 281.486H87.2865C88.2365 281.487 89.1841 281.579 90.117 281.758C89.3659 281.17 88.6566 280.531 87.9942 279.845C84.3239 276.136 77.4421 267.022 80.2181 252.963C80.568 251.245 66.4234 251.369 61.369 261.587C60.2881 263.78 66.7578 271.828 66.7578 271.828C66.7578 271.828 56.6878 270.654 55.5992 273.328C54.5105 276.003 54.2306 286.47 62.0611 295.521C62.9242 296.501 72.4265 283.982 83.8184 281.804Z" fill="#FFC727"/>
<path d="M172.007 322.644C173.881 322.045 166.105 316.679 167.691 304.938C167.701 304.789 167.719 304.641 167.745 304.494C167.751 304.428 167.764 304.363 167.784 304.3C167.831 303.989 167.877 303.678 167.947 303.351C167.475 303.607 166.99 303.838 166.493 304.043C163.834 305.132 157.94 306.851 152.986 303.468C150.895 302.045 150.304 311.197 155.545 315.529C156.579 316.368 160.988 313.585 160.988 313.585C160.988 313.585 160.109 317.994 160.887 319.603C161.664 321.213 168.756 323.678 172.007 322.644Z" fill="#FFC727"/>
<path d="M117.395 256.812C117.395 256.812 117.271 256.034 117.201 254.635C115.116 249.936 114.448 244.731 115.28 239.658C115.28 239.641 115.274 239.626 115.262 239.614C115.25 239.602 115.234 239.596 115.218 239.596C115.201 239.596 115.186 239.602 115.174 239.614C115.162 239.626 115.156 239.641 115.156 239.658C114.054 244.37 114.126 249.28 115.366 253.958C113.362 251.366 111.671 248.547 110.327 245.56C110.315 245.531 110.293 245.508 110.265 245.495C110.236 245.483 110.204 245.482 110.175 245.494C110.146 245.505 110.123 245.528 110.111 245.556C110.098 245.584 110.098 245.617 110.109 245.645C111.257 248.752 112.743 251.722 114.541 254.502C113.019 253.498 111.402 252.646 109.712 251.96C109.604 251.905 109.534 252.068 109.642 252.123C111.495 253.08 113.241 254.229 114.852 255.552C115.677 255.902 116.524 256.338 117.395 256.812Z" fill="white"/>
<path d="M76.8506 276.711C80.224 278.523 83.7096 280.117 87.286 281.485C88.2359 281.487 89.1836 281.579 90.1165 281.758C89.3654 281.17 88.6561 280.531 87.9936 279.845C83.4135 277.403 79.4944 274.176 76.9516 269.075C76.8972 268.974 76.7417 269.028 76.7806 269.137C78.8179 273.951 82.4571 277.52 86.7806 280.156C83.468 279.052 80.1787 277.87 76.9283 276.54C76.9056 276.53 76.8798 276.529 76.8565 276.537C76.8331 276.546 76.8142 276.564 76.8039 276.587C76.7936 276.609 76.7927 276.635 76.8015 276.658C76.8102 276.682 76.8279 276.701 76.8506 276.711Z" fill="white"/>
<path d="M72.3718 282.379C76.1226 281.507 79.9989 281.312 83.8182 281.803C84.9112 281.584 86.0238 281.477 87.1385 281.484C82.2231 280.665 77.1907 280.883 72.3641 282.122C72.1774 282.153 72.2085 282.425 72.3718 282.379Z" fill="white"/>
<path d="M162.286 311.376C163.722 308.735 165.579 306.345 167.784 304.3C167.831 303.989 167.877 303.678 167.947 303.352C167.475 303.607 166.989 303.838 166.493 304.044C163.958 305.646 161.174 306.664 158.01 306.252C157.995 306.252 157.981 306.258 157.971 306.268C157.961 306.278 157.955 306.292 157.955 306.306C157.955 306.321 157.961 306.335 157.971 306.345C157.981 306.355 157.995 306.361 158.01 306.361C160.739 306.905 163.873 306.143 166.688 304.689C164.727 306.55 163.2 308.82 162.216 311.338C162.217 311.346 162.219 311.353 162.223 311.36C162.227 311.367 162.233 311.373 162.24 311.377C162.247 311.381 162.255 311.383 162.263 311.383C162.271 311.383 162.279 311.38 162.286 311.376Z" fill="white"/>
<path d="M165.249 312.535C165.504 309.855 166.337 307.263 167.691 304.937C167.701 304.789 167.719 304.641 167.745 304.494C165.934 306.775 164.989 309.623 165.078 312.535C165.086 312.628 165.234 312.628 165.249 312.535Z" fill="white"/>
<path d="M234.821 291.866C234.821 291.866 224.495 269.393 212.621 266.78C200.747 264.168 234.821 291.866 234.821 291.866Z" fill="#455A64"/>
<path d="M189.525 279.137C189.525 279.137 169.448 258.919 163.413 263.694C158.048 267.932 189.525 279.137 189.525 279.137Z" fill="#455A64"/>
</svg>
