<svg width="50" height="50" viewBox="0 0 50 50" fill="none" xmlns="http://www.w3.org/2000/svg">
<path d="M45.7031 41.6406L39.0625 7.03125C38.8281 5.78125 38.125 4.60937 37.0313 3.90625C35.9375 3.20312 34.6875 2.89062 33.3594 3.125L27.9688 4.14062C27.1875 2.5 25.4688 1.32812 23.5938 1.32812H16.3281H9.0625C6.32813 1.40625 4.14062 3.59375 4.14062 6.25V43.75C4.14062 46.4062 6.32813 48.6719 9.0625 48.6719H16.3281H23.5938C26.25 48.6719 28.5156 46.4844 28.5156 43.75V21.3281L32.8125 44.1406C33.0469 45.3906 33.75 46.5625 34.8437 47.2656C35.625 47.8125 36.6406 48.125 37.5781 48.125C37.8906 48.125 38.2031 48.125 38.5156 48.0469L41.875 47.4219C44.5312 46.875 46.25 44.2969 45.7031 41.6406ZM24.9219 6.25V15.4687H18.0469V4.92188H23.5156C24.2969 4.92188 24.9219 5.46875 24.9219 6.25ZM14.5313 35.4687H7.65625V16.7187H14.5313V35.4687ZM18.0469 18.9844H24.9219V30.3125H18.0469V18.9844ZM9.0625 4.92188H14.5313V13.2812H7.65625V6.25C7.65625 5.46875 8.28125 4.92188 9.0625 4.92188ZM7.65625 43.75V38.9844H14.5313V45.0781H9.0625C8.28125 45.1562 7.65625 44.5312 7.65625 43.75ZM23.5938 45.1562H18.125V33.8281H25V43.75C24.9219 44.5312 24.2969 45.1562 23.5938 45.1562ZM41.1719 43.9062L37.8906 44.5312C37.5 44.6094 37.1875 44.5312 36.875 44.2969C36.5625 44.0625 36.4063 43.75 36.3281 43.4375L29.375 7.5L34.0625 6.64062C34.4531 6.5625 34.7656 6.64062 35.0781 6.875C35.3906 7.10937 35.5469 7.42187 35.625 7.73437L42.2656 42.3437C42.4219 43.0469 41.9531 43.75 41.1719 43.9062Z" fill="#1C3FB7"/>
</svg>
