<svg width="272" height="254" viewBox="0 0 272 254" fill="none" xmlns="http://www.w3.org/2000/svg">
<path d="M269.203 161.358C273.086 158.584 273.058 151.408 268.123 149.867C271.534 146.455 270.499 139.098 265.558 138.643C266.769 135.629 266.172 131.496 262.3 130.734C263.528 127.038 260.105 124.479 256.671 125.798C256.517 121.903 250.985 121.676 249.757 124.422C249.819 122.91 247.562 120.118 246.112 120.112C248.614 118.151 247.926 114.222 245.777 113.698C248.699 111.487 247.13 106.426 243.644 106.471C245.981 102.787 240.989 98.9319 237.89 100.069C239.647 95.924 231.437 92.6261 229.662 97.0157C229.731 96.8451 228.975 96.123 228.849 96.0036C228.529 95.6986 228.172 95.435 227.786 95.2189C226.993 94.7891 226.12 94.5278 225.222 94.4513C223.341 94.2726 221.454 94.7203 219.854 95.725C219.01 96.2452 218.299 96.956 217.779 97.8004C217.529 98.2116 217.338 98.6556 217.21 99.1195C217.04 99.7677 217.21 100.399 217.04 101.03C215.984 100.755 214.864 100.904 213.917 101.445C212.97 101.986 212.272 102.876 211.973 103.924C211.725 102.929 211.343 101.973 210.836 101.081C210.386 100.341 209.746 99.7344 208.983 99.3242C208.152 98.8921 207.447 98.3633 206.452 98.4258C209.432 94.6048 203.388 90.1584 200.198 93.189C198.702 89.6808 193.374 90.4199 193.721 94.5366C192.533 92.393 190.213 92.5408 188.303 93.6894C185.664 95.2701 186.028 98.0903 187.467 100.376C186.375 99.0683 183.037 98.3519 182.531 100.513C182.318 100.229 182.05 99.9919 181.742 99.8156C181.435 99.6393 181.094 99.5275 180.742 99.4871C180.39 99.4467 180.033 99.4784 179.694 99.5804C179.354 99.6824 179.039 99.8526 178.767 100.08C177.784 96.5381 171.438 96.1002 170.238 100.444C167.793 99.0342 165.206 103.02 165.832 105.266L138.203 105.204H133.848L106.22 105.266C106.845 103.02 104.258 99.0115 101.813 100.444C100.613 96.0775 94.2677 96.5381 93.284 100.08C93.0123 99.8526 92.6971 99.6824 92.3576 99.5804C92.018 99.4784 91.6612 99.4467 91.309 99.4871C90.9568 99.5275 90.6165 99.6393 90.3088 99.8156C90.0012 99.9919 89.7328 100.229 89.5199 100.513C89.0138 98.3519 85.6761 99.0683 84.5844 100.376C86.0343 98.1017 86.3869 95.2587 83.7486 93.6894C81.8381 92.5522 79.5182 92.393 78.3298 94.5366C78.6824 90.4199 73.3432 89.6808 71.8535 93.189C68.6409 90.1584 62.5967 94.6048 65.5989 98.4258C64.6038 98.3633 63.8931 98.8921 63.0686 99.3242C62.3054 99.7344 61.6655 100.341 61.215 101.081C60.7085 101.973 60.3259 102.929 60.0778 103.924C59.7788 102.876 59.0813 101.986 58.1344 101.445C57.1876 100.904 56.0667 100.755 55.0116 101.03C54.8353 100.399 55.0116 99.7677 54.841 99.1195C54.7134 98.6556 54.5221 98.2116 54.2724 97.8004C53.7521 96.956 53.0413 96.2452 52.197 95.725C50.5971 94.7203 48.7101 94.2726 46.8294 94.4513C45.9309 94.5278 45.0578 94.7891 44.265 95.2189C43.8792 95.435 43.522 95.6986 43.2018 96.0036C43.0767 96.123 42.3204 96.8451 42.3887 97.0157C40.6146 92.6261 32.4041 95.924 34.161 100.069C31.0622 98.9319 26.0699 102.787 28.4068 106.471C24.9213 106.426 23.352 111.487 26.2746 113.698C24.1253 114.222 23.4316 118.151 25.9391 120.112C24.4892 120.112 22.2318 122.91 22.2944 124.422C21.0548 121.676 15.528 121.903 15.3802 125.798C11.9686 124.473 8.5229 127.038 9.75107 130.734C5.87891 131.496 5.28188 135.629 6.493 138.643C1.48364 139.081 0.454475 146.472 3.86038 149.884C-1.07506 151.425 -1.10349 158.601 2.78005 161.375C0.209977 162.604 -0.0629502 168.568 4.14468 170.217C4.03665 170.314 3.9343 170.416 3.83764 170.519C1.36992 173.157 3.42825 177.495 7.03885 177.495H264.944C268.555 177.495 270.63 173.157 268.145 170.519C268.049 170.416 267.946 170.314 267.838 170.217C272.029 168.551 271.773 162.587 269.203 161.358Z" fill="#EBEBEB"/>
<path d="M37.8285 103.009C38.2378 102.547 38.7499 102.188 39.3234 101.96C39.897 101.732 40.516 101.643 41.1307 101.698C41.7453 101.753 42.3383 101.952 42.862 102.279C43.3857 102.605 43.8254 103.05 44.1456 103.578C44.6721 103.138 45.3041 102.843 45.9793 102.722C46.6544 102.601 47.3494 102.659 47.9958 102.888C48.6421 103.118 49.2174 103.512 49.665 104.032C50.1125 104.551 50.4169 105.179 50.5481 105.852C50.0475 105.255 49.4063 104.791 48.6821 104.503C47.9579 104.214 47.1734 104.111 46.3992 104.201C45.625 104.291 44.8854 104.573 44.2469 105.02C43.6084 105.466 43.091 106.065 42.7412 106.762C42.7143 106.543 42.7143 106.321 42.7412 106.102C42.8119 105.563 42.9939 105.044 43.2757 104.578C43.1497 104.425 43.0128 104.28 42.8663 104.146C42.132 103.496 41.2125 103.091 40.2368 102.989C39.261 102.887 38.2778 103.093 37.4248 103.578C37.5402 103.375 37.6754 103.185 37.8285 103.009Z" fill="#E0E0E0"/>
<path d="M80.2232 101.946C79.9575 101.646 79.6353 101.402 79.2751 101.227C78.915 101.052 78.5238 100.95 78.1241 100.926C77.7243 100.902 77.3238 100.957 76.9455 101.088C76.5671 101.219 76.2183 101.424 75.9189 101.69C75.6953 101.884 75.5034 102.113 75.3503 102.366C74.9435 102.03 74.4562 101.804 73.936 101.712C73.4159 101.62 72.8808 101.664 72.3829 101.84C71.885 102.017 71.4414 102.319 71.0955 102.719C70.7495 103.118 70.5131 103.6 70.4092 104.118C70.7966 103.655 71.2931 103.297 71.854 103.075C72.4148 102.853 73.0222 102.774 73.6211 102.845C74.2201 102.917 74.7917 103.137 75.2842 103.485C75.7768 103.834 76.1747 104.299 76.442 104.84C76.4618 104.666 76.4618 104.491 76.442 104.317C76.3887 103.9 76.2493 103.499 76.0326 103.14C76.1294 103.023 76.2339 102.913 76.3454 102.81C76.9112 102.308 77.6199 101.995 78.3724 101.915C79.1248 101.836 79.8833 101.994 80.5416 102.366C80.4498 102.216 80.3431 102.075 80.2232 101.946Z" fill="#E0E0E0"/>
<path d="M33.564 124.104C33.1148 123.49 31.1077 123.734 30.4651 123.859C29.8515 123.973 29.2698 124.219 28.76 124.579C28.2502 124.939 27.8243 125.405 27.5116 125.945C27.1988 126.485 27.0066 127.087 26.9482 127.708C26.8897 128.33 26.9664 128.956 27.1729 129.545C26.5191 129.395 25.8357 129.435 25.2041 129.661C24.5724 129.888 24.0192 130.291 23.6101 130.823C23.201 131.355 22.9533 131.993 22.8964 132.662C22.8396 133.33 22.976 134.001 23.2894 134.594C20.7421 134.026 16.8301 134.464 14.84 136.397C13.7483 137.454 13.3276 139.274 14.1577 140.548C14.0042 140.309 11.997 140.286 10.3481 141.31C9.84624 141.642 9.43008 142.088 9.13361 142.612C8.83715 143.135 8.6688 143.722 8.6423 144.323C8.57407 145.665 9.2109 147.479 9.81362 148.121C9.68284 147.871 8.13625 148.946 7.99979 149.071C7.49556 149.535 7.12122 150.123 6.91376 150.777C6.83665 151.073 6.82484 151.383 6.87915 151.684C6.93347 151.986 7.05261 152.272 7.22834 152.523C7.40408 152.774 7.6322 152.983 7.89695 153.137C8.1617 153.292 8.45675 153.386 8.76171 153.415C7.73805 153.827 6.85396 154.523 6.21438 155.422C5.90233 155.875 5.71223 156.401 5.66244 156.949C5.61264 157.496 5.70482 158.048 5.93008 158.55C6.59535 159.835 8.15899 160.306 9.56343 160.653C9.12288 161.12 8.80178 161.687 8.62753 162.305C8.45327 162.922 8.43103 163.573 8.5627 164.201C8.71825 164.827 9.08773 165.377 9.60703 165.759C10.1263 166.14 10.7627 166.327 11.4057 166.288C10.7393 166.721 10.2251 167.351 9.93528 168.091C9.64542 168.831 9.59443 169.642 9.78948 170.413C9.98452 171.183 10.4158 171.873 11.0228 172.385C11.6298 172.898 12.3821 173.207 13.174 173.271C12.4633 173.231 11.9288 174.703 11.7525 175.175C11.4284 176.017 10.9849 176.625 10.5585 177.45H7.03885C3.42825 177.45 1.35286 173.111 3.83764 170.473C3.9343 170.371 4.03665 170.268 4.14468 170.172C-0.0458921 168.523 0.209977 162.558 2.78005 161.33C-1.10349 158.555 -1.07506 151.379 3.86038 149.839C0.448789 146.427 1.48364 139.069 6.42477 138.614C5.21365 135.601 5.81068 131.467 9.68284 130.705C8.45467 127.009 11.8776 124.451 15.312 125.77C15.4655 121.875 20.998 121.647 22.2261 124.394C22.1636 122.881 24.4209 120.089 25.8709 120.084C23.369 118.122 24.057 114.193 26.2063 113.67C23.2837 111.458 24.8531 106.398 28.3386 106.443C26.4849 103.515 29.2483 100.484 32.0174 99.9326C31.011 101.07 30.0956 102.542 30.829 104.083C31.4829 105.465 33.2626 105.71 34.4396 106.284C31.6365 107.233 30.3571 110.042 32.4382 112.504C29.5952 112.863 29.2199 116.655 30.3571 118.19C31.0622 117.582 32.5178 117.445 33.5811 117.65C35.0082 117.917 35.7815 118.645 37.0666 120.078C34.5306 118.151 31.9378 121.898 33.564 124.104Z" fill="#E0E0E0"/>
<path d="M232.897 108.763C232.198 107.984 231.22 107.512 230.175 107.449C229.129 107.386 228.102 107.738 227.314 108.428C227.028 108.683 226.783 108.98 226.586 109.309C226.059 108.871 225.427 108.578 224.752 108.458C224.078 108.338 223.383 108.395 222.738 108.625C222.092 108.854 221.517 109.247 221.069 109.766C220.621 110.285 220.316 110.911 220.184 111.583C220.686 110.984 221.33 110.52 222.057 110.232C222.784 109.944 223.571 109.842 224.348 109.934C225.124 110.027 225.865 110.311 226.504 110.762C227.143 111.213 227.66 111.815 228.008 112.516C228.023 112.29 228.014 112.063 227.979 111.839C227.913 111.299 227.73 110.779 227.445 110.315C227.571 110.16 227.71 110.016 227.86 109.883C228.592 109.232 229.511 108.826 230.486 108.724C231.461 108.622 232.444 108.829 233.295 109.315C233.184 109.116 233.05 108.931 232.897 108.763Z" fill="#E0E0E0"/>
<path d="M191.76 101.946C192.026 101.646 192.348 101.402 192.708 101.227C193.068 101.052 193.459 100.95 193.859 100.926C194.259 100.902 194.659 100.957 195.038 101.088C195.416 101.219 195.765 101.424 196.064 101.69C196.288 101.884 196.48 102.113 196.633 102.366C197.04 102.03 197.527 101.804 198.047 101.712C198.567 101.62 199.102 101.664 199.6 101.84C200.098 102.017 200.542 102.319 200.888 102.719C201.233 103.118 201.47 103.6 201.574 104.118C201.186 103.655 200.69 103.297 200.129 103.075C199.568 102.853 198.961 102.774 198.362 102.845C197.763 102.917 197.191 103.137 196.699 103.485C196.206 103.834 195.808 104.299 195.541 104.84C195.521 104.666 195.521 104.491 195.541 104.317C195.594 103.9 195.734 103.499 195.95 103.14C195.854 103.023 195.749 102.913 195.638 102.81C195.072 102.308 194.363 101.995 193.611 101.915C192.858 101.836 192.1 101.994 191.441 102.366C191.533 102.216 191.64 102.075 191.76 101.946Z" fill="#E0E0E0"/>
<path d="M238.419 124.104C238.868 123.49 240.875 123.734 241.518 123.859C242.132 123.973 242.713 124.219 243.223 124.579C243.733 124.939 244.159 125.405 244.472 125.945C244.784 126.485 244.976 127.087 245.035 127.708C245.093 128.33 245.017 128.956 244.81 129.545C245.464 129.395 246.147 129.435 246.779 129.661C247.411 129.888 247.964 130.291 248.373 130.823C248.782 131.355 249.03 131.993 249.087 132.662C249.144 133.33 249.007 134.001 248.694 134.594C251.241 134.026 255.153 134.464 257.143 136.397C258.235 137.454 258.656 139.274 257.825 140.548C257.979 140.309 259.986 140.286 261.635 141.31C262.137 141.642 262.553 142.088 262.849 142.612C263.146 143.135 263.314 143.722 263.341 144.323C263.409 145.665 262.772 147.479 262.169 148.121C262.3 147.871 263.847 148.946 263.983 149.071C264.488 149.535 264.862 150.123 265.069 150.777C265.146 151.073 265.158 151.383 265.104 151.684C265.05 151.986 264.93 152.272 264.755 152.523C264.579 152.774 264.351 152.983 264.086 153.137C263.821 153.292 263.526 153.386 263.221 153.415C264.245 153.827 265.129 154.523 265.769 155.422C266.081 155.875 266.271 156.401 266.321 156.949C266.37 157.496 266.278 158.048 266.053 158.55C265.388 159.835 263.824 160.306 262.42 160.653C262.86 161.12 263.181 161.687 263.356 162.305C263.53 162.922 263.552 163.573 263.42 164.201C263.265 164.827 262.895 165.377 262.376 165.759C261.857 166.14 261.22 166.327 260.577 166.288C261.244 166.721 261.758 167.351 262.048 168.091C262.338 168.831 262.389 169.642 262.194 170.413C261.999 171.183 261.567 171.873 260.96 172.385C260.353 172.898 259.601 173.207 258.809 173.271C259.52 173.231 260.054 174.703 260.231 175.175C260.555 176.017 260.998 176.625 261.425 177.45H264.961C268.572 177.45 270.647 173.111 268.163 170.473C268.066 170.371 267.964 170.268 267.855 170.172C272.046 168.523 271.79 162.558 269.22 161.33C273.104 158.555 273.075 151.379 268.14 149.839C271.551 146.427 270.517 139.069 265.575 138.614C266.787 135.601 266.189 131.467 262.317 130.705C263.546 127.009 260.123 124.451 256.688 125.77C256.535 121.875 251.002 121.647 249.774 124.394C249.837 122.881 247.579 120.089 246.129 120.084C248.631 118.122 247.943 114.193 245.794 113.67C248.716 111.458 247.147 106.398 243.662 106.443C245.515 103.515 242.752 100.484 239.983 99.9326C240.989 101.07 241.905 102.542 241.171 104.083C240.517 105.465 238.738 105.71 237.561 106.284C240.364 107.233 241.643 110.042 239.562 112.504C242.405 112.863 242.78 116.655 241.643 118.19C240.938 117.582 239.482 117.445 238.419 117.65C236.992 117.917 236.219 118.645 234.934 120.078C237.452 118.151 240.045 121.898 238.419 124.104Z" fill="#E0E0E0"/>
<path d="M43.8783 124.906C-6.98288 154.274 -6.98288 201.883 43.8783 231.234C94.7395 260.585 177.209 260.596 228.07 231.234C278.932 201.871 278.932 154.257 228.07 124.906C177.209 95.5547 94.7566 95.5433 43.8783 124.906Z" fill="#F5F5F5"/>
<path d="M235.167 90.2498C230.925 96.3451 225.83 108.274 225.449 123.428C223.057 122.12 220.593 120.875 218.057 119.692C217.119 113.886 216.113 104.908 217.011 96.4759C219.104 76.8536 232.022 69.4675 236.912 71.1619C241.802 72.8563 243.292 78.565 235.167 90.2498Z" fill="#BA68C8"/>
<g opacity="0.65">
<path d="M235.167 90.2498C230.925 96.3451 225.83 108.274 225.449 123.428C223.057 122.12 220.593 120.875 218.057 119.692C217.119 113.886 216.113 104.908 217.011 96.4759C219.104 76.8536 232.022 69.4675 236.912 71.1619C241.802 72.8563 243.292 78.565 235.167 90.2498Z" fill="#83EF88"/>
</g>
<path d="M222.953 121.949H223.015C223.072 121.939 223.125 121.917 223.173 121.886C223.221 121.855 223.262 121.815 223.294 121.768C223.326 121.721 223.349 121.668 223.361 121.612C223.372 121.556 223.373 121.499 223.362 121.443C219.922 103.344 226.245 83.0055 234.075 74.5391C234.123 74.4996 234.162 74.45 234.19 74.3939C234.217 74.3378 234.232 74.2764 234.233 74.2139C234.234 74.1515 234.222 74.0895 234.197 74.0323C234.172 73.975 234.135 73.9238 234.089 73.8822C234.042 73.8407 233.987 73.8097 233.928 73.7914C233.868 73.7731 233.805 73.768 233.743 73.7764C233.681 73.7848 233.622 73.8065 233.569 73.84C233.516 73.8735 233.472 73.918 233.438 73.9705C225.477 82.5848 219.018 103.253 222.509 121.625C222.534 121.722 222.592 121.807 222.673 121.866C222.754 121.925 222.853 121.955 222.953 121.949Z" fill="white"/>
<path d="M249.507 116.394C248.165 117.531 246.698 118.793 246.562 120.533C246.553 121.4 246.724 122.26 247.062 123.058L247.915 125.548C248.225 126.386 248.476 127.245 248.665 128.118C249.02 129.77 248.853 131.49 248.188 133.042C247.592 134.411 246.654 135.604 245.464 136.505L244.981 136.886C239.765 132.346 234.112 128.333 228.105 124.906C225.831 123.59 223.495 122.338 221.1 121.147C220.98 120.579 220.884 120.044 220.804 119.442C220.612 118.357 220.771 117.239 221.259 116.252C222.464 114.011 224.762 112.971 225.438 110.52C226.206 107.746 223.664 104.703 224.818 102.071C225.387 100.735 226.803 99.9443 228.19 99.5008C229.578 99.0573 231.033 98.864 232.381 98.2499C235.792 96.6635 237.498 92.6606 240.705 90.6591C241.683 89.9804 242.796 89.5225 243.969 89.3172C245.225 89.175 246.618 89.2205 247.591 90.0279C248.779 91.0116 248.944 92.8141 248.512 94.2981C248.08 95.7822 247.17 97.0672 246.505 98.4546C246.171 99.0926 245.966 99.7901 245.902 100.507C245.932 101.674 246.359 102.795 247.113 103.686C248.08 104.971 249.314 106.023 250.371 107.228C251.429 108.434 252.333 109.889 252.424 111.493C252.521 113.557 250.991 115.16 249.507 116.394Z" fill="#BBC3B7"/>
<g opacity="0.3">
<path d="M249.506 116.394C248.164 117.532 246.697 118.794 246.561 120.534C246.552 121.401 246.723 122.26 247.061 123.058L247.914 125.549C248.224 126.387 248.475 127.246 248.664 128.119C249.019 129.77 248.852 131.491 248.187 133.043C247.591 134.412 246.653 135.604 245.463 136.506L244.98 136.887C239.764 132.346 234.111 128.333 228.104 124.906C225.83 123.591 223.494 122.338 221.099 121.148C220.979 120.579 220.883 120.045 220.803 119.442C220.611 118.358 220.77 117.24 221.258 116.252C222.463 114.012 224.761 112.971 225.437 110.521C226.205 107.746 223.663 104.704 224.817 102.071C225.386 100.735 226.802 99.9448 228.189 99.5013C229.577 99.0578 231.032 98.8645 232.38 98.2504C235.791 96.664 237.497 92.6611 240.704 90.6596C241.682 89.9809 242.795 89.523 243.968 89.3177C245.224 89.1755 246.618 89.221 247.59 90.0284C248.778 91.0121 248.943 92.8146 248.511 94.2986C248.079 95.7827 247.169 97.0677 246.504 98.4551C246.17 99.0931 245.965 99.7906 245.901 100.508C245.931 101.674 246.358 102.796 247.112 103.686C248.079 104.971 249.313 106.023 250.37 107.229C251.428 108.434 252.332 109.89 252.423 111.493C252.52 113.557 250.99 115.161 249.506 116.394Z" fill="#BCF5AD"/>
</g>
<path d="M243.253 93.3087C238.567 98.1589 232.762 112.977 232.449 127.555C232.182 127.379 231.92 127.209 231.647 127.044C232.091 112.419 237.936 97.6301 242.661 92.7344C242.738 92.6608 242.839 92.6196 242.946 92.6196C243.052 92.6196 243.154 92.6608 243.23 92.7344C243.308 92.808 243.355 92.9095 243.359 93.0169C243.363 93.1244 243.325 93.2292 243.253 93.3087Z" fill="white"/>
<path d="M233.876 113.875C233.918 113.883 233.96 113.883 234.002 113.875C239.159 111.993 245.675 111.374 245.743 111.368C245.797 111.364 245.849 111.349 245.897 111.324C245.945 111.299 245.987 111.265 246.021 111.224C246.056 111.183 246.082 111.135 246.097 111.083C246.113 111.032 246.118 110.978 246.113 110.924C246.11 110.87 246.096 110.817 246.072 110.768C246.048 110.719 246.014 110.676 245.972 110.641C245.931 110.605 245.882 110.579 245.83 110.563C245.778 110.548 245.723 110.543 245.669 110.549C245.601 110.549 238.977 111.18 233.729 113.102C233.635 113.134 233.555 113.199 233.506 113.285C233.456 113.371 233.44 113.473 233.459 113.57C233.479 113.667 233.533 113.754 233.612 113.815C233.691 113.875 233.789 113.905 233.888 113.898L233.876 113.875Z" fill="white"/>
<path d="M45.54 123.979C45.0168 124.297 44.4482 124.593 43.8796 124.906C41.9843 126.016 40.1553 127.14 38.3927 128.278C37.9503 124.256 37.2476 120.267 36.2888 116.337C31.9732 98.1418 23.3077 92.7117 19.1058 85.5416C14.6878 77.9906 18.8044 72.4639 25.2751 72.9187C31.541 73.3509 38.8362 78.8094 42.7709 90.1814C47.1662 102.907 46.5919 115.956 45.54 123.979Z" fill="#BA68C8"/>
<path opacity="0.5" d="M45.54 123.979C45.0168 124.297 44.4482 124.593 43.8796 124.906C41.9843 126.016 40.1553 127.14 38.3927 128.278C37.9503 124.256 37.2476 120.267 36.2888 116.337C31.9732 98.1418 23.3077 92.7117 19.1058 85.5416C14.6878 77.9906 18.8044 72.4639 25.2751 72.9187C31.541 73.3509 38.8362 78.8094 42.7709 90.1814C47.1662 102.907 46.5919 115.956 45.54 123.979Z" fill="#83EF88"/>
<path d="M40.9968 126.572C40.9551 126.568 40.9147 126.555 40.8779 126.535C40.8412 126.515 40.8088 126.488 40.7829 126.455C40.7569 126.422 40.7378 126.384 40.7267 126.344C40.7155 126.303 40.7127 126.261 40.7182 126.219C43.2712 103.572 32.6328 84.4388 24.2687 78.0876C24.2354 78.0622 24.2075 78.0305 24.1865 77.9943C24.1656 77.9582 24.1519 77.9182 24.1464 77.8768C24.1408 77.8353 24.1435 77.7932 24.1542 77.7528C24.165 77.7123 24.1836 77.6745 24.209 77.6412C24.2343 77.608 24.266 77.5801 24.3022 77.5591C24.3384 77.5381 24.3783 77.5245 24.4198 77.5189C24.4612 77.5134 24.5033 77.5161 24.5438 77.5268C24.5842 77.5375 24.6221 77.5561 24.6553 77.5815C33.1445 84.0237 43.9308 103.396 41.3494 126.293C41.3452 126.335 41.3326 126.376 41.3125 126.412C41.2923 126.449 41.265 126.481 41.2321 126.507C41.1992 126.533 41.1615 126.553 41.1211 126.564C41.0806 126.575 41.0384 126.578 40.9968 126.572Z" fill="white"/>
<path d="M41.6334 126.242C39.3401 127.637 37.1567 129.073 35.0832 130.552C33.946 126.771 32.2743 123.16 28.26 118.64C22.6763 112.385 14.4544 106.807 15.7508 101.769C17.0472 96.7315 23.569 96.5211 28.26 99.3414C32.3823 101.775 41.0364 111.544 41.6334 126.242Z" fill="#BA68C8"/>
<path opacity="0.65" d="M41.6334 126.242C39.3401 127.637 37.1567 129.073 35.0832 130.552C33.946 126.771 32.2743 123.16 28.26 118.64C22.6763 112.385 14.4544 106.807 15.7508 101.769C17.0472 96.7315 23.569 96.5211 28.26 99.3414C32.3823 101.775 41.0364 111.544 41.6334 126.242Z" fill="#BCF5AD"/>
<path d="M38.7112 128.084C38.5065 128.209 38.3018 128.34 38.1027 128.477C37.1191 117.673 27.0321 104.283 21.784 101.713C21.7441 101.696 21.7081 101.671 21.6782 101.639C21.6483 101.608 21.6252 101.57 21.6103 101.53C21.5953 101.489 21.5889 101.445 21.5913 101.402C21.5938 101.359 21.605 101.316 21.6244 101.278C21.6438 101.239 21.671 101.204 21.7042 101.176C21.7374 101.148 21.776 101.128 21.8175 101.115C21.8591 101.103 21.9028 101.099 21.9459 101.104C21.989 101.109 22.0306 101.122 22.0683 101.144C27.5154 103.828 37.5626 117.014 38.7112 128.084Z" fill="white"/>
<path d="M74.4291 34.123C73.6045 33.8164 72.7331 33.6548 71.8534 33.6454C71.0175 33.5771 70.7503 33.4122 70.5911 33.236C69.7926 32.0868 68.6266 31.2439 67.2851 30.846C65.9436 30.4481 64.5065 30.5189 63.2107 31.0469C62.7217 29.0511 60.2994 27.3168 57.6384 27.8968C57.7294 25.2983 54.4144 22.5065 51.4293 21.8754C48.5863 21.267 46.0788 21.5228 44.4526 23.3992C42.707 19.9876 35.861 19.0324 32.1595 20.8348C30.0272 21.8697 28.2191 22.9386 27.3377 24.8889C26.7486 26.0959 26.4692 27.4305 26.5246 28.7725C25.0804 27.5045 22.1919 27.1576 20.2701 27.9025C18.189 28.7099 18.0355 30.2736 17.9274 31.8827C16.6951 31.5269 15.3906 31.5034 14.1462 31.8145C12.8385 32.2068 12.0822 33.2303 12.2642 34.0889C11.2236 34.032 8.75592 34.8735 9.04022 35.9652C9.35863 37.1934 12.1789 37.0683 13.2308 37.0285C14.2232 36.9529 15.208 36.7989 16.1761 36.568C16.667 36.7534 17.1866 36.8516 17.7114 36.8579C19.5081 36.8579 20.2644 36.079 20.5544 35.408C21.43 37.2503 24.5345 38.6604 26.7521 39.2233C30.9029 40.2866 36.7708 39.6384 39.3295 36.5338C39.6291 37.118 40.0497 37.6317 40.5634 38.0406C41.6625 38.9173 42.9953 39.4512 44.3957 39.5758C46.1015 39.7351 50.6503 39.9511 51.9638 37.2446C52.8735 39.0414 56.9447 39.8658 60.0436 39.4223C61.2445 39.2445 62.413 38.892 63.512 38.3761C64.1977 38.0165 64.8621 37.6178 65.5021 37.182C66.1105 36.8181 66.3891 36.8238 67.2079 37.0683C69.3345 37.7052 71.7965 37.9667 73.9686 37.0683C75.7198 36.3064 76.0553 34.8565 74.4291 34.123Z" fill="#F5F5F5"/>
<path d="M242.064 14.3582C241.35 14.0919 240.596 13.9514 239.835 13.9431C239.113 13.8862 238.885 13.7441 238.743 13.5906C238.05 12.5982 237.039 11.8716 235.877 11.5305C234.715 11.1894 233.472 11.2542 232.352 11.7142C231.931 10.0084 229.839 8.48455 227.536 8.99061C227.616 6.71621 224.744 4.33378 222.168 3.78224C219.695 3.25913 217.54 3.48088 216.13 5.10139C214.623 2.15604 208.704 1.32589 205.503 2.88385C203.66 3.78224 202.091 4.70337 201.335 6.39211C200.83 7.43586 200.592 8.58846 200.641 9.74685C199.396 8.64376 196.894 8.34809 195.228 8.99061C193.431 9.6843 193.295 11.0433 193.204 12.4022C192.139 12.0917 191.01 12.0721 189.935 12.3453C188.797 12.6808 188.149 13.5678 188.303 14.2843C187.41 14.2388 185.272 14.9609 185.522 15.9048C185.795 16.9681 188.234 16.86 189.144 16.8259C190.002 16.7577 190.854 16.6246 191.691 16.4279C192.116 16.586 192.564 16.6706 193.016 16.6781C194.569 16.6781 195.222 16.0014 195.473 15.4271C196.229 17.0192 198.93 18.236 200.835 18.7193C204.422 19.6405 209.5 19.0832 211.706 16.3995C211.959 16.9026 212.315 17.3464 212.752 17.7015C213.702 18.4671 214.858 18.934 216.073 19.0434C217.546 19.1856 221.503 19.3732 222.618 17.0306C223.402 18.5886 226.928 19.305 229.6 18.9183C230.656 18.7657 231.684 18.4612 232.653 18.0143C233.24 17.6992 233.809 17.3537 234.359 16.9794C234.571 16.8308 234.82 16.7428 235.078 16.7248C235.337 16.7067 235.595 16.7594 235.826 16.8771C237.663 17.4457 239.806 17.6561 241.671 16.8771C243.155 16.263 243.457 14.9893 242.064 14.3582Z" fill="#F5F5F5"/>
<path d="M88.2573 8.57027C87.7576 8.38895 87.2309 8.29284 86.6994 8.28597C86.1933 8.24617 86.0341 8.14382 85.9374 8.03578C85.4543 7.33958 84.7478 6.82927 83.9351 6.58937C83.1223 6.34947 82.252 6.39437 81.4682 6.71663C81.2509 6.03184 80.7824 5.45474 80.1568 5.10136C79.5313 4.74797 78.7952 4.64453 78.0964 4.81183C78.1533 3.23681 76.1462 1.55375 74.3437 1.1671C72.5412 0.780457 71.1084 0.956722 70.1247 2.08823C69.0671 0.0299054 64.9277 -0.550067 62.6931 0.541644C61.4024 1.1671 60.3107 1.80962 59.7762 2.99231C59.4241 3.72129 59.258 4.52613 59.2929 5.33494C58.7506 4.94888 58.123 4.69969 57.4636 4.60861C56.8043 4.51752 56.1326 4.58724 55.506 4.81183C54.2494 5.29514 54.1527 6.2447 54.0902 7.20563C53.3489 6.9914 52.5641 6.97766 51.8158 7.16583C51.0254 7.39895 50.5706 8.01873 50.6786 8.52478C50.0531 8.49066 48.5577 8.99672 48.7283 9.66198C48.8989 10.3272 50.6274 10.3272 51.2643 10.3045C51.8606 10.2525 52.4518 10.1536 53.0326 10.0088C53.3296 10.1188 53.6428 10.1784 53.9594 10.1851C55.0454 10.1851 55.506 9.71315 55.6652 9.30945C56.194 10.4466 58.0761 11.2711 59.4066 11.6123C61.9369 12.2832 65.4849 11.8738 67.0315 10.0088C67.2137 10.3607 67.4674 10.6705 67.7764 10.9186C68.4416 11.4509 69.248 11.777 70.0963 11.8568C71.1311 11.9534 73.8945 12.0842 74.6451 10.4466C75.2137 11.5384 77.6586 12.033 79.5293 11.7658C80.2644 11.6632 80.9808 11.4544 81.6559 11.146C82.0704 10.9272 82.4728 10.6862 82.8613 10.4239C83.0091 10.3198 83.1825 10.2579 83.3628 10.2448C83.5431 10.2318 83.7236 10.2682 83.8848 10.35C85.2071 10.8192 86.6507 10.8192 87.973 10.35C89.0192 9.8951 89.2353 9.01946 88.2573 8.57027Z" fill="#F5F5F5"/>
<path d="M255.073 37.6373C254.598 37.4589 254.096 37.3665 253.589 37.3643C253.111 37.3245 252.957 37.2279 252.867 37.1255C252.406 36.4633 251.734 35.9778 250.961 35.7493C250.188 35.5208 249.359 35.563 248.613 35.8689C248.405 35.2196 247.961 34.6723 247.367 34.3362C246.774 34.0001 246.076 33.8997 245.412 34.0551C245.463 32.5654 243.553 30.9562 241.841 30.5923C240.13 30.2284 238.765 30.3876 237.827 31.468C236.821 29.512 232.886 28.9548 230.759 29.9953C229.531 30.5639 228.485 31.2007 227.985 32.3266C227.649 33.0201 227.491 33.7859 227.524 34.5555C227.008 34.1898 226.412 33.9534 225.785 33.8663C225.159 33.7793 224.521 33.844 223.925 34.0551C222.731 34.5214 222.64 35.4197 222.577 36.3295C221.869 36.1255 221.12 36.1118 220.405 36.2897C219.649 36.5115 219.217 37.1028 219.319 37.5804C218.722 37.5804 217.306 38.0296 217.466 38.6608C217.625 39.2919 219.274 39.2976 219.876 39.2748C220.451 39.2273 221.021 39.138 221.582 39.0076C221.864 39.1134 222.162 39.1692 222.463 39.1725C223.498 39.1725 223.936 38.7233 224.101 38.3423C224.601 39.3999 226.375 40.2073 227.661 40.5314C230.049 41.1455 233.426 40.7703 234.893 38.9905C235.067 39.3253 235.309 39.6197 235.604 39.8548C236.237 40.3641 237.006 40.6747 237.816 40.7475C238.794 40.8385 241.426 40.9693 242.165 39.4056C242.689 40.4462 245.008 40.9181 246.811 40.6622C247.502 40.5602 248.175 40.3571 248.807 40.0595C249.199 39.8532 249.579 39.6234 249.944 39.3715C250.086 39.2737 250.252 39.2163 250.424 39.2053C250.596 39.1942 250.768 39.2301 250.922 39.309C252.18 39.7524 253.553 39.7524 254.811 39.309C255.8 38.8939 256.005 38.058 255.073 37.6373Z" fill="#F5F5F5"/>
<path d="M139.175 234.259C183.912 234.259 220.178 213.32 220.178 187.491C220.178 161.663 183.912 140.724 139.175 140.724C94.439 140.724 58.1729 161.663 58.1729 187.491C58.1729 213.32 94.439 234.259 139.175 234.259Z" fill="#E0E0E0"/>
<path d="M213.459 166.943C211.952 175.648 205.675 179.532 199.375 182.574C191.505 186.389 177.199 191.49 166.851 195.544C163.092 197.011 159.857 198.341 157.617 199.422C152.283 201.622 146.648 205.147 142.321 208.366C141.224 209.184 140.269 210.179 139.234 211.072C137.164 212.858 135.066 214.62 132.917 216.303C130.768 217.986 128.567 219.647 126.259 221.205C124.748 222.205 123.145 223.058 121.471 223.752C120.626 224.086 119.755 224.351 118.867 224.542C118.423 224.639 117.974 224.718 117.525 224.775C117.116 224.881 116.688 224.881 116.28 224.775C115.843 224.579 115.388 224.429 114.921 224.326C114.526 224.321 114.132 224.367 113.749 224.463C113.371 224.553 112.974 224.525 112.612 224.383C112.146 224.15 111.879 223.61 111.395 223.411C110.944 223.308 110.48 223.279 110.019 223.325C109.54 223.282 109.093 223.061 108.768 222.706C108.608 222.524 108.478 222.319 108.382 222.097C108.382 222.052 108.149 221.603 108.217 221.603C106.511 221.648 105.732 221.426 105.539 220.926C104.68 218.708 106.847 215.922 109.4 214.87C110.605 211.715 112.515 209.031 117.167 205.773C122.148 202.316 127.083 201.645 128.908 193.406C130.512 186.145 135.532 183.984 139.359 184.644C142.97 185.269 146.512 185.212 149.065 183.353C150.593 182.256 152.013 181.017 153.307 179.651C153.83 179.111 154.393 178.514 155.064 177.792L143.362 176.933V170.355L159.362 136.239C165.151 137.575 185.336 142.431 195.912 147.378C208.319 153.16 214.949 158.329 213.459 166.943Z" fill="#FFA8A7"/>
<path d="M199.181 167.341C199.147 167.295 198.879 166.874 198.84 166.931C199.772 165.516 199.977 164.725 199.67 164.299C198.226 162.411 194.717 162.803 192.488 164.424C189.162 163.804 185.876 164.031 180.69 166.306C175.14 168.745 171.99 172.606 164.013 169.854C156.985 167.426 152.516 170.576 151.077 174.187C150.634 175.324 150.27 176.37 149.781 177.399L155.046 177.786C152.647 180.373 151.595 181.476 149.047 183.347C146.705 185.053 143.526 185.235 140.228 184.768C137.721 185.706 134.571 186.696 131.637 187.56C130.247 189.246 129.303 191.254 128.891 193.4C127.071 201.639 122.13 202.31 117.149 205.767C112.498 208.996 110.593 211.68 109.382 214.864C106.829 215.916 104.663 218.702 105.521 220.92C105.715 221.42 106.505 221.648 108.194 221.591C108.131 221.591 108.347 222.046 108.37 222.097C108.504 222.431 108.727 222.721 109.014 222.937C109.302 223.152 109.644 223.285 110.002 223.319C110.462 223.273 110.927 223.302 111.378 223.405C111.861 223.604 112.123 224.144 112.589 224.377C112.952 224.516 113.348 224.542 113.726 224.451C116.569 223.99 126.463 219.805 134.224 212.965C144.402 203.993 157.565 194.014 169.722 189.147C170.995 188.64 172.337 188.339 173.645 187.924C176.249 187.094 178.842 186.218 181.406 185.28C183.971 184.342 186.524 183.313 189.065 182.164C190.706 181.397 192.269 180.476 193.734 179.412C194.461 178.865 195.144 178.26 195.775 177.604C196.088 177.274 196.389 176.933 196.673 176.58C196.97 176.28 197.187 175.911 197.304 175.506C197.362 175.031 197.472 174.563 197.634 174.113C197.832 173.772 198.075 173.461 198.356 173.186C198.639 172.907 198.828 172.548 198.897 172.157C198.942 171.639 198.624 171.133 198.698 170.616C198.85 170.178 199.069 169.765 199.346 169.393C199.558 168.965 199.605 168.473 199.477 168.012C199.415 167.774 199.315 167.547 199.181 167.341Z" fill="#F28F8F"/>
<path d="M199.181 167.341C199.147 167.295 198.879 166.874 198.84 166.931C199.772 165.516 199.977 164.725 199.67 164.299C198.226 162.411 194.717 162.803 192.488 164.424C189.162 163.804 185.876 164.031 180.69 166.306C175.14 168.745 171.99 172.606 164.013 169.854C156.985 167.426 152.516 170.576 151.077 174.187C150.634 175.324 150.27 176.37 149.781 177.399L155.046 177.786C152.647 180.373 151.595 181.476 149.047 183.347C146.705 185.053 143.526 185.235 140.228 184.768C137.721 185.706 134.571 186.696 131.637 187.56C130.247 189.246 129.303 191.254 128.891 193.4C127.071 201.639 122.13 202.31 117.149 205.767C112.498 208.996 110.593 211.68 109.382 214.864C106.829 215.916 104.663 218.702 105.521 220.92C105.715 221.42 106.505 221.648 108.194 221.591C108.131 221.591 108.347 222.046 108.37 222.097C108.504 222.431 108.727 222.721 109.014 222.937C109.302 223.152 109.644 223.285 110.002 223.319C110.462 223.273 110.927 223.302 111.378 223.405C111.861 223.604 112.123 224.144 112.589 224.377C112.952 224.516 113.348 224.542 113.726 224.451C116.569 223.99 126.463 219.805 134.224 212.965C144.402 203.993 157.565 194.014 169.722 189.147C170.995 188.64 172.337 188.339 173.645 187.924C176.249 187.094 178.842 186.218 181.406 185.28C183.971 184.342 186.524 183.313 189.065 182.164C190.706 181.397 192.269 180.476 193.734 179.412C194.461 178.865 195.144 178.26 195.775 177.604C196.088 177.274 196.389 176.933 196.673 176.58C196.97 176.28 197.187 175.911 197.304 175.506C197.362 175.031 197.472 174.563 197.634 174.113C197.832 173.772 198.075 173.461 198.356 173.186C198.639 172.907 198.828 172.548 198.897 172.157C198.942 171.639 198.624 171.133 198.698 170.616C198.85 170.178 199.069 169.765 199.346 169.393C199.558 168.965 199.605 168.473 199.477 168.012C199.415 167.774 199.315 167.547 199.181 167.341Z" fill="#F28F8F"/>
<path d="M144.561 186.417C138.67 182.335 134.895 183.006 134.895 183.006L124.467 185.923L127.571 180.953L97.356 133.396C90.5954 146.786 86.9165 155.741 81.2192 172.254C75.4592 188.953 70.8309 205.801 73.5033 217.173C76.1757 228.545 87.9514 227.948 92.5172 228.46C97.0831 228.971 109.479 228.932 119.156 222.518C128.834 216.104 150.156 198.028 150.156 198.028C150.156 198.028 150.457 190.506 144.561 186.417Z" fill="#455A64"/>
<path d="M127.099 181.556L127.582 180.987L140.268 176.717L146.852 177.2C146.852 177.2 156.82 168.552 161.71 157.521C166.537 146.644 167.583 138.234 167.583 138.234L159.469 135.96C159.469 135.96 156.262 145.893 139.193 148.412C122.124 150.931 105.316 142.669 99.3058 136.472C99.3058 136.472 96.5993 140.378 93.1706 148.071C90.0433 155.082 86.916 162.889 86.916 162.889C93.7015 163.658 100.321 165.503 106.527 168.353C116.659 173.044 127.099 181.556 127.099 181.556Z" fill="#455A64"/>
<path d="M159.959 133.964C159.959 133.964 187.627 142.124 198.186 147.929C208.745 153.735 215.375 157.737 214.073 166.437C212.77 175.137 207.954 179.299 197.111 184.126C186.268 188.954 166.811 195.942 166.811 195.942C166.811 195.942 167.857 188.135 163.78 183.654C159.703 179.174 152.607 179.674 152.607 179.674L154.415 178.076L140.359 176.712L159.959 133.964Z" fill="#455A64"/>
<path d="M199.676 164.299C198.232 162.411 194.723 162.803 192.495 164.424C189.168 163.804 185.882 164.031 180.696 166.306C175.147 168.745 171.997 172.606 164.019 169.854C156.991 167.426 152.522 170.576 151.084 174.187C150.64 175.324 150.276 176.37 149.787 177.399L155.052 177.786C154.387 178.508 153.824 179.105 153.301 179.645C155.246 179.645 160.426 180.055 163.695 183.625C165.475 185.581 166.276 188.174 166.618 190.449C167.67 189.965 168.716 189.499 169.751 189.084C171.024 188.578 172.366 188.277 173.674 187.861C176.278 187.031 178.871 186.156 181.435 185.217C184 184.279 186.553 183.25 189.094 182.102C190.735 181.335 192.298 180.413 193.763 179.35C194.49 178.802 195.173 178.197 195.804 177.541C196.117 177.212 196.418 176.87 196.702 176.518C196.999 176.218 197.215 175.848 197.333 175.443C197.391 174.968 197.501 174.501 197.663 174.05C197.861 173.71 198.104 173.398 198.385 173.123C198.668 172.845 198.857 172.485 198.925 172.094C198.971 171.577 198.653 171.071 198.726 170.553C198.879 170.115 199.097 169.703 199.375 169.331C199.587 168.902 199.634 168.41 199.505 167.949C199.434 167.717 199.327 167.499 199.187 167.301C199.153 167.255 198.886 166.835 198.846 166.892C199.773 165.516 199.994 164.725 199.676 164.299Z" fill="#37474F"/>
<path d="M175.323 158.516C165.117 164.077 160.483 168.273 160.483 168.273C160.483 168.273 158.64 165.709 154.512 166.033C150.384 166.357 148.786 169.155 146.381 172.464C145.584 173.445 144.622 174.28 143.538 174.932L142.828 174.755C146.188 170.991 148.707 166.554 150.219 161.74C150.219 161.74 146.29 170.303 140.775 174.067C138.25 175.773 133.258 177.166 130.665 175.995C128.072 174.824 124.871 169.308 124.871 169.308C126.821 172.521 126.759 179.156 126.736 179.509C126.558 179.942 126.343 180.358 126.094 180.754C125.731 181.389 125.245 181.946 124.665 182.392C124.086 182.838 123.423 183.165 122.716 183.353C116.709 184.949 110.794 186.873 104.999 189.118C94.0076 193.423 90.6699 201.463 90.6699 201.463C96.0602 193.536 111.992 189.71 124.479 185.928L126.719 182.352H126.645L127.583 180.948L140.269 176.677L140.837 176.717L155.052 177.763C162.91 169.49 171.707 162.445 176.659 159.409C181.098 156.729 186.229 155.419 191.409 155.645C191.409 155.645 183.954 153.814 175.323 158.516Z" fill="#37474F"/>
<path d="M197.668 164.276C197.64 164.225 197.407 163.861 197.333 163.861C198.26 162.445 198.47 161.661 198.152 161.24C196.713 159.341 193.205 159.733 190.976 161.359C187.65 160.74 184.357 160.967 179.183 163.236C173.628 165.681 170.478 169.541 162.495 166.789C155.467 164.356 151.003 167.517 149.565 171.116C148.212 174.528 147.615 177.411 141.934 180.339C139.668 181.391 137.331 182.284 134.94 183.012C135.316 182.96 138.989 182.562 144.561 186.423C149.246 189.67 150.02 195.106 150.139 197.187C155.927 192.666 161.92 188.59 168.232 186.065C169.5 185.553 170.847 185.263 172.15 184.842C174.754 184.012 177.347 183.137 179.917 182.193C182.487 181.249 185.034 180.231 187.576 179.083C189.216 178.316 190.779 177.394 192.244 176.331C192.971 175.783 193.654 175.178 194.285 174.522C194.592 174.193 194.899 173.851 195.189 173.499C195.479 173.197 195.694 172.831 195.815 172.43C195.873 171.952 195.981 171.481 196.139 171.025C196.341 170.688 196.584 170.377 196.861 170.099C197.155 169.824 197.354 169.464 197.429 169.07C197.475 168.552 197.157 168.046 197.23 167.534C197.381 167.096 197.597 166.684 197.873 166.312C198.091 165.883 198.139 165.388 198.009 164.924C197.931 164.692 197.815 164.473 197.668 164.276Z" fill="#FFA8A7"/>
<path d="M129.169 105.602C138.142 104.948 146.165 101.52 153.687 96.823C155.873 95.4241 157.83 93.6983 159.493 91.7056C162.375 88.294 164.707 84.3139 165.469 79.9641C166.23 75.6143 165.252 70.7755 162.25 67.5004C159.521 64.5266 155.217 62.7639 153.892 58.9714C152.902 56.1284 153.892 52.8533 152.806 50.0444C151.458 46.6328 147.211 44.5403 146.978 40.8615C146.847 38.8259 148.331 37.6375 149.548 36.2104C153.215 31.9061 153.477 25.3103 150.924 20.2896C148.371 15.2688 144.265 12.0108 138.869 10.3277C133.274 8.58211 123.756 8.23527 118.4 11.0214C113.646 13.4209 109.695 16.7813 108.7 22.2114C103.866 23.849 99.9204 28.6992 99.5451 33.8393C99.3745 36.1137 99.8237 38.5644 98.931 40.6625C97.8564 43.2098 95.1953 44.6029 92.9721 46.2404C90.2428 48.2476 87.8832 51.0735 87.434 54.434C87.0246 57.493 88.2186 60.7568 87.0587 63.6168C85.7907 66.7669 82.2313 68.1656 79.5873 70.3149C75.391 73.6924 73.9866 78.8894 75.3569 84.0409C76.1302 86.9465 77.7052 90.3865 79.9398 92.4221C82.3962 94.668 85.5576 96.317 88.5257 97.7612C101.156 103.881 115.169 106.584 129.169 105.602Z" fill="#263238"/>
<path d="M143.043 66.5903C151.606 67.2613 156.689 68.2393 165.69 77.6553C171.098 83.3413 202.155 120.761 202.155 120.761L175.629 125.258L149.07 99.4269L143.043 66.5903Z" fill="#68C883"/>
<path d="M164.018 135.141C161.744 127.448 160.146 125.64 160.14 123.365C160.191 119.59 159.572 111.686 159.572 111.686C170.142 103.322 165.423 89.8748 161.368 84.4959C153.886 74.5681 147.893 70.5311 143.02 66.5907L134.098 65.8515L114.408 65.8174L103.07 67.762C100.176 69.0925 96.2468 74.6875 94.74 79.0828C92.0164 86.9181 91.9652 91.7796 93.3071 99.6206C95.0129 109.537 96.7187 115.172 97.7308 119.976C99.1353 126.601 96.6562 131.917 92.1699 143.551C117.484 165.766 159.594 152.495 164.018 135.141Z" fill="#37474F"/>
<path d="M144.122 20.8755C145.868 21.6886 148.637 25.8507 149.114 41.9137C149.501 54.8948 144.941 59.4891 142.411 60.5978C140.295 61.5247 137.538 61.735 134.172 61.627L134.12 66.045C136.702 68.9221 140.375 79.1228 137.816 83.6716C131.562 82.415 117.256 73.7495 114.538 65.7835L114.674 51.9153C114.674 51.9153 111.502 55.361 107.351 52.1371C103.939 49.4817 103.325 44.1426 105.713 41.4133C108.101 38.684 113.043 39.0707 115.055 42.6415C115.055 42.6415 120.105 46.1042 119.769 37.9278C119.382 28.7051 123.101 19.4597 129.395 21.4384C140.676 24.9012 140.54 19.1071 144.122 20.8755Z" fill="#FFA8A7"/>
<path d="M129.92 42.0211C129.921 42.9051 129.66 43.7695 129.17 44.505C128.68 45.2406 127.982 45.8143 127.166 46.1536C126.35 46.4929 125.451 46.5826 124.584 46.4112C123.717 46.2399 122.92 45.8153 122.294 45.191C121.669 44.5668 121.242 43.771 121.068 42.9043C120.895 42.0376 120.982 41.1389 121.319 40.3218C121.657 39.5047 122.229 38.806 122.963 38.314C123.697 37.822 124.561 37.5588 125.445 37.5576C126.032 37.5561 126.614 37.6705 127.157 37.8941C127.699 38.1178 128.193 38.4463 128.608 38.8609C129.024 39.2756 129.354 39.7681 129.579 40.3104C129.804 40.8527 129.92 41.434 129.92 42.0211Z" fill="#F28F8F"/>
<path d="M144.146 40.7423C144.144 41.3709 144.275 41.9927 144.531 42.5669C144.787 43.1411 145.161 43.6547 145.629 44.0741C146.097 44.4934 146.649 44.809 147.248 45.0002C147.847 45.1913 148.479 45.2536 149.104 45.1831C149.142 44.1482 149.142 43.0489 149.104 41.8852C149.041 39.8269 148.939 37.9619 148.808 36.2788H148.598C147.416 36.2833 146.285 36.7554 145.45 37.5918C144.616 38.4282 144.147 39.5609 144.146 40.7423Z" fill="#F28F8F"/>
<path d="M135.111 52.4328C135.245 52.5982 135.411 52.735 135.599 52.8352C135.787 52.9353 135.993 52.9967 136.205 53.0158C136.417 53.0349 136.631 53.0113 136.833 52.9463C137.036 52.8813 137.224 52.7763 137.385 52.6375C137.698 52.333 137.9 51.9327 137.96 51.5001C138.02 51.0675 137.934 50.6274 137.715 50.2494C137.574 50.0027 137.38 49.7909 137.146 49.6297C137.382 49.3908 137.686 49.2301 138.016 49.1691C137.313 48.9586 136.556 49.0194 135.895 49.3397C135.504 49.5567 135.19 49.8907 134.997 50.2949C134.848 50.6354 134.78 51.0061 134.8 51.3774C134.82 51.7486 134.926 52.1101 135.111 52.4328Z" fill="#B16668"/>
<path d="M137.618 52.0856C137.525 52.2334 137.412 52.3674 137.282 52.4836C136.994 52.7232 136.623 52.8407 136.249 52.8109C135.875 52.7812 135.528 52.6066 135.281 52.3244C135.054 51.918 134.96 51.4506 135.013 50.9882C135.5 50.9806 135.983 51.0742 136.431 51.2631C136.879 51.452 137.283 51.7321 137.618 52.0856Z" fill="#F28F8F"/>
<path d="M134.172 61.5982C129.97 61.2969 121.157 59.085 119.093 54.4907C119.093 54.4907 119.531 58.4709 122.243 60.5065C126.377 63.5826 134.144 64.2991 134.144 64.2991L134.172 61.5982Z" fill="#F28F8F"/>
<path d="M135.27 33.7148L136.611 45.5815L143.088 42.6817L135.27 33.7148Z" fill="#F28F8F"/>
<path d="M141.456 30.8486L145.487 32.2985C145.663 31.7481 145.623 31.1516 145.375 30.6299C145.126 30.1082 144.689 29.7006 144.151 29.4896C143.885 29.3951 143.603 29.3555 143.322 29.3733C143.04 29.391 142.765 29.4656 142.513 29.5926C142.261 29.7196 142.037 29.8964 141.856 30.1123C141.674 30.3282 141.538 30.5786 141.456 30.8486Z" fill="#263238"/>
<path d="M128.322 38.6209C128.583 38.7283 128.859 38.7972 129.14 38.8256C130.437 38.9507 132.046 38.1774 132.302 37.1198C132.302 37.0857 132.302 36.9436 132.245 36.972C131.892 37.1802 131.521 37.3553 131.136 37.4951C130.536 37.7477 129.894 37.8884 129.243 37.9102C128.548 37.8914 127.862 37.7469 127.219 37.4837C127.189 37.4755 127.157 37.4755 127.128 37.4837C126.946 37.5179 127.128 37.8022 127.19 37.8704C127.346 38.0399 127.519 38.1924 127.708 38.3253C127.901 38.4454 128.107 38.5446 128.322 38.6209Z" fill="#263238"/>
<path d="M145.284 37.6837C145.032 37.8098 144.764 37.8998 144.488 37.9509C143.208 38.1784 141.542 37.5301 141.201 36.4782C141.201 36.4441 141.201 36.302 141.247 36.3247C141.61 36.5076 141.991 36.6543 142.384 36.7625C143.003 36.9664 143.654 37.0569 144.306 37.0298C144.996 36.9608 145.668 36.7682 146.29 36.4612C146.32 36.4529 146.351 36.4529 146.381 36.4612C146.563 36.4612 146.381 36.7796 146.347 36.8535C146.206 37.0347 146.045 37.2005 145.869 37.3482C145.687 37.4813 145.491 37.5938 145.284 37.6837Z" fill="#263238"/>
<path d="M130.214 31.2978L126.359 33.1685C126.126 32.6402 126.103 32.043 126.294 31.4982C126.485 30.9534 126.877 30.5016 127.388 30.2345C127.643 30.1129 127.919 30.0439 128.201 30.0317C128.483 30.0196 128.764 30.0645 129.028 30.1638C129.292 30.2631 129.533 30.4148 129.737 30.6097C129.941 30.8045 130.103 31.0386 130.214 31.2978Z" fill="#263238"/>
<path d="M103.093 67.7622C93.2047 69.2349 88.0191 72.8057 83.1917 81.6872C79.9734 87.6063 66.327 112.71 61.7555 121.825C58.3951 128.517 56.7973 132.19 57.6502 137.745L84.7212 131.616L101.927 102.361C105.64 96.539 109.933 74.3978 103.093 67.7622Z" fill="#68C883"/>
<path d="M101.393 135.624C98.7261 135.994 85.3982 140.781 80.6958 142.18C76.9658 143.289 71.8826 144.119 67.3394 143.511C61.9036 142.783 58.3215 139.769 57.7984 138.484C57.2298 137.068 58.0599 133.935 62.0799 130.063C67.3736 124.98 69.2158 124.377 74.8165 123.416C81.0029 122.376 92.0621 122.205 94.9336 121.995C100.29 121.608 102.092 121.619 106.641 119.766C111.298 117.867 114.704 117.491 117.632 116.855C120.56 116.218 123.153 114.194 124.859 113.585C126.047 113.164 126.565 115.035 125.365 116.963C124.552 118.293 122.784 119.482 120.6 120.46C118.832 121.369 119.77 121.716 121.806 121.841C123.841 121.966 130.733 123.297 132.666 123.991C134.599 124.684 136.379 125.787 135.822 126.993C135.822 126.993 139.068 127.328 138.903 129.045C138.738 130.763 136.06 131.49 136.06 131.49C136.06 131.49 135.901 132.918 133.263 133.264C131.779 133.458 127.44 133.264 125.871 133.327C124.069 133.429 122.107 133.731 122.107 133.731C122.107 133.731 127.73 134.601 129.459 135.186C131.426 135.857 130.875 137.216 128.322 137.699C125.769 138.183 119.082 137.034 116.887 137.239C114.073 137.506 112.543 137.057 108.563 136.716C105.856 136.488 104.054 135.249 101.393 135.624Z" fill="#FFA8A7"/>
<path d="M120.145 121.614C119.452 121.404 119.452 121.045 120.6 120.477C122.784 119.499 124.552 118.311 125.365 116.98C124.098 118.016 122.61 118.748 121.015 119.118C119.19 119.505 117.433 119.732 117.348 120.369C117.262 121.006 119.008 121.546 120.145 121.631V121.614Z" fill="#F28F8F"/>
<path d="M118.712 125.003C119.991 125.225 121.271 125.395 122.55 125.526C123.829 125.657 125.12 125.748 126.348 125.947C127.576 126.146 130.664 126.55 131.949 126.675C133.234 126.8 134.519 126.891 135.821 126.993C133.393 126.129 129.06 125.469 126.536 125.066C125.239 124.898 123.932 124.82 122.624 124.832C121.318 124.821 120.012 124.878 118.712 125.003Z" fill="#F28F8F"/>
<path d="M136.072 131.485C136.123 131.314 136.123 131.132 136.072 130.962C136.005 130.788 135.891 130.636 135.742 130.524C135.452 130.302 135.125 130.133 134.776 130.023C134.094 129.806 133.393 129.652 132.683 129.563C131.29 129.347 128.134 128.915 126.713 128.79C126.008 128.738 125.297 128.687 124.569 128.681C123.841 128.676 123.119 128.744 122.42 128.79C121.01 128.875 119.577 128.994 118.161 129.165C119.569 129.342 120.985 129.448 122.403 129.483C123.125 129.517 123.83 129.483 124.507 129.517C125.183 129.551 125.894 129.608 126.593 129.677C127.992 129.785 131.142 130.183 132.569 130.245C133.262 130.273 133.953 130.335 134.639 130.433C135.282 130.552 136.083 130.728 136.072 131.485Z" fill="#F28F8F"/>
<path d="M117.99 133.139C117.99 133.139 120.35 133.1 121.709 133.031C123.068 132.963 127.395 133.31 127.395 133.31C127.031 133.31 126.184 133.31 125.882 133.31C124.08 133.412 122.118 133.714 122.118 133.714C120.753 133.449 119.375 133.257 117.99 133.139Z" fill="#F28F8F"/>
<path d="M181.343 128.898C183.737 129.193 185.892 130.205 188.166 130.933C190.61 131.751 193.175 132.147 195.752 132.105C198.629 132.008 202.467 130.916 204.03 128.272C205.981 124.98 202.376 120.613 200.005 118.532C198.208 116.906 196.019 115.775 193.653 115.251C192.039 114.932 190.398 114.761 188.752 114.74C184.527 114.74 180.342 114.654 176.425 112.96C171.802 110.964 168.408 110.498 165.496 109.821C162.585 109.145 160.032 107.046 158.338 106.41C157.161 105.96 156.632 107.82 157.769 109.776C158.554 111.118 160.305 112.34 162.46 113.369C164.211 114.313 163.267 114.643 161.232 114.722C159.196 114.802 152.276 115.996 150.326 116.65C148.376 117.304 146.573 118.356 147.114 119.578C147.114 119.578 143.855 119.851 143.986 121.568C144.117 123.286 146.767 124.07 146.767 124.07C146.767 124.07 146.897 125.503 149.524 125.901C151.008 126.129 155.347 126.003 156.916 126.123C158.713 126.259 160.669 126.606 160.669 126.606C160.669 126.606 155.028 127.357 153.277 127.908C151.298 128.534 151.827 129.904 154.346 130.439C156.865 130.973 163.631 129.762 165.786 130.222C167.941 130.683 170.13 130.126 174.116 129.876C176.266 129.739 178.352 128.738 180.507 128.829C180.792 128.846 181.07 128.846 181.343 128.898Z" fill="#FFA8A7"/>
<path d="M162.881 114.524C163.58 114.33 163.586 113.955 162.449 113.387C160.294 112.357 158.542 111.112 157.758 109.793C159.006 110.853 160.48 111.613 162.068 112.016C163.882 112.443 165.639 112.704 165.707 113.347C165.775 113.989 164.001 114.484 162.864 114.546L162.881 114.524Z" fill="#F28F8F"/>
<path d="M164.246 117.941C162.968 118.134 161.685 118.282 160.396 118.384C159.117 118.51 157.821 118.555 156.592 118.726C155.364 118.896 152.26 119.243 150.975 119.34C149.69 119.436 148.399 119.499 147.103 119.573C149.548 118.76 153.892 118.197 156.422 117.867C157.723 117.725 159.032 117.674 160.34 117.714C161.636 117.714 162.938 117.797 164.246 117.964" fill="#F28F8F"/>
<path d="M146.756 124.064C146.705 123.892 146.705 123.708 146.756 123.536C146.829 123.365 146.944 123.216 147.092 123.103C147.388 122.889 147.719 122.728 148.07 122.626C148.757 122.426 149.461 122.287 150.173 122.211C151.566 122.023 154.722 121.642 156.155 121.563C156.866 121.528 157.576 121.489 158.299 121.5C159.021 121.511 159.749 121.591 160.448 121.654C161.858 121.767 163.291 121.915 164.695 122.12C163.284 122.265 161.867 122.339 160.448 122.342C159.726 122.342 159.021 122.302 158.344 122.342C157.667 122.381 156.957 122.404 156.257 122.455C154.859 122.535 151.709 122.865 150.27 122.916C149.578 122.93 148.887 122.979 148.2 123.064C147.563 123.16 146.762 123.308 146.756 124.064Z" fill="#F28F8F"/>
<path d="M164.797 126.094C164.797 126.094 162.438 126.003 161.084 125.907C159.731 125.81 155.398 126.066 155.398 126.066C155.762 126.066 156.598 126.094 156.905 126.117C158.702 126.259 160.658 126.6 160.658 126.6C162.028 126.358 163.41 126.189 164.797 126.094Z" fill="#F28F8F"/>
<path d="M173.27 45.006C173.708 45.7225 174.021 46.5071 174.51 47.2008C174.986 47.8544 175.562 48.4298 176.215 48.9066C177.564 49.9229 179.241 50.403 180.923 50.2542C184.523 49.896 187.883 46.2001 186.337 42.5269C186.308 42.4407 186.299 42.3495 186.308 42.2592C186.318 42.1689 186.346 42.0817 186.392 42.0033C186.437 41.9249 186.499 41.857 186.573 41.8042C186.647 41.7513 186.731 41.7147 186.82 41.6968C189.128 41.0145 189.913 38.4558 189.481 36.2951C188.998 33.8672 187.263 32.0135 184.693 32.0874C184.186 32.1026 183.681 32.1693 183.186 32.2865C182.726 32.4532 182.255 32.5899 181.776 32.6958C180.838 32.7925 180.525 31.6382 180.014 31.064C179.337 30.2868 178.441 29.732 177.444 29.4723C176.447 29.2125 175.394 29.26 174.424 29.6084C173.223 30.0534 172.236 30.9373 171.661 32.0818C171.158 33.2247 170.962 34.479 171.092 35.7208C171.092 35.8686 170.842 36.3349 170.694 36.0392C169.625 33.924 170.626 31.1208 172.366 29.6652C173.341 28.8362 174.547 28.3263 175.821 28.2043C177.095 28.0823 178.376 28.354 179.491 28.9829C179.987 29.2713 180.442 29.6251 180.844 30.0348C181.052 30.2605 181.242 30.5019 181.412 30.7569C181.503 30.8934 181.771 31.5075 181.896 31.553C182.12 31.5133 182.34 31.4485 182.55 31.3596C182.834 31.28 183.118 31.2118 183.42 31.1606C184.092 31.0351 184.778 30.9969 185.461 31.0469C188.241 31.2004 190.106 33.2417 190.686 35.88C191.266 38.5183 190.157 41.3897 187.673 42.5156C188.963 46.6493 185.398 50.6465 181.361 51.3175C179.36 51.6413 177.311 51.181 175.641 50.0324C174.191 49.0488 172.44 47.2406 172.434 45.3813C172.423 44.9833 173.031 44.6137 173.27 45.006Z" fill="#E0E0E0"/>
<path d="M158.275 40.6503C159.737 39.7178 161.545 39.2686 163.16 38.6716L165.315 37.8926C166.06 37.5835 166.83 37.34 167.618 37.1648C167.987 37.1022 167.873 37.631 167.669 37.7334C166.909 38.1567 166.114 38.5125 165.292 38.7967C164.536 39.0923 163.774 39.3653 163.018 39.6666L160.828 40.4627C160.031 40.7984 159.191 41.0242 158.332 41.1336C158.071 41.1677 158.128 40.747 158.275 40.6503Z" fill="#E0E0E0"/>
<path d="M159.237 45.3296C160.914 44.8918 162.773 45.0169 164.496 44.9544L166.77 44.8748C167.572 44.8009 168.379 44.8009 169.181 44.8748C169.551 44.9259 169.284 45.3922 169.051 45.4434C168.196 45.615 167.329 45.7102 166.458 45.7277C165.647 45.7732 164.833 45.813 164.018 45.8471C163.245 45.8812 162.472 45.9096 161.693 45.9324C160.83 46.0055 159.962 45.9615 159.111 45.8016C158.884 45.7618 159.066 45.3751 159.237 45.3296Z" fill="#E0E0E0"/>
<path d="M160.8 42.6118C161.08 42.4694 161.376 42.3606 161.681 42.2877C162.028 42.1797 162.364 42.083 162.716 42.0034C163.319 41.8612 163.927 41.7362 164.536 41.6054C165.144 41.4746 165.747 41.3552 166.361 41.2472C167.078 41.0622 167.815 40.961 168.556 40.9458C168.903 40.9458 168.669 41.5144 168.476 41.594C167.888 41.7897 167.285 41.9398 166.674 42.0432L164.792 42.4526C164.172 42.5834 163.552 42.7255 162.932 42.8677C162.642 42.9302 162.364 43.0041 162.062 43.061C161.646 43.1685 161.218 43.222 160.789 43.2202C160.493 43.1804 160.629 42.7198 160.8 42.6118Z" fill="#E0E0E0"/>
</svg>
