<svg width="304" height="272" viewBox="0 0 304 272" fill="none" xmlns="http://www.w3.org/2000/svg">
<path d="M159.739 220.865L89.6548 196.818L0.610352 214.14L73.7201 239.973L159.739 220.865Z" fill="#DBDBDB"/>
<path d="M159.739 220.865L89.6353 196.883C89.8216 196.883 0.590889 214.301 0.635848 214.301V213.993L73.7263 239.889C73.5015 239.953 159.791 220.833 159.714 220.865H159.739ZM159.739 220.865L73.7134 240.056C73.7134 240.056 0.571622 214.288 0.552353 214.294L0 214.095L0.578044 213.986C0.578044 213.986 89.6546 196.748 89.661 196.741C89.6674 196.735 159.714 220.865 159.739 220.865Z" fill="#DBDBDB"/>
<path d="M76.5075 233.268C72.1978 231.418 67.7533 229.697 63.2895 227.995C58.8257 226.293 54.2977 224.655 49.7569 223.03C45.216 221.405 40.6045 219.818 35.9416 218.328L28.9345 216.074C26.5388 215.368 24.2138 214.603 21.7988 213.961C23.9376 214.899 26.1598 215.759 28.3436 216.658L35.0103 219.228C39.4613 220.942 44.0021 222.574 48.5494 224.192C53.0967 225.811 57.6953 227.404 62.3647 228.894C67.034 230.384 71.6969 231.893 76.5075 233.268Z" fill="#C7C7C7"/>
<path d="M64.927 223.492C59.8094 221.121 54.5745 219.011 49.2427 217.172C43.7963 215.245 38.2599 213.453 32.3574 211.995C37.4722 214.369 42.705 216.481 48.0353 218.321C53.5138 220.216 59.0245 222.027 64.927 223.492Z" fill="#C7C7C7"/>
<path d="M97.6192 229.374C93.3096 227.525 88.8715 225.803 84.4077 224.101C79.9439 222.399 75.4159 220.762 70.8686 219.137C66.3213 217.512 61.7227 215.925 57.0534 214.435L50.0462 212.162C47.6698 211.455 45.3319 210.704 42.917 210.029C45.0558 210.967 47.278 211.828 49.4553 212.727L56.1285 215.296C60.5794 217.011 65.1203 218.636 69.6676 220.254C74.2148 221.873 78.8135 223.466 83.4828 224.956C88.1521 226.446 92.815 227.981 97.6192 229.374Z" fill="#C7C7C7"/>
<path d="M100.322 224.623C92.9877 221.412 85.2868 218.554 77.4961 215.773C69.7054 212.992 61.754 210.378 53.4688 208.065C60.8035 211.277 68.5043 214.141 76.2951 216.916C84.0858 219.691 92.05 222.311 100.322 224.623Z" fill="#C7C7C7"/>
<path d="M91.1569 215.708C86.9525 213.65 82.6237 211.857 78.1958 210.338C73.5561 208.668 68.8258 207.261 64.0273 206.125C68.2331 208.178 72.5617 209.969 76.9884 211.488C81.6292 213.156 86.3594 214.565 91.1569 215.708Z" fill="#C7C7C7"/>
<path d="M288.836 231.899L191.589 206.202L97.7471 244.481L194.505 271.091L288.836 231.899Z" fill="#EBEBEB"/>
<path d="M288.836 231.899C288.836 231.899 191.403 206.253 191.603 206.253L97.831 244.629V244.327C97.831 244.327 194.743 271.039 194.518 271.02L288.874 231.899H288.836ZM288.836 231.899C288.836 231.899 194.525 271.167 194.512 271.18C194.499 271.193 97.7218 244.622 97.7089 244.635L97.2529 244.507L97.6897 244.333C97.6897 244.333 191.603 206.125 191.603 206.118C191.603 206.112 288.823 231.905 288.855 231.899H288.836Z" fill="#DBDBDB"/>
<path d="M195.873 263.293C189.541 261.244 183.118 259.337 176.689 257.449C170.26 255.56 163.779 253.743 157.299 251.938C150.818 250.133 144.293 248.399 137.729 246.729L127.883 244.231C124.575 243.441 121.287 242.612 117.953 241.867C121.113 242.901 124.324 243.858 127.51 244.854L137.144 247.712C143.567 249.639 150.054 251.418 156.534 253.216C163.015 255.014 169.547 256.761 176.104 258.425C182.662 260.088 189.226 261.771 195.873 263.293Z" fill="#DBDBDB"/>
<path d="M170.947 249.665C164.017 247.173 156.849 245.066 149.63 243.056C142.411 241.046 135.082 239.202 127.542 237.731C134.472 240.223 141.672 242.33 148.859 244.334C156.046 246.338 163.413 248.181 170.947 249.665Z" fill="#DBDBDB"/>
<path d="M205.463 252.387C199.926 250.557 194.306 248.868 188.674 247.198C183.041 245.528 177.363 243.935 171.679 242.348C165.995 240.762 160.272 239.246 154.505 237.801L145.86 235.63C142.944 234.95 140.079 234.23 137.125 233.588C139.887 234.519 142.7 235.367 145.475 236.253L153.908 238.784C159.534 240.467 165.218 242.047 170.902 243.627C176.586 245.207 182.309 246.729 188.076 248.174C193.844 249.619 199.605 251.083 205.463 252.387Z" fill="#DBDBDB"/>
<path d="M209.984 246.858C204.846 245.143 199.676 243.569 194.46 242.022C189.245 240.474 183.998 238.984 178.731 237.526C173.464 236.068 168.172 234.655 162.828 233.319L154.813 231.302C152.109 230.66 149.437 230.017 146.714 229.439C149.283 230.313 151.852 231.103 154.421 231.931L162.225 234.282C167.427 235.849 172.687 237.32 177.954 238.778C183.221 240.236 188.519 241.643 193.863 242.979C199.207 244.314 204.557 245.67 209.984 246.858Z" fill="#DBDBDB"/>
<path d="M234.216 246.749C227.883 244.7 221.461 242.793 215.032 240.904C208.602 239.016 202.122 237.198 195.641 235.394C189.161 233.589 182.635 231.855 176.071 230.185L166.225 227.686C162.918 226.896 159.629 226.068 156.296 225.316C159.456 226.357 162.667 227.314 165.846 228.309L175.481 231.168C181.903 233.094 188.39 234.873 194.871 236.672C201.351 238.47 207.877 240.211 214.441 241.881C221.005 243.55 227.569 245.227 234.216 246.749Z" fill="#DBDBDB"/>
<path d="M235.02 240.197C229.419 238.348 223.729 236.639 218.032 234.956C212.335 233.274 206.586 231.655 200.838 230.049C195.09 228.444 189.277 226.915 183.465 225.444L174.717 223.248C171.769 222.561 168.853 221.828 165.886 221.18C168.68 222.117 171.518 222.972 174.338 223.871L182.874 226.44C188.564 228.142 194.313 229.741 200.067 231.34C205.822 232.94 211.628 234.481 217.441 235.946C223.253 237.41 229.098 238.881 235.02 240.197Z" fill="#DBDBDB"/>
<path d="M253.389 238.476C247.05 236.427 240.634 234.519 234.204 232.631C227.775 230.743 221.295 228.925 214.814 227.12C208.334 225.315 201.808 223.581 195.244 221.911L185.398 219.413C182.084 218.623 178.802 217.794 175.469 217.043C178.629 218.083 181.84 219.04 185.019 220.036L194.653 222.894C201.076 224.821 207.563 226.6 214.044 228.398C220.524 230.197 227.05 231.937 233.614 233.607C240.178 235.277 246.735 236.953 253.389 238.476Z" fill="#DBDBDB"/>
<path d="M231.108 225.58C223.735 222.966 216.131 220.738 208.462 218.605C200.793 216.473 193.047 214.514 185.058 212.908C192.424 215.529 200.035 217.757 207.698 219.883C215.36 222.009 223.131 223.968 231.108 225.58Z" fill="#DBDBDB"/>
<path d="M199.817 136.695H12.2354V161.262H199.817V136.695Z" fill="#C7C7C7"/>
<path d="M49.4556 136.695H31.9473V161.262H49.4556V136.695Z" fill="#DBDBDB"/>
<path d="M78.3963 136.695H71.8965V161.262H78.3963V136.695Z" fill="#DBDBDB"/>
<path d="M178.912 136.695H161.403V161.262H178.912V136.695Z" fill="#DBDBDB"/>
<path d="M274.659 170.789L192.904 0L170.745 10.6073L252.5 181.396L274.659 170.789Z" fill="#C7C7C7"/>
<path d="M209.125 33.8891L201.493 17.9463L179.334 28.5535L186.966 44.4964L209.125 33.8891Z" fill="#DBDBDB"/>
<path d="M221.737 60.2342L218.905 54.3193L196.746 64.9266L199.578 70.8414L221.737 60.2342Z" fill="#DBDBDB"/>
<path d="M265.543 151.765L257.911 135.822L235.752 146.43L243.384 162.372L265.543 151.765Z" fill="#DBDBDB"/>
<path d="M184.788 120.812H24.6631V136.695H184.788V120.812Z" fill="#DBDBDB"/>
<path d="M101.305 124.056H39.7178V133.587H101.305V124.056Z" fill="#EBEBEB"/>
<path d="M184.422 60.0342H40.6494V93.3167H184.422V60.0342Z" fill="#C7C7C7"/>
<path d="M169.181 60.0342H155.783V93.3167H169.181V60.0342Z" fill="#DBDBDB"/>
<path d="M146.984 60.0342H141.788V93.3167H146.984V60.0342Z" fill="#DBDBDB"/>
<path d="M204.319 161.256H18.6963V181.397H204.319V161.256Z" fill="#A6A6A6"/>
<path d="M184.64 161.256H167.337V181.397H184.64V161.256Z" fill="#C7C7C7"/>
<path d="M74.2598 161.256H56.957V181.397H74.2598V161.256Z" fill="#C7C7C7"/>
<path d="M92.8147 161.256H86.1094V181.397H92.8147V161.256Z" fill="#C7C7C7"/>
<path d="M115.255 93.3164H12.4854V120.812H115.255V93.3164Z" fill="#A6A6A6"/>
<path d="M210.253 93.3164H115.255V120.812H210.253V93.3164Z" fill="#A6A6A6"/>
<path d="M115.255 96.168H12.4854V117.954H115.255V96.168Z" fill="white"/>
<path d="M115.255 117.961C115.114 117.819 12.1898 118.372 12.3439 117.961V96.1684V96.0078H12.5045C12.5045 96.0078 115.306 96.117 115.326 96.1106C115.345 96.1041 115.261 117.903 115.274 117.948L115.255 117.961ZM115.255 117.961L115.171 96.1684C115.486 96.3289 12.4082 96.2776 12.4595 96.3289L12.6201 96.1684V117.961C11.6952 117.582 115.467 118.076 115.249 117.961H115.255Z" fill="#263238"/>
<path d="M21.4004 100.651C32.1649 100.501 42.9336 100.397 53.7066 100.337L68.3119 100.24L100.618 100.337C111.383 100.388 104.472 100.504 115.23 100.651C104.459 100.805 111.376 100.915 100.618 100.972L68.3119 101.069L53.7066 100.972C42.9507 100.917 32.182 100.81 21.4004 100.651Z" fill="#DBDBDB"/>
<path d="M21.4004 104.929C32.1649 104.775 42.9336 104.668 53.7066 104.608L68.3119 104.512L100.618 104.608C111.383 104.666 104.472 104.775 115.23 104.929C104.459 105.083 111.376 105.193 100.618 105.25L68.3119 105.34L53.7066 105.244C42.9507 105.193 32.182 105.088 21.4004 104.929Z" fill="#DBDBDB"/>
<path d="M21.4004 109.2C32.1649 109.055 42.9336 108.95 53.7066 108.885L68.3119 108.789L100.618 108.885C111.383 108.937 104.472 109.052 115.23 109.2C104.459 109.354 111.376 109.463 100.618 109.521L68.3119 109.618L53.7066 109.521C42.9507 109.466 32.182 109.359 21.4004 109.2Z" fill="#DBDBDB"/>
<path d="M21.4004 113.477C32.1649 113.323 42.9336 113.218 53.7066 113.162L68.3119 113.06L100.618 113.156C111.383 113.214 104.472 113.323 115.23 113.477C104.459 113.631 111.376 113.74 100.618 113.798L68.3119 113.888L53.7323 113.766C42.9593 113.732 32.182 113.635 21.4004 113.477Z" fill="#DBDBDB"/>
<path d="M149.675 93.3164H136.303V120.812H149.675V93.3164Z" fill="#EBEBEB"/>
<path d="M205.34 93.3164H196.349V120.812H205.34V93.3164Z" fill="#EBEBEB"/>
<path d="M84.2143 60.0596L175.353 60.0596V30.3032L84.2143 30.3032V60.0596Z" fill="#DBDBDB"/>
<path d="M15.0166 60.0596L84.2148 60.0596V30.3032L15.0166 30.3032V60.0596Z" fill="#DBDBDB"/>
<path d="M84.2143 56.9697L175.353 56.9697V33.392L84.2143 33.392V56.9697Z" fill="white"/>
<path d="M84.2149 33.3927L175.488 33.2578C175.488 33.3542 175.488 56.8548 175.488 56.9705V57.131H175.327C175.327 57.131 84.125 57.0283 84.125 57.0347C84.125 57.0411 84.2085 33.4569 84.1892 33.3927H84.2149ZM84.2149 33.3927L84.2791 56.9705C83.8874 56.7906 175.437 56.8741 175.353 56.8099L175.193 56.9705C175.257 57.0732 175.013 32.7504 175.353 33.534L84.2149 33.3927Z" fill="#263238"/>
<path d="M169.457 52.1087C162.353 52.2285 155.25 52.312 148.146 52.3591L126.836 52.4362L105.538 52.372C98.4346 52.3292 91.3311 52.2457 84.2275 52.1215C91.3311 52.0016 98.4346 51.9181 105.538 51.871L126.849 51.7939L148.159 51.871C155.254 51.9181 162.353 51.9973 169.457 52.1087Z" fill="#DBDBDB"/>
<path d="M169.457 47.4965C162.353 47.6121 155.25 47.6956 148.146 47.747L126.836 47.8241L105.538 47.747C98.4346 47.7042 91.3311 47.6207 84.2275 47.4965C91.3311 47.3766 98.4346 47.2931 105.538 47.246L126.849 47.1689L148.159 47.246C155.254 47.2931 162.353 47.3766 169.457 47.4965Z" fill="#DBDBDB"/>
<path d="M169.457 42.8721C162.353 42.9877 155.25 43.069 148.146 43.1161L126.836 43.1932L105.538 43.1161C98.4346 43.069 91.3311 42.9855 84.2275 42.8656C91.3311 42.7458 98.4346 42.6601 105.538 42.6087L126.849 42.5381L148.159 42.6152C155.254 42.658 162.353 42.7436 169.457 42.8721Z" fill="#DBDBDB"/>
<path d="M169.457 38.242C162.353 38.3619 155.25 38.4454 148.146 38.4925L126.836 38.5696L105.538 38.4925C98.4346 38.454 91.3311 38.3705 84.2275 38.242C91.3311 38.1264 98.4346 38.0429 105.538 37.9915L126.849 37.9209L148.159 37.9915C155.254 38.0386 162.353 38.1221 169.457 38.242Z" fill="#DBDBDB"/>
<path d="M38.9927 30.3037H26.0381V60.0601H38.9927V30.3037Z" fill="#C7C7C7"/>
<path d="M11.9648 181.398C96.1923 181.006 190.67 181 274.898 181.398C190.67 181.796 96.1923 181.79 11.9648 181.398Z" fill="#263238"/>
<path d="M289.536 218.482L144.158 191.475L3.88574 231.706L148.532 259.677L289.536 218.482Z" fill="white"/>
<path d="M289.536 218.456C289.536 218.456 144.023 191.545 144.183 191.551L3.93069 231.86V231.552C3.93069 231.552 148.679 259.613 148.519 259.6L289.549 218.494L289.536 218.456ZM289.536 218.456L148.532 259.76C148.532 259.76 3.86647 231.86 3.86004 231.86L3.21777 231.738L3.86004 231.552L144.177 191.391C144.177 191.391 289.51 218.488 289.536 218.456Z" fill="#263238"/>
<path d="M150.573 251.482C141.1 249.33 131.504 247.32 121.89 245.335C112.275 243.351 102.622 241.443 92.904 239.555C83.1864 237.667 73.4624 235.836 63.655 234.076L48.9341 231.449C43.9886 230.627 39.0753 229.754 34.0977 228.964C38.8183 230.056 43.6161 231.058 48.3753 232.111L62.7686 235.11C72.4027 237.114 82.0368 239.009 91.7607 240.891C101.485 242.773 111.202 244.61 121.01 246.369C130.817 248.129 140.625 249.883 150.573 251.482Z" fill="#DBDBDB"/>
<path d="M113.31 237.159C102.969 234.513 92.2366 232.329 81.44 230.216C70.6435 228.103 59.6928 226.17 48.4209 224.609C58.7872 227.236 69.4938 229.446 80.2904 231.559C91.087 233.672 102.044 235.599 113.31 237.159Z" fill="#DBDBDB"/>
<path d="M164.903 240.017C156.624 238.09 148.204 236.318 139.803 234.564C131.402 232.811 122.898 231.134 114.401 229.471C105.904 227.807 97.3489 226.208 88.7103 224.686L75.7814 222.406C71.4332 221.693 67.1172 220.935 62.7305 220.261C66.8603 221.237 71.08 222.13 75.2226 223.061L87.8304 225.72C96.2377 227.486 104.735 229.15 113.232 230.813C121.729 232.477 130.285 234.07 138.923 235.592C147.562 237.114 156.149 238.649 164.903 240.017Z" fill="#DBDBDB"/>
<path d="M171.693 234.204C164.05 232.406 156.278 230.749 148.487 229.117C140.697 227.486 132.842 225.906 124.974 224.39C117.106 222.874 109.18 221.372 101.21 219.971L89.225 217.871C85.1915 217.229 81.1902 216.522 77.1182 215.944C80.9333 216.856 84.8254 217.685 88.679 218.558L100.285 221.025C108.063 222.669 115.931 224.236 123.798 225.752C131.666 227.268 139.592 228.764 147.562 230.171C155.533 231.577 163.549 232.958 171.693 234.204Z" fill="#DBDBDB"/>
<path d="M207.884 234.096C198.417 231.938 188.821 229.934 179.206 227.949C169.592 225.965 159.938 224.057 150.221 222.169C140.503 220.28 130.779 218.456 120.952 216.684L106.232 214.057C101.286 213.228 96.3727 212.355 91.3887 211.571C96.1158 212.663 100.914 213.665 105.666 214.712L120.066 217.718C129.668 219.715 139.334 221.61 149.058 223.498C158.782 225.387 168.5 227.217 178.307 228.97C188.115 230.724 197.941 232.496 207.884 234.096Z" fill="#DBDBDB"/>
<path d="M209.086 227.21C200.736 225.284 192.213 223.472 183.691 221.7C175.168 219.927 166.587 218.225 158 216.562C149.413 214.898 140.748 213.267 132.033 211.719L118.956 209.407C114.55 208.687 110.189 207.923 105.751 207.242C109.932 208.225 114.178 209.124 118.391 210.068L131.146 212.753C139.656 214.545 148.256 216.228 156.837 217.891C165.418 219.555 174.089 221.192 182.804 222.734C191.52 224.275 200.242 225.817 209.086 227.21Z" fill="#DBDBDB"/>
<path d="M236.562 225.399C227.095 223.247 217.499 221.237 207.884 219.252C198.27 217.268 188.616 215.36 178.899 213.472C169.181 211.584 159.457 209.753 149.65 207.993L134.929 205.366C129.983 204.538 125.07 203.664 120.086 202.881C124.813 203.973 129.611 204.975 134.364 206.028L148.763 209.027C158.397 211.025 168.031 212.92 177.755 214.808C187.479 216.696 197.197 218.527 207.004 220.28C216.812 222.033 226.6 223.8 236.562 225.399Z" fill="#DBDBDB"/>
<path d="M203.24 211.841C192.218 209.092 180.844 206.754 169.392 204.512C157.94 202.271 146.328 200.216 134.395 198.526C145.416 201.275 156.784 203.62 168.242 205.855C179.7 208.09 191.313 210.151 203.24 211.841Z" fill="#DBDBDB"/>
<path d="M124.164 211.193C135.231 211.193 158.063 212.477 176.831 210.159C196.619 207.712 221.462 195.618 230.647 192.984C243.055 189.426 231.565 96.3869 218.835 92.7323C179.22 81.3577 124.987 89.4696 106.855 103.953C88.7239 118.436 100.625 211.167 124.164 211.193Z" fill="#C95F50"/>
<path d="M87.7351 175.425C81.2032 181.205 78.6662 194.828 80.3297 198.482C83.1814 204.757 94.2413 211.854 105.141 214.269C111.274 215.631 145.019 205.811 151.211 202.426C168.224 193.119 161.256 180.923 153.574 179.946C147.62 179.195 138.731 180.794 125.167 183.158C115.841 184.789 107.292 183.203 105.256 182.567C100.311 181.006 104.087 188.649 104.087 188.649L116.689 179.497L114.396 166.439C114.396 166.439 95.2625 168.764 87.7351 175.425Z" fill="#C95F50"/>
<path d="M124.165 211.192C132.604 208.623 141.101 206.054 149.098 202.284C156.439 198.848 164.384 191.654 157.89 183.555C153.208 177.177 128.089 184.968 120.099 184.384C115.647 184.228 111.211 183.764 106.823 182.996C113.451 183.215 120.054 183.677 126.573 182.219C134.223 180.87 154.101 175.084 159.65 181.615C163.035 185.623 163.998 191.249 160.896 195.745C155.495 203.453 145.713 205.829 137.209 208.334C132.893 209.451 128.558 210.447 124.171 211.179L124.165 211.192Z" fill="#263238"/>
<path d="M83.5861 151.41C75.9239 156.478 69.2828 166.876 70.5609 174.025C71.839 181.173 85.1982 189.838 96.0012 194.488C99.2126 195.875 140.318 193.017 147.293 190.403C166.413 183.209 161.885 170.011 155.546 164.885C151.789 161.847 135.97 164.551 121.474 165.027C111.506 165.354 102.848 162.458 100.825 161.475C95.8985 159.118 98.7116 167.641 98.7116 167.641L113.201 159.965L112.739 146.009C112.739 146.009 92.4366 145.559 83.5861 151.41Z" fill="#C95F50"/>
<path d="M81.3628 186.388C86.2569 189.124 91.1767 192.246 96.5075 193.935C101.421 194.519 106.437 193.89 111.37 193.639C121.993 192.772 132.751 191.847 143.233 190.068C148.308 189.23 153.01 186.875 156.72 183.312C157.532 182.451 158.132 181.413 158.474 180.28C158.925 179.105 159.243 177.884 159.424 176.639C160.234 171.783 157.767 166.362 153.002 164.628C150.555 163.902 147.825 163.825 145.243 163.78C139.88 163.787 134.521 164.064 129.186 164.609C134.483 163.535 139.848 162.835 145.243 162.515C148.352 162.444 151.563 162.252 154.562 163.382C159.649 165.636 162.443 171.532 161.627 176.921C161.349 179.044 160.749 181.112 159.848 183.055C158.744 185.123 156.971 186.427 155.198 187.743C152.91 189.382 150.396 190.68 147.735 191.597C143.772 192.882 139.675 193.209 135.609 193.755C127.581 194.706 119.524 195.348 111.44 195.682C106.36 195.772 101.164 196.17 96.1543 195.258C90.7078 193.196 86.0385 189.734 81.3242 186.433L81.3628 186.388Z" fill="#263238"/>
<path d="M78.5953 117.164C70.2907 121.101 64.5553 139.849 64.8057 147.1C65.0562 154.351 83.8683 169.721 100.876 171.153C108.146 171.763 132.675 171.59 139.797 169.47C159.888 163.491 159.104 149.56 153.548 143.574C150.26 140.041 132.636 141.332 118.223 139.72C108.313 138.635 100.137 134.518 98.313 133.298C93.7657 130.272 95.3457 139.078 95.3457 139.078L110.76 133.522L112.276 119.643C112.276 119.643 88.1972 112.623 78.5953 117.164Z" fill="#C95F50"/>
<path d="M75.2236 160.325C82.7254 164.82 90.8308 168.931 99.5978 169.959C113.554 171.359 142.033 171.173 152.373 160.967C155.103 158.077 157.036 154.005 156.073 150.016C155.013 145.308 150.292 141.891 145.552 141.487C140.318 141.121 134.942 141.172 129.663 140.844C119.084 140.202 107.922 139.29 98.4931 133.972C95.3222 132.365 92.245 130.578 89.2765 128.622C92.3658 130.369 95.5772 131.878 98.795 133.362C101.959 134.909 105.303 136.056 108.75 136.779C119.129 139.001 129.804 138.828 140.382 138.982C144.017 139.04 147.961 138.905 151.301 140.677C156.606 143.131 160.087 149.47 158.475 155.308C156.028 164.942 145.629 168.892 136.843 170.665C126.278 172.759 115.436 172.977 104.73 172.059C101.165 171.699 97.549 171.333 94.1128 170.241C87.3392 167.938 80.9662 164.592 75.2236 160.325Z" fill="#263238"/>
<path d="M212.155 86.7143C216.619 88.3456 304 75.7314 304 75.7314V203.993L211.198 200.326L212.155 86.7143Z" fill="#C95F50"/>
<path d="M145.096 40.2396C145.096 40.2396 151.815 18.9033 136.895 15.4993C121.975 12.0953 118.789 34.2408 118.789 34.2408L145.096 40.2396Z" fill="#FFC727"/>
<path d="M111.461 181.379V181.417L97.2604 198.078L90.7093 196.62L85.1279 175.425L118.976 33.3672L145.309 39.3724L111.461 181.379Z" fill="#FFC727"/>
<path d="M115.571 38.1578L146.293 45.1602L147.683 39.0609L116.961 32.0585L115.571 38.1578Z" fill="#FFC727"/>
<path opacity="0.2" d="M115.571 38.1578L146.293 45.1602L147.683 39.0609L116.961 32.0585L115.571 38.1578Z" fill="black"/>
<path d="M114.03 44.897L144.752 51.8994L146.142 45.8001L115.42 38.7977L114.03 44.897Z" fill="#FFC727"/>
<path opacity="0.2" d="M114.03 44.897L144.752 51.8994L146.142 45.8001L115.42 38.7977L114.03 44.897Z" fill="black"/>
<path d="M144.763 51.8907L134.846 49.6299L130.845 92.7198L134.544 93.3428L144.763 51.8907Z" fill="#FFC727"/>
<path opacity="0.2" d="M144.763 51.8907L134.846 49.6299L130.845 92.7198L134.544 93.3428L144.763 51.8907Z" fill="black"/>
<path d="M91.6006 196.774L92.2814 199.382C92.3327 199.585 92.439 199.771 92.5886 199.918C92.7382 200.065 92.9254 200.168 93.1297 200.216C93.3339 200.263 93.5474 200.254 93.7467 200.189C93.946 200.123 94.1234 200.004 94.2596 199.844L96.0323 197.783L91.6006 196.774Z" fill="#FFC727"/>
<path opacity="0.5" d="M91.6006 196.774L92.2814 199.382C92.3327 199.585 92.439 199.771 92.5886 199.918C92.7382 200.065 92.9254 200.168 93.1297 200.216C93.3339 200.263 93.5474 200.254 93.7467 200.189C93.946 200.123 94.1234 200.004 94.2596 199.844L96.0323 197.783L91.6006 196.774Z" fill="black"/>
<path opacity="0.2" d="M86.4512 175.656C94.463 176.618 102.346 178.452 109.958 181.128C101.946 180.171 94.0628 178.336 86.4512 175.656Z" fill="black"/>
<path d="M108.063 79.6758C108.063 79.6758 97.6901 80.0547 90.7215 82.0393C83.8941 83.9662 67.4777 89.5668 64.6453 94.57C61.8129 99.5733 58.0299 114.66 61.7101 119.137C64.7095 122.791 88.6855 139.51 100.779 139.446C113.124 139.375 117.125 131.321 114.196 121.218C111.993 113.62 93.9778 105.977 93.9778 105.977L102.225 112.541L101.094 109.272L108.063 79.6758Z" fill="#C95F50"/>
<path d="M87.9664 102.052C97.6005 106.194 111.48 112.739 115.43 123.144C116.978 126.998 116.714 131.693 114.216 135.116C109.926 141.179 104.062 141.198 97.517 139.464C91.8136 137.948 86.4378 135.405 81.2932 132.605C77.8744 130.736 74.5617 128.68 71.3701 126.445C74.787 128.295 78.2424 130.068 81.7492 131.705C88.4674 134.711 101.756 140.954 108.68 137.595C111.737 135.81 114.216 132.701 114.499 129.079C115.346 116.317 97.5876 107.35 87.9535 102.052H87.9664Z" fill="#263238"/>
<path d="M92.835 102.052C96.4766 103.227 100.118 105.803 101.563 109.444C98.7503 106.965 95.5261 104.717 92.835 102.052Z" fill="#263238"/>
<path d="M220.242 93.4966C220.242 93.4966 203.671 78.2298 185.611 69.9316C161.108 58.6791 148.121 53.5345 137.787 65.3073C120.414 85.1085 97.0993 91.6083 99.8161 99.4119C102.032 105.777 107.748 111.615 117.074 112.437C130.465 113.606 143.407 103.24 151.988 95.3399C151.988 95.3399 179.226 125.366 199.105 113.24C211.578 105.635 220.242 93.4966 220.242 93.4966Z" fill="#C95F50"/>
<path d="M111.486 86.7139C107.851 89.4756 103.779 91.8071 101.209 95.5322C100.75 96.1724 100.47 96.9244 100.4 97.7095C100.497 98.5081 100.714 99.2876 101.042 100.022C102.892 104.003 106.087 107.204 110.066 109.058C110.854 109.422 111.66 109.746 112.481 110.028C113.31 110.285 114.164 110.459 115.005 110.671L117.575 110.998H120.208C121.533 110.935 122.854 110.798 124.164 110.587L126.791 110.08C128.065 109.739 129.314 109.309 130.529 108.795C140.549 104.363 149.155 97.2921 157.537 90.1693C149.817 98.9941 140.003 107.986 128.846 112.109C122.424 114.036 115.172 114.396 109.019 111.229C104.597 109.035 101.148 105.277 99.3405 100.683C97.8825 97.2086 99.3854 94.8322 101.993 92.5906C104.909 90.1372 108.223 88.448 111.486 86.7139Z" fill="#263238"/>
<path d="M151.988 95.3401C152.862 106.464 155.713 118.102 163.453 126.426C166.463 129.366 169.683 132.083 173.087 134.557C178.813 138.778 184.821 142.602 191.07 146.002C185.505 144.382 180.189 142.005 175.27 138.937C170.275 135.916 165.69 132.264 161.629 128.07C153.812 119.239 151.224 106.824 151.943 95.3145L151.988 95.3401Z" fill="#263238"/>
</svg>
