<svg width="20" height="19" viewBox="0 0 20 19" fill="none" xmlns="http://www.w3.org/2000/svg">
<path d="M19.5998 8.89997L11.8373 1.02498C11.4998 0.687476 10.9748 0.687476 10.6373 1.02498C10.2998 1.36248 10.2998 1.88748 10.6373 2.22498L16.9373 8.63748H0.999805C0.549805 8.63748 0.174805 9.01248 0.174805 9.46247C0.174805 9.91248 0.549805 10.325 0.999805 10.325H17.0123L10.6373 16.8125C10.2998 17.15 10.2998 17.675 10.6373 18.0125C10.7873 18.1625 11.0123 18.2375 11.2373 18.2375C11.4623 18.2375 11.6873 18.1625 11.8373 17.975L19.5998 10.1C19.9373 9.76248 19.9373 9.23748 19.5998 8.89997Z" fill="#111928"/>
</svg>
